<svg width="81" height="81" viewBox="0 0 81 81" fill="none" xmlns="http://www.w3.org/2000/svg">
<g clip-path="url(#clip0)">
<path d="M54.4655 0H26.5345C19.4971 0 12.7479 2.79559 7.77177 7.77177C2.79559 12.7479 0 19.4971 0 26.5345V54.4655C0 61.5029 2.79559 68.252 7.77177 73.2282C12.7479 78.2044 19.4971 81 26.5345 81H54.4655C61.5029 81 68.252 78.2044 73.2282 73.2282C78.2044 68.252 81 61.5029 81 54.4655V26.5345C81 19.4971 78.2044 12.7479 73.2282 7.77177C68.252 2.79559 61.5029 0 54.4655 0V0ZM40.5657 68.5789C35.009 68.5789 29.5771 66.9311 24.9568 63.844C20.3365 60.7568 16.7355 56.3689 14.609 51.2352C12.4825 46.1014 11.9262 40.4524 13.0102 35.0024C14.0943 29.5525 16.7701 24.5463 20.6993 20.6171C24.6285 16.6879 29.6346 14.0121 35.0846 12.9281C40.5345 11.844 46.1836 12.4004 51.3173 14.5268C56.4511 16.6533 60.839 20.2544 63.9262 24.8746C67.0133 29.4949 68.6611 34.9268 68.6611 40.4835C68.6632 44.1737 67.938 47.8281 66.5268 51.2377C65.1157 54.6474 63.0463 57.7455 60.4369 60.3548C57.8276 62.9641 54.7296 65.0335 51.3199 66.4447C47.9102 67.8558 44.2559 68.581 40.5657 68.5789Z" fill="#4A2EF4"/>
<path d="M40.5986 28.3091C43.2846 28.3091 45.4619 26.1317 45.4619 23.4458C45.4619 20.7599 43.2846 18.5825 40.5986 18.5825C37.9127 18.5825 35.7354 20.7599 35.7354 23.4458C35.7354 26.1317 37.9127 28.3091 40.5986 28.3091Z" fill="#F6C343"/>
<path d="M37.674 52.2636C37.0475 52.0341 36.456 51.7189 35.916 51.3271C35.367 50.9236 34.8799 50.442 34.4701 49.8977C34.2967 49.6839 34.1375 49.4589 33.9937 49.2241C33.9115 49.0762 33.8458 48.9284 33.7801 48.7805C33.7002 48.6854 33.6439 48.5728 33.6157 48.4519H54.7283C54.9384 47.6164 55.0758 46.7644 55.1391 45.9052C55.2191 44.7684 55.1585 43.6261 54.9584 42.5042C54.7621 41.3754 54.4368 40.2728 53.989 39.2182C53.5354 38.1544 52.9443 37.1546 52.231 36.2444C51.0926 34.7279 49.6625 33.4543 48.0249 32.4983C46.4474 31.5641 44.6988 30.9552 42.8823 30.7075C41.0115 30.4702 39.1121 30.6099 37.2961 31.1182C35.3015 31.6805 33.4369 32.6295 31.8085 33.9113C30.1806 35.1292 28.812 36.6597 27.7831 38.4131C26.8355 40.0287 26.2157 41.8153 25.9593 43.6707C25.7077 45.4983 25.8194 47.3576 26.288 49.1419C26.7792 50.9767 27.6278 52.6964 28.7853 54.2024C29.4863 55.1144 30.2914 55.9415 31.1841 56.6669C32.9548 58.0757 35.0313 59.0493 37.2468 59.5093C38.3665 59.7278 39.5078 59.816 40.6478 59.7722L41.6336 52.4443C40.9779 52.6027 40.3025 52.6636 39.6291 52.6251C38.9638 52.5963 38.3057 52.4746 37.674 52.2636V52.2636ZM34.1744 41.7484C34.3715 41.4856 34.5851 41.2391 34.8152 40.9762C35.0382 40.7286 35.274 40.4928 35.5216 40.2697C35.7681 40.0397 35.9981 39.859 36.2117 39.6947C37.0542 39.0314 38.0124 38.53 39.0377 38.216C39.9478 37.9447 40.9025 37.8553 41.8472 37.9531C42.755 38.065 43.6317 38.3553 44.4267 38.8075C45.2381 39.2887 45.9516 39.9186 46.5298 40.6641C46.7269 40.9434 46.9241 41.2227 47.0884 41.502C47.2644 41.7897 47.4025 42.099 47.4991 42.4221L33.7143 42.5207C33.8405 42.248 33.9947 41.9892 34.1744 41.7484V41.7484Z" fill="#4A2EF4"/>
</g>
<defs>
<clipPath id="clip0">
<rect width="81" height="81" fill="white"/>
</clipPath>
</defs>
</svg>
