<svg width="325" height="77" viewBox="0 0 325 77" fill="none" xmlns="http://www.w3.org/2000/svg">
<g clip-path="url(#clip0)">
<path d="M299.07 40.8686H324.465C324.724 39.8662 324.894 38.8426 324.971 37.8102C325.053 36.4535 324.979 35.0919 324.751 33.7518C324.512 32.4141 324.118 31.1084 323.577 29.8613C323.023 28.5956 322.316 27.4018 321.472 26.3065C320.092 24.4936 318.367 22.9683 316.396 21.8175C314.473 20.6858 312.338 19.9565 310.122 19.6741C307.906 19.3917 305.655 19.5622 303.507 20.1752C301.107 20.8457 298.863 21.9818 296.906 23.5182C294.946 24.9756 293.298 26.8068 292.057 28.9051C290.915 30.8409 290.168 32.9813 289.856 35.2043C289.559 37.4261 289.708 39.6845 290.295 41.8484C290.882 44.0124 291.895 46.0388 293.275 47.8102C294.114 48.8928 295.079 49.8729 296.15 50.7299C297.206 51.5763 298.361 52.292 299.59 52.8613C300.825 53.432 302.122 53.8582 303.456 54.1314C304.8 54.4015 306.172 54.5117 307.542 54.4598L308.591 46.7153C298.761 45.5985 299.07 40.8686 299.07 40.8686ZM299.737 32.8394C299.972 32.5255 300.229 32.2189 300.507 31.9124C300.779 31.6114 301.068 31.3263 301.373 31.0584C301.666 30.7956 301.945 30.5693 302.194 30.3795C303.205 29.5813 304.357 28.9796 305.591 28.6058C306.681 28.2825 307.825 28.1758 308.958 28.2919C310.049 28.4105 311.104 28.7562 312.053 29.3065C313.036 29.8782 313.896 30.6372 314.584 31.5401C314.828 31.8594 315.055 32.1908 315.266 32.5328C315.473 32.8768 315.639 33.2444 315.757 33.6277L299.172 33.7591C299.322 33.4331 299.512 33.1267 299.737 32.8467V32.8394Z" fill="#4A2EF4"/>
<path d="M137.31 41.0802C137.325 42.8363 136.973 44.5761 136.276 46.1897C135.616 47.7402 134.659 49.1483 133.459 50.3357C132.243 51.5188 130.812 52.4601 129.242 53.1094C127.619 53.7975 125.871 54.1454 124.107 54.1313C122.501 54.1386 120.907 53.8516 119.405 53.2846C117.899 52.7177 116.514 51.876 115.319 50.8029C114.141 51.8767 112.77 52.7188 111.277 53.2846C109.771 53.8548 108.172 54.1419 106.561 54.1313C104.796 54.1498 103.047 53.8018 101.426 53.1094C99.8715 52.448 98.4558 51.5022 97.2521 50.3211C96.0522 49.1337 95.0955 47.7256 94.4353 46.1751C93.7446 44.56 93.395 42.8208 93.4083 41.0656V19.2335H102.211V41.0802C102.206 41.657 102.321 42.2286 102.548 42.7591C102.988 43.8002 103.82 44.6283 104.866 45.0656C105.399 45.2921 105.974 45.4064 106.553 45.4014C107.14 45.4057 107.721 45.2915 108.262 45.0656C108.788 44.8464 109.268 44.5321 109.678 44.1386C110.087 43.7407 110.412 43.2648 110.633 42.7394C110.853 42.2139 110.965 41.6497 110.962 41.0802V19.2335H119.706V41.0802C119.702 41.6584 119.822 42.2307 120.058 42.7591C120.29 43.2721 120.613 43.7394 121.011 44.1386C121.41 44.5329 121.88 44.8475 122.398 45.0656C122.93 45.2929 123.505 45.4073 124.085 45.4014C124.669 45.4057 125.248 45.2915 125.787 45.0656C126.309 44.8492 126.785 44.5344 127.188 44.1386C127.586 43.7394 127.909 43.2721 128.141 42.7591C128.377 42.2307 128.497 41.6584 128.493 41.0802V19.2335H137.31V41.0802Z" fill="#4A2EF4"/>
<path d="M239.617 32.27C239.6 30.5145 239.95 28.7747 240.644 27.1606C241.306 25.611 242.262 24.2033 243.46 23.0146C244.664 21.8301 246.083 20.884 247.641 20.2262C249.265 19.5417 251.013 19.194 252.776 19.2043C254.382 19.2006 255.975 19.4875 257.478 20.051C258.982 20.6208 260.367 21.4622 261.564 22.5328C262.744 21.4615 264.114 20.6197 265.606 20.051C267.113 19.4849 268.711 19.1979 270.322 19.2043C272.086 19.1913 273.834 19.5392 275.457 20.2262C277.008 20.8897 278.421 21.8353 279.624 23.0146C280.822 24.2033 281.778 25.611 282.44 27.1606C283.131 28.7757 283.48 30.5149 283.467 32.27V54.1094H274.665V32.27C274.67 31.6909 274.555 31.117 274.327 30.5839C274.106 30.0722 273.79 29.6066 273.396 29.2116C273 28.8148 272.528 28.4998 272.009 28.2846C271.477 28.055 270.903 27.9382 270.322 27.9416C269.735 27.9419 269.153 28.0611 268.613 28.2919C268.086 28.5085 267.606 28.8231 267.197 29.2189C266.786 29.6156 266.461 30.0912 266.24 30.6169C266.019 31.1427 265.908 31.7076 265.914 32.2773V54.1167H257.155V32.27C257.159 31.6895 257.039 31.1148 256.803 30.5839C256.574 30.0712 256.251 29.6058 255.85 29.2116C255.455 28.8166 254.986 28.5018 254.471 28.2846C253.935 28.0557 253.359 27.9389 252.776 27.9416C252.191 27.9403 251.613 28.057 251.074 28.2846C250.55 28.4979 250.074 28.8131 249.673 29.2116C249.277 29.6095 248.954 30.0741 248.72 30.5839C248.484 31.1148 248.364 31.6895 248.368 32.27V54.1094H239.617V32.27Z" fill="#4A2EF4"/>
<path d="M209.71 54.1094C207.653 54.1261 205.615 53.7185 203.725 52.9124C200.025 51.3431 197.079 48.4112 195.502 44.7299C194.691 42.8485 194.279 40.8208 194.291 38.7737V28.5547H190.015V19.8759H194.291V6.16785H203.05V19.8759H216.371V28.5839H203.05V38.8029C203.043 39.6876 203.218 40.5644 203.563 41.3795C203.895 42.1623 204.375 42.8738 204.979 43.4744C205.59 44.0806 206.312 44.5639 207.106 44.8978C207.927 45.2557 208.814 45.4373 209.71 45.4306H216.371V54.1387L209.71 54.1094Z" fill="#4A2EF4"/>
<path d="M233.308 10.489C233.315 11.2695 233.157 12.0427 232.846 12.7591C232.237 14.1585 231.107 15.2681 229.692 15.854C228.612 16.3144 227.418 16.4415 226.264 16.219C225.111 15.9964 224.051 15.4345 223.222 14.6058C222.69 14.0753 222.264 13.4485 221.968 12.7591C221.658 12.0445 221.498 11.2745 221.498 10.4963C221.498 9.71815 221.658 8.94815 221.968 8.23355C222.261 7.53835 222.687 6.90628 223.222 6.37225C224.051 5.54359 225.111 4.98163 226.264 4.75909C227.418 4.53656 228.612 4.66371 229.692 5.12408C230.393 5.42024 231.032 5.84348 231.577 6.37225C232.113 6.9081 232.544 7.53948 232.846 8.23355C233.154 8.94598 233.311 9.71365 233.308 10.489V10.489ZM231.797 54.1095H222.943V19.8029H231.797V54.1095Z" fill="#4A2EF4"/>
<path d="M160.651 16.3212C163.888 16.3212 166.512 13.7101 166.512 10.4891C166.512 7.26811 163.888 4.65698 160.651 4.65698C157.415 4.65698 154.791 7.26811 154.791 10.4891C154.791 13.7101 157.415 16.3212 160.651 16.3212Z" fill="#F6C343"/>
<path d="M157.116 44.9926C156.366 44.716 155.657 44.3377 155.011 43.8686C154.347 43.3916 153.758 42.8183 153.265 42.1678C153.059 41.9035 152.868 41.6281 152.693 41.343C152.594 41.1745 152.508 40.9988 152.436 40.8175C152.337 40.7091 152.271 40.5749 152.245 40.4306H177.655C178.602 36.7657 178.289 32.8911 176.767 29.4233C176.216 28.1601 175.511 26.9688 174.669 25.8759C173.287 24.0605 171.56 22.5328 169.586 21.3795C167.661 20.2527 165.526 19.5261 163.311 19.2438C161.096 18.9615 158.846 19.1294 156.698 19.7372C154.3 20.4138 152.057 21.5493 150.096 23.0802C148.136 24.5376 146.488 26.3689 145.247 28.4671C144.104 30.4022 143.356 32.5429 143.047 34.7664C142.741 36.9611 142.878 39.1944 143.45 41.3357C144.03 43.5392 145.053 45.6027 146.458 47.4014C148.961 50.6795 152.582 52.9351 156.639 53.7445C157.982 54.0218 159.355 54.1321 160.725 54.0729L161.921 45.3138C161.126 45.5038 160.308 45.5751 159.493 45.5255C158.678 45.4693 157.876 45.2896 157.116 44.9926V44.9926ZM152.905 32.4087C153.147 32.0859 153.407 31.7764 153.683 31.4817C153.962 31.18 154.248 30.8953 154.541 30.6277C154.842 30.3649 155.113 30.1386 155.363 29.9488C156.376 29.1524 157.53 28.5531 158.766 28.1824C159.859 27.8535 161.006 27.7468 162.141 27.8686C163.236 27.9885 164.293 28.3367 165.243 28.8905C166.226 29.4574 167.084 30.2144 167.767 31.1167C168.016 31.4325 168.244 31.7641 168.449 32.1094C168.661 32.4537 168.826 32.8243 168.94 33.2116L152.355 33.3357C152.5 33.0054 152.684 32.694 152.905 32.4087V32.4087Z" fill="#4A2EF4"/>
<path d="M45.6185 0H22.2408C16.3422 0 10.6851 2.33169 6.51418 6.48213C2.34322 10.6326 0 16.2618 0 22.1314V45.4161C0 51.2857 2.34322 56.9149 6.51418 61.0653C10.6851 65.2158 16.3422 67.5475 22.2408 67.5475H45.6185C48.5389 67.5475 51.4306 66.975 54.1286 65.8627C56.8266 64.7504 59.2779 63.1201 61.3426 61.0649C63.4072 59.0097 65.0448 56.5699 66.1617 53.8848C67.2786 51.1998 67.853 48.3221 67.852 45.4161V22.1314C67.853 19.2254 67.2786 16.3477 66.1617 13.6626C65.0448 10.9776 63.4072 8.53776 61.3426 6.48258C59.2779 4.4274 56.8266 2.79709 54.1286 1.68479C51.4306 0.572497 48.5389 -1.58158e-07 45.6185 0V0ZM33.882 57.2044C29.2249 57.2044 24.6725 55.8302 20.8003 53.2556C16.9281 50.681 13.9101 47.0216 12.1279 42.7403C10.3457 38.4589 9.8794 33.7477 10.7879 29.2026C11.6965 24.6575 13.9391 20.4826 17.2321 17.2057C20.5252 13.9289 24.7207 11.6974 29.2883 10.7933C33.8559 9.88921 38.5903 10.3532 42.8928 12.1266C47.1954 13.9 50.8729 16.9032 53.4602 20.7564C56.0475 24.6095 57.4285 29.1396 57.4285 33.7737C57.4285 39.9778 54.9558 45.9287 50.5526 50.3211C46.1495 54.7135 40.1754 57.1889 33.9407 57.2044H33.882Z" fill="#4A2EF4"/>
<path d="M34.0286 23.6131C36.2811 23.6131 38.1071 21.7961 38.1071 19.5547C38.1071 17.3133 36.2811 15.4963 34.0286 15.4963C31.7762 15.4963 29.9502 17.3133 29.9502 19.5547C29.9502 21.7961 31.7762 23.6131 34.0286 23.6131Z" fill="#F6C343"/>
<path d="M31.5714 43.6204C31.0484 43.4289 30.5547 43.166 30.1043 42.8394C29.6429 42.5062 29.2327 42.1079 28.8867 41.6569C28.7473 41.4672 28.6152 41.2774 28.4905 41.0803C28.4207 40.9632 28.3594 40.8412 28.3072 40.7153C28.2405 40.6381 28.195 40.5451 28.1751 40.4453H45.8606C46.0425 39.7465 46.1628 39.0334 46.2201 38.3139C46.2794 37.3671 46.2277 36.4166 46.066 35.4818C45.8968 34.5509 45.6212 33.6423 45.2445 32.7737C44.8605 31.8938 44.3677 31.065 43.7774 30.3066C42.8169 29.0392 41.6125 27.9748 40.2344 27.1752C38.9111 26.4084 37.4472 25.912 35.9286 25.7153C34.3642 25.5136 32.775 25.6278 31.256 26.0511C29.5846 26.5205 28.022 27.3116 26.6567 28.3796C25.2935 29.3956 24.1465 30.6709 23.2824 32.1314C22.4892 33.4784 21.9661 34.9657 21.742 36.511C21.4908 38.5388 21.763 40.5968 22.5331 42.4908C23.3032 44.3848 24.5457 46.0523 26.1432 47.3358C26.8787 47.9197 27.6845 48.4101 28.5419 48.7956C29.4017 49.1931 30.3052 49.4895 31.234 49.6788C32.1701 49.8676 33.1257 49.9436 34.0801 49.9051L34.909 43.7883C34.358 43.9263 33.7888 43.978 33.2219 43.9416C32.6587 43.917 32.1024 43.8087 31.5714 43.6204V43.6204ZM28.6373 34.8613C28.806 34.6496 28.982 34.4307 29.1801 34.219C29.3694 34.0087 29.5702 33.8088 29.7816 33.6204C29.987 33.438 30.1777 33.2774 30.3464 33.146C31.0533 32.591 31.8599 32.1748 32.7231 31.9197C33.4825 31.6895 34.2811 31.615 35.0704 31.7007C35.8353 31.7896 36.5727 32.0384 37.2343 32.4307C37.9179 32.829 38.5161 33.3572 38.9948 33.9854C39.1708 34.2117 39.3249 34.4453 39.4716 34.6715C39.6146 34.9151 39.7279 35.1749 39.809 35.4453L28.2558 35.5329C28.3564 35.2951 28.4844 35.0697 28.6373 34.8613V34.8613Z" fill="#4A2EF4"/>
<path d="M318.039 17.1241V14.0073H316.953V13.2043H320.122V14.0073H319.036V17.1241H318.039Z" fill="#4A2EF4"/>
<path d="M324.12 17.1241V14.6788L323.144 17.1241H322.572L321.596 14.6788V17.1241H320.694V13.2043H321.853L322.843 15.7664L323.841 13.2043H324.993V17.1241H324.12Z" fill="#4A2EF4"/>
<path d="M97.3401 75.4379C97.0659 75.4591 96.7903 75.4227 96.5312 75.3309C96.2721 75.2391 96.0353 75.094 95.8363 74.9051C95.4836 74.5023 95.3021 73.9788 95.3302 73.4452V69.5036H94.2959V68.5766H95.3302V66.9124L96.4965 66.562V68.5766H98.3744L98.301 69.5036H96.4965V73.3868C96.4815 73.544 96.4984 73.7025 96.5463 73.853C96.5942 74.0035 96.672 74.1429 96.7752 74.2628C97.0543 74.4663 97.3992 74.5599 97.7435 74.5255C98.0209 74.5194 98.2956 74.4701 98.5578 74.3795V75.2627C98.1657 75.3933 97.7532 75.4527 97.3401 75.4379V75.4379Z" fill="#4A2EF4"/>
<path d="M102.372 75.4379C101.965 75.4426 101.561 75.3656 101.184 75.2117C100.838 75.0687 100.537 74.837 100.311 74.5401C100.087 74.2059 99.9742 73.8102 99.9882 73.4087C99.9788 73.1276 100.028 72.8475 100.133 72.5862C100.238 72.3249 100.396 72.088 100.597 71.8905C101.164 71.4453 101.881 71.2337 102.6 71.2993H104.962V70.8905C104.974 70.5885 104.922 70.2873 104.808 70.0073C104.752 69.8944 104.672 69.7944 104.575 69.7139C104.478 69.6335 104.365 69.5742 104.243 69.5401C103.849 69.4289 103.441 69.3796 103.032 69.3941C102.634 69.3943 102.237 69.4285 101.844 69.4963C101.48 69.5561 101.122 69.6464 100.773 69.7664V68.8029C101.122 68.6724 101.483 68.5794 101.851 68.5255C102.292 68.4501 102.739 68.4135 103.186 68.416C103.953 68.3607 104.717 68.5667 105.35 69C105.611 69.2377 105.812 69.532 105.939 69.8599C106.067 70.1878 106.116 70.5405 106.084 70.8905V75.27H105.094L105.006 74.5401C104.704 74.8436 104.338 75.0756 103.935 75.219C103.431 75.382 102.902 75.4561 102.372 75.4379V75.4379ZM102.673 74.489C103.125 74.4974 103.573 74.4077 103.986 74.2263C104.359 74.0537 104.691 73.805 104.962 73.4963V72.1898H102.629C102.224 72.1533 101.819 72.2592 101.485 72.489C101.364 72.6068 101.27 72.7496 101.211 72.9072C101.151 73.0648 101.127 73.2335 101.14 73.4014C101.123 73.5674 101.153 73.7347 101.227 73.8844C101.301 74.0341 101.416 74.1601 101.558 74.2482C101.903 74.4208 102.287 74.5037 102.673 74.489V74.489Z" fill="#4A2EF4"/>
<path d="M108.358 75.2993V65.7153H109.531V71.5547L112.7 68.5767H114.057L111.285 71.2555L114.219 75.3212H112.986L110.544 71.8759L109.531 72.8175V75.3066L108.358 75.2993Z" fill="#4A2EF4"/>
<path d="M118.473 75.4379C117.489 75.5162 116.513 75.204 115.759 74.5693C115.434 74.2087 115.186 73.7857 115.031 73.3263C114.875 72.8669 114.816 72.3807 114.857 71.8978C114.805 70.9827 115.084 70.0793 115.642 69.3503C115.954 69.0176 116.338 68.7604 116.765 68.5984C117.192 68.4365 117.651 68.3741 118.106 68.416C118.679 68.3917 119.248 68.5175 119.757 68.781C120.174 69.0051 120.512 69.3517 120.725 69.7737C120.949 70.2274 121.06 70.7282 121.048 71.2335V72.4963H116.038C116.052 72.9211 116.168 73.3363 116.375 73.708C116.573 74.0102 116.872 74.2327 117.219 74.3357C117.694 74.4799 118.189 74.5465 118.686 74.5328C119.344 74.5372 119.996 74.4157 120.608 74.1751V75.0875C120.287 75.2179 119.952 75.3133 119.61 75.3722C119.234 75.4273 118.853 75.4493 118.473 75.4379V75.4379ZM116.038 71.6277H120.014V71.0729C120.028 70.8428 119.997 70.6121 119.921 70.3941C119.846 70.1761 119.728 69.9751 119.574 69.8029C119.378 69.6358 119.15 69.5096 118.905 69.4319C118.659 69.3541 118.4 69.3264 118.143 69.3503C117.841 69.3127 117.535 69.3445 117.248 69.4432C116.96 69.5419 116.699 69.7049 116.485 69.9197C116.15 70.424 115.993 71.0247 116.038 71.6277V71.6277Z" fill="#4A2EF4"/>
<path d="M128.867 75.4379C128.46 75.444 128.056 75.367 127.679 75.2116C127.332 75.0706 127.031 74.8384 126.806 74.5401C126.576 74.2082 126.461 73.8114 126.476 73.4087C126.466 73.1268 126.516 72.846 126.622 72.5845C126.728 72.3229 126.888 72.0865 127.092 71.8905C127.659 71.4453 128.376 71.2336 129.095 71.2992H131.442V70.8904C131.453 70.5892 131.403 70.2889 131.295 70.0072C131.239 69.8948 131.159 69.7953 131.062 69.7149C130.965 69.6345 130.852 69.575 130.731 69.5401C130.335 69.4284 129.924 69.3791 129.513 69.3941C129.115 69.3942 128.717 69.4284 128.325 69.4963C127.961 69.557 127.603 69.6473 127.254 69.7664V68.8029C127.603 68.6742 127.964 68.5813 128.332 68.5255C128.775 68.4504 129.224 68.4138 129.674 68.416C130.441 68.3613 131.204 68.5672 131.838 68.9999C132.097 69.2384 132.298 69.5327 132.426 69.8604C132.553 70.1882 132.603 70.5405 132.572 70.8904V75.27H131.589L131.501 74.5401C131.2 74.8435 130.834 75.0756 130.43 75.2189C129.926 75.382 129.397 75.4561 128.867 75.4379V75.4379ZM129.161 74.489C129.615 74.4982 130.066 74.4085 130.481 74.2262C130.854 74.0561 131.184 73.807 131.449 73.4963V72.1897H129.124C128.719 72.1533 128.314 72.2592 127.98 72.489C127.859 72.6068 127.765 72.7495 127.706 72.9072C127.646 73.0648 127.622 73.2335 127.635 73.4014C127.618 73.5665 127.648 73.7331 127.72 73.8826C127.793 74.032 127.905 74.1586 128.046 74.2481C128.391 74.4199 128.775 74.5027 129.161 74.489V74.489Z" fill="#4A2EF4"/>
<path d="M141.939 75.438C141.49 75.4483 141.043 75.3791 140.619 75.2336C140.229 75.0927 139.874 74.8713 139.577 74.584L139.496 75.3139H138.491V65.7153H139.665V69.0584C140.332 68.6144 141.122 68.3898 141.924 68.4161C142.337 68.3917 142.75 68.4517 143.139 68.5923C143.527 68.7329 143.883 68.9511 144.184 69.2336C144.791 69.9722 145.083 70.9181 144.998 71.8686C145.08 72.8391 144.789 73.8044 144.184 74.5693C143.892 74.8639 143.542 75.0937 143.155 75.2434C142.768 75.3931 142.354 75.4594 141.939 75.438V75.438ZM141.638 74.5037C141.952 74.535 142.268 74.4918 142.561 74.3776C142.855 74.2633 143.117 74.0814 143.325 73.8467C143.699 73.2569 143.874 72.564 143.824 71.8686C143.894 71.1755 143.703 70.4811 143.289 69.9197C143.064 69.714 142.798 69.5571 142.509 69.4591C142.22 69.3611 141.913 69.324 141.609 69.3504C141.234 69.3467 140.862 69.4085 140.509 69.5329C140.199 69.6415 139.913 69.8074 139.665 70.0219V73.6716C139.912 73.9368 140.215 74.1438 140.553 74.2774C140.895 74.4246 141.265 74.5016 141.638 74.5037V74.5037Z" fill="#4A2EF4"/>
<path d="M147.066 75.2992V68.5547H148.123L148.211 69.4087C148.583 69.17 148.979 68.9695 149.392 68.8102C149.824 68.6398 150.271 68.5079 150.727 68.416V69.3284C150.431 69.3878 150.14 69.4659 149.854 69.562C149.547 69.6562 149.245 69.7683 148.952 69.8978C148.694 69.9969 148.448 70.1242 148.218 70.2773V75.2992H147.066Z" fill="#4A2EF4"/>
<path d="M154.042 75.438C153.635 75.444 153.23 75.367 152.854 75.2117C152.508 75.0687 152.207 74.837 151.981 74.5402C151.751 74.2083 151.636 73.8115 151.651 73.4088C151.641 73.1269 151.691 72.8461 151.797 72.5846C151.903 72.323 152.063 72.0866 152.267 71.8905C152.834 71.4454 153.551 71.2337 154.27 71.2993H156.624V70.8905C156.635 70.5893 156.586 70.289 156.478 70.0073C156.422 69.8944 156.342 69.7944 156.245 69.714C156.148 69.6335 156.035 69.5743 155.913 69.5402C155.517 69.4284 155.106 69.3792 154.695 69.3942C153.927 69.3975 153.164 69.5231 152.436 69.7664V68.8029C152.787 68.6735 153.151 68.5805 153.522 68.5256C153.962 68.4501 154.409 68.4135 154.857 68.4161C155.636 68.3529 156.413 68.5591 157.057 69C157.316 69.2384 157.517 69.5328 157.645 69.8605C157.772 70.1882 157.822 70.5406 157.791 70.8905V75.2701H156.808L156.72 74.5402C156.419 74.8436 156.052 75.0756 155.649 75.219C155.131 75.3872 154.587 75.4613 154.042 75.438V75.438ZM154.343 74.4891C154.795 74.4974 155.243 74.4077 155.656 74.2263C156.029 74.0562 156.359 73.807 156.624 73.4964V72.1898H154.299C153.894 72.1534 153.489 72.2592 153.155 72.4891C153.034 72.6069 152.94 72.7496 152.881 72.9072C152.821 73.0649 152.797 73.2336 152.81 73.4015C152.793 73.5674 152.823 73.7347 152.897 73.8844C152.971 74.0341 153.086 74.1602 153.228 74.2482C153.573 74.4215 153.957 74.5044 154.343 74.4891V74.4891Z" fill="#4A2EF4"/>
<path d="M160.05 75.2993V65.7153H161.224V71.5547L164.393 68.5767H165.75L162.984 71.2336L165.918 75.2993H164.686L162.251 71.854L161.202 72.8175V75.3066L160.05 75.2993Z" fill="#4A2EF4"/>
<path d="M170.143 75.438C169.159 75.5163 168.183 75.2041 167.429 74.5694C167.104 74.2088 166.856 73.7858 166.701 73.3264C166.546 72.867 166.486 72.3808 166.527 71.8978C166.477 70.9841 166.752 70.0821 167.305 69.3504C167.617 69.019 168.002 68.7627 168.429 68.6008C168.856 68.439 169.314 68.3758 169.769 68.4161C170.342 68.3918 170.911 68.5176 171.42 68.7811C171.839 69.0048 172.18 69.3513 172.395 69.7738C172.619 70.2275 172.73 70.7283 172.718 71.2336V72.4964H167.701C167.712 72.9217 167.827 73.3379 168.038 73.7081C168.235 73.9865 168.523 74.1878 168.852 74.2774C169.327 74.4216 169.823 74.4882 170.319 74.4745C170.975 74.4799 171.625 74.3585 172.234 74.1168V75.0292C171.916 75.1606 171.583 75.2561 171.244 75.3139C170.881 75.3865 170.513 75.428 170.143 75.438V75.438ZM167.701 71.6278H171.669V71.073C171.685 70.8434 171.655 70.6128 171.581 70.3948C171.507 70.1767 171.389 69.9756 171.236 69.803C171.036 69.6323 170.802 69.5042 170.55 69.4264C170.297 69.3486 170.032 69.3227 169.769 69.3504C169.471 69.3128 169.167 69.3425 168.881 69.4372C168.596 69.532 168.335 69.6894 168.119 69.8979C167.793 70.4134 167.646 71.0211 167.701 71.6278V71.6278Z" fill="#4A2EF4"/>
<path d="M173.862 77.0072L174.259 74.489H175.315L174.713 77.0072H173.862Z" fill="#4A2EF4"/>
<path d="M181.029 75.2992V68.5547H182.056L182.129 69.3284C182.479 69.0516 182.867 68.8255 183.281 68.6569C183.697 68.4944 184.14 68.4127 184.587 68.416C184.995 68.3943 185.401 68.4773 185.768 68.6569C186.045 68.8123 186.264 69.0531 186.391 69.343C186.727 69.067 187.103 68.8431 187.506 68.6788C187.973 68.4968 188.472 68.4075 188.973 68.416C189.286 68.3909 189.601 68.4305 189.897 68.5322C190.194 68.634 190.466 68.7957 190.697 69.0073C191.112 69.5159 191.315 70.1643 191.262 70.8175V75.2992H190.103V70.9197C190.128 70.6984 190.108 70.4744 190.043 70.2612C189.979 70.0479 189.872 69.8498 189.729 69.6788C189.376 69.4208 188.94 69.299 188.504 69.3358C188.141 69.3352 187.78 69.3995 187.44 69.5255C187.11 69.6439 186.813 69.8391 186.575 70.0949C186.637 70.3653 186.667 70.6422 186.663 70.9197V75.2992H185.562V70.9635C185.598 70.5327 185.498 70.1017 185.276 69.7299C185.129 69.5861 184.951 69.4773 184.755 69.4116C184.559 69.3459 184.351 69.3249 184.147 69.3503C183.767 69.3507 183.393 69.4381 183.054 69.6058C182.715 69.7609 182.403 69.9678 182.129 70.219V75.3284L181.029 75.2992Z" fill="#4A2EF4"/>
<path d="M195.494 75.438C195.087 75.444 194.683 75.367 194.306 75.2117C193.96 75.0688 193.659 74.837 193.433 74.5402C193.203 74.2083 193.088 73.8115 193.103 73.4088C193.093 73.1269 193.143 72.8461 193.249 72.5846C193.355 72.323 193.515 72.0866 193.719 71.8905C194.286 71.4454 195.003 71.2337 195.722 71.2993H198.076V70.8905C198.091 70.5891 198.041 70.2879 197.93 70.0073C197.874 69.8944 197.795 69.7944 197.697 69.714C197.6 69.6335 197.487 69.5743 197.365 69.5402C196.969 69.4284 196.558 69.3792 196.147 69.3942C195.751 69.3946 195.356 69.4288 194.966 69.4964C194.602 69.5561 194.244 69.6465 193.895 69.7664V68.8029C194.244 68.6724 194.605 68.5795 194.974 68.5256C195.414 68.4501 195.861 68.4135 196.309 68.4161C197.088 68.3529 197.865 68.5591 198.509 69C198.77 69.2374 198.972 69.5316 199.099 69.8596C199.226 70.1876 199.275 70.5404 199.243 70.8905V75.2701H198.194L198.106 74.5402C197.805 74.8436 197.438 75.0756 197.035 75.219C196.538 75.3795 196.017 75.4536 195.494 75.438V75.438ZM195.795 74.4891C196.247 74.4974 196.695 74.4077 197.108 74.2263C197.481 74.0562 197.811 73.807 198.076 73.4964V72.1898H195.751C195.346 72.1534 194.941 72.2592 194.607 72.4891C194.486 72.6069 194.392 72.7496 194.333 72.9072C194.273 73.0649 194.249 73.2336 194.262 73.4015C194.245 73.5674 194.275 73.7348 194.349 73.8845C194.423 74.0342 194.538 74.1602 194.68 74.2482C195.025 74.4215 195.409 74.5044 195.795 74.4891V74.4891Z" fill="#4A2EF4"/>
<path d="M201.48 75.2993V65.7153H202.654V71.5547L205.823 68.5767H207.18L204.407 71.2555L207.341 75.3212H206.109L203.666 71.8759L202.654 72.8175V75.3066L201.48 75.2993Z" fill="#4A2EF4"/>
<path d="M211.596 75.438C210.611 75.5163 209.635 75.2041 208.881 74.5694C208.556 74.2088 208.308 73.7858 208.153 73.3264C207.998 72.867 207.939 72.3808 207.979 71.8978C207.929 70.9841 208.205 70.0821 208.757 69.3504C209.07 69.019 209.454 68.7627 209.881 68.6008C210.308 68.439 210.766 68.3758 211.221 68.4161C211.794 68.3918 212.363 68.5176 212.872 68.7811C213.293 69.0028 213.634 69.3499 213.847 69.7738C214.071 70.2275 214.182 70.7283 214.17 71.2336V72.4964H209.153C209.164 72.9217 209.28 73.3379 209.49 73.7081C209.684 74.014 209.984 74.2377 210.334 74.3358C210.809 74.48 211.304 74.5466 211.801 74.5329C212.456 74.5383 213.107 74.4169 213.715 74.1752V75.0876C213.397 75.219 213.065 75.3145 212.725 75.3723C212.351 75.427 211.973 75.4489 211.596 75.438V75.438ZM209.153 71.6278H213.129V71.073C213.143 70.8429 213.112 70.6122 213.036 70.3942C212.961 70.1762 212.843 69.9752 212.688 69.803C212.488 69.6316 212.255 69.503 212.002 69.4251C211.75 69.3473 211.484 69.3219 211.221 69.3504C210.92 69.3145 210.614 69.347 210.327 69.4457C210.04 69.5443 209.779 69.7064 209.564 69.9198C209.245 70.43 209.101 71.0292 209.153 71.6278V71.6278Z" fill="#4A2EF4"/>
<path d="M220.64 75.2992V69.4598H219.598L219.716 68.5328H221.814V75.2773L220.64 75.2992ZM220.53 66.978V65.9124H221.828V66.978H220.53Z" fill="#4A2EF4"/>
<path d="M226.655 75.4379C226.387 75.454 226.118 75.415 225.866 75.3233C225.613 75.2317 225.383 75.0893 225.188 74.9051C224.835 74.5023 224.654 73.9788 224.682 73.4452V69.5036H223.647V68.5766H224.682V66.9124L225.848 66.562V68.5766H227.719L227.653 69.5036H225.848V73.3868C225.823 73.5424 225.829 73.7014 225.867 73.8543C225.905 74.0073 225.973 74.1512 226.068 74.2773C226.347 74.4809 226.692 74.5745 227.036 74.5401C227.314 74.5328 227.588 74.4836 227.851 74.3941V75.2773C227.464 75.3998 227.06 75.4541 226.655 75.4379Z" fill="#4A2EF4"/>
<path d="M235.083 75.2992L232.941 66.1387H234.137L235.868 73.6788L237.856 67.1533V66.1387H238.81L240.952 73.6788L242.712 66.1387H243.856L241.722 75.2992H240.445L238.443 68.3285L236.338 75.2992H235.083Z" fill="#4A2EF4"/>
<path d="M248.074 75.4379C247.605 75.4805 247.133 75.4223 246.689 75.2674C246.245 75.1125 245.839 74.8645 245.499 74.5401C244.971 73.7726 244.689 72.8643 244.689 71.9343C244.689 71.0042 244.971 70.0959 245.499 69.3284C246.225 68.7403 247.131 68.4192 248.067 68.4192C249.002 68.4192 249.909 68.7403 250.634 69.3284C251.22 70.064 251.511 70.9902 251.448 71.9269C251.513 72.8662 251.229 73.7963 250.649 74.5401C250.309 74.8637 249.903 75.1112 249.459 75.2661C249.015 75.4209 248.543 75.4795 248.074 75.4379V75.4379ZM248.074 74.4452C248.388 74.478 248.704 74.4406 249.001 74.3358C249.298 74.231 249.568 74.0613 249.791 73.8394C250.12 73.2553 250.293 72.5968 250.293 71.9269C250.293 71.2571 250.12 70.5986 249.791 70.0145C249.31 69.6226 248.707 69.4084 248.085 69.4084C247.463 69.4084 246.861 69.6226 246.38 70.0145C245.99 70.5731 245.808 71.2494 245.866 71.9269C245.806 72.6036 245.985 73.2799 246.372 73.8394C246.593 74.0597 246.86 74.2285 247.155 74.3332C247.449 74.438 247.763 74.4763 248.074 74.4452V74.4452Z" fill="#4A2EF4"/>
<path d="M253.517 75.2992V68.5547H254.581L254.661 69.4087C255.034 69.1715 255.43 68.971 255.842 68.8102C256.275 68.6408 256.722 68.5089 257.177 68.416V69.3284C256.571 69.4605 255.979 69.6512 255.409 69.8978C255.152 69.9975 254.906 70.1248 254.676 70.2773V75.2992H253.517Z" fill="#4A2EF4"/>
<path d="M258.821 75.2993V65.7153H259.994V71.5547L263.163 68.5767H264.52L261.747 71.2555L264.681 75.3212H263.478L261.036 71.8759L259.994 72.8175V75.3066L258.821 75.2993Z" fill="#4A2EF4"/>
</g>
<defs>
<clipPath id="clip0">
<rect width="325" height="77" fill="white"/>
</clipPath>
</defs>
</svg>
