<svg width="79" height="17" viewBox="0 0 79 17" fill="none" xmlns="http://www.w3.org/2000/svg">
<g clip-path="url(#clip0)">
<path d="M71.8093 9.85937H77.9061C77.9685 9.61768 78.0094 9.37096 78.0284 9.12207C78.0502 8.79051 78.0324 8.45755 77.9755 8.13018C77.9183 7.80742 77.824 7.49234 77.6945 7.1912C77.5622 6.88581 77.3923 6.59813 77.1886 6.33486C76.8582 5.8958 76.4434 5.52711 75.9686 5.2504C75.5072 4.97657 74.9946 4.8001 74.4623 4.73187C73.9301 4.66363 73.3896 4.70508 72.874 4.85365C72.298 5.01534 71.7597 5.28953 71.2902 5.66039C70.8186 6.01058 70.4228 6.45257 70.1264 6.95976C69.712 7.66164 69.5178 8.4718 69.5691 9.2853C69.6204 10.0988 69.9148 10.8782 70.4141 11.5224C70.6161 11.7844 70.848 12.0219 71.1051 12.23C71.3581 12.4356 71.6358 12.6088 71.9316 12.7458C72.2281 12.8846 72.54 12.9878 72.8607 13.0532C73.1868 13.1204 73.52 13.147 73.8526 13.1326L74.1039 11.2645C71.7366 11.0033 71.8093 9.85937 71.8093 9.85937ZM71.968 7.92519C72.0259 7.84719 72.0877 7.77215 72.1532 7.70036C72.2226 7.62762 72.292 7.55819 72.3615 7.49537C72.4309 7.43255 72.5003 7.37635 72.5598 7.33006C72.8023 7.13704 73.0795 6.99226 73.3765 6.90354C73.6388 6.82494 73.9141 6.7991 74.1865 6.82751C74.4492 6.8567 74.7028 6.94121 74.9304 7.07548C75.1671 7.21145 75.374 7.3936 75.5388 7.61109C75.5973 7.68842 75.6514 7.76901 75.7008 7.85246C75.7517 7.93515 75.7917 8.02404 75.8198 8.11696L71.8523 8.14671C71.8825 8.06878 71.9213 7.99447 71.968 7.92519Z" fill="white"/>
<path d="M32.9604 9.90888C32.9629 10.3305 32.8785 10.748 32.7124 11.1355C32.5564 11.5048 32.332 11.8414 32.0511 12.1274C31.7636 12.4065 31.4274 12.6306 31.0593 12.7887C30.6695 12.9551 30.2498 13.0395 29.826 13.0366C29.4409 13.0371 29.0589 12.9677 28.6986 12.8317C28.3337 12.6955 27.9973 12.4925 27.7067 12.2332C27.4243 12.4919 27.0956 12.6949 26.7379 12.8317C26.3755 12.9683 25.9912 13.0377 25.6039 13.0366C25.1812 13.0394 24.7625 12.955 24.3739 12.7887C24.0054 12.6312 23.6691 12.407 23.3821 12.1274C23.1003 11.8421 22.8758 11.5054 22.7208 11.1355C22.5548 10.748 22.4703 10.3305 22.4728 9.90888V4.63867H24.5855V9.90888C24.5841 10.0464 24.6103 10.1828 24.6626 10.31C24.7148 10.4372 24.7921 10.5527 24.8897 10.6495C24.9843 10.7444 25.0967 10.8196 25.2204 10.871C25.3486 10.9269 25.4872 10.9551 25.627 10.9537C25.768 10.9551 25.9076 10.9269 26.037 10.871C26.1602 10.8187 26.2724 10.7435 26.3676 10.6495C26.4631 10.5541 26.5404 10.442 26.5958 10.3189C26.6493 10.19 26.6763 10.0517 26.6751 9.91219V4.63867H28.7779V9.90888C28.7775 10.049 28.8068 10.1876 28.8639 10.3156C28.9192 10.4387 28.9965 10.5508 29.092 10.6462C29.1866 10.7411 29.2989 10.8163 29.4226 10.8677C29.5509 10.9236 29.6895 10.9518 29.8293 10.9504C30.1083 10.9492 30.376 10.8402 30.5765 10.6462C30.67 10.5491 30.747 10.4374 30.8047 10.3156C30.8606 10.1873 30.8888 10.0488 30.8873 9.90888V4.63867H32.9901L32.9604 9.90888Z" fill="white"/>
<path d="M57.5328 7.78629C57.5303 7.36472 57.6147 6.94716 57.7807 6.55966C57.9367 6.19035 58.1611 5.85383 58.442 5.56778C58.7296 5.28873 59.0657 5.06463 59.4339 4.90652C59.8236 4.74012 60.2434 4.65572 60.6671 4.65855C61.0523 4.65776 61.4344 4.72723 61.7946 4.86354C62.1599 4.99895 62.4964 5.20197 62.7865 5.46197C63.07 5.20319 63.3998 5.00017 63.7585 4.86354C64.1197 4.72669 64.503 4.65721 64.8893 4.65855C65.312 4.65512 65.7308 4.73956 66.1192 4.90652C66.4871 5.06502 66.8232 5.28908 67.1111 5.56778C67.392 5.85383 67.6163 6.19035 67.7723 6.55966C67.9384 6.94716 68.0228 7.36472 68.0203 7.78629V13.0565H65.9638V7.78629C65.9652 7.64642 65.9371 7.50783 65.8811 7.37962C65.8282 7.25596 65.7518 7.14369 65.6563 7.04899C65.4602 6.85439 65.1953 6.74508 64.919 6.74481C64.7781 6.7438 64.6385 6.77194 64.509 6.82747C64.3858 6.8798 64.2737 6.95496 64.1784 7.04899C64.0829 7.14442 64.0056 7.25646 63.9503 7.37962C63.8968 7.50846 63.8698 7.64678 63.8709 7.78629V13.0565H61.7681V7.78629C61.7703 7.646 61.7409 7.50701 61.6822 7.37962C61.6268 7.25646 61.5495 7.14442 61.454 7.04899C61.2579 6.85439 60.993 6.74508 60.7167 6.74481C60.5758 6.7438 60.4362 6.77194 60.3067 6.82747C60.1824 6.87763 60.0698 6.95306 59.9761 7.04899C59.8806 7.14442 59.8033 7.25646 59.748 7.37962C59.6909 7.50758 59.6616 7.64618 59.662 7.78629V13.0565H57.5328V7.78629Z" fill="white"/>
<path d="M50.3514 13.0565C49.8581 13.0603 49.3694 12.9612 48.9165 12.7655C48.4754 12.5784 48.0746 12.3079 47.7361 11.9687C47.3988 11.63 47.1285 11.2307 46.9393 10.7917C46.7468 10.3368 46.6489 9.84742 46.6517 9.35345V6.89688H45.6234V4.79408H46.6517V1.48779H48.771V4.79408H51.9682V6.89688H48.771V9.35345C48.7688 9.56683 48.8104 9.77841 48.8933 9.97503C48.9689 10.1639 49.0813 10.3359 49.224 10.4809C49.3704 10.6234 49.5434 10.7358 49.7331 10.8115C49.9301 10.8979 50.143 10.9419 50.358 10.9405H51.9583V13.0433L50.3514 13.0565Z" fill="white"/>
<path d="M56.0185 2.52929C56.0207 2.71817 55.9823 2.90532 55.9061 3.07814C55.8348 3.24438 55.7314 3.39494 55.6019 3.52118C55.4718 3.65061 55.318 3.75386 55.1489 3.82535C54.8899 3.93643 54.6033 3.96683 54.3267 3.91257C54.0501 3.85831 53.7962 3.72191 53.5983 3.52118C53.4698 3.39408 53.3666 3.24373 53.2941 3.07814C53.22 2.90523 53.1818 2.71907 53.1818 2.53095C53.1818 2.34282 53.22 2.15666 53.2941 1.98376C53.4427 1.64006 53.7206 1.36864 54.0677 1.22819C54.4148 1.08774 54.8032 1.08955 55.1489 1.23322C55.318 1.30471 55.4718 1.40798 55.6019 1.53741C55.7322 1.66428 55.8357 1.81608 55.9061 1.98376C55.9819 2.15556 56.0202 2.34153 56.0185 2.52929V2.52929ZM55.6548 13.0565H53.5322V4.79079H55.6548V13.0565Z" fill="white"/>
<path d="M38.5745 3.93449C39.3505 3.93449 39.9797 3.30537 39.9797 2.52932C39.9797 1.75326 39.3505 1.12415 38.5745 1.12415C37.7984 1.12415 37.1693 1.75326 37.1693 2.52932C37.1693 3.30537 37.7984 3.93449 38.5745 3.93449Z" fill="#F6C343"/>
<path d="M37.7248 10.8546C37.3581 10.7195 37.0371 10.4833 36.799 10.1735C36.749 10.1108 36.7037 10.0445 36.6635 9.97509C36.6392 9.93493 36.6182 9.89291 36.6006 9.84944C36.5776 9.82172 36.5618 9.78882 36.5543 9.75357H42.6511C42.7135 9.51188 42.7545 9.26515 42.7735 9.01626C42.7934 8.6847 42.7757 8.35194 42.7206 8.02438C42.6633 7.70124 42.5678 7.38604 42.4362 7.08539C42.3056 6.77984 42.1368 6.4921 41.9337 6.22906C41.6024 5.79072 41.1878 5.42217 40.7137 5.1446C40.2514 4.87276 39.7389 4.69745 39.207 4.62926C38.6751 4.56106 38.1349 4.6014 37.619 4.74784C37.0435 4.9109 36.5055 5.18496 36.0353 5.55458C35.5636 5.90564 35.1668 6.34741 34.8681 6.85395C34.5944 7.32161 34.4147 7.83826 34.3391 8.37484C34.2495 9.07684 34.3413 9.79009 34.6058 10.4465C34.8704 11.1029 35.2988 11.6805 35.8501 12.1242C36.1031 12.3298 36.3808 12.503 36.6767 12.64C36.9731 12.7788 37.285 12.882 37.6057 12.9474C37.9318 13.0147 38.265 13.0413 38.5976 13.0268L38.8853 10.9075C38.6949 10.953 38.4989 10.9708 38.3034 10.9604C38.1063 10.9547 37.9111 10.9191 37.7248 10.8546V10.8546ZM36.7131 7.81939C36.7693 7.74334 36.8321 7.6706 36.8982 7.59455C36.9643 7.51851 37.0338 7.45238 37.1065 7.38957C37.1792 7.32675 37.2421 7.27054 37.3049 7.22425C37.5474 7.03124 37.8246 6.88647 38.1215 6.79775C38.3839 6.71914 38.6592 6.69329 38.9316 6.7217C39.1942 6.75138 39.4476 6.83586 39.6755 6.96967C39.9103 7.10679 40.1159 7.28879 40.2805 7.50529C40.3401 7.58259 40.3953 7.66318 40.4459 7.74665C40.4967 7.82934 40.5367 7.91824 40.5649 8.01115L36.5973 8.04421C36.6267 7.96489 36.6656 7.8894 36.7131 7.81939V7.81939Z" fill="white"/>
<path d="M10.9604 0H5.33966C3.92579 -4.33665e-06 2.56962 0.560746 1.56862 1.55927C0.56762 2.55779 0.00350186 3.91255 0 5.32642V10.9471C0 12.3633 0.562569 13.7214 1.56395 14.7228C2.56533 15.7242 3.9235 16.2868 5.33966 16.2868H10.9604C12.3762 16.2859 13.7339 15.723 14.7351 14.7219C15.7363 13.7207 16.2991 12.363 16.3 10.9471V5.32642C16.2956 3.91282 15.7312 2.55856 14.7304 1.56023C13.7296 0.561893 12.374 0.000867993 10.9604 0ZM8.15001 13.8038C7.03101 13.8044 5.93694 13.4732 5.00621 12.852C4.07548 12.2308 3.34988 11.3475 2.9212 10.3138C2.49253 9.28021 2.38002 8.14266 2.59793 7.04508C2.81584 5.9475 3.35436 4.9392 4.14538 4.14771C4.9364 3.35623 5.94439 2.81712 7.04184 2.59858C8.1393 2.38003 9.27691 2.49186 10.3108 2.91993C11.3447 3.348 12.2284 4.07308 12.8501 5.00345C13.4719 5.93382 13.8038 7.02769 13.8038 8.14669C13.8042 8.88943 13.6583 9.62498 13.3743 10.3113C13.0904 10.9976 12.674 11.6213 12.149 12.1466C11.6239 12.672 11.0005 13.0887 10.3144 13.3731C9.6282 13.6574 8.89275 13.8038 8.15001 13.8038Z" fill="white"/>
<path d="M8.16982 5.6967C8.71032 5.6967 9.14848 5.25854 9.14848 4.71804C9.14848 4.17754 8.71032 3.73938 8.16982 3.73938C7.62932 3.73938 7.19116 4.17754 7.19116 4.71804C7.19116 5.25854 7.62932 5.6967 8.16982 5.6967Z" fill="#F6C343"/>
<path d="M7.5813 10.5174C7.45494 10.4719 7.33579 10.4084 7.22753 10.3289C7.11621 10.2487 7.01805 10.1517 6.93657 10.0413C6.90167 9.99824 6.86963 9.95295 6.84069 9.90571C6.82085 9.87595 6.81094 9.84619 6.79441 9.81643C6.7782 9.79779 6.76785 9.7748 6.76465 9.75031H11.0099C11.0551 9.58268 11.0839 9.41104 11.0959 9.23783C11.1103 9.00906 11.0981 8.77939 11.0595 8.55344C11.0195 8.32639 10.9541 8.10457 10.8644 7.89218C10.7719 7.67876 10.653 7.47773 10.5107 7.29374C10.2804 6.98848 9.99148 6.73221 9.66095 6.53991C9.34373 6.35143 8.99176 6.22885 8.62608 6.17951C8.2507 6.13186 7.86958 6.15997 7.50526 6.26217C7.10361 6.37467 6.72827 6.56572 6.40096 6.82424C6.07336 7.06932 5.79797 7.37731 5.59091 7.73016C5.39921 8.0551 5.27338 8.41462 5.22061 8.78818C5.17112 9.16171 5.1962 9.54134 5.29438 9.90512C5.39256 10.2689 5.5619 10.6096 5.7926 10.9075C5.93367 11.091 6.09567 11.2575 6.27532 11.4035C6.63163 11.687 7.04951 11.8829 7.49534 11.9754C7.72042 12.0212 7.9503 12.039 8.17974 12.0283L8.37811 10.5537C8.24617 10.5856 8.11025 10.5979 7.97474 10.5901C7.84066 10.586 7.70801 10.5614 7.5813 10.5174ZM6.87375 8.40134C6.91493 8.34713 6.95908 8.29525 7.006 8.24594C7.05088 8.1961 7.09833 8.14865 7.14817 8.10378C7.19777 8.05749 7.24406 8.02112 7.28704 7.98805C7.45615 7.85391 7.6491 7.75296 7.85572 7.69049C8.04324 7.63497 8.24009 7.6181 8.43432 7.6409C8.61688 7.66391 8.79321 7.72231 8.95341 7.81282C9.11633 7.90888 9.25896 8.03579 9.37331 8.18643C9.41522 8.24028 9.45386 8.29659 9.48903 8.35506C9.52311 8.41364 9.55082 8.47572 9.57168 8.54021L6.79771 8.56005C6.81745 8.50464 6.84294 8.45144 6.87375 8.40134V8.40134Z" fill="white"/>
<path d="M76.362 4.12956V3.37903H76.1008V3.18396H76.8745V3.37903H76.6133V4.12956H76.362Z" fill="white"/>
<path d="M77.8234 4.12956V3.54104L77.5886 4.12956H77.4531L77.2051 3.54104V4.12956H76.9968V3.18396H77.2713L77.5126 3.80224L77.7507 3.18396H78.0284V4.12956H77.8234Z" fill="white"/>
</g>
<defs>
<clipPath id="clip0">
<rect width="78.035" height="16.3" fill="white"/>
</clipPath>
</defs>
</svg>
