<svg width="150" height="32" viewBox="0 0 150 32" fill="none" xmlns="http://www.w3.org/2000/svg">
<g clip-path="url(#clip0)">
<path d="M137.247 18.8754H148.899C149.019 18.4135 149.097 17.9419 149.133 17.4662C149.175 16.8325 149.141 16.1962 149.032 15.5705C148.926 14.9529 148.745 14.3504 148.495 13.7758C148.242 13.1921 147.917 12.6423 147.528 12.1392C146.898 11.2986 146.105 10.5937 145.196 10.0665C144.314 9.54309 143.335 9.20582 142.317 9.0754C141.3 8.94499 140.267 9.02419 139.282 9.30815C138.181 9.61718 137.152 10.1412 136.255 10.85C135.353 11.5193 134.597 12.3641 134.03 13.3335C133.504 14.2261 133.161 15.2141 133.019 16.2403C132.88 17.2649 132.947 18.307 133.216 19.3053C133.485 20.3037 133.951 21.2382 134.586 22.054C134.971 22.5562 135.414 23.0102 135.907 23.4063C136.389 23.802 136.92 24.1334 137.487 24.3921C138.625 24.9282 139.876 25.1818 141.133 25.1314L141.613 21.5611C137.108 21.0303 137.247 18.8754 137.247 18.8754ZM137.556 15.1787C137.665 15.0282 137.783 14.8847 137.91 14.749C138.037 14.61 138.169 14.4773 138.302 14.3572C138.435 14.2371 138.567 14.1297 138.681 14.0412C139.145 13.6735 139.675 13.3969 140.242 13.2261C140.744 13.0762 141.27 13.0268 141.79 13.0807C142.292 13.1365 142.777 13.298 143.212 13.5547C143.664 13.8145 144.06 14.1627 144.375 14.5784C144.488 14.7251 144.592 14.8792 144.684 15.0397C144.782 15.1977 144.858 15.3676 144.912 15.5452L137.329 15.6021C137.386 15.4406 137.465 15.2875 137.563 15.1471L137.556 15.1787Z" fill="#4A2EF4"/>
<path d="M62.9961 18.9387C62.9998 19.7437 62.8408 20.5411 62.5285 21.2831C62.23 21.9888 61.8013 22.6319 61.2646 23.1788C60.7161 23.7135 60.0734 24.142 59.3689 24.4427C58.6242 24.7612 57.8218 24.9226 57.0118 24.9166C56.2527 24.939 55.4961 24.819 54.7811 24.5627C54.0837 24.3024 53.4408 23.9146 52.8854 23.419C52.3457 23.9134 51.7175 24.3014 51.0338 24.5627C50.3411 24.8238 49.6066 24.9566 48.8664 24.9545C48.0605 24.9606 47.2622 24.7992 46.5219 24.4806C45.8171 24.1806 45.1742 23.752 44.6262 23.2167C44.0763 22.6742 43.6364 22.0304 43.3307 21.321C43.0155 20.5799 42.8564 19.7819 42.8631 18.9766V8.86584H46.8948V18.9387C46.8926 19.2053 46.9442 19.4696 47.0464 19.7159C47.1499 19.951 47.2955 20.1652 47.4761 20.3478C47.656 20.5302 47.871 20.6742 48.1081 20.7712C48.3512 20.8772 48.6138 20.931 48.879 20.9292C49.1483 20.9319 49.4153 20.8781 49.6626 20.7712C49.898 20.6712 50.1125 20.5275 50.2945 20.3478C50.4814 20.1691 50.6298 19.9541 50.7305 19.7159C50.835 19.4701 50.8887 19.2057 50.8885 18.9387V8.86584H54.9012V18.9387C54.9004 19.2064 54.9564 19.4713 55.0655 19.7159C55.1712 19.9513 55.319 20.1654 55.5015 20.3478C55.6814 20.5302 55.8964 20.6742 56.1334 20.7712C56.3765 20.8772 56.6392 20.931 56.9044 20.9292C57.4376 20.9269 57.9493 20.7186 58.3325 20.3478C58.515 20.1654 58.6628 19.9513 58.7685 19.7159C58.8776 19.4713 58.9336 19.2064 58.9328 18.9387V8.86584H62.9961V18.9387Z" fill="#4A2EF4"/>
<path d="M109.96 14.8817C109.956 14.076 110.117 13.2779 110.434 12.5373C110.731 11.8304 111.16 11.1869 111.698 10.6415C112.246 10.1055 112.889 9.6768 113.594 9.3777C114.337 9.05983 115.137 8.89849 115.945 8.90376C116.683 8.90233 117.415 9.03508 118.106 9.29554C118.803 9.55583 119.446 9.9437 120.002 10.4393C120.541 9.94491 121.169 9.55685 121.853 9.29554C122.543 9.03399 123.276 8.9012 124.014 8.90376C124.822 8.89721 125.623 9.0586 126.365 9.3777C127.068 9.68063 127.711 10.1089 128.261 10.6415C128.798 11.1883 129.226 11.8314 129.525 12.5373C129.842 13.2779 130.003 14.076 129.999 14.8817V24.9545H125.967V14.8817C125.97 14.6144 125.916 14.3495 125.809 14.1045C125.708 13.8696 125.564 13.6554 125.386 13.4725C125.204 13.2919 124.99 13.1481 124.754 13.0491C124.509 12.9423 124.244 12.8884 123.976 12.8912C123.707 12.8892 123.44 12.943 123.193 13.0491C122.957 13.1486 122.743 13.2924 122.561 13.4725C122.374 13.6512 122.226 13.8663 122.125 14.1045C122.018 14.3495 121.964 14.6144 121.967 14.8817V24.9545H117.948V14.8817C117.951 14.6144 117.897 14.3495 117.79 14.1045C117.68 13.8716 117.532 13.6582 117.354 13.4725C117.173 13.2919 116.958 13.1481 116.722 13.0491C116.477 12.9423 116.212 12.8884 115.945 12.8912C115.675 12.8892 115.409 12.943 115.161 13.0491C114.925 13.1481 114.71 13.2919 114.529 13.4725C114.347 13.6549 114.199 13.8691 114.093 14.1045C113.984 14.349 113.928 14.6139 113.929 14.8817V24.9545H109.91L109.96 14.8817Z" fill="#4A2EF4"/>
<path d="M96.2414 24.9545C95.2964 24.9626 94.3601 24.7732 93.4925 24.3984C91.783 23.6768 90.4227 22.3164 89.701 20.6069C89.3275 19.739 89.1382 18.803 89.1449 17.8581V13.1882H87.1986V9.16918H89.1639V2.84998H93.1829V9.16918H99.2999V13.1882H93.1829V17.8833C93.1786 18.2912 93.2582 18.6956 93.4167 19.0714C93.5612 19.4323 93.776 19.761 94.0486 20.0382C94.3294 20.3094 94.6598 20.5239 95.0218 20.6701C95.4006 20.8345 95.8095 20.9184 96.2224 20.9166H99.2809V24.9356L96.2414 24.9545Z" fill="#4A2EF4"/>
<path d="M107.073 4.83414C107.073 5.19481 107 5.55181 106.858 5.88313C106.717 6.19992 106.518 6.48723 106.27 6.7299C106.022 6.97578 105.731 7.173 105.411 7.31128C104.751 7.58797 104.008 7.59319 103.345 7.3258C102.681 7.05841 102.149 6.54001 101.866 5.88313C101.724 5.55267 101.651 5.19686 101.651 4.83731C101.651 4.47775 101.724 4.12194 101.866 3.79148C102.14 3.14798 102.651 2.63448 103.294 2.35701C103.972 2.07924 104.732 2.07924 105.411 2.35701C105.731 2.49529 106.022 2.6925 106.27 2.93838C106.519 3.18222 106.719 3.47191 106.858 3.79148C106.999 4.12096 107.072 4.47564 107.073 4.83414ZM106.377 24.9545H102.314V9.15647H106.377V24.9545Z" fill="#4A2EF4"/>
<path d="M73.7261 7.51988C75.2093 7.51988 76.4117 6.31747 76.4117 4.83422C76.4117 3.35097 75.2093 2.14856 73.7261 2.14856C72.2428 2.14856 71.0404 3.35097 71.0404 4.83422C71.0404 6.31747 72.2428 7.51988 73.7261 7.51988Z" fill="#F6C343"/>
<path d="M72.102 20.7712C71.7567 20.6453 71.4312 20.4708 71.1352 20.253C70.8316 20.0316 70.5613 19.7677 70.3327 19.4694C70.2442 19.3493 70.1557 19.223 70.0736 19.0903C70.0273 19.0135 69.9871 18.9332 69.9535 18.8501C69.9096 18.7971 69.8792 18.7343 69.865 18.6669H81.5176C81.8008 17.5965 81.8461 16.477 81.6504 15.3872C81.54 14.7705 81.3598 14.1685 81.1132 13.5926C80.4278 12.0421 79.2744 10.745 77.8146 9.88318C76.9311 9.36362 75.9515 9.02857 74.9349 8.89823C73.9183 8.7679 72.8858 8.845 71.8998 9.12489C70.7994 9.43201 69.7707 9.95388 68.8729 10.6604C67.9715 11.3298 67.2149 12.1745 66.6486 13.1439C66.1227 14.0365 65.779 15.0245 65.6375 16.0507C65.4982 17.0753 65.5651 18.1174 65.8342 19.1158C66.1034 20.1141 66.5693 21.0486 67.2046 21.8644C67.5851 22.3678 68.0266 22.8221 68.519 23.2167C69.0039 23.6111 69.5369 23.9424 70.1052 24.2025C71.2434 24.7386 72.4942 24.9922 73.7514 24.9418L74.2948 20.8912C73.9309 20.9783 73.5563 21.0124 73.1826 20.9923C72.8134 20.973 72.4492 20.8984 72.102 20.7712V20.7712ZM70.1683 14.9701C70.2821 14.8248 70.3958 14.6858 70.5285 14.5404C70.6613 14.3951 70.7876 14.2687 70.9203 14.1486L71.2995 13.8327C71.7637 13.4649 72.2933 13.1884 72.8603 13.0175C73.3618 12.8676 73.8879 12.8182 74.4085 12.8722C74.9106 12.928 75.3952 13.0895 75.8304 13.3461C76.2811 13.608 76.6762 13.9558 76.9931 14.3698C77.105 14.5176 77.2083 14.6716 77.3027 14.8311C77.4 14.9892 77.4764 15.1591 77.5302 15.3367L69.9472 15.3998C69.9985 15.2383 70.073 15.085 70.1683 14.9449V14.9701Z" fill="#4A2EF4"/>
<path d="M20.9481 0H10.2055C7.49884 0 4.90303 1.07522 2.98912 2.98912C1.07522 4.90303 0 7.49884 0 10.2055V20.9481C0 23.6548 1.07522 26.2506 2.98912 28.1645C4.90303 30.0784 7.49884 31.1537 10.2055 31.1537H20.9481C23.6548 31.1537 26.2506 30.0784 28.1645 28.1645C30.0784 26.2506 31.1537 23.6548 31.1537 20.9481V10.2055C31.1537 7.49884 30.0784 4.90303 28.1645 2.98912C26.2506 1.07522 23.6548 0 20.9481 0V0ZM15.6021 26.3763C13.4649 26.3763 11.3757 25.7426 9.59871 24.5552C7.8217 23.3679 6.43669 21.6802 5.61882 19.7057C4.80095 17.7312 4.58696 15.5585 5.00391 13.4624C5.42085 11.3663 6.45001 9.44085 7.96123 7.92962C9.47245 6.4184 11.3979 5.38925 13.494 4.9723C15.5901 4.55536 17.7628 4.76934 19.7373 5.58721C21.7118 6.40508 23.3995 7.79009 24.5868 9.56711C25.7742 11.3441 26.4079 13.4333 26.4079 15.5705C26.4088 16.9898 26.1298 18.3953 25.5871 19.7067C25.0443 21.0181 24.2484 22.2097 23.2448 23.2132C22.2413 24.2168 21.0497 25.0127 19.7383 25.5555C18.4269 26.0982 17.0214 26.3772 15.6021 26.3763Z" fill="#4A2EF4"/>
<path d="M15.6147 10.8879C16.6478 10.8879 17.4852 10.0505 17.4852 9.01746C17.4852 7.98442 16.6478 7.14697 15.6147 7.14697C14.5817 7.14697 13.7443 7.98442 13.7443 9.01746C13.7443 10.0505 14.5817 10.8879 15.6147 10.8879Z" fill="#F6C343"/>
<path d="M14.4899 20.1014C14.249 20.0131 14.0215 19.8919 13.8138 19.7412C13.6027 19.586 13.4153 19.4008 13.2577 19.1914C13.191 19.1092 13.1298 19.0227 13.0744 18.9324C13.0428 18.8755 13.0176 18.8186 12.9923 18.7617C12.9616 18.7252 12.9399 18.6819 12.9291 18.6354H21.0493C21.13 18.314 21.1829 17.9863 21.2072 17.6559C21.238 17.2187 21.2147 16.7793 21.1377 16.3478C21.0622 15.9136 20.9371 15.4896 20.7649 15.084C20.5904 14.6748 20.3631 14.2903 20.0887 13.9402C19.6509 13.3569 19.1009 12.8671 18.471 12.4994C17.8643 12.1401 17.1918 11.9059 16.4931 11.8106C15.7736 11.7194 15.0431 11.7731 14.3446 11.9686C13.5774 12.1849 12.8603 12.5499 12.234 13.0429C11.6079 13.5113 11.0815 14.0999 10.6858 14.7743C10.3213 15.3957 10.0829 16.0829 9.98434 16.7965C9.88755 17.4994 9.93051 18.2145 10.1107 18.9008C10.2996 19.6065 10.6261 20.2679 11.0712 20.8471C11.3409 21.1978 11.6505 21.516 11.9939 21.795C12.6749 22.3368 13.4735 22.7113 14.3256 22.8882C14.7563 22.9722 15.1952 23.0062 15.6337 22.9893L16.0129 20.1709C15.7607 20.2318 15.5009 20.2553 15.2419 20.2404C14.986 20.2294 14.7329 20.1826 14.4899 20.1014V20.1014ZM13.1439 16.0571C13.2198 15.956 13.3019 15.8612 13.3904 15.7601C13.4762 15.6649 13.5669 15.5742 13.6621 15.4884C13.7569 15.3999 13.8454 15.3304 13.9275 15.2672C14.2516 15.0121 14.6201 14.8193 15.0144 14.6985C15.3645 14.5942 15.7317 14.5598 16.095 14.5974C16.4442 14.6404 16.7813 14.7521 17.0871 14.926C17.3992 15.1111 17.6736 15.3533 17.896 15.6401C17.9718 15.7475 18.0476 15.8549 18.1108 15.9623C18.1785 16.073 18.2316 16.1919 18.2688 16.3162L12.967 16.3541C13.0155 16.2493 13.0748 16.1497 13.1439 16.0571V16.0571Z" fill="#4A2EF4"/>
<path d="M145.955 7.89273V6.45828H145.455V6.08545H146.909V6.45828H146.41V7.89273H145.955Z" fill="#4A2EF4"/>
<path d="M148.741 7.89273V6.76791L148.293 7.89273H148.034L147.585 6.76791V7.89273H147.181V6.08545H147.673L148.128 7.26714L148.583 6.08545H149.114V7.89273H148.741Z" fill="#4A2EF4"/>
</g>
<defs>
<clipPath id="clip0">
<rect width="149.146" height="31.1537" fill="white"/>
</clipPath>
</defs>
</svg>
