<svg width="165" height="165" viewBox="0 0 165 165" fill="none" xmlns="http://www.w3.org/2000/svg">
<g clip-path="url(#clip0)">
<path d="M116.375 67.7658C110.959 61.5657 101.597 58.7829 93.7845 61.6586C92.13 62.2693 85.3128 62.2693 83.6557 61.6586C75.8463 58.7882 66.4835 61.571 61.068 67.7658C54.6364 75.1263 52.6336 84.9694 54.0061 94.2497C55.7563 106.047 62.3527 114.13 74.5749 117.76C81.4001 119.788 84.0281 118.7 88.7201 118.7C93.4121 118.7 96.0427 119.788 102.868 117.76C115.103 114.13 121.687 106.047 123.437 94.2497C124.801 84.9694 122.806 75.1263 116.375 67.7658Z" fill="#E12827"/>
<path d="M71.3245 84.4357C75.141 84.4357 78.2349 81.3471 78.2349 77.5372C78.2349 73.7273 75.141 70.6388 71.3245 70.6388C67.508 70.6388 64.4142 73.7273 64.4142 77.5372C64.4142 81.3471 67.508 84.4357 71.3245 84.4357Z" fill="#E65D42"/>
<path d="M116.375 67.7658C110.959 61.5657 101.597 58.7829 93.7845 61.6586C92.1301 62.2693 85.3128 62.2693 83.6557 61.6586C81.0888 60.7385 78.3546 60.3764 75.6362 60.5965C80.0941 61.5657 80.2484 67.2002 94.2181 66.1726C107.201 65.2114 116.784 84.4517 109.401 100.293C104.812 110.128 89.159 116.767 68.5981 115.402C70.515 116.366 72.5154 117.155 74.5749 117.76C81.4001 119.788 84.0307 118.7 88.7201 118.7C93.4095 118.7 96.0427 119.788 102.868 117.76C115.103 114.13 121.687 106.047 123.437 94.2497C124.801 84.9694 122.806 75.1263 116.375 67.7658Z" fill="#C32120"/>
<path d="M88.4674 58.7006C87.18 55.4558 83.9855 53.4962 80.5064 53.1484C82.1821 54.7601 83.403 56.1329 83.9642 58.9422C82.1396 57.9173 77.2081 57.1765 74.5031 59.1015C78.1045 59.5052 80.1021 60.3097 82.1954 62.7154C82.1954 62.7154 80.7298 64.0696 80.4266 65.5645C80.2112 66.6267 80.5357 69.0748 80.5357 69.0748C82.7593 65.9257 88.0658 67.5321 88.3078 64.2395C88.3078 64.2395 93.7765 65.2831 95.8672 69.0563C96.2688 64.0802 93.8563 63.196 93.8563 63.196C96.1624 61.5365 100.477 62.7154 102.94 63.4775C101.344 61.1116 97.8116 59.1015 94.5984 59.5344C95.8885 57.1924 98.1866 55.878 100.849 55.6178C96.8221 54.2344 91.1007 54.2902 88.4674 58.7006V58.7006Z" fill="#00883E"/>
<path d="M91.114 45.6472C86.7545 49.0858 87.2253 57.4446 87.7413 61.4409C87.9204 61.5331 88.1216 61.574 88.3226 61.559C88.5235 61.544 88.7164 61.4737 88.8797 61.3559C88.8957 58.9343 89.0766 55.1637 89.9783 52.6386C91.2763 49.0008 93.3217 47.9042 93.3217 47.9042C93.3217 45.4613 91.114 45.6472 91.114 45.6472Z" fill="#007B38"/>
<path d="M-14 153.5C-14.0186 152.353 1.52588e-05 140.509 1.52588e-05 139.354C1.52588e-05 101.415 1.52588e-05 63.4745 1.52588e-05 25.5321C1.52588e-05 15.3411 -13.8494 -5.05049 -5 -9.99996C-1.54216 -11.941 20.7045 0.0173447 24.6916 0.0146894C51.2035 0.0146894 77.7136 0.0146894 104.222 0.0146894C116.058 0.0146894 127.895 -0.0463823 139.729 0.0332766C149.355 0.0970036 167.526 -22.2048 172.5 -14C174.803 -10.2029 164.989 20.5799 164.989 25.0143C164.989 62.0433 164.989 99.0722 164.989 136.101C164.989 137.923 164.989 139.747 164.968 141.568C164.951 141.585 164.93 141.598 164.908 141.606C164.885 141.614 164.861 141.617 164.838 141.615C164.814 141.614 164.791 141.607 164.77 141.596C164.748 141.584 164.73 141.569 164.715 141.55C164.364 140.429 164.59 139.277 164.561 138.14C164.557 137.472 164.342 136.822 163.947 136.282C152.765 120.646 141.578 105.01 130.387 89.376C128.6 86.8827 126.802 84.3946 125.035 81.8854C124.503 80.7755 124.413 79.5434 124.07 78.3804C122.604 73.423 120.293 68.9063 116.928 64.9871C112.202 59.48 106.169 56.4185 98.9181 55.7573C97.9475 55.6358 96.9704 55.5738 95.9922 55.5714C95.5219 55.5112 95.0666 55.3654 94.649 55.1413C93.5028 54.646 92.2697 54.3825 91.0209 54.3659C90.6273 54.3659 90.1325 54.4562 89.9277 54.026C89.7229 53.5959 90.0926 53.1949 90.3639 52.8657C91.6939 51.238 93.3137 50.0033 95.4044 49.4855C95.6916 49.4165 95.9789 49.3368 96.3832 49.2518C94.125 48.673 91.9865 48.3835 89.7761 48.7208C87.6171 48.9965 85.5845 49.8911 83.9244 51.2964C83.6025 51.5619 83.3525 51.9894 82.8312 51.9284C82.7219 51.799 82.6446 51.6458 82.6053 51.4812C82.5661 51.3166 82.566 51.1451 82.6051 50.9804C83.0014 47.5285 83.8792 44.2307 86.0629 41.4214C86.4502 40.9563 86.8631 40.513 87.2998 40.0937C87.9568 39.4219 87.9567 38.6147 87.321 37.9535C86.6321 37.2366 85.6267 37.1092 84.9777 37.7199C84.0532 38.6149 83.3234 39.6906 82.8338 40.8797C81.8203 43.2746 81.2646 45.8377 81.1954 48.4367C81.0251 48.9279 81.0943 49.4377 81.057 49.9422C81.0384 50.2077 81.057 50.5317 80.7724 50.6458C80.4878 50.76 80.2937 50.4626 80.1181 50.2794C78.3865 48.4605 76.2533 47.3586 73.8302 46.7983C73.6095 46.7152 73.3677 46.7058 73.1412 46.7718C74.0812 47.6865 74.8936 48.7235 75.5564 49.8546C76.0238 50.6774 76.3739 51.5612 76.5964 52.4807C76.7932 53.3596 76.5432 53.6331 75.7426 53.333C74.3621 52.8019 72.9311 52.624 71.4868 52.4488C69.452 52.2019 67.5396 52.6081 65.5287 53.5109C67.364 53.7419 68.9865 54.0659 70.4867 54.7961C70.8139 54.9554 71.423 54.9926 71.2022 55.6537C70.7314 55.9193 70.2367 55.8343 69.7419 55.7626C68.146 55.3643 66.5687 55.6776 65.0127 55.8847C58.6636 56.7318 53.1789 59.4057 48.814 64.1162C45.0051 68.1734 42.4942 73.0406 40.9036 78.3963C39.5347 83.0349 38.9901 87.8769 39.2943 92.7031C39.7545 100.417 41.6882 107.671 46.4334 113.975C47.3862 115.202 48.4301 116.356 49.5561 117.426C49.8913 117.756 50.277 118.051 50.4259 118.526C50.2956 118.953 50.5882 119.219 50.8116 119.506C58.4029 129.341 66.0013 139.17 73.6067 148.993C77.3678 153.852 81.1226 158.715 84.8713 163.581C85.1373 163.934 85.8342 164.362 85.0202 164.89C84.4206 165.001 83.809 165.034 83.2009 164.988C63.7217 164.988 44.2435 164.988 24.7661 164.988C20.0693 165.012 8.95883 180.023 5 177.5C-0.279851 174.194 -33.5636 174.403 -35.5 168.5C-35.9761 167.048 -13.8032 154.995 -14 153.5Z" fill="#F6C343"/>
<path d="M180.5 142.5C179.63 151.902 189.299 175.919 180.5 180C176.664 181.782 143.064 164.761 138.84 164.75C121.391 164.704 103.942 164.69 86.4911 164.708C86.0868 164.708 85.6932 164.684 85.2756 164.673C84.5015 163.213 83.3498 162.018 82.371 160.717C80.2165 157.844 77.9689 155.043 75.7692 152.22C71.9017 147.237 68.0387 142.251 64.1801 137.263C61.4085 133.678 58.6431 130.09 55.8839 126.498C54.1204 124.212 52.341 121.942 50.6121 119.632C50.4631 119.432 49.705 119.164 50.4126 118.708C50.9446 118.673 51.2637 119.047 51.6228 119.334C53.6515 120.914 55.84 122.279 58.1528 123.405C62.0043 125.091 65.9276 126.554 70.1063 127.194C72.513 127.558 74.9555 127.624 77.3784 127.39C81.0073 127.056 84.6605 127.084 88.2839 127.473C91.3693 127.802 94.4308 127.404 97.4392 126.676C102.329 125.562 106.98 123.584 111.172 120.834C116.758 117.117 120.617 112.03 122.979 105.79C124.509 101.754 125.261 97.5582 125.613 93.2593C125.879 89.8233 125.535 86.4617 125.126 83.0842C125.075 82.662 124.86 82.2185 125.24 81.8362C128.322 86.1112 131.405 90.388 134.489 94.6666C139.737 101.979 144.98 109.296 150.216 116.618C153.775 121.589 157.329 126.564 160.877 131.543C161.989 133.102 163.061 134.69 164.218 136.214C164.62 136.711 164.83 137.336 164.811 137.974C164.798 139.201 180.495 141.287 180.5 142.5Z" fill="#DCB52E"/>
<path d="M57.8895 123.524C55.1632 122.274 52.7533 120.54 50.4126 118.694C47.5054 115.935 44.9891 112.89 43.1884 109.273C40.877 104.627 39.6588 99.7142 39.1826 94.563C38.5895 88.1637 39.2066 81.9078 41.4568 75.8723C43.8853 69.3589 47.5453 63.7058 53.4874 59.8025C57.992 56.827 63.2904 55.2761 68.6913 55.3522C69.0211 55.3522 69.3695 55.2858 69.6754 55.493C69.0211 56.024 68.2684 55.6868 67.6193 55.7266C68.2346 55.9 68.8114 56.1883 69.319 56.5763C70.3643 57.3065 71.3219 58.1483 72.3699 58.8732C72.5453 58.9736 72.6974 59.11 72.8161 59.2734C72.9349 59.4368 73.0176 59.6235 73.0588 59.8211C72.8806 60.9071 72.213 61.871 72.33 63.0446C72.3652 63.776 72.4425 64.5047 72.5614 65.2273C74.9553 63.103 78.086 62.888 80.9453 61.9825C83.132 62.1794 85.3291 62.237 87.5232 62.1551C89.2016 62.6729 90.2123 63.958 91.1273 65.1609C91.0889 64.7869 91.0773 64.4107 91.0927 64.035C91.0719 63.598 91.0897 63.1599 91.1459 62.726C91.4119 61.9799 92.0503 62.1259 92.6035 62.1949C95.3286 62.5792 97.9163 63.63 100.136 65.2538C104.629 68.48 107.486 72.9037 109.398 77.9992C111.138 82.5951 111.849 87.5155 111.481 92.4148C111.031 98.4264 109.499 104.141 105.674 108.979C103.508 111.669 100.884 113.955 97.9206 115.734C92.9094 118.814 87.4514 120.736 81.7459 122.016C77.7215 122.911 73.6284 123.464 69.5105 123.67C65.6298 123.877 61.7623 124.045 57.8895 123.524Z" fill="#E12B28"/>
<path d="M57.8895 123.524C58.6875 123.094 59.4668 123.58 60.2568 123.572C64.2466 123.54 68.2045 123.572 72.181 123.208C77.9777 122.713 83.69 121.498 89.1856 119.592C95.2182 117.452 100.642 114.342 104.929 109.502C107.323 106.807 108.752 103.588 109.802 100.187C111.045 96.1606 111.523 91.9379 111.212 87.7363C110.826 82.3726 109.371 77.2903 106.536 72.6675C104.674 69.6537 102.405 67.025 99.4128 65.0786C97.298 63.6871 94.9009 62.7803 92.3934 62.4233C92.0157 62.3702 91.4704 62.179 91.3295 62.8482C90.8799 62.7659 90.9252 62.3596 90.8401 62.0516C90.5288 60.9682 90.1192 59.9433 89.2308 59.1865C88.7707 58.7935 88.8265 58.459 89.3372 58.1669C90.066 57.7414 90.8877 57.4999 91.7311 57.4632C93.8589 57.3635 95.9892 57.6 98.043 58.1642C98.4104 58.2993 98.7958 58.379 99.1867 58.4006C98.4687 57.542 97.6333 56.7885 96.7051 56.1621C96.4072 55.9577 96.0241 55.8276 95.9709 55.3868C103.062 55.2408 109.326 57.4712 114.566 62.2109C120.2 67.3038 123.386 73.8331 125.027 81.1671C125.078 81.3928 125.168 81.6132 125.24 81.8362C125.671 84.9031 126.113 87.9726 126.004 91.0819C125.719 99.2709 123.942 107.014 118.99 113.766C114.601 119.77 108.576 123.431 101.644 125.795C97.4977 127.202 93.2526 128.068 88.8398 127.815C87.1561 127.717 85.4751 127.55 83.7861 127.47C81.2485 127.356 78.7323 127.651 76.2001 127.807C71.6783 128.073 67.3454 127.178 63.1055 125.71C61.3131 125.116 59.5693 124.386 57.8895 123.524V123.524Z" fill="#C22527"/>
<path d="M95.9816 55.4001C97.4631 56.3374 98.8915 57.3358 99.9874 58.9662C98.0217 58.4802 96.2316 57.8854 94.3591 57.7606C92.4865 57.6358 90.6352 57.4951 88.9116 58.69C90.5076 59.6486 90.9145 61.2524 91.3348 62.8535C91.3348 63.7855 91.3348 64.7122 91.3348 65.854C90.2522 64.4015 89.2069 63.1536 87.7253 62.4021C86.1587 61.8126 84.6904 60.9868 83.0626 60.5434C82.4827 60.3841 82.0917 60.3044 81.9108 61.0745C81.8379 61.354 81.6878 61.6075 81.4776 61.8061C81.2674 62.0047 81.0055 62.1403 80.7219 62.1976C79.6009 62.6473 78.4443 63.0026 77.264 63.2598C75.4527 63.6926 73.6972 64.2741 72.3725 65.9151C72.0135 63.7271 71.7741 61.7197 72.9045 59.8318C72.9862 59.398 73.2075 59.0026 73.5349 58.7059C73.9951 58.2758 73.8647 57.9678 73.4737 57.5349C72.7981 56.7808 71.8778 56.3135 71.2447 55.5196C69.3988 54.2397 67.2097 54.0406 64.8185 53.5812C68.8083 51.4437 72.5986 51.9402 76.4847 53.2732C76.2672 51.9436 75.792 50.6692 75.0856 49.5213C74.394 48.3609 73.4046 47.4395 72.4869 46.4066C74.9819 46.2712 78.1365 47.8537 80.69 50.5064C80.9932 49.8001 80.6368 49.03 80.9692 48.3689C81.5518 49.1309 81.2645 49.9833 81.206 50.8011C81.0916 52.3943 81.3017 53.9583 81.4587 55.5302C81.4879 55.817 81.5464 56.2259 81.9295 56.2073C82.3125 56.1887 82.3072 55.7798 82.3151 55.4904C82.3364 54.6115 82.5599 53.7511 82.5439 52.8696C82.5439 52.5058 82.52 52.1181 82.8445 51.8393C83.4403 51.6136 83.7435 51.0428 84.217 50.6763C86.6906 48.7512 89.5367 48.1697 92.5876 48.3344C94.2258 48.4049 95.8421 48.7366 97.3754 49.3168C94.0372 49.8479 91.5396 51.2153 89.7867 54.1176C92.1141 53.9291 94.0904 54.4893 95.9816 55.4001Z" fill="#078944"/>
<path d="M82.8498 51.8287C82.7753 53.2042 82.6876 54.5769 82.637 55.9524C82.6211 56.4171 82.371 56.664 81.9774 56.6852C81.5225 56.7118 81.2379 56.4887 81.2033 55.9657C81.0783 54.1069 80.6714 52.2642 80.9852 50.3895C81.0943 49.7363 80.9852 49.046 80.9852 48.3715C81.0757 44.7019 81.8311 41.2288 84.1212 38.2495C85.2437 36.7918 85.9832 36.6325 87.1508 37.4237C88.3185 38.215 88.4356 39.4444 87.3849 40.3764C86.2559 41.3997 85.3504 42.6444 84.725 44.0328C83.5812 46.4791 82.9435 49.1306 82.8498 51.8287V51.8287Z" fill="#057C3F"/>
<path d="M71.2501 55.5089C72.314 55.9816 73.112 56.8127 73.9339 57.6013C74.3355 57.9836 74.2531 58.2386 73.9339 58.5864C73.5721 58.9767 73.253 59.4069 72.9125 59.8211C71.5825 58.4324 69.9866 57.3756 68.4093 56.3267C68.0289 56.0745 67.5954 55.9019 67.2203 55.493H69.6781L71.2501 55.5089Z" fill="#C22527"/>
<path d="M69.444 76.4061C69.5877 81.2202 65.4835 85.0889 60.8792 85.0146C59.7552 85.008 58.6436 84.7802 57.6078 84.3442C56.5721 83.9082 55.6327 83.2726 54.8434 82.4737C54.054 81.6749 53.4302 80.7285 53.0077 79.6887C52.5852 78.6489 52.3722 77.5361 52.3809 76.4141C52.4528 71.7567 56.0063 67.9092 60.9245 67.9092C65.6883 67.9092 69.5079 71.6266 69.444 76.4061Z" fill="#E55E42"/>
<path d="M80.7192 62.179C81.222 61.6905 81.7619 61.2311 81.8789 60.477C81.9375 60.084 82.1636 60.0442 82.528 60.1398C84.3766 60.631 86.1534 61.2736 87.7227 62.3968C85.8608 62.6198 83.9776 62.3755 82.105 62.4127C81.6365 62.3811 81.1722 62.3028 80.7192 62.179Z" fill="#C22527"/>
<path d="M40.1934 30V18.408H45.8994C46.8234 18.408 47.5854 18.594 48.1854 18.966C48.7854 19.326 49.2294 19.818 49.5174 20.442C49.8174 21.066 49.9674 21.768 49.9674 22.548C49.9674 23.34 49.7994 24.042 49.4634 24.654C49.1274 25.266 48.6474 25.746 48.0234 26.094C47.4114 26.43 46.6794 26.598 45.8274 26.598H43.0914V30H40.1934ZM43.0914 24.366H45.1794C45.7914 24.366 46.2474 24.198 46.5474 23.862C46.8594 23.526 47.0154 23.082 47.0154 22.53C47.0154 21.93 46.8714 21.468 46.5834 21.144C46.3074 20.808 45.8694 20.64 45.2694 20.64H43.0914V24.366ZM55.5554 30.18C53.9114 30.18 52.6994 29.802 51.9194 29.046C51.1394 28.278 50.7494 27.174 50.7494 25.734C50.7494 24.306 51.1394 23.208 51.9194 22.44C52.7114 21.672 53.9234 21.288 55.5554 21.288C57.1994 21.288 58.4114 21.672 59.1914 22.44C59.9834 23.208 60.3794 24.306 60.3794 25.734C60.3794 27.174 59.9894 28.278 59.2094 29.046C58.4294 29.802 57.2114 30.18 55.5554 30.18ZM55.5554 27.912C56.2274 27.912 56.7074 27.744 56.9954 27.408C57.2834 27.072 57.4274 26.514 57.4274 25.734C57.4274 24.954 57.2834 24.396 56.9954 24.06C56.7074 23.724 56.2274 23.556 55.5554 23.556C54.8954 23.556 54.4214 23.724 54.1334 24.06C53.8454 24.396 53.7014 24.954 53.7014 25.734C53.7014 26.514 53.8454 27.072 54.1334 27.408C54.4214 27.744 54.8954 27.912 55.5554 27.912ZM61.8496 30V21.468H64.5316L64.6216 22.224C65.0056 21.948 65.4376 21.726 65.9176 21.558C66.3976 21.378 66.9136 21.288 67.4656 21.288C68.0416 21.288 68.4916 21.378 68.8156 21.558C69.1396 21.726 69.3916 21.966 69.5716 22.278C69.9676 21.99 70.4116 21.756 70.9036 21.576C71.4076 21.384 71.9956 21.288 72.6676 21.288C73.6636 21.288 74.3956 21.546 74.8636 22.062C75.3316 22.578 75.5656 23.364 75.5656 24.42V30H72.7036V24.762C72.7036 24.294 72.6016 23.958 72.3976 23.754C72.2056 23.538 71.8876 23.43 71.4436 23.43C71.1676 23.43 70.8976 23.49 70.6336 23.61C70.3696 23.718 70.1476 23.874 69.9676 24.078C69.9916 24.21 70.0036 24.336 70.0036 24.456C70.0156 24.576 70.0216 24.72 70.0216 24.888V30H67.3216V24.726C67.3216 24.294 67.2436 23.97 67.0876 23.754C66.9436 23.538 66.6616 23.43 66.2416 23.43C65.9416 23.43 65.6596 23.508 65.3956 23.664C65.1316 23.82 64.8916 24 64.6756 24.204V30H61.8496ZM81.6589 30.18C80.0149 30.18 78.8029 29.802 78.0229 29.046C77.2429 28.278 76.8529 27.174 76.8529 25.734C76.8529 24.306 77.2429 23.208 78.0229 22.44C78.8149 21.672 80.0269 21.288 81.6589 21.288C83.3029 21.288 84.5149 21.672 85.2949 22.44C86.0869 23.208 86.4829 24.306 86.4829 25.734C86.4829 27.174 86.0929 28.278 85.3129 29.046C84.5329 29.802 83.3149 30.18 81.6589 30.18ZM81.6589 27.912C82.3309 27.912 82.8109 27.744 83.0989 27.408C83.3869 27.072 83.5309 26.514 83.5309 25.734C83.5309 24.954 83.3869 24.396 83.0989 24.06C82.8109 23.724 82.3309 23.556 81.6589 23.556C80.9989 23.556 80.5249 23.724 80.2369 24.06C79.9489 24.396 79.8049 24.954 79.8049 25.734C79.8049 26.514 79.9489 27.072 80.2369 27.408C80.5249 27.744 80.9989 27.912 81.6589 27.912ZM91.5352 30.18C90.7072 30.18 89.9992 30.048 89.4112 29.784C88.8232 29.52 88.3732 29.088 88.0612 28.488C87.7492 27.876 87.5932 27.06 87.5932 26.04C87.5932 25.008 87.7732 24.144 88.1332 23.448C88.4932 22.74 88.9852 22.206 89.6092 21.846C90.2452 21.474 90.9712 21.288 91.7872 21.288C92.2312 21.288 92.6272 21.336 92.9752 21.432C93.3352 21.528 93.6712 21.672 93.9832 21.864V17.868H96.8812V30H94.3792L94.2172 29.28C93.8692 29.58 93.4792 29.808 93.0472 29.964C92.6152 30.108 92.1112 30.18 91.5352 30.18ZM92.3632 28.074C92.9992 28.074 93.5392 27.858 93.9832 27.426V23.97C93.5752 23.598 93.0532 23.412 92.4172 23.412C91.8052 23.412 91.3372 23.646 91.0132 24.114C90.7012 24.57 90.5452 25.218 90.5452 26.058C90.5452 26.874 90.6952 27.414 90.9952 27.678C91.3072 27.942 91.7632 28.074 92.3632 28.074ZM102.981 30.18C101.337 30.18 100.125 29.802 99.3452 29.046C98.5652 28.278 98.1752 27.174 98.1752 25.734C98.1752 24.306 98.5652 23.208 99.3452 22.44C100.137 21.672 101.349 21.288 102.981 21.288C104.625 21.288 105.837 21.672 106.617 22.44C107.409 23.208 107.805 24.306 107.805 25.734C107.805 27.174 107.415 28.278 106.635 29.046C105.855 29.802 104.637 30.18 102.981 30.18ZM102.981 27.912C103.653 27.912 104.133 27.744 104.421 27.408C104.709 27.072 104.853 26.514 104.853 25.734C104.853 24.954 104.709 24.396 104.421 24.06C104.133 23.724 103.653 23.556 102.981 23.556C102.321 23.556 101.847 23.724 101.559 24.06C101.271 24.396 101.127 24.954 101.127 25.734C101.127 26.514 101.271 27.072 101.559 27.408C101.847 27.744 102.321 27.912 102.981 27.912ZM109.275 30V21.468H112.029L112.119 22.26C112.491 22.032 112.953 21.828 113.505 21.648C114.057 21.456 114.609 21.336 115.161 21.288V23.466C114.849 23.502 114.501 23.562 114.117 23.646C113.745 23.718 113.385 23.808 113.037 23.916C112.701 24.024 112.413 24.138 112.173 24.258V30H109.275ZM120.348 30.18C118.704 30.18 117.492 29.802 116.712 29.046C115.932 28.278 115.542 27.174 115.542 25.734C115.542 24.306 115.932 23.208 116.712 22.44C117.504 21.672 118.716 21.288 120.348 21.288C121.992 21.288 123.204 21.672 123.984 22.44C124.776 23.208 125.172 24.306 125.172 25.734C125.172 27.174 124.782 28.278 124.002 29.046C123.222 29.802 122.004 30.18 120.348 30.18ZM120.348 27.912C121.02 27.912 121.5 27.744 121.788 27.408C122.076 27.072 122.22 26.514 122.22 25.734C122.22 24.954 122.076 24.396 121.788 24.06C121.5 23.724 121.02 23.556 120.348 23.556C119.688 23.556 119.214 23.724 118.926 24.06C118.638 24.396 118.494 24.954 118.494 25.734C118.494 26.514 118.638 27.072 118.926 27.408C119.214 27.744 119.688 27.912 120.348 27.912Z" fill="#3C41E7"/>
</g>
<defs>
<clipPath id="clip0">
<rect width="165" height="165" fill="white"/>
</clipPath>
</defs>
</svg>
