<svg width="165" height="165" viewBox="0 0 165 165" fill="none" xmlns="http://www.w3.org/2000/svg">
<g clip-path="url(#clip0)">
<path d="M0.0532227 142.899C0.0345936 141.751 -1.90735e-06 140.6 -1.90735e-06 139.445C-1.90735e-06 101.481 -1.90735e-06 63.5161 -1.90735e-06 25.5493C-1.90735e-06 15.3517 -17.8541 -3.04734 -9 -8C-5.54032 -9.94227 20.7155 0.0181571 24.7048 0.0155001C51.2307 0.0155001 77.7549 0.0155001 104.277 0.0155001C116.12 0.0155001 127.963 -0.0456106 139.803 0.0340996C149.434 0.0978677 170.023 -16.2101 175 -8C177.305 -4.20048 165.077 20.594 165.077 25.0312C165.077 62.084 165.077 99.1369 165.077 136.19C165.077 138.012 165.077 139.838 165.056 141.66C165.039 141.677 165.018 141.69 164.996 141.698C164.973 141.706 164.949 141.709 164.925 141.707C164.901 141.706 164.878 141.699 164.857 141.688C164.836 141.676 164.818 141.661 164.803 141.642C164.452 140.521 164.678 139.367 164.649 138.23C164.644 137.561 164.429 136.911 164.034 136.37C152.846 120.724 141.653 105.079 130.456 89.4343C128.668 86.9394 126.869 84.4498 125.102 81.9389C124.57 80.8283 124.479 79.5955 124.136 78.4317C122.67 73.4711 120.357 68.9515 116.99 65.0298C112.261 59.5191 106.225 56.4556 98.9707 55.794C97.9996 55.6725 97.022 55.6104 96.0433 55.608C95.5727 55.5478 95.1172 55.4019 94.6994 55.1776C93.5526 54.6821 92.3188 54.4184 91.0694 54.4018C90.6755 54.4018 90.1805 54.4921 89.9756 54.0617C89.7706 53.6312 90.1406 53.23 90.412 52.9005C91.7426 51.2718 93.3634 50.0363 95.4552 49.5182C95.7426 49.4491 96.03 49.3694 96.4345 49.2843C94.1751 48.7051 92.0354 48.4155 89.8239 48.7529C87.6637 49.0288 85.63 49.9241 83.969 51.3302C83.647 51.5959 83.3968 52.0237 82.8752 51.9626C82.7659 51.8331 82.6886 51.6799 82.6493 51.5151C82.61 51.3504 82.6099 51.1788 82.649 51.014C83.0456 47.5599 82.8806 49.6404 85.0655 46.8293C85.453 46.3639 84.7653 59.7423 85.9713 49.9752C84.7653 59.7423 90.0445 53.8504 87 45C86.3107 44.2826 87.1494 46.1916 86.5 46.8027C85.575 47.6983 84.4589 47.5631 83.969 48.7529C82.9549 51.1494 81.3078 45.868 81.2385 48.4686C81.0682 48.9602 81.1374 49.4703 81.1002 49.9752C81.0815 50.2409 81.1001 50.565 80.8154 50.6793C80.5306 50.7935 80.3364 50.4959 80.1607 50.3126C78.4282 48.4925 76.2939 47.3899 73.8694 46.8293C73.6486 46.746 73.4067 46.7367 73.1802 46.8027C74.1206 47.7181 74.9334 48.7556 75.5966 49.8875C76.0643 50.7108 76.4145 51.5952 76.6372 52.5153C76.8341 53.3947 76.5839 53.6684 75.7829 53.3682C74.4017 52.8368 72.9699 52.6587 71.5248 52.4834C69.4889 52.2363 67.5755 52.6428 65.5635 53.5462C67.3998 53.7773 69.0232 54.1015 70.5242 54.8322C70.8515 54.9916 71.461 55.0288 71.2401 55.6904C70.769 55.9561 70.274 55.8711 69.779 55.7993C68.1823 55.4008 66.6041 55.7143 65.0473 55.9215C58.6948 56.7691 53.2072 59.4447 48.84 64.1583C45.029 68.2182 56.0915 75.1408 54.5 80.5C53.1305 85.1415 46.6956 88.6707 47 93.5C47.4604 101.219 41.7104 107.741 46.4581 114.049C47.4114 115.277 48.4558 116.431 49.5825 117.503C49.9178 117.832 50.3037 118.127 50.4527 118.603C50.3223 119.031 50.6151 119.296 50.8386 119.583C58.4339 129.425 66.0364 139.26 73.6459 149.089C77.4089 153.952 81.1658 158.818 84.9165 163.687C85.1826 164.04 85.8798 164.468 85.0655 164.997C84.4655 165.108 83.8536 165.141 83.2452 165.095C63.7556 165.095 44.267 165.095 24.7793 165.095C20.08 165.119 3.96092 178.025 -9.53674e-06 175.5C-5.28267 172.192 -19.0626 159.406 -21 153.5C-21.4764 152.047 0.250158 144.394 0.0532227 142.899Z" fill="#4958A7"/>
<path d="M175 137.388C174.159 146.833 178.006 174.4 169.5 178.5C165.792 180.29 143.959 165.011 139.875 165C123.007 164.954 106.138 164.939 89.2685 164.957C88.8777 164.957 67.412 164.933 67.0083 164.923C66.2601 163.456 65.1467 162.255 64.2004 160.948C62.1176 158.062 59.9448 155.248 57.8183 152.413C54.0796 147.407 50.3451 142.399 46.6149 137.388C43.9356 133.787 41.7834 130.187 39.1092 126.575C37.4044 124.279 56.2549 121.998 54.5836 119.678C54.4396 119.478 53.7067 119.208 54.3907 118.749C54.905 118.715 55.2136 119.091 55.5607 119.379C57.5218 120.966 59.6376 122.337 61.8734 123.468C65.5967 125.162 69.3894 126.631 73.429 127.274C75.7556 127.64 78.1168 127.706 80.4591 127.471C83.9672 127.136 87.4988 127.163 91.0016 127.554C93.9844 127.885 96.944 127.485 99.8522 126.754C104.579 125.635 91.9474 116.261 96 113.5C101.4 109.766 96.2166 110.268 98.5 104C99.9785 99.9457 92.6606 93.3183 93 89C93.2571 85.5485 103.896 87.2237 103.5 83.8309C78.8826 77.3656 107.637 43.3868 108 43C110.983 47.297 129.249 42.9402 132.229 47.2425C137.303 54.5882 145.041 60.4146 150.104 67.7691C153.544 72.7622 157.785 75.8173 161.215 80.8193C162.29 82.385 162.995 82.2999 164.114 83.8309C164.502 84.3305 165 84.1161 164.982 84.7577C164.969 85.99 186.5 137.388 175 137.388Z" fill="#2F3B6B"/>
<path d="M124.583 42L113 131.017L120.983 134L132 47.2289L124.583 42Z" fill="#E08038"/>
<path d="M50.1058 44.4937L37 125.917L112.249 131L124 42L50.1058 44.4937Z" fill="#FCBE55"/>
<path d="M50.326 44.5032C50.326 44.5032 47.8189 82.3424 29 116.885C48.8596 125.23 89.0759 125.23 104.025 121.99C117.748 89.6574 124 42 124 42L50.326 44.5032Z" fill="#FCDD55"/>
<path d="M121 134L39.4198 128.495L37 126L112.838 131.042L121 134Z" fill="#E08038"/>
<path d="M32.8971 29.18C32.1291 29.18 31.4091 29.12 30.7371 29C30.0771 28.892 29.5071 28.73 29.0271 28.514V26.048C29.5551 26.276 30.1371 26.462 30.7731 26.606C31.4211 26.75 32.0331 26.822 32.6091 26.822C33.3291 26.822 33.8631 26.756 34.2111 26.624C34.5711 26.492 34.7511 26.204 34.7511 25.76C34.7511 25.46 34.6611 25.22 34.4811 25.04C34.3131 24.86 34.0311 24.704 33.6351 24.572C33.2511 24.428 32.7231 24.26 32.0511 24.068C31.2591 23.828 30.6291 23.564 30.1611 23.276C29.6931 22.976 29.3571 22.616 29.1531 22.196C28.9491 21.776 28.8471 21.26 28.8471 20.648C28.8471 19.544 29.2431 18.698 30.0351 18.11C30.8271 17.522 31.9971 17.228 33.5451 17.228C34.2171 17.228 34.8711 17.282 35.5071 17.39C36.1431 17.486 36.6591 17.6 37.0551 17.732V20.216C36.5391 20.012 36.0171 19.862 35.4891 19.766C34.9731 19.67 34.4691 19.622 33.9771 19.622C33.3291 19.622 32.8011 19.682 32.3931 19.802C31.9971 19.922 31.7991 20.198 31.7991 20.63C31.7991 20.882 31.8711 21.086 32.0151 21.242C32.1591 21.386 32.4051 21.518 32.7531 21.638C33.1131 21.758 33.5991 21.902 34.2111 22.07C35.1591 22.322 35.8851 22.628 36.3891 22.988C36.8931 23.336 37.2411 23.744 37.4331 24.212C37.6251 24.668 37.7211 25.184 37.7211 25.76C37.7211 26.78 37.3251 27.608 36.5331 28.244C35.7411 28.868 34.5291 29.18 32.8971 29.18ZM42.4378 29.18C41.3818 29.18 40.6018 28.91 40.0978 28.37C39.6058 27.83 39.3598 27.086 39.3598 26.138V22.664H38.2078V20.468H39.3598V18.686L42.2578 17.912V20.468H44.3278L44.2018 22.664H42.2578V25.94C42.2578 26.348 42.3598 26.636 42.5638 26.804C42.7678 26.96 43.0738 27.038 43.4818 27.038C43.8298 27.038 44.1838 26.978 44.5438 26.858V28.82C43.9798 29.06 43.2778 29.18 42.4378 29.18ZM46.2362 19.118V16.94H49.3862V19.118H46.2362ZM46.4702 29V22.61H45.2102L45.4622 20.468H49.3682V29H46.4702ZM55.7149 29.18C54.1909 29.18 52.9969 28.808 52.1329 28.064C51.2809 27.32 50.8549 26.21 50.8549 24.734C50.8549 23.234 51.2989 22.118 52.1869 21.386C53.0869 20.654 54.2809 20.288 55.7689 20.288C56.3929 20.288 56.9329 20.336 57.3889 20.432C57.8569 20.516 58.3069 20.66 58.7389 20.864V22.916C58.0669 22.592 57.2809 22.43 56.3809 22.43C55.5409 22.43 54.8989 22.598 54.4549 22.934C54.0229 23.27 53.8069 23.87 53.8069 24.734C53.8069 25.538 54.0109 26.126 54.4189 26.498C54.8269 26.858 55.4749 27.038 56.3629 27.038C57.2389 27.038 58.0369 26.858 58.7569 26.498V28.64C58.3249 28.832 57.8569 28.97 57.3529 29.054C56.8609 29.138 56.3149 29.18 55.7149 29.18ZM60.2325 29V16.868H63.1305V23.204L65.9205 20.468H69.2145L65.7945 24.014L69.4125 29H66.3345L63.9765 25.544L63.1305 26.372V29H60.2325ZM70.2831 19.118V16.94H73.4331V19.118H70.2831ZM70.5171 29V22.61H69.2571L69.5091 20.468H73.4151V29H70.5171ZM79.8338 29.18C78.3458 29.18 77.1518 28.814 76.2518 28.082C75.3518 27.338 74.9018 26.222 74.9018 24.734C74.9018 23.378 75.2738 22.298 76.0178 21.494C76.7618 20.69 77.8778 20.288 79.3658 20.288C80.7218 20.288 81.7718 20.636 82.5158 21.332C83.2598 22.028 83.6318 22.964 83.6318 24.14V25.67H77.5838C77.7158 26.234 78.0218 26.63 78.5018 26.858C78.9938 27.074 79.6598 27.182 80.4998 27.182C80.9678 27.182 81.4418 27.14 81.9218 27.056C82.4138 26.972 82.8218 26.864 83.1458 26.732V28.622C82.7378 28.814 82.2518 28.952 81.6878 29.036C81.1238 29.132 80.5058 29.18 79.8338 29.18ZM77.5838 23.996H81.1118V23.618C81.1118 23.198 80.9858 22.868 80.7338 22.628C80.4818 22.376 80.0558 22.25 79.4558 22.25C78.7598 22.25 78.2738 22.394 77.9978 22.682C77.7218 22.958 77.5838 23.396 77.5838 23.996ZM88.1856 29.18C87.5016 29.18 86.8536 29.132 86.2416 29.036C85.6296 28.94 85.1436 28.82 84.7836 28.676V26.462C85.2036 26.642 85.6896 26.78 86.2416 26.876C86.7936 26.972 87.2856 27.02 87.7176 27.02C88.2336 27.02 88.6056 26.996 88.8336 26.948C89.0736 26.9 89.1936 26.768 89.1936 26.552C89.1936 26.312 89.0016 26.132 88.6176 26.012C88.2336 25.892 87.7056 25.718 87.0336 25.49C86.2536 25.214 85.6596 24.896 85.2516 24.536C84.8556 24.164 84.6576 23.618 84.6576 22.898C84.6576 22.058 84.9696 21.416 85.5936 20.972C86.2296 20.516 87.2376 20.288 88.6176 20.288C89.1576 20.288 89.6916 20.33 90.2196 20.414C90.7476 20.498 91.1796 20.594 91.5156 20.702V22.88C91.1796 22.724 90.7956 22.61 90.3636 22.538C89.9316 22.466 89.5416 22.43 89.1936 22.43C88.7496 22.43 88.3716 22.46 88.0596 22.52C87.7596 22.568 87.6096 22.694 87.6096 22.898C87.6096 23.126 87.7776 23.288 88.1136 23.384C88.4496 23.468 88.9356 23.612 89.5716 23.816C90.2436 24.02 90.7656 24.242 91.1376 24.482C91.5096 24.71 91.7736 24.986 91.9296 25.31C92.0856 25.634 92.1636 26.042 92.1636 26.534C92.1636 27.386 91.8276 28.04 91.1556 28.496C90.4836 28.952 89.4936 29.18 88.1856 29.18ZM97.4981 29V17.408H103.204C104.128 17.408 104.89 17.594 105.49 17.966C106.09 18.326 106.534 18.818 106.822 19.442C107.122 20.066 107.272 20.768 107.272 21.548C107.272 22.34 107.104 23.042 106.768 23.654C106.432 24.266 105.952 24.746 105.328 25.094C104.716 25.43 103.984 25.598 103.132 25.598H100.396V29H97.4981ZM100.396 23.366H102.484C103.096 23.366 103.552 23.198 103.852 22.862C104.164 22.526 104.32 22.082 104.32 21.53C104.32 20.93 104.176 20.468 103.888 20.144C103.612 19.808 103.174 19.64 102.574 19.64H100.396V23.366ZM110.727 29.18C110.187 29.18 109.683 29.084 109.215 28.892C108.759 28.7 108.393 28.406 108.117 28.01C107.841 27.602 107.703 27.098 107.703 26.498C107.703 25.622 107.997 24.938 108.585 24.446C109.185 23.942 110.079 23.69 111.267 23.69H113.643V23.492C113.643 23.06 113.499 22.754 113.211 22.574C112.923 22.382 112.383 22.286 111.591 22.286C110.619 22.286 109.665 22.436 108.729 22.736V20.864C109.149 20.696 109.659 20.558 110.259 20.45C110.871 20.342 111.513 20.288 112.185 20.288C113.505 20.288 114.537 20.558 115.281 21.098C116.037 21.638 116.415 22.496 116.415 23.672V29H113.877L113.733 28.28C113.421 28.568 113.019 28.79 112.527 28.946C112.047 29.102 111.447 29.18 110.727 29.18ZM111.645 27.398C112.101 27.398 112.497 27.32 112.833 27.164C113.169 27.008 113.439 26.81 113.643 26.57V25.364H111.591C110.739 25.364 110.313 25.706 110.313 26.39C110.313 26.702 110.421 26.948 110.637 27.128C110.853 27.308 111.189 27.398 111.645 27.398ZM122.652 29.18C121.128 29.18 119.934 28.808 119.07 28.064C118.218 27.32 117.792 26.21 117.792 24.734C117.792 23.234 118.236 22.118 119.124 21.386C120.024 20.654 121.218 20.288 122.706 20.288C123.33 20.288 123.87 20.336 124.326 20.432C124.794 20.516 125.244 20.66 125.676 20.864V22.916C125.004 22.592 124.218 22.43 123.318 22.43C122.478 22.43 121.836 22.598 121.392 22.934C120.96 23.27 120.744 23.87 120.744 24.734C120.744 25.538 120.948 26.126 121.356 26.498C121.764 26.858 122.412 27.038 123.3 27.038C124.176 27.038 124.974 26.858 125.694 26.498V28.64C125.262 28.832 124.794 28.97 124.29 29.054C123.798 29.138 123.252 29.18 122.652 29.18ZM127.17 29V16.868H130.068V23.204L132.858 20.468H136.152L132.732 24.014L136.35 29H133.272L130.914 25.544L130.068 26.372V29H127.17Z" fill="#F6CF4A"/>
</g>
<defs>
<clipPath id="clip0">
<rect width="165" height="165" fill="white"/>
</clipPath>
</defs>
</svg>
