<svg width="248" height="207" viewBox="0 0 248 207" fill="none" xmlns="http://www.w3.org/2000/svg">
<mask id="mask0" mask-type="alpha" maskUnits="userSpaceOnUse" x="0" y="0" width="248" height="207">
<rect width="248" height="207" rx="38" fill="#C4C4C4"/>
</mask>
<g mask="url(#mask0)">
<rect width="248" height="207" rx="38" fill="url(#paint0_linear)"/>
<path d="M269.91 39.3701H42.35V205.73H269.91V39.3701Z" fill="white"/>
<path d="M269.91 205.73C269.91 203.98 269.82 140.18 269.69 39.3701L269.91 39.5801H42.37L42.63 39.3201C42.63 99.0101 42.63 155.59 42.63 205.68L42.39 205.44L269.95 205.68L42.39 205.92H42.15V205.68C42.15 155.59 42.15 99.0101 42.15 39.3201V39.0901H42.43H269.97H270.18V39.3001C269.99 140.18 269.91 203.98 269.91 205.73Z" fill="#263238"/>
<path d="M270.68 63.5803C270.68 63.7203 219.84 63.8403 157.15 63.8403C94.46 63.8403 43.62 63.7203 43.62 63.5803C43.62 63.4403 94.44 63.3203 157.15 63.3203C219.86 63.3203 270.68 63.4403 270.68 63.5803Z" fill="#E0E0E0"/>
<path d="M56.94 50.9603C56.94 51.6387 56.7388 52.3018 56.3619 52.8659C55.985 53.4299 55.4493 53.8696 54.8226 54.1292C54.1958 54.3888 53.5062 54.4567 52.8408 54.3244C52.1755 54.192 51.5643 53.8653 51.0846 53.3857C50.6049 52.906 50.2782 52.2948 50.1459 51.6294C50.0135 50.9641 50.0814 50.2744 50.3411 49.6477C50.6007 49.0209 51.0403 48.4852 51.6044 48.1083C52.1684 47.7314 52.8316 47.5303 53.51 47.5303C54.4197 47.5303 55.2921 47.8916 55.9354 48.5349C56.5786 49.1781 56.94 50.0506 56.94 50.9603V50.9603Z" fill="#E0E0E0"/>
<path d="M67.27 50.9603C67.27 51.6391 67.0686 52.3027 66.6913 52.8669C66.3139 53.4312 65.7777 53.8708 65.1503 54.1301C64.523 54.3895 63.8328 54.4568 63.1672 54.3236C62.5015 54.1905 61.8904 53.8628 61.4111 53.3821C60.9318 52.9014 60.6059 52.2893 60.4747 51.6233C60.3435 50.9573 60.4129 50.2673 60.674 49.6407C60.9352 49.0142 61.3763 48.4792 61.9417 48.1035C62.5071 47.7278 63.1712 47.5283 63.85 47.5303C64.7572 47.5356 65.6255 47.8989 66.266 48.5413C66.9066 49.1837 67.2674 50.0531 67.27 50.9603V50.9603Z" fill="#E0E0E0"/>
<path d="M77.59 50.9603C77.59 51.6391 77.3885 52.3027 77.0112 52.8669C76.6339 53.4312 76.0976 53.8708 75.4702 54.1301C74.8429 54.3895 74.1527 54.4568 73.4871 54.3236C72.8215 54.1905 72.2103 53.8628 71.731 53.3821C71.2518 52.9014 70.9259 52.2893 70.7947 51.6233C70.6635 50.9573 70.7328 50.2673 70.994 49.6407C71.2551 49.0142 71.6963 48.4792 72.2617 48.1035C72.827 47.7278 73.4912 47.5283 74.17 47.5303C75.0779 47.5329 75.9478 47.8955 76.5889 48.5384C77.23 49.1814 77.59 50.0523 77.59 50.9603V50.9603Z" fill="#E0E0E0"/>
<path d="M57.14 105.23L58.58 104.31C59.2056 103.916 59.9056 103.654 60.6365 103.541C61.3673 103.429 62.1136 103.467 62.829 103.655C63.5443 103.842 64.2135 104.175 64.7951 104.631C65.3767 105.088 65.8583 105.66 66.21 106.31C68.52 110.52 71.39 116.39 71.39 116.39L65.32 125.99L63.32 126.05C61.12 127.46 55.96 124.61 52.47 122.5C48.98 120.39 50.7 118.25 50.7 118.25C48.52 115.25 51.53 114 51.53 114C51.278 113.643 51.1008 113.238 51.009 112.81C50.9172 112.382 50.9127 111.94 50.9958 111.511C51.0789 111.081 51.2479 110.673 51.4927 110.31C51.7374 109.948 52.0528 109.638 52.42 109.4" fill="#FFBE9D"/>
<path d="M54.1147 74.8719L10.2727 83.2749L22.0395 144.667L65.8815 136.264L54.1147 74.8719Z" fill="white"/>
<path d="M22.04 144.67L21.98 144.39C21.9267 144.19 21.8667 143.91 21.8 143.55C21.65 142.78 21.42 141.67 21.14 140.24C20.56 137.31 19.72 133.06 18.67 127.68C16.56 116.84 13.57 101.48 10.05 83.3202L10 83.0902H10.23L54.07 74.6602H54.33V74.9202C58.71 97.9202 62.77 119.17 66.04 136.32V136.53H65.83L33.83 142.53L25.12 144.09L22.82 144.5C22.3 144.6 22.04 144.63 22.04 144.63L22.85 144.45L25.18 143.98L34.02 142.23L65.85 136.09L65.69 136.34C62.39 119.19 58.3 97.9402 53.87 74.9602L54.18 75.1602L10.34 83.5402L10.53 83.2702C13.95 101.38 16.85 116.7 18.89 127.52L21.23 140.09C21.49 141.55 21.7 142.67 21.84 143.46C21.91 143.83 21.96 144.12 22 144.33C22.0249 144.442 22.0384 144.556 22.04 144.67V144.67Z" fill="#263238"/>
<path d="M17.6 97.3401C17.6 97.2001 24.81 95.7001 33.76 93.9801C42.71 92.2601 49.99 90.9801 50.02 91.1301C50.05 91.2801 42.85 92.7801 33.85 94.4901C24.85 96.2001 17.62 97.4801 17.6 97.3401Z" fill="#263238"/>
<path d="M18.4299 101.68C18.4299 101.54 25.6399 100.03 34.5899 98.3201C43.5399 96.6101 50.8199 95.3201 50.8499 95.4601C50.8799 95.6001 43.6399 97.1101 34.6899 98.8301C25.7399 100.55 18.4499 101.82 18.4299 101.68Z" fill="#263238"/>
<path d="M19.26 106.01C19.26 105.87 26.47 104.37 35.42 102.65C44.37 100.93 51.66 99.6503 51.68 99.8003C51.7 99.9503 44.47 101.45 35.52 103.16C26.57 104.87 19.28 106.15 19.26 106.01Z" fill="#263238"/>
<path d="M20.09 110.35C20.09 110.21 27.3 108.7 36.25 106.99C45.2 105.28 52.49 103.99 52.51 104.13C52.53 104.27 45.3 105.78 36.35 107.5C27.4 109.22 20.12 110.49 20.09 110.35Z" fill="#263238"/>
<path d="M20.92 114.68C20.92 114.54 28.13 113.04 37.08 111.32C46.03 109.6 53.32 108.32 53.34 108.47C53.36 108.62 46.14 110.12 37.18 111.83C28.22 113.54 20.95 114.82 20.92 114.68Z" fill="#263238"/>
<path d="M21.75 119.02C21.75 118.88 28.96 117.37 37.91 115.66C46.86 113.95 54.15 112.66 54.17 112.8C54.19 112.94 46.97 114.45 38.01 116.17C29.05 117.89 21.78 119.16 21.75 119.02Z" fill="#263238"/>
<path d="M22.5801 123.35C22.5801 123.21 29.7901 121.71 38.7401 119.99C47.6901 118.27 54.9801 116.99 55.0101 117.14C55.0401 117.29 47.8501 118.79 38.8501 120.5C29.8501 122.21 22.6101 123.49 22.5801 123.35Z" fill="#263238"/>
<path d="M23.41 127.69C23.41 127.55 30.62 126.04 39.57 124.33C48.52 122.62 55.81 121.33 55.84 121.47C55.87 121.61 48.63 123.12 39.67 124.84C30.71 126.56 23.44 127.83 23.41 127.69Z" fill="#263238"/>
<path d="M24.24 132.02C24.24 131.88 31.45 130.38 40.4 128.66C49.35 126.94 56.64 125.66 56.67 125.81C56.7 125.96 49.46 127.46 40.5 129.17C31.54 130.88 24.27 132.16 24.24 132.02Z" fill="#263238"/>
<path d="M48.0801 78.3002C48.2349 78.6476 48.3425 79.0142 48.4 79.3902L49.06 82.3902C49.12 82.7102 49.1901 83.0402 49.2701 83.3902C49.3318 83.7074 49.3304 84.0336 49.2661 84.3502C49.2017 84.6668 49.0757 84.9677 48.8951 85.2356C48.7144 85.5035 48.4828 85.7331 48.2134 85.9115C47.9441 86.0899 47.6422 86.2135 47.325 86.2752C47.0079 86.337 46.6817 86.3356 46.3651 86.2713C46.0485 86.2069 45.7476 86.0808 45.4797 85.9002C45.2118 85.7196 44.9821 85.488 44.8037 85.2186C44.6254 84.9493 44.5018 84.6474 44.44 84.3302L44.3001 83.6202C44.2101 83.1402 44.1201 82.6202 44.0201 82.1702C43.8401 81.2036 43.66 80.2536 43.48 79.3202C43.4 78.8602 43.31 78.4102 43.23 77.9702C43.1172 77.5194 43.0701 77.0546 43.09 76.5902C43.1243 76.1524 43.2475 75.7262 43.4522 75.3376C43.6568 74.949 43.9385 74.6063 44.28 74.3302C44.8751 73.8534 45.6176 73.5988 46.38 73.6102C46.9231 73.6226 47.4536 73.7755 47.9199 74.0542C48.3861 74.3329 48.7721 74.7278 49.04 75.2002C49.1814 75.4521 49.2794 75.7259 49.3301 76.0102C49.3301 76.2002 49.3301 76.3002 49.3301 76.3102C49.1905 75.9657 49.0268 75.6316 48.84 75.3102C48.5669 74.9027 48.198 74.5683 47.7657 74.3364C47.3333 74.1045 46.8507 73.9822 46.3601 73.9802C45.6896 73.9878 45.0427 74.2282 44.53 74.6602C44.2367 74.9086 43.9968 75.2139 43.8249 75.5577C43.653 75.9014 43.5527 76.2765 43.53 76.6602C43.5242 77.0784 43.5746 77.4955 43.68 77.9002C43.76 78.3502 43.85 78.8002 43.94 79.2602C44.12 80.1802 44.3001 81.1302 44.4901 82.1102C44.5901 82.5902 44.6801 83.1102 44.7701 83.5502L44.9 84.2602C44.9416 84.4642 45.0159 84.66 45.12 84.8402C45.3159 85.1872 45.6109 85.4677 45.9672 85.6459C46.3236 85.824 46.725 85.8917 47.12 85.8402C47.4854 85.785 47.8284 85.6296 48.1108 85.3913C48.3932 85.153 48.6041 84.8411 48.72 84.4902C48.8275 84.1683 48.855 83.8251 48.8001 83.4902C48.7401 83.1502 48.68 82.8102 48.63 82.4902C48.43 81.2902 48.26 80.2702 48.13 79.4902C48.0679 79.0968 48.0511 78.6975 48.0801 78.3002V78.3002Z" fill="#263238"/>
<path d="M61.1301 103.48C60.8001 103.48 47.8101 105.48 47.8101 105.48C47.5801 106.68 48.2801 108.37 51.3401 108.42C54.2401 108.47 56.8601 108.22 56.8601 108.22C56.8601 108.22 60.0701 114.92 63.2301 115.67C66.3901 116.42 64.8401 109.23 64.8401 109.23L61.1301 103.48Z" fill="#FFBE9D"/>
<path d="M209.99 61.1802C211.12 58.5602 212.26 55.8602 212.37 52.9902C212.48 50.1202 211.3 46.9902 208.82 45.7202C206.54 44.5202 203.73 45.0802 201.3 44.2202C198.3 43.1502 196.42 40.1302 195.09 37.1702C193.76 34.2102 195.61 33.1702 193.36 30.8202C190.36 27.8202 188.44 27.3302 184.67 29.1902C181.96 27.2702 172.53 23.7902 169.81 23.7002C165.81 23.5802 161.19 23.9002 158.37 26.7902C156.19 29.0302 154.8 31.8902 152.12 33.5002C148.43 35.7202 143.73 33.8302 139.43 33.9902C138.988 33.9516 138.543 34.0335 138.143 34.2271C137.744 34.4208 137.404 34.7191 137.16 35.0902C137.06 35.456 137.04 35.8388 137.1 36.2131C137.161 36.5873 137.3 36.9444 137.51 37.2602L140.85 44.1602C139.942 44.5754 138.952 44.7785 137.954 44.7542C136.956 44.73 135.977 44.479 135.09 44.0202C135.298 48.5956 137.107 52.9526 140.2 56.3302C139.994 56.2268 139.768 56.1675 139.537 56.1563C139.307 56.145 139.076 56.1819 138.861 56.2648C138.645 56.3476 138.449 56.4744 138.286 56.6372C138.122 56.8 137.994 56.9952 137.91 57.2102C137.601 58.1008 137.601 59.0697 137.91 59.9602C138.664 62.7415 140.006 65.3288 141.845 67.5474C143.684 69.766 145.977 71.5644 148.57 72.8212C151.163 74.078 153.996 74.7639 156.877 74.8328C159.758 74.9016 162.62 74.3517 165.27 73.2202L188.99 75.0102C189.313 75.9277 189.854 76.7529 190.566 77.4149C191.279 78.0769 192.141 78.5558 193.08 78.8102C195.73 76.8102 196.16 75.7402 196.16 75.7402C197.79 76.9502 196.51 76.3402 197.79 76.9502C200.73 78.3502 205.08 76.6902 205.79 73.4102C205.952 72.0801 206.498 70.8259 207.36 69.8002C208.412 68.9761 209.591 68.3277 210.85 67.8802C212.746 66.9131 214.271 65.3495 215.19 63.4302C214.214 63.4383 213.248 63.2424 212.352 62.8549C211.457 62.4674 210.652 61.897 209.99 61.1802V61.1802Z" fill="#263238"/>
<path d="M193.21 51.0101L193.82 100.01C193.92 108.33 192.37 120.58 179.2 120.15C167.8 118.91 164.77 108.15 164.69 100.35C164.69 96.6601 164.6 93.5901 164.57 93.2101C164.57 93.2101 152.09 92.2101 151.04 79.8601C150.53 73.9101 150.48 61.5501 150.57 50.3801C150.608 44.5886 152.83 39.0248 156.792 34.8C160.753 30.5752 166.163 28.0004 171.94 27.5901L173.13 27.5001C186.02 27.2801 193.38 38.0901 193.21 51.0101Z" fill="#FFBE9D"/>
<path d="M164.57 93.1803C170.268 92.7502 175.724 90.6957 180.29 87.2603C180.29 87.2603 177.03 96.5503 164.64 96.3403L164.57 93.1803Z" fill="#EB996E"/>
<path d="M171.64 55.4002C171.88 55.6502 173.31 54.5002 175.37 54.4002C177.43 54.3002 178.98 55.4002 179.2 55.0902C179.42 54.7802 179.05 54.5202 178.37 54.0902C177.463 53.485 176.389 53.1806 175.3 53.2202C174.209 53.2432 173.155 53.6225 172.3 54.3002C171.72 54.8202 171.52 55.2902 171.64 55.4002Z" fill="#263238"/>
<path d="M171.27 59.9902C171.296 60.4253 171.492 60.8328 171.815 61.1246C172.139 61.4165 172.565 61.5694 173 61.5502C173.213 61.553 173.424 61.5128 173.62 61.4321C173.817 61.3514 173.995 61.2319 174.145 61.0806C174.294 60.9294 174.411 60.7495 174.49 60.5519C174.568 60.3542 174.605 60.1428 174.6 59.9302C174.589 59.7121 174.534 59.4984 174.44 59.3014C174.346 59.1044 174.213 58.9279 174.051 58.782C173.888 58.6362 173.699 58.5239 173.492 58.4515C173.286 58.3791 173.068 58.3481 172.85 58.3602C172.639 58.3615 172.43 58.4049 172.235 58.4879C172.041 58.5709 171.865 58.6918 171.718 58.8436C171.571 58.9953 171.455 59.1749 171.378 59.3718C171.302 59.5687 171.265 59.7789 171.27 59.9902V59.9902Z" fill="#263238"/>
<path d="M166.47 69.7603C165.446 69.5301 164.399 69.4194 163.35 69.4303C162.86 69.4303 162.35 69.3603 162.29 69.0303C162.21 68.5326 162.287 68.0224 162.51 67.5703L163.67 63.7803C165.27 58.3903 166.4 53.9703 166.18 53.9103C165.96 53.8503 164.48 58.1603 162.88 63.5603C162.5 64.8903 162.13 66.1503 161.78 67.3703C161.521 67.9745 161.482 68.6504 161.67 69.2803C161.749 69.4467 161.867 69.5923 162.013 69.7051C162.159 69.818 162.329 69.8951 162.51 69.9303C162.783 69.9874 163.062 70.0076 163.34 69.9903C164.389 70.0473 165.441 69.97 166.47 69.7603V69.7603Z" fill="#263238"/>
<path d="M172.52 47.6303C172.72 48.0903 174.37 47.7503 176.35 47.8503C178.33 47.9503 179.96 48.3903 180.19 47.9503C180.29 47.7403 179.98 47.3203 179.31 46.9503C178.422 46.4532 177.43 46.1724 176.414 46.1307C175.397 46.089 174.385 46.2876 173.46 46.7103C172.77 47.0203 172.43 47.4203 172.52 47.6303Z" fill="#263238"/>
<path d="M152.91 51.4601C153.12 51.8301 154.73 51.4601 156.69 51.3601C158.65 51.2601 160.26 51.5501 160.47 51.1601C160.56 50.9701 160.23 50.6401 159.55 50.3401C158.635 49.9772 157.653 49.8168 156.67 49.8701C155.671 49.8952 154.689 50.1339 153.79 50.5701C153.12 50.9201 152.85 51.2801 152.91 51.4601Z" fill="#263238"/>
<path d="M192.85 60.2202C193.05 60.1202 201.14 57.1002 201.49 65.5502C201.84 74.0002 193.28 72.6102 193.25 72.3702C193.22 72.1302 192.85 60.2202 192.85 60.2202Z" fill="#FFBE9D"/>
<path d="M195.72 69.0902C195.72 69.0902 195.87 69.1802 196.13 69.2902C196.483 69.4305 196.877 69.4305 197.23 69.2902C198.11 68.9202 198.8 67.4702 198.78 65.9502C198.773 65.2247 198.602 64.5102 198.28 63.8602C198.191 63.5988 198.04 63.3629 197.84 63.173C197.639 62.9831 197.396 62.8448 197.13 62.7702C196.959 62.733 196.781 62.7566 196.626 62.837C196.471 62.9173 196.348 63.0493 196.28 63.2102C196.17 63.4502 196.23 63.6202 196.19 63.6302C196.15 63.6402 196 63.5002 196.05 63.1502C196.09 62.9352 196.203 62.7407 196.37 62.6002C196.48 62.5086 196.608 62.4401 196.746 62.3989C196.883 62.3577 197.027 62.3445 197.17 62.3602C197.521 62.4075 197.853 62.5473 198.133 62.7651C198.412 62.983 198.629 63.2712 198.76 63.6002C199.154 64.3174 199.364 65.1216 199.37 65.9402C199.37 67.6402 198.58 69.2702 197.37 69.6802C197.147 69.7556 196.909 69.7796 196.676 69.7501C196.442 69.7207 196.218 69.6386 196.02 69.5102C195.75 69.2602 195.69 69.0902 195.72 69.0902Z" fill="#EB996E"/>
<path d="M168.46 75.6201C168.37 75.4001 170.02 74.9102 171.19 73.3502C171.676 72.6724 172.07 71.9324 172.36 71.1501C172.61 70.5301 172.79 70.1501 172.88 70.1501C172.97 70.1501 172.95 70.5901 172.81 71.2601C172.632 72.1535 172.26 72.9967 171.72 73.7301C171.169 74.4676 170.425 75.0386 169.57 75.3801C168.92 75.6701 168.48 75.6901 168.46 75.6201Z" fill="#263238"/>
<path d="M204.11 46.5402C202.35 43.5402 201.94 40.0002 200.97 36.6702C200 33.3402 198.16 29.9002 194.9 28.7302H194.82C191.89 27.5502 188.28 27.5302 185.88 29.5602C185.28 25.1702 181.43 21.6902 177.14 20.5602C172.85 19.4302 165.97 20.1002 161.86 21.7602C158.68 23.0402 155.61 25.6602 151.86 29.5102C150.283 31.1334 148.842 32.8825 147.55 34.7402L143.85 46.3102C143.445 46.6003 143.09 46.9551 142.8 47.3602C142.505 47.7916 142.376 48.3148 142.437 48.8336C142.497 49.3525 142.742 49.8323 143.127 50.1849C143.513 50.5374 144.012 50.7392 144.535 50.753C145.057 50.7669 145.566 50.5919 145.97 50.2602C146.35 50.9102 146.64 51.5702 146.97 52.2602L147.03 52.3802C147.218 52.8011 147.428 53.2117 147.66 53.6102V53.6102L150.54 66.3402C150.73 62.8702 150.47 50.8002 150.65 47.3402C153.261 47.2626 155.829 46.6583 158.2 45.5637C160.572 44.4691 162.697 42.9067 164.45 40.9702C166.34 38.8702 167.83 36.2402 170.37 34.9702C173.64 33.3502 177.53 34.5302 180.98 35.7302L180.83 35.6002C182.628 36.4311 184.251 37.5988 185.61 39.0402C184.832 45.8975 185.541 52.842 187.69 59.4002C188.01 60.4002 188.89 62.4002 189.86 62.7902C191.76 63.5202 192.27 61.5902 193.41 60.5602C194.423 59.8693 195.652 59.5674 196.87 59.7102C197.815 56.8351 198.59 53.9067 199.19 50.9402C200.339 51.2944 201.554 51.3766 202.74 51.1802C202.37 50.3102 202.01 49.4402 201.64 48.5602C202.094 48.8922 202.611 49.1271 203.16 49.2502C203.436 49.3071 203.722 49.2771 203.98 49.1643C204.238 49.0514 204.455 48.8613 204.6 48.6202C204.91 47.9102 204.48 47.1602 204.11 46.5402Z" fill="#263238"/>
<path d="M182 31.0203C182.436 31.3679 182.847 31.7455 183.23 32.1503C184.207 33.3257 184.862 34.7352 185.13 36.2403C185.337 37.2742 185.44 38.3259 185.44 39.3803C185.44 40.5103 185.35 41.7303 185.27 43.0103C185.151 44.3401 185.12 45.6764 185.18 47.0103C185.216 47.7293 185.307 48.4447 185.45 49.1503C185.562 49.9022 185.861 50.614 186.32 51.2203C186.535 51.4591 186.809 51.638 187.114 51.7396C187.419 51.8413 187.745 51.8622 188.06 51.8003C188.666 51.6877 189.218 51.3784 189.63 50.9203C190.3 50.0111 190.721 48.9424 190.85 47.8203H190.59C190.964 48.7507 191.469 49.6229 192.09 50.4103C192.695 51.1336 193.554 51.5986 194.49 51.7103C194.926 51.7551 195.365 51.679 195.76 51.4903C196.128 51.3025 196.428 51.0055 196.62 50.6403C196.806 50.3079 196.896 49.9306 196.88 49.5503C196.877 49.1804 196.738 48.8246 196.49 48.5503L196.36 48.6603C197.089 49.5098 197.993 50.192 199.01 50.6603C199.28 50.8218 199.561 50.9655 199.85 51.0903C199.943 51.128 200.04 51.1516 200.14 51.1603C200.052 51.1085 199.958 51.0682 199.86 51.0403C199.68 50.9703 199.41 50.8603 199.07 50.6903C198.093 50.199 197.223 49.5192 196.51 48.6903L196.38 48.8103C196.582 49.0692 196.698 49.3845 196.712 49.7125C196.727 50.0404 196.638 50.3647 196.46 50.6403C196.279 50.9613 196.008 51.2221 195.68 51.3903C195.322 51.5593 194.924 51.6251 194.53 51.5803C193.655 51.4681 192.857 51.0242 192.3 50.3403C191.696 49.5469 191.207 48.6714 190.85 47.7403L190.67 47.3403L190.59 47.7703C190.479 48.8511 190.089 49.8846 189.46 50.7703C189.092 51.1788 188.6 51.4561 188.06 51.5603C187.791 51.6113 187.514 51.5921 187.254 51.5046C186.995 51.417 186.763 51.2639 186.58 51.0603C186.148 50.4976 185.869 49.8327 185.77 49.1303C185.627 48.4415 185.536 47.7428 185.5 47.0403C185.443 45.7067 185.466 44.371 185.57 43.0403C185.65 41.7603 185.74 40.5403 185.72 39.3903C185.713 38.321 185.596 37.2554 185.37 36.2103C185.082 34.6834 184.391 33.2611 183.37 32.0903C182.979 31.6563 182.516 31.2942 182 31.0203V31.0203Z" fill="#455A64"/>
<path d="M143.85 43.0203L143.95 43.1003L144.26 43.3303C144.428 43.449 144.601 43.5591 144.78 43.6603C145.022 43.8046 145.273 43.9348 145.53 44.0503C147.182 44.8052 148.998 45.1319 150.81 45.0003C153.503 44.828 156.088 43.876 158.25 42.2603C160.862 40.2669 163.037 37.7585 164.64 34.8903C165.54 33.4003 166.27 31.8903 167.08 30.4503C167.82 29.0745 168.752 27.8117 169.85 26.7003C170.836 25.6926 172.061 24.9497 173.41 24.5403C174.018 24.3681 174.649 24.2971 175.28 24.3303C175.866 24.361 176.444 24.472 177 24.6603C177.956 24.985 178.833 25.51 179.57 26.2003C180.127 26.7259 180.596 27.3369 180.96 28.0103C181.246 28.5985 181.457 29.22 181.59 29.8603C181.59 29.8603 181.59 29.8103 181.59 29.7303C181.59 29.6503 181.59 29.5003 181.59 29.3503C181.487 28.8705 181.329 28.4042 181.12 27.9603C180.742 27.2593 180.248 26.6271 179.66 26.0903C178.913 25.366 178.02 24.8102 177.04 24.4603C176.468 24.2644 175.873 24.1433 175.27 24.1003C174.613 24.0676 173.955 24.1384 173.32 24.3103C171.932 24.7259 170.671 25.4822 169.65 26.5103C168.533 27.6353 167.583 28.915 166.83 30.3103C166.02 31.7403 165.29 33.3103 164.4 34.7403C162.81 37.5708 160.667 40.0532 158.1 42.0403C155.981 43.64 153.447 44.598 150.8 44.8003C149.017 44.9457 147.225 44.6539 145.58 43.9503C144.988 43.6694 144.411 43.359 143.85 43.0203V43.0203Z" fill="#455A64"/>
<path d="M142.73 37.6003C142.863 37.7212 143.011 37.8253 143.17 37.9103C143.591 38.1609 144.028 38.3815 144.48 38.5703C145.152 38.8579 145.848 39.0854 146.56 39.2503C148.304 39.6597 150.113 39.7175 151.88 39.4203C152.598 39.3014 153.304 39.1207 153.99 38.8803C154.452 38.7155 154.903 38.5218 155.34 38.3003C155.501 38.2209 155.655 38.1272 155.8 38.0203C155.8 38.0203 155.09 38.3203 153.93 38.6803C153.243 38.8916 152.541 39.052 151.83 39.1603C150.966 39.2827 150.093 39.3362 149.22 39.3203C148.346 39.2833 147.476 39.1729 146.62 38.9903C145.919 38.8404 145.23 38.6365 144.56 38.3803C143.42 37.9403 142.76 37.5503 142.73 37.6003Z" fill="#455A64"/>
<path d="M152.85 56.1803C153.1 56.4303 154.52 55.2803 156.59 55.1803C158.66 55.0803 160.19 56.1803 160.41 55.8703C160.63 55.5603 160.26 55.2903 159.59 54.8703C158.683 54.2663 157.609 53.9621 156.52 54.0003C155.427 54.0142 154.371 54.3945 153.52 55.0803C152.85 55.6003 152.69 56.0903 152.85 56.1803Z" fill="#263238"/>
<path d="M153.98 60.2701C154.008 60.7042 154.205 61.1102 154.528 61.4015C154.851 61.6929 155.275 61.8467 155.71 61.8301C155.923 61.8328 156.134 61.7927 156.332 61.7121C156.529 61.6315 156.708 61.5122 156.858 61.361C157.008 61.2099 157.126 61.0302 157.206 60.8325C157.285 60.6348 157.324 60.4231 157.32 60.2101C157.294 59.7742 157.099 59.3657 156.775 59.0722C156.452 58.7788 156.026 58.6236 155.59 58.6401C155.377 58.6401 155.166 58.6824 154.969 58.7645C154.773 58.8467 154.594 58.9671 154.444 59.1187C154.295 59.2703 154.176 59.4502 154.097 59.6478C154.017 59.8455 153.977 60.057 153.98 60.2701V60.2701Z" fill="#263238"/>
<path d="M144.62 106.09L100.02 135.28L72.85 114.09L64.39 127.5C64.39 127.5 80.21 145.81 86.07 152.03C91.93 158.25 95.85 161.56 100.46 160.97C105.07 160.38 143.7 145.38 143.7 145.38L149.56 104.44L147.1 105.03C146.217 105.234 145.377 105.593 144.62 106.09V106.09Z" fill="#3C41E7"/>
<path d="M194.39 96.0901C184.39 102.36 174.39 104.72 164.17 100.66L148.85 104.57L141.41 117.51C140.241 119.544 139.708 121.881 139.88 124.22L142.85 173.75L133.85 205.21L222.17 205.97L217.82 182.6L206.87 98.6001L194.39 96.0901Z" fill="#3C41E7"/>
<path d="M207.85 136.31L205.09 98.3901C205.09 98.3901 225.88 100.31 232.76 114.98C238.55 127.34 255.95 163.27 257.66 168.35C262.66 183.28 253.44 205.06 221.07 203.87L217.38 183.58L207.85 136.31Z" fill="#3C41E7"/>
<path d="M224.5 167.88C224.629 168.39 224.799 168.888 225.01 169.37C225.37 170.28 225.9 171.52 226.51 172.87L228.07 176.34C228.262 176.829 228.489 177.304 228.75 177.76C228.62 177.249 228.446 176.751 228.23 176.27C227.88 175.36 227.35 174.13 226.74 172.77C226.13 171.41 225.61 170.26 225.18 169.3C224.985 168.812 224.758 168.338 224.5 167.88V167.88Z" fill="#263238"/>
<path d="M212.99 138.03C213.06 138.03 213.12 135.63 213.12 132.67C213.12 129.71 213.06 127.3 212.99 127.3C212.92 127.3 212.87 129.7 212.87 132.67C212.87 135.64 212.93 138.03 212.99 138.03Z" fill="#263238"/>
<path d="M216.05 121.89C216.139 121.699 216.202 121.497 216.24 121.29C216.34 120.9 216.51 120.29 216.74 119.66C217.33 117.884 218.104 116.175 219.05 114.56C219.999 112.945 221.119 111.437 222.39 110.06C222.87 109.53 223.28 109.06 223.57 108.83C223.727 108.694 223.871 108.543 224 108.38C223.82 108.484 223.655 108.612 223.51 108.76C223.071 109.129 222.653 109.523 222.26 109.94C219.611 112.657 217.658 115.975 216.57 119.61C216.398 120.155 216.258 120.709 216.15 121.27C216.099 121.474 216.065 121.681 216.05 121.89V121.89Z" fill="#263238"/>
<path d="M142.71 119.54C142.8 119.947 142.84 120.364 142.83 120.78C142.83 121.58 142.89 122.78 142.83 124.17C142.83 127.03 142.5 130.97 142.15 135.31C141.817 139.004 141.67 142.712 141.71 146.42C141.71 147.84 141.79 149 141.86 149.79C141.9 150.203 141.9 150.618 141.86 151.03C141.733 150.635 141.656 150.225 141.63 149.81C141.5 149.02 141.39 147.87 141.31 146.44C141.164 142.715 141.26 138.983 141.6 135.27C141.95 130.92 142.3 127 142.43 124.15C142.5 122.73 142.54 121.58 142.56 120.78C142.571 120.363 142.621 119.948 142.71 119.54V119.54Z" fill="#263238"/>
<path d="M237.74 174.85C237.29 175.156 236.815 175.423 236.32 175.65C235.39 176.14 234.07 176.87 232.46 177.84C230.85 178.81 228.95 179.98 226.74 181.13C225.63 181.7 224.45 182.27 223.21 182.81L219.35 184.41L218.16 184.9L218.32 184.61C219.17 189.98 219.9 194.79 220.4 198.26C220.64 199.93 220.83 201.31 220.97 202.36C221.069 202.857 221.116 203.363 221.11 203.87C220.961 203.386 220.85 202.892 220.78 202.39C220.59 201.34 220.35 199.97 220.05 198.32C219.45 194.86 218.66 190.06 217.8 184.7V184.49L217.99 184.41L219.18 183.93L223.04 182.34C224.28 181.81 225.45 181.26 226.55 180.7C228.76 179.59 230.67 178.44 232.31 177.52C233.95 176.6 235.31 175.9 236.31 175.47C236.79 175.24 237.16 175.09 237.42 174.98C237.68 174.87 237.73 174.83 237.74 174.85Z" fill="#263238"/>
<path d="M242.45 168.35C242.45 168.44 241.4 168.64 239.78 169.25C237.678 170.044 235.719 171.176 233.98 172.6C232.248 174.034 230.765 175.743 229.59 177.66C228.69 179.13 228.29 180.14 228.2 180.11C228.224 179.854 228.292 179.604 228.4 179.37C228.64 178.715 228.931 178.08 229.27 177.47C231.524 173.402 235.237 170.339 239.66 168.9C240.312 168.683 240.981 168.519 241.66 168.41C241.918 168.347 242.185 168.327 242.45 168.35V168.35Z" fill="#263238"/>
<path d="M208.85 205.57L230.55 153.21C231.55 150.82 230.3 148.88 227.77 148.88H223.41C221.63 148.88 220.41 147.88 220.3 146.37L220.15 144.45C220.04 142.91 218.82 141.93 217.04 141.93H196.25C194.44 142.014 192.727 142.774 191.45 144.06L189.76 145.69C188.482 146.973 186.769 147.73 184.96 147.81H158.54C157.193 147.886 155.892 148.33 154.78 149.093C153.667 149.857 152.785 150.911 152.23 152.14L130.72 205.57H208.85Z" fill="#F6CF4A"/>
<g opacity="0.3">
<path opacity="0.3" d="M208.85 205.57L230.55 153.21C231.55 150.82 230.3 148.88 227.77 148.88H223.41C221.63 148.88 220.41 147.88 220.3 146.37L220.15 144.45C220.04 142.91 218.82 141.93 217.04 141.93H196.25C194.44 142.014 192.727 142.774 191.45 144.06L189.76 145.69C188.482 146.973 186.769 147.73 184.96 147.81H158.54C157.193 147.886 155.892 148.33 154.78 149.093C153.667 149.857 152.785 150.911 152.23 152.14L130.72 205.57H208.85Z" fill="#F6CF4A"/>
</g>
<path d="M212.39 187.79L220.58 156.14C221.12 154.06 219.75 151.97 217.85 151.97H153.7C153.048 152 152.424 152.248 151.93 152.674C151.435 153.1 151.097 153.68 150.97 154.32L139.06 201.95C138.53 204.04 139.37 205.3 141.27 205.28H205.85C206.493 205.244 207.106 204.996 207.593 204.574C208.08 204.153 208.413 203.581 208.54 202.95L212.39 187.79Z" fill="#E0E0E0"/>
<path d="M207.96 204.09L211.45 154.26C211.479 153.842 211.421 153.422 211.281 153.027C211.141 152.632 210.921 152.27 210.635 151.963C210.349 151.656 210.003 151.412 209.618 151.245C209.234 151.077 208.819 150.991 208.4 150.99H141.93V204.09H207.96Z" fill="#EBEBEB"/>
<path d="M208.7 205.28L200.85 153.9C200.663 153.081 200.203 152.35 199.545 151.829C198.886 151.307 198.07 151.025 197.23 151.03H129.94C129.336 151.024 128.739 151.168 128.205 151.45C127.67 151.731 127.214 152.142 126.877 152.644C126.541 153.146 126.335 153.724 126.278 154.326C126.221 154.927 126.314 155.534 126.55 156.09L141.07 203.09L208.7 205.28Z" fill="#FAFAFA"/>
<path d="M208.85 205.54L192.54 157.43C192.23 156.466 191.625 155.624 190.81 155.023C189.995 154.422 189.012 154.092 188 154.08H118.64C118.109 154.098 117.59 154.24 117.124 154.495C116.658 154.75 116.259 155.111 115.958 155.549C115.657 155.987 115.464 156.49 115.393 157.016C115.322 157.543 115.376 158.078 115.55 158.58L130.72 205.58L208.85 205.54Z" fill="#F6CF4A"/>
<g opacity="0.3">
<path opacity="0.3" d="M175.29 197.49C175.29 197.49 177.91 197.61 179.12 197.69C184.894 198.075 190.674 197.045 195.96 194.69C197.59 193.97 199.31 192.94 199.81 191.22C200.36 189.3 199.12 187.3 197.6 186C196.08 184.7 194.23 183.77 192.92 182.26C191.61 180.75 190.98 178.32 192.27 176.8L192.63 177.07C193.57 179.44 196.18 180.59 198.34 181.95C202.407 184.507 205.425 188.433 206.85 193.02C207.61 195.51 207.85 198.42 206.3 200.54C205.115 201.969 203.531 203.014 201.75 203.54C196.5 205.54 190.9 205.54 185.3 205.54C183.54 205.54 178.11 205.46 178.11 205.46C176.41 205 175.84 204.11 174.82 202.67C173.8 201.23 174.04 198.52 175.29 197.49Z" fill="black"/>
</g>
<path d="M175.29 197.49L193.37 194.77L200.37 190.77C200.831 190.515 201.221 190.148 201.502 189.702C201.784 189.256 201.948 188.746 201.98 188.22V188.09C201.996 187.437 201.814 186.795 201.456 186.249C201.099 185.702 200.584 185.277 199.98 185.03C197.75 184.09 194.23 182.85 192.72 180.21C190.56 176.42 192.72 175.64 192.72 175.64L207.82 181.64L218.51 188.92L220.7 201.09L205.78 205.96C205.78 205.96 189.17 206.9 184.58 206.39C179.99 205.88 180 203.74 180 203.74C179.15 203.47 177.42 201.96 177.43 200.55C175.2 198.46 175.29 197.48 175.29 197.48" fill="#FFBE9D"/>
<path d="M198.42 202.71C198.166 202.729 197.914 202.776 197.67 202.85C197.2 202.97 196.51 203.12 195.67 203.29C193.45 203.727 191.2 203.995 188.94 204.09C186.683 204.173 184.423 204.079 182.18 203.81C181.31 203.71 180.62 203.61 180.18 203.53C179.93 203.478 179.675 203.451 179.42 203.45C179.66 203.54 179.908 203.607 180.16 203.65C180.63 203.77 181.32 203.9 182.16 204.03C186.677 204.702 191.279 204.522 195.73 203.5C196.58 203.3 197.26 203.12 197.73 202.97C197.967 202.905 198.198 202.818 198.42 202.71V202.71Z" fill="#EB996E"/>
<path d="M196.76 199.91C196.506 199.939 196.255 199.989 196.01 200.06C195.53 200.17 194.83 200.33 194.01 200.49C191.753 200.921 189.466 201.175 187.17 201.25C184.875 201.317 182.579 201.21 180.3 200.93C179.42 200.83 178.72 200.73 178.23 200.65C177.981 200.593 177.726 200.563 177.47 200.56C177.709 200.652 177.957 200.719 178.21 200.76C178.69 200.88 179.39 201.01 180.27 201.15C182.557 201.487 184.869 201.621 187.18 201.55C189.492 201.487 191.792 201.202 194.05 200.7C194.725 200.557 195.393 200.38 196.05 200.17C196.297 200.114 196.535 200.026 196.76 199.91V199.91Z" fill="#EB996E"/>
</g>
<defs>
<linearGradient id="paint0_linear" x1="-28.9333" y1="-50.6" x2="159.398" y2="334.597" gradientUnits="userSpaceOnUse">
<stop stop-color="#76E7A3"/>
<stop offset="1" stop-color="#DAF3B1"/>
</linearGradient>
</defs>
</svg>
