<svg width="248" height="207" viewBox="0 0 248 207" fill="none" xmlns="http://www.w3.org/2000/svg">
<mask id="mask0" mask-type="alpha" maskUnits="userSpaceOnUse" x="0" y="0" width="248" height="207">
<rect width="248" height="207" rx="38" fill="#C4C4C4"/>
</mask>
<g mask="url(#mask0)">
<rect width="248" height="207" rx="38" fill="#FFBC81"/>
<path d="M291.032 198.542H140.659C139.908 198.542 139.165 198.392 138.474 198.099C137.783 197.806 137.157 197.377 136.635 196.838C136.113 196.298 135.705 195.66 135.435 194.959C135.165 194.259 135.039 193.511 135.064 192.761L139.298 78.7922C139.324 77.7936 139.74 76.845 140.456 76.1483C141.172 75.4516 142.131 75.0619 143.13 75.0623H295.843C296.65 75.0613 297.448 75.2242 298.189 75.5411C298.93 75.858 299.599 76.3223 300.156 76.9057C300.712 77.4891 301.144 78.1795 301.425 78.935C301.707 79.6905 301.832 80.4953 301.793 81.3006L296.431 193.357C296.375 194.752 295.782 196.071 294.776 197.037C293.769 198.004 292.427 198.543 291.032 198.542V198.542Z" fill="#E0E0E0"/>
<path d="M291.032 198.542H291.395C292.281 198.468 293.135 198.18 293.884 197.703C294.632 197.225 295.254 196.572 295.694 195.801C295.934 195.37 296.116 194.909 296.235 194.43C296.346 193.893 296.402 193.346 296.403 192.798C296.459 191.651 296.515 190.383 296.571 189.022C296.701 186.28 296.844 183.131 297 179.575C297.662 165.364 298.622 144.812 299.797 119.421C300.096 113.074 300.406 106.431 300.73 99.4936C300.885 96.0248 301.05 92.4875 301.224 88.8819C301.317 87.0791 301.404 85.2639 301.485 83.4362C301.485 82.5037 301.615 81.5712 301.578 80.6947C301.508 79.7932 301.234 78.9193 300.776 78.1397C300.309 77.353 299.661 76.6889 298.886 76.2025C298.11 75.716 297.231 75.4211 296.319 75.3422C294.454 75.2956 292.514 75.3422 290.593 75.3422H254.227H144.865H143.046C142.477 75.3558 141.919 75.4993 141.414 75.7618C140.915 76.0322 140.486 76.4161 140.162 76.8826C139.838 77.349 139.628 77.885 139.549 78.4474C139.428 80.8066 139.363 83.2404 139.26 85.6275C139.086 90.4081 138.912 95.1607 138.738 99.8852C138.384 109.328 138.036 118.625 137.694 127.776C137.013 146.053 136.351 163.686 135.726 180.489C135.565 184.686 135.412 188.829 135.269 192.919C135.259 193.902 135.52 194.868 136.023 195.712C136.527 196.556 137.253 197.245 138.123 197.703C138.983 198.155 139.949 198.371 140.92 198.328H167.16H208.749L268.96 198.412H285.334H289.596H291.041C291.041 198.412 290.556 198.412 289.596 198.412H285.334L268.96 198.458L208.749 198.533H167.16H143.988H140.985C139.94 198.58 138.9 198.348 137.974 197.862C137.034 197.368 136.248 196.624 135.704 195.713C135.159 194.801 134.877 193.757 134.887 192.696C135.03 188.599 135.179 184.449 135.335 180.247C135.95 163.462 136.603 145.81 137.274 127.533C137.61 118.389 137.955 109.092 138.309 99.6428C138.483 94.9244 138.657 90.1719 138.831 85.3851C138.934 82.9793 138.99 80.6108 139.12 78.1583C139.252 77.193 139.725 76.3066 140.454 75.6599C141.182 75.0133 142.119 74.6492 143.093 74.6335H144.958H254.32H290.687C292.626 74.6335 294.519 74.6335 296.449 74.6335C297.911 74.7617 299.278 75.4084 300.304 76.4567C301.33 77.5051 301.948 78.8859 302.044 80.3497C302.044 81.2822 301.979 82.2147 301.951 83.1471C301.867 85.0121 301.774 86.7932 301.69 88.5929C301.51 92.2047 301.339 95.7388 301.177 99.1952C300.842 106.133 300.531 112.778 300.245 119.132C298.995 144.523 297.988 165.066 297.289 179.277C297.112 182.83 296.953 185.982 296.822 188.714C296.748 190.085 296.683 191.343 296.627 192.5C296.619 193.055 296.557 193.608 296.44 194.15C296.317 194.636 296.129 195.104 295.881 195.54C295.526 196.161 295.051 196.706 294.485 197.143C293.918 197.58 293.271 197.9 292.58 198.085C292.229 198.18 291.87 198.236 291.507 198.253L291.032 198.542Z" fill="#263238"/>
<path d="M141.051 77.4216L137.601 170.381H294.93L299.378 77.4216H141.051Z" fill="white"/>
<path d="M218.447 182.979C218.447 183.949 218.159 184.897 217.62 185.704C217.082 186.51 216.315 187.139 215.419 187.51C214.523 187.882 213.537 187.979 212.585 187.789C211.634 187.6 210.76 187.133 210.074 186.447C209.388 185.761 208.921 184.887 208.732 183.936C208.542 182.984 208.639 181.998 209.011 181.102C209.382 180.206 210.011 179.44 210.817 178.901C211.624 178.362 212.572 178.074 213.542 178.074C214.842 178.076 216.088 178.594 217.008 179.513C217.927 180.433 218.445 181.679 218.447 182.979V182.979Z" fill="white"/>
<path d="M195.806 198.44L194.818 229.725H232.444L234.094 198.44H195.806Z" fill="#E0E0E0"/>
<path d="M195.806 198.44C195.806 198.44 195.853 198.44 195.974 198.44H196.487H198.538L206.325 198.356L234.076 198.253H234.299V198.477C233.814 207.681 233.264 218.237 232.686 229.408V229.762V229.995H232.434H194.818H194.603V229.79C194.948 220.353 195.228 212.52 195.424 207.019C195.536 204.315 195.62 202.188 195.676 200.706C195.676 200.006 195.732 199.456 195.75 199.065C195.769 198.673 195.797 198.515 195.797 198.515C195.797 198.515 195.797 198.72 195.797 199.102C195.797 199.484 195.797 200.034 195.797 200.79C195.797 202.282 195.713 204.426 195.648 207.149C195.499 212.623 195.293 220.419 195.042 229.799L194.837 229.594H232.453L232.211 229.818V229.473C232.807 218.283 233.376 207.737 233.87 198.542L234.085 198.766L206.474 198.664L198.632 198.598H196.534H195.993L195.806 198.44Z" fill="#263238"/>
<path d="M273.976 198.794H273.678H272.811L269.473 198.859L257.192 198.99C246.822 199.064 232.49 199.055 216.666 198.99L176.149 198.831H163.869H160.53H159.663H159.365C159.461 198.82 159.558 198.82 159.654 198.831H160.53L163.869 198.766L176.149 198.636C186.519 198.561 200.842 198.57 216.675 198.636L257.192 198.794H269.473H272.811H273.678C273.777 198.782 273.877 198.782 273.976 198.794V198.794Z" fill="#263238"/>
<path d="M291.367 170.726C291.367 170.857 257.257 170.969 215.193 170.969C173.128 170.969 139.018 170.857 139.018 170.726C139.018 170.596 173.119 170.475 215.193 170.475C257.266 170.475 291.367 170.586 291.367 170.726Z" fill="#263238"/>
<path d="M167.347 97.5728H146.291V100.202H167.347V97.5728Z" fill="#E0E0E0"/>
<path d="M154.833 106.049H146.291V108.679H154.833V106.049Z" fill="#E0E0E0"/>
<path d="M154.078 113.789H145.536V116.418H154.078V113.789Z" fill="#E0E0E0"/>
<path d="M298.464 88.8819C298.464 89.0124 263.16 89.1243 219.631 89.1243C176.103 89.1243 140.799 89.0124 140.799 88.8819C140.799 88.7513 176.084 88.6394 219.631 88.6394C263.178 88.6394 298.464 88.742 298.464 88.8819Z" fill="#E0E0E0"/>
<path d="M147.298 83.315C147.298 83.5843 147.219 83.8475 147.069 84.0714C146.919 84.2953 146.707 84.4698 146.458 84.5728C146.209 84.6759 145.935 84.7028 145.671 84.6503C145.407 84.5978 145.165 84.4681 144.974 84.2777C144.784 84.0873 144.654 83.8447 144.602 83.5806C144.549 83.3165 144.576 83.0428 144.679 82.794C144.782 82.5453 144.957 82.3326 145.181 82.183C145.405 82.0334 145.668 81.9536 145.937 81.9536C146.298 81.9536 146.644 82.097 146.9 82.3524C147.155 82.6077 147.298 82.954 147.298 83.315Z" fill="#E0E0E0"/>
<path d="M151.066 83.315C151.066 83.5843 150.986 83.8475 150.836 84.0714C150.687 84.2953 150.474 84.4698 150.225 84.5728C149.976 84.6759 149.703 84.7028 149.439 84.6503C149.175 84.5978 148.932 84.4681 148.742 84.2777C148.551 84.0873 148.421 83.8447 148.369 83.5806C148.316 83.3165 148.343 83.0428 148.446 82.794C148.549 82.5453 148.724 82.3326 148.948 82.183C149.172 82.0334 149.435 81.9536 149.704 81.9536C150.065 81.9536 150.412 82.097 150.667 82.3524C150.922 82.6077 151.066 82.954 151.066 83.315V83.315Z" fill="#E0E0E0"/>
<path d="M153.472 84.6393C154.223 84.6393 154.833 84.0298 154.833 83.2779C154.833 82.526 154.223 81.9165 153.472 81.9165C152.72 81.9165 152.11 82.526 152.11 83.2779C152.11 84.0298 152.72 84.6393 153.472 84.6393Z" fill="#E0E0E0"/>
<path d="M172.904 88.9844C173.035 88.9844 172.177 107.224 171.04 129.697C169.902 152.17 168.727 170.381 168.596 170.381C168.466 170.381 169.314 152.151 170.508 129.669C171.702 107.187 172.755 88.9844 172.904 88.9844Z" fill="#E0E0E0"/>
<path d="M186.668 101.788H184.439C182.343 101.788 180.644 103.487 180.644 105.583V107.811C180.644 109.907 182.343 111.607 184.439 111.607H186.668C188.764 111.607 190.463 109.907 190.463 107.811V105.583C190.463 103.487 188.764 101.788 186.668 101.788Z" fill="#FF725E"/>
<path d="M282.789 103.68C282.789 103.811 263.561 103.923 239.838 103.923C216.116 103.923 196.879 103.811 196.879 103.68C196.879 103.55 216.107 103.438 239.838 103.438C263.57 103.438 282.789 103.55 282.789 103.68Z" fill="#263238"/>
<path d="M256.903 111.038C256.903 111.168 243.783 111.28 227.595 111.28C211.407 111.28 198.287 111.168 198.287 111.038C198.287 110.907 211.407 110.795 227.595 110.795C243.783 110.795 256.903 110.907 256.903 111.038Z" fill="#263238"/>
<path d="M186.836 122.004H184.607C182.511 122.004 180.812 123.703 180.812 125.799V128.028C180.812 130.124 182.511 131.823 184.607 131.823H186.836C188.932 131.823 190.631 130.124 190.631 128.028V125.799C190.631 123.703 188.932 122.004 186.836 122.004Z" fill="#455A64"/>
<path d="M282.938 123.906C282.938 124.037 263.701 124.149 239.987 124.149C216.274 124.149 197 124.037 197 123.906C197 123.776 216.228 123.664 239.96 123.664C263.691 123.664 282.938 123.757 282.938 123.906Z" fill="#263238"/>
<path d="M257.071 131.263C257.071 131.394 243.951 131.506 227.763 131.506C211.575 131.506 198.445 131.394 198.445 131.263C198.445 131.133 211.575 131.021 227.763 131.021C243.951 131.021 257.071 131.124 257.071 131.263Z" fill="#263238"/>
<path d="M186.994 142.229H184.766C182.67 142.229 180.97 143.929 180.97 146.025V148.253C180.97 150.349 182.67 152.049 184.766 152.049H186.994C189.09 152.049 190.79 150.349 190.79 148.253V146.025C190.79 143.929 189.09 142.229 186.994 142.229Z" fill="#FF725E"/>
<path d="M283.106 144.122C283.106 144.262 263.868 144.365 240.146 144.365C216.424 144.365 197.186 144.262 197.186 144.122C197.186 143.982 216.424 143.88 240.146 143.88C263.868 143.88 283.106 143.992 283.106 144.122Z" fill="#263238"/>
<path d="M257.229 151.48C257.229 151.62 244.109 151.722 227.921 151.722C211.733 151.722 198.613 151.62 198.613 151.48C198.613 151.34 211.733 151.237 227.921 151.237C244.109 151.237 257.229 151.349 257.229 151.48Z" fill="#263238"/>
<path opacity="0.3" d="M195.517 207.494L233.758 204.836L234.066 198.887H195.797L195.517 207.494Z" fill="black"/>
<path d="M120 86.7202L133.4 81.2002C139.968 86.4943 148.278 89.1403 156.698 88.6181C165.117 88.0958 173.037 84.4432 178.9 78.3781C184.763 72.3129 188.146 64.2741 188.383 55.8417C188.619 47.4092 185.694 39.1932 180.18 32.8085C174.667 26.4238 166.965 22.3323 158.588 21.3383C150.211 20.3442 141.765 22.5195 134.91 27.4366C128.056 32.3536 123.288 39.6568 121.545 47.9105C119.802 56.1642 121.209 64.7714 125.49 72.0402V72.0402L120 86.7202Z" fill="#FAFAFA"/>
<path d="M120 86.7201C120.26 86.0201 122 81.3602 125.38 71.9902L125.44 71.8401L125.55 71.9501L125.39 72.0801C124.02 69.7483 122.926 67.2649 122.13 64.6801C121.193 61.5958 120.702 58.3935 120.67 55.1701C120.647 53.3852 120.781 51.6017 121.07 49.8401C121.24 48.9301 121.38 48.0001 121.58 47.0801C121.78 46.1601 122.1 45.2401 122.36 44.3001C125.073 36.0833 130.816 29.2097 138.42 25.0801C142.626 22.7901 147.273 21.4263 152.05 21.0801C157.098 20.7339 162.16 21.5126 166.87 23.3601C171.802 25.2696 176.207 28.3275 179.72 32.2801L181.05 33.8401C181.49 34.3501 181.84 34.9402 182.25 35.4902C182.66 36.0402 183.06 36.5701 183.38 37.1701L184.38 38.9301C184.72 39.5075 185.018 40.1091 185.27 40.7301C185.54 41.3401 185.81 41.9501 186.09 42.5601L186.72 44.4501C186.949 45.0676 187.14 45.6989 187.29 46.3401C188.571 51.345 188.712 56.5739 187.7 61.6401C186.758 66.4354 184.775 70.9654 181.89 74.9101C176.684 81.9624 168.971 86.748 160.34 88.2801C156.682 88.8656 152.956 88.8925 149.29 88.3601C146.107 87.8627 143.012 86.9096 140.1 85.5301C137.684 84.3838 135.412 82.9573 133.33 81.2801H133.43L120 86.7101L133.36 81.0901H133.41C135.491 82.7449 137.756 84.1542 140.16 85.2902C143.051 86.6444 146.123 87.574 149.28 88.0501C152.931 88.5761 156.641 88.539 160.28 87.9401C168.819 86.3855 176.435 81.6144 181.56 74.6101C184.407 70.7088 186.363 66.2301 187.29 61.4902C188.283 56.4856 188.14 51.3218 186.87 46.3801C186.728 45.7444 186.54 45.1195 186.31 44.5101L185.68 42.6401L184.87 40.8401C184.627 40.2251 184.336 39.63 184 39.0601L183 37.3201C182.657 36.747 182.283 36.1929 181.88 35.6601C181.49 35.1201 181.14 34.5301 180.7 34.0301L179.39 32.4902C175.921 28.5862 171.57 25.5659 166.7 23.6801C162.065 21.8804 157.091 21.1191 152.13 21.4501C147.404 21.8115 142.808 23.1751 138.65 25.4501C131.126 29.5377 125.432 36.328 122.72 44.4501C122.46 45.3701 122.2 46.2901 121.94 47.1901C121.68 48.0901 121.6 49.0301 121.43 49.9201C121.14 51.6683 120.999 53.4381 121.01 55.2101C121.032 58.4076 121.507 61.5858 122.42 64.6501C123.203 67.2254 124.28 69.7018 125.63 72.0301L126.03 72.7101L125.47 72.1501H125.64L120 86.7201Z" fill="#263238"/>
<path d="M164.85 55.8702C164.85 55.1918 165.051 54.5286 165.428 53.9646C165.805 53.4005 166.341 52.9609 166.967 52.7013C167.594 52.4417 168.284 52.3737 168.949 52.5061C169.615 52.6384 170.226 52.9651 170.705 53.4448C171.185 53.9245 171.512 54.5357 171.644 55.201C171.776 55.8664 171.709 56.556 171.449 57.1828C171.189 57.8095 170.75 58.3452 170.186 58.7221C169.622 59.099 168.958 59.3002 168.28 59.3002C167.37 59.3002 166.498 58.9388 165.855 58.2956C165.211 57.6523 164.85 56.7799 164.85 55.8702V55.8702Z" fill="#263238"/>
<path d="M151.13 55.8702C151.13 55.1914 151.331 54.5278 151.709 53.9635C152.086 53.3993 152.622 52.9596 153.25 52.7003C153.877 52.441 154.567 52.3737 155.233 52.5068C155.898 52.64 156.51 52.9677 156.989 53.4484C157.468 53.9291 157.794 54.5411 157.925 55.2072C158.057 55.8732 157.987 56.5631 157.726 57.1897C157.465 57.8163 157.024 58.3513 156.458 58.727C155.893 59.1027 155.229 59.3022 154.55 59.3002C153.642 59.2975 152.772 58.935 152.131 58.292C151.49 57.6491 151.13 56.7781 151.13 55.8702V55.8702Z" fill="#263238"/>
<path d="M137.46 57.5803C137.124 56.9939 136.969 56.3211 137.015 55.6469C137.061 54.9726 137.306 54.3272 137.719 53.7919C138.131 53.2567 138.693 52.8557 139.334 52.6396C139.974 52.4234 140.664 52.4019 141.316 52.5776C141.969 52.7533 142.555 53.1183 143 53.6267C143.445 54.1351 143.73 54.7641 143.818 55.4341C143.906 56.1041 143.794 56.7853 143.495 57.3915C143.197 57.9977 142.725 58.5018 142.14 58.8403C141.75 59.0658 141.32 59.2121 140.873 59.2708C140.427 59.3295 139.973 59.2994 139.538 59.1824C139.103 59.0653 138.696 58.8635 138.339 58.5886C137.983 58.3136 137.684 57.971 137.46 57.5803V57.5803Z" fill="#263238"/>
<path d="M166.032 212.203C166.032 212.203 175.357 204.538 177.166 204.538C177.681 204.514 178.196 204.596 178.677 204.781C179.159 204.966 179.597 205.248 179.963 205.61C179.963 205.61 193.522 205.825 194.743 206.431C195.965 207.037 195.937 210.105 195.937 210.105C195.937 210.105 199.816 211.718 200.431 214.32C201.047 216.921 200.273 223.178 200.431 223.645C200.59 224.111 197.988 225.631 197.988 225.631L196.916 230.666C196.326 230.585 195.761 230.375 195.261 230.053C194.76 229.731 194.335 229.304 194.016 228.801C192.944 227.123 192.636 223.757 192.636 223.757L183.069 227.263C176.456 229.714 169.239 230.021 162.442 228.139C160.251 227.533 154.535 226.274 154.535 226.274L157.854 208.557L166.032 212.203Z" fill="#CC6760"/>
<path d="M179.917 205.61C179.973 205.75 177.511 206.72 174.723 208.408C171.935 210.096 169.855 211.681 169.762 211.56C170.122 211.1 170.55 210.698 171.03 210.366C172.122 209.492 173.275 208.698 174.481 207.988C175.672 207.267 176.919 206.644 178.211 206.123C178.745 205.854 179.323 205.681 179.917 205.61V205.61Z" fill="#9D4941"/>
<path d="M38.8599 70.9408C36.6779 64.9729 34.5145 58.949 33.3956 52.6827C32.2766 46.4164 32.2206 39.8517 34.2255 33.8092C34.5239 32.8767 37.1721 26.7316 38.1326 26.7969C38.8226 26.7969 37.256 32.5503 37.629 33.1378C41.1445 38.7327 42.2915 45.5026 41.9931 52.0673C41.6552 58.4555 40.6043 64.786 38.8599 70.9408" fill="#263238"/>
<path d="M40.9019 104.827L38.58 47.0879C37.489 31.1704 44.6132 16.8847 60.5587 16.2319H62.2932C69.3905 16.3581 76.1805 19.1503 81.3135 24.0535C86.4464 28.9566 89.5464 35.6118 89.9973 42.6959C90.8739 56.5713 91.6665 71.9666 91.452 79.4078C90.9951 94.7099 75.5997 96.8267 75.5997 96.8267C75.5997 96.8267 76.2618 107.923 76.3737 112.418C76.3737 112.418 74.7512 113.593 60.5214 114.096C46.2917 114.6 40.9019 104.827 40.9019 104.827Z" fill="#CC6760"/>
<path d="M75.6372 96.8545C68.5681 96.7154 61.6874 94.5503 55.8125 90.6162C55.8125 90.6162 60.4749 101.806 75.777 100.724L75.6372 96.8545Z" fill="#9D4941"/>
<path d="M84.7381 56.6181C84.7357 57.1888 84.5099 57.7358 84.1089 58.142C83.708 58.5481 83.164 58.781 82.5933 58.7908C82.3147 58.8071 82.0356 58.7677 81.7725 58.6748C81.5093 58.582 81.2672 58.4375 81.0606 58.25C80.8539 58.0624 80.6867 57.8355 80.5688 57.5825C80.4509 57.3295 80.3847 57.0555 80.374 56.7766C80.3787 56.2067 80.6054 55.661 81.0058 55.2554C81.4062 54.8497 81.9489 54.616 82.5187 54.6039C82.7974 54.5876 83.0765 54.627 83.3396 54.7199C83.6028 54.8128 83.8449 54.9572 84.0515 55.1448C84.2582 55.3324 84.4254 55.5593 84.5433 55.8123C84.6612 56.0652 84.7274 56.3392 84.7381 56.6181V56.6181Z" fill="#263238"/>
<path d="M86.137 51.1627C85.8572 51.4424 84.2254 50.2302 81.8662 50.1556C79.507 50.081 77.7726 51.2653 77.5208 50.9762C77.3996 50.8457 77.6886 50.3328 78.4533 49.8013C79.4835 49.1127 80.7021 48.7608 81.9408 48.7942C83.1633 48.8101 84.3489 49.2152 85.3257 49.9505C86.0344 50.5193 86.2675 51.0228 86.137 51.1627Z" fill="#263238"/>
<path d="M64.699 56.6176C64.6943 57.1892 64.4664 57.7362 64.064 58.1421C63.6615 58.548 63.1165 58.7806 62.545 58.7903C62.2664 58.8066 61.9873 58.7672 61.7241 58.6743C61.4609 58.5815 61.2189 58.437 61.0122 58.2495C60.8055 58.0619 60.6384 57.835 60.5205 57.582C60.4026 57.329 60.3364 57.0551 60.3257 56.7762C60.3304 56.2062 60.557 55.6605 60.9574 55.2549C61.3578 54.8492 61.9006 54.6156 62.4704 54.6035C62.7495 54.5871 63.029 54.6265 63.2928 54.7192C63.5565 54.812 63.7992 54.9563 64.0066 55.1438C64.214 55.3312 64.382 55.5581 64.5009 55.8111C64.6198 56.0642 64.6872 56.3383 64.699 56.6176Z" fill="#263238"/>
<path d="M64.6338 51.5173C64.3541 51.7971 62.7689 50.5849 60.363 50.5103C57.9572 50.4357 56.2694 51.6199 56.0177 51.3215C55.8964 51.191 56.1762 50.6874 56.9501 50.1559C57.9793 49.4641 59.1979 49.1089 60.4376 49.1395C61.6612 49.1582 62.8469 49.5665 63.8226 50.3051C64.5313 50.8739 64.7644 51.3868 64.6338 51.5173Z" fill="#263238"/>
<path d="M71.7953 69.6727C71.7953 69.5422 73.25 69.3091 75.6278 69.048C76.2246 69.0013 76.8027 68.8895 76.9053 68.4792C76.9646 67.8595 76.838 67.2362 76.5416 66.6888C76.0008 65.2279 75.4351 63.6955 74.8445 62.0916C72.4853 55.5642 70.7975 50.1465 71.0586 50.0532C71.3197 49.96 73.4458 55.2006 75.805 61.7559L77.4182 66.4184C77.7854 67.1478 77.8813 67.984 77.6886 68.7776C77.6055 68.9922 77.4739 69.1847 77.304 69.34C77.1341 69.4953 76.9307 69.6092 76.7095 69.6727C76.3739 69.7564 76.0296 69.8002 75.6837 69.8033C73.2779 69.8499 71.8046 69.8313 71.7953 69.6727Z" fill="#263238"/>
<path d="M64.3075 44.6449C63.9997 45.2511 61.7058 44.6449 58.9177 44.7009C56.1296 44.7568 53.8357 45.2137 53.5373 44.5983C53.4067 44.3092 53.8636 43.7497 54.8241 43.2369C56.1031 42.6171 57.5058 42.2952 58.927 42.2952C60.3482 42.2952 61.751 42.6171 63.03 43.2369C63.9904 43.7964 64.438 44.3559 64.3075 44.6449Z" fill="#263238"/>
<path d="M86.9666 43.3207C86.4911 43.8615 84.6074 43.3207 82.3042 43.3207C80.001 43.3207 78.1173 43.7309 77.6418 43.1715C77.4459 42.901 77.7443 42.3695 78.5743 41.8473C79.7095 41.2028 80.9992 40.8804 82.3042 40.9149C83.6195 40.9066 84.9112 41.265 86.0341 41.9499C86.8827 42.5094 87.1531 43.0502 86.9666 43.3207Z" fill="#263238"/>
<path d="M39.6245 58.3334C39.3727 58.2122 29.162 55.0418 29.3112 65.5136C29.4604 75.9854 39.9509 73.6728 39.9602 73.3651C39.9695 73.0574 39.6245 58.3334 39.6245 58.3334Z" fill="#CC6760"/>
<path d="M36.5285 69.486C36.5285 69.486 36.3513 69.6165 36.0436 69.7657C35.606 69.9373 35.1198 69.9373 34.6822 69.7657C33.5725 69.3741 32.612 67.6303 32.5374 65.7467C32.493 64.8493 32.6524 63.9535 33.0037 63.1264C33.0982 62.7987 33.2705 62.4987 33.5059 62.2519C33.7413 62.0051 34.0329 61.8189 34.3558 61.709C34.5657 61.6495 34.7897 61.6654 34.9891 61.754C35.1884 61.8426 35.3504 61.9983 35.4468 62.194C35.5867 62.483 35.5214 62.6975 35.5774 62.7068C35.6333 62.7161 35.8011 62.5296 35.7079 62.1007C35.6474 61.8413 35.4992 61.6107 35.2883 61.448C34.9861 61.2662 34.626 61.2062 34.2812 61.2801C33.8557 61.3741 33.4612 61.575 33.1349 61.8638C32.8086 62.1525 32.5612 62.5197 32.4162 62.9306C31.9834 63.844 31.7786 64.8487 31.8194 65.8586C31.922 67.9754 33.0317 69.9336 34.5516 70.3439C34.8328 70.4237 35.1284 70.4383 35.416 70.3866C35.7037 70.3349 35.9757 70.2182 36.2114 70.0455C36.5192 69.7471 36.6124 69.5046 36.5285 69.486Z" fill="#9D4941"/>
<path d="M82.8358 25.7898C84.505 24.8573 79.2924 19.4489 75.0869 17.6586C68.7273 14.945 59.0761 13.4157 53.3133 15.1968C46.3663 17.3415 40.6409 20.9502 37.2839 27.3937C33.927 33.8372 32.78 41.2691 33.153 48.5238C33.1112 50.7476 33.6615 52.9424 34.7475 54.8834C36.2675 57.168 39.1116 58.5574 39.0556 61.7558C39.0305 62.3351 39.1206 62.9136 39.3207 63.4578C39.5208 64.0021 39.8269 64.5012 40.2212 64.9263C42.1795 66.9218 44.4827 64.9263 45.5178 63.0053C47.7184 58.8465 47.8676 53.9509 47.9515 49.2418C48.0261 45.9035 48.0821 42.4906 47.0191 39.3015C46.4596 37.5671 45.6017 35.9446 45.1541 34.1822C44.8718 33.3145 44.7806 32.3961 44.8868 31.4898C44.9931 30.5836 45.2942 29.7111 45.7695 28.9323C46.0228 28.6159 46.3037 28.3226 46.6088 28.0558C48.0378 26.747 49.7899 25.8428 51.6846 25.4363C53.5793 25.0298 55.5482 25.1357 57.3883 25.7432C63.3376 27.6921 73.4737 30.5642 76.038 28.5407C79.768 25.5754 80.6165 23.6824 80.6165 23.6824L82.8358 25.7898Z" fill="#263238"/>
<path d="M73.3152 76.0602C73.3152 76.2374 72.7837 76.5731 71.73 76.7036C70.3508 76.8294 68.9632 76.5815 67.7129 75.9859C66.4626 75.3903 65.3958 74.4689 64.6245 73.3187C64.065 72.3862 63.9624 71.7614 64.1209 71.6868C64.466 71.5097 65.7341 73.5518 68.3078 74.7454C70.8815 75.939 73.2407 75.6779 73.3152 76.0602Z" fill="#263238"/>
<path d="M37.3305 101.871L32.3511 104.361C32.3511 104.361 18.4477 116.661 14.2329 124.577C10.018 132.494 12.3679 170.941 16.3403 185.189C20.4769 199.843 23.82 214.71 26.3552 229.724H110.745L92.0954 130.816L88.3655 122.022L80.085 112.697L78.3413 103.941C78.3413 103.941 62.1813 95.7262 51.8214 93.9638C41.4614 92.2014 38.5521 95.3812 38.5521 95.3812L37.3305 101.871Z" fill="#219653"/>
<path opacity="0.3" d="M61.3794 158.678C61.3794 158.678 74.6393 209.49 84.7382 217.602C89.4006 221.332 109.915 225.333 109.915 225.333L108.181 216.138L61.3794 158.678Z" fill="black"/>
<path d="M63.9902 113.994C71.1144 109.462 84.9245 114.674 88.8876 123.048C92.2632 130.181 107.537 189.254 107.537 189.254L162.601 208.51L158.768 228.857C158.768 228.857 97.2893 220.782 88.2255 213.658C81.5396 208.398 67.0674 175.808 58.1715 151.908" fill="#219653"/>
<path d="M58.1715 151.909C58.1715 151.909 58.2741 152.132 58.4419 152.571L59.2066 154.52L62.1719 162.045C64.8015 168.572 68.6993 178.018 74.0797 189.497C75.4318 192.369 76.8772 195.362 78.4904 198.44C80.1036 201.517 81.8287 204.697 83.8335 207.858C84.8349 209.473 85.9703 211.002 87.2278 212.427C88.5994 213.818 90.2799 214.866 92.1326 215.485C95.9962 216.922 99.9489 218.105 103.966 219.029C112.218 221.024 121.012 222.684 130.187 224.26C139.363 225.836 148.93 227.291 158.796 228.615L158.526 228.811L161.799 211.373C161.976 210.441 162.162 209.452 162.339 208.501L162.498 208.772L107.481 189.506H107.36V189.385C103.761 175.463 100.357 162.595 97.224 151.153C95.6668 145.419 94.1561 140.047 92.7108 135.077C91.9928 132.597 91.2561 130.219 90.5474 127.944C90.1651 126.825 89.8201 125.706 89.4191 124.652C89.2046 124.13 89.0088 123.608 88.7943 123.104C88.5799 122.601 88.2628 122.172 88.011 121.687C85.8101 118.518 82.7723 116.022 79.2364 114.479C76.6352 113.28 73.8264 112.596 70.9652 112.464C69.1802 112.383 67.3966 112.652 65.7153 113.257C65.2913 113.426 64.8772 113.619 64.4751 113.835L64.0555 114.04L64.4565 113.807C64.8533 113.574 65.2644 113.365 65.6873 113.182C67.3713 112.545 69.1657 112.25 70.9652 112.315C73.8653 112.417 76.717 113.089 79.3576 114.292C82.9445 115.832 86.0314 118.341 88.2721 121.538L89.0834 122.983C89.3072 123.496 89.5124 124.027 89.7268 124.549C90.1371 125.613 90.4821 126.731 90.8738 127.86C91.5918 130.126 92.3285 132.522 93.0558 134.984C94.5198 139.954 96.0491 145.325 97.625 151.051C100.786 162.502 104.218 175.361 107.882 189.283L107.733 189.124L162.806 208.361L163.002 208.436V208.641C162.824 209.574 162.647 210.506 162.461 211.504C161.342 217.481 160.232 223.374 159.188 228.951L159.141 229.174H158.917C149.042 227.841 139.475 226.377 130.29 224.801C121.105 223.225 112.312 221.547 104.05 219.532C100.012 218.598 96.0406 217.399 92.1606 215.942C90.2545 215.299 88.5264 214.216 87.1159 212.781C85.8431 211.328 84.6981 209.769 83.6936 208.119C81.6888 204.939 79.9637 201.75 78.3598 198.663C76.756 195.577 75.3199 192.565 73.9678 189.693C68.5967 178.177 64.7735 168.703 62.1905 162.166C60.9037 158.884 59.9432 156.338 59.2998 154.613C58.9921 153.755 58.7496 153.093 58.5911 152.636C58.4326 152.179 58.1715 151.909 58.1715 151.909Z" fill="#263238"/>
<path d="M80.0663 112.698C79.9227 112.648 79.7851 112.582 79.656 112.502L78.5277 111.868C77.5952 111.327 76.1033 110.572 74.2756 109.751C69.4979 107.625 64.5588 105.882 59.505 104.538C54.4535 103.137 49.2899 102.176 44.0724 101.666C43.0746 101.582 42.2074 101.498 41.3682 101.489C40.5289 101.48 39.8855 101.424 39.326 101.489H38.0299C37.8816 101.513 37.7305 101.513 37.5823 101.489C37.7287 101.451 37.8788 101.429 38.0299 101.424L39.326 101.312C39.8855 101.247 40.5756 101.312 41.3775 101.265C42.1794 101.219 43.0933 101.312 44.1003 101.368C49.3421 101.784 54.5319 102.702 59.5983 104.109C64.6818 105.458 69.6344 107.258 74.3968 109.49C75.8385 110.163 77.2396 110.919 78.593 111.756L79.684 112.464C79.9544 112.567 80.0757 112.679 80.0663 112.698Z" fill="#263238"/>
<path d="M101.998 195.055C103.233 192.69 105.163 190.76 107.528 189.525C107.612 189.646 106.195 190.681 104.684 192.211C103.173 193.74 102.11 195.139 101.998 195.055Z" fill="#263238"/>
<path d="M55.2622 138.173C54.9652 137.501 54.7734 136.787 54.6934 136.056C54.1084 132.553 54.3608 128.962 55.43 125.575C55.6086 124.863 55.8981 124.183 56.2879 123.561C54.8193 128.287 54.4681 133.289 55.2622 138.173Z" fill="#263238"/>
<path d="M50.7117 124.689C50.7117 124.82 42.655 124.932 32.7334 124.941C22.8117 124.95 14.7457 124.838 14.7457 124.699C14.7457 124.559 22.8024 124.456 32.7334 124.456C42.6644 124.456 50.7117 124.512 50.7117 124.689Z" fill="#263238"/>
</g>
</svg>
