<svg width="248" height="207" viewBox="0 0 248 207" fill="none" xmlns="http://www.w3.org/2000/svg">
<mask id="mask0" mask-type="alpha" maskUnits="userSpaceOnUse" x="0" y="0" width="248" height="207">
<rect width="248" height="207" rx="38" fill="#C4C4C4"/>
</mask>
<g mask="url(#mask0)">
<rect width="248" height="207" rx="38" fill="url(#paint0_linear)"/>
<path d="M275.216 37.8066H47.6555V206.807H275.216V37.8066Z" fill="white"/>
<path d="M275.216 206.817C275.216 205.047 275.126 140.117 274.996 37.8166L275.216 38.0366H47.6756L47.9356 37.7766C47.9356 98.4866 47.9356 156.007 47.9356 206.777L47.6956 206.537L275.256 206.777L47.6956 207.007H47.4656V206.777C47.4656 155.997 47.4656 98.4766 47.4656 37.7766V37.5166H47.7456H275.286H275.496V37.7266C275.296 140.147 275.216 205.057 275.216 206.817Z" fill="#263238"/>
<path d="M275.216 62.8464C275.216 62.9964 224.386 63.1164 161.686 63.1164C98.9855 63.1164 48.1555 62.9964 48.1555 62.8464C48.1555 62.6964 98.9755 62.5864 161.686 62.5864C224.396 62.5864 275.216 62.7064 275.216 62.8464Z" fill="#E0E0E0"/>
<path d="M61.4756 50.2266C61.4776 50.9059 61.2778 51.5704 60.9017 52.136C60.5256 52.7016 59.99 53.1428 59.3628 53.4036C58.7357 53.6645 58.0452 53.7332 57.3789 53.6012C56.7126 53.4692 56.1005 53.1423 55.6202 52.662C55.1399 52.1817 54.8131 51.5696 54.681 50.9033C54.549 50.237 54.6178 49.5466 54.8786 48.9194C55.1394 48.2923 55.5806 47.7567 56.1462 47.3805C56.7118 47.0044 57.3763 46.8047 58.0556 46.8067C58.9626 46.8067 59.8325 47.167 60.4739 47.8083C61.1152 48.4497 61.4756 49.3196 61.4756 50.2266V50.2266Z" fill="#E0E0E0"/>
<path d="M71.8055 50.2266C71.8075 50.9054 71.608 51.5696 71.2324 52.1349C70.8567 52.7003 70.3217 53.1415 69.6951 53.4027C69.0685 53.6638 68.3786 53.7332 67.7126 53.602C67.0465 53.4707 66.4344 53.1449 65.9537 52.6656C65.473 52.1863 65.1454 51.5751 65.0122 50.9095C64.879 50.2439 64.9464 49.5537 65.2057 48.9263C65.465 48.299 65.9046 47.7627 66.4689 47.3854C67.0332 47.0081 67.6967 46.8066 68.3755 46.8066C69.2835 46.8066 70.1544 47.1666 70.7974 47.8077C71.4404 48.4488 71.8029 49.3187 71.8055 50.2266V50.2266Z" fill="#E0E0E0"/>
<path d="M82.1256 50.2266C82.1276 50.9059 81.9279 51.5704 81.5517 52.136C81.1756 52.7016 80.64 53.1428 80.0128 53.4036C79.3857 53.6645 78.6952 53.7332 78.0289 53.6012C77.3626 53.4692 76.7506 53.1423 76.2703 52.662C75.79 52.1817 75.4631 51.5696 75.3311 50.9033C75.199 50.237 75.2678 49.5466 75.5286 48.9194C75.7895 48.2923 76.2307 47.7567 76.7963 47.3805C77.3619 47.0044 78.0264 46.8047 78.7056 46.8067C79.6127 46.8067 80.4826 47.167 81.1239 47.8083C81.7653 48.4497 82.1256 49.3196 82.1256 50.2266V50.2266Z" fill="#E0E0E0"/>
<path d="M170.416 25.2066C169.876 24.1046 169.011 23.1946 167.939 22.5992C166.866 22.0038 165.636 21.7516 164.416 21.8766C163.021 20.7191 161.28 20.0601 159.469 20.0039C157.657 19.9478 155.879 20.4977 154.416 21.5666C153.372 20.877 152.167 20.4696 150.919 20.3841C149.671 20.2986 148.422 20.5379 147.294 21.0788C146.166 21.6196 145.198 22.4435 144.483 23.4701C143.768 24.4967 143.331 25.691 143.216 26.9366C141.966 26.6434 140.654 26.7589 139.475 27.2663C138.295 27.7736 137.31 28.646 136.663 29.7552C136.016 30.8643 135.742 32.1518 135.881 33.4282C136.02 34.7047 136.565 35.9029 137.436 36.8466C136.041 37.2192 134.835 38.0977 134.053 39.3108C133.27 40.524 132.967 41.985 133.203 43.4092C133.439 44.8334 134.197 46.1187 135.329 47.0148C136.46 47.9109 137.885 48.3536 139.326 48.2566L169.036 31.9366C169.927 31.0911 170.537 29.9922 170.784 28.7887C171.031 27.5851 170.902 26.3347 170.416 25.2066Z" fill="#333333"/>
<path d="M138.396 49.0268C139.199 42.8893 142.283 37.2789 147.033 33.3104C151.784 29.3419 157.853 27.3058 164.036 27.6068L165.306 27.6668C179.016 29.1568 185.416 41.6668 183.546 55.2968L179.286 100.987L179.056 103.197L147.056 107.987L147.686 96.3168C147.686 96.3168 134.566 93.6068 135.056 80.3768C135.286 73.9968 136.846 60.8768 138.396 49.0268Z" fill="#FFBE9D"/>
<path d="M147.566 96.2964C153.704 96.6003 159.801 95.1393 165.136 92.0864C165.136 92.0864 160.586 101.396 147.456 99.5464L147.566 96.2964Z" fill="#EB996E"/>
<path d="M141.266 61.8868C141.235 62.3786 141.398 62.8629 141.719 63.2365C142.04 63.6101 142.495 63.8434 142.986 63.8868C143.223 63.9145 143.464 63.8947 143.693 63.8285C143.923 63.7622 144.137 63.6509 144.323 63.5011C144.509 63.3512 144.664 63.1658 144.778 62.9556C144.891 62.7454 144.962 62.5146 144.986 62.2768C145.019 61.7844 144.857 61.2987 144.535 60.9245C144.213 60.5503 143.757 60.3177 143.266 60.2768C143.028 60.2491 142.788 60.2689 142.558 60.3351C142.328 60.4013 142.114 60.5126 141.928 60.6625C141.742 60.8124 141.587 60.9978 141.474 61.208C141.36 61.4182 141.289 61.649 141.266 61.8868V61.8868Z" fill="#263238"/>
<path d="M140.916 55.6367C141.136 55.8967 142.626 54.9067 144.656 55.0167C146.686 55.1267 148.126 56.2067 148.356 56.0167C148.586 55.8267 148.256 55.4567 147.626 54.9467C146.762 54.285 145.713 53.9108 144.626 53.8767C143.566 53.8183 142.515 54.0985 141.626 54.6767C141.036 55.0867 140.806 55.5267 140.916 55.6367Z" fill="#263238"/>
<path d="M159.186 63.1465C159.158 63.6393 159.323 64.1236 159.646 64.4968C159.969 64.8701 160.424 65.1031 160.916 65.1465C161.394 65.197 161.873 65.056 162.248 64.7543C162.623 64.4526 162.863 64.0147 162.916 63.5365C162.946 63.0447 162.784 62.5604 162.462 62.1868C162.141 61.8132 161.686 61.5799 161.196 61.5365C160.958 61.5101 160.717 61.5308 160.488 61.5975C160.258 61.6641 160.044 61.7754 159.857 61.9249C159.67 62.0744 159.515 62.2593 159.4 62.4689C159.285 62.6785 159.212 62.9088 159.186 63.1465V63.1465Z" fill="#263238"/>
<path d="M160.866 57.0063C161.086 57.2663 162.566 56.2763 164.596 56.3863C166.626 56.4963 168.066 57.5863 168.296 57.3863C168.526 57.1863 168.196 56.8264 167.576 56.3164C166.724 55.6679 165.695 55.2946 164.626 55.2464C163.566 55.1879 162.515 55.4681 161.626 56.0463C161.036 56.4563 160.756 56.8963 160.866 57.0063Z" fill="#263238"/>
<path d="M152.746 71.7064C151.693 71.314 150.594 71.0585 149.476 70.9464C148.956 70.8664 148.476 70.7364 148.406 70.3764C148.386 69.8386 148.533 69.3079 148.826 68.8564L150.556 64.9864C152.966 59.4664 154.736 54.9264 154.556 54.8264C154.376 54.7264 152.196 59.1264 149.786 64.6464C149.206 66.0064 148.646 67.3064 148.126 68.5464C147.773 69.1496 147.642 69.857 147.756 70.5464C147.82 70.7328 147.927 70.9019 148.068 71.0406C148.208 71.1793 148.378 71.2839 148.566 71.3464C148.847 71.4389 149.14 71.496 149.436 71.5164C150.527 71.713 151.639 71.7768 152.746 71.7064V71.7064Z" fill="#263238"/>
<path d="M158.656 73.4064C158.326 73.4064 158.206 75.5764 156.246 77.0464C154.286 78.5164 151.946 78.1564 151.916 78.4664C151.916 78.6064 152.416 78.9164 153.406 78.9964C154.696 79.0784 155.974 78.7031 157.016 77.9364C158.016 77.1995 158.69 76.102 158.896 74.8764C159.036 73.9564 158.806 73.3964 158.656 73.4064Z" fill="#263238"/>
<path d="M160.736 49.0266C160.906 49.5866 162.946 49.4266 165.316 49.8266C167.686 50.2266 169.576 50.9766 169.926 50.5066C170.076 50.2766 169.766 49.7366 169.016 49.1666C168.011 48.4604 166.858 47.9918 165.646 47.796C164.433 47.6003 163.192 47.6825 162.016 48.0366C161.126 48.3466 160.666 48.7566 160.736 49.0266Z" fill="#333333"/>
<path d="M141.956 49.7964C142.296 50.2764 143.716 49.8664 145.396 49.9264C147.076 49.9864 148.486 50.3964 148.846 49.9264C148.996 49.6964 148.846 49.2264 148.196 48.7564C147.39 48.1811 146.426 47.8701 145.436 47.8664C144.446 47.8305 143.47 48.1068 142.646 48.6564C142.036 49.1464 141.806 49.5664 141.956 49.7964Z" fill="#333333"/>
<path d="M139.976 43.0364C139.976 43.0364 143.866 34.9264 147.976 33.1964C152.976 31.0964 154.736 36.5064 159.406 35.4464C164.076 34.3864 168.796 32.3764 173.326 36.1664C178.326 40.3164 175.736 42.9364 175.766 48.8164C175.876 72.6464 179.876 79.5864 181.676 68.4564C181.866 67.2364 185.316 66.4564 186.086 61.2664C187.086 54.5764 187.736 46.4264 186.476 41.5864C185.406 37.5064 183.256 34.5864 179.296 31.3464C173.036 26.1464 164.116 25.6364 158.036 25.9464C151.956 26.2564 139.936 32.6464 139.976 43.0364Z" fill="#333333"/>
<path d="M180.826 68.0468C180.867 67.5628 181.007 67.0924 181.235 66.6637C181.464 66.235 181.776 65.8571 182.155 65.5525C182.533 65.2479 182.969 65.023 183.437 64.8914C183.905 64.7598 184.394 64.7243 184.876 64.7868C187.326 65.1468 189.996 66.6768 189.586 71.7868C188.846 80.7868 179.936 78.2068 179.946 77.9468C179.956 77.6868 180.486 71.8268 180.826 68.0468Z" fill="#FFBE9D"/>
<path d="M182.186 74.6865C182.186 74.6865 182.336 74.8165 182.586 74.9565C182.948 75.1483 183.372 75.1913 183.766 75.0765C184.766 74.8065 185.666 73.3565 185.846 71.7365C185.932 70.9634 185.843 70.1807 185.586 69.4465C185.525 69.1583 185.395 68.8893 185.207 68.6627C185.018 68.4362 184.778 68.259 184.505 68.1465C184.324 68.0714 184.121 68.0667 183.936 68.1332C183.751 68.1998 183.598 68.3329 183.505 68.5065C183.365 68.7465 183.406 68.9265 183.356 68.9365C183.306 68.9465 183.176 68.7765 183.276 68.4065C183.343 68.1858 183.484 67.995 183.676 67.8665C183.941 67.7026 184.261 67.6488 184.566 67.7165C184.931 67.8181 185.264 68.0124 185.532 68.2804C185.8 68.5485 185.994 68.8813 186.096 69.2465C186.416 70.0594 186.533 70.9383 186.436 71.8065C186.226 73.6165 185.156 75.2465 183.826 75.5165C183.577 75.5641 183.321 75.5565 183.076 75.4943C182.83 75.4321 182.601 75.3168 182.406 75.1565C182.186 74.9065 182.156 74.7065 182.186 74.6865Z" fill="#EB996E"/>
<path d="M181.516 50.5367C180.364 51.3798 179.02 51.9227 177.606 52.1167C176.897 52.1795 176.19 51.9887 175.609 51.5785C175.029 51.1682 174.613 50.5651 174.436 49.8767C174.366 49.2467 174.556 48.5167 174.166 48.0167C173.776 47.5167 172.776 47.5467 172.016 47.5867C170.688 47.6247 169.389 47.2037 168.336 46.3949C167.283 45.5861 166.541 44.4388 166.236 43.1467C165.516 44.1467 163.956 43.9967 162.976 43.2967C162.076 42.4877 161.292 41.559 160.646 40.5367C160.321 40.0304 159.879 39.6104 159.356 39.3125C158.834 39.0147 158.247 38.848 157.646 38.8267C156.995 39.0189 156.323 39.1331 155.646 39.1667C154.466 39.0067 153.956 37.5867 153.836 36.3967C153.716 35.2067 153.636 33.8267 152.666 33.1367C151.696 32.4467 150.536 32.7867 149.436 32.8867C148.336 32.9867 146.946 32.6667 146.716 31.5867C146.682 31.2975 146.708 31.0046 146.793 30.726C146.877 30.4473 147.018 30.1889 147.206 29.9667C147.994 28.9153 149.112 28.1594 150.382 27.8202C151.651 27.4811 152.998 27.5785 154.206 28.0967C154.725 26.6146 155.673 25.3199 156.929 24.3764C158.184 23.4329 159.692 22.883 161.26 22.7963C162.828 22.7096 164.387 23.0899 165.739 23.8892C167.091 24.6886 168.176 25.8709 168.856 27.2867C169.858 26.4643 171.044 25.8959 172.313 25.6297C173.583 25.3636 174.897 25.4076 176.146 25.758C177.394 26.1084 178.54 26.7548 179.485 27.6425C180.43 28.5301 181.147 29.6327 181.576 30.8567C182.698 30.6178 183.866 30.715 184.934 31.1362C186.002 31.5573 186.922 32.2839 187.579 33.2249C188.236 34.1659 188.602 35.2797 188.63 36.4272C188.657 37.5747 188.346 38.7049 187.736 39.6767C188.556 40.134 189.246 40.7926 189.741 41.5904C190.236 42.3882 190.52 43.2989 190.566 44.2367C190.506 46.1067 188.566 47.8767 186.816 47.2967C187.213 48.0592 187.292 48.9485 187.034 49.769C186.776 50.5895 186.203 51.2739 185.441 51.6717C184.678 52.0695 183.789 52.1482 182.968 51.8903C182.148 51.6325 181.463 51.0592 181.066 50.2967" fill="#333333"/>
<path d="M187.476 47.3267C187.497 47.6403 187.451 47.9549 187.338 48.2485C187.226 48.5421 187.051 48.8077 186.826 49.0267C186.355 49.5835 185.69 49.9409 184.966 50.0267C184.504 50.0792 184.037 50.0283 183.598 49.8778C183.158 49.7274 182.758 49.481 182.426 49.1567H182.806C182.29 49.9756 181.645 50.7052 180.896 51.3167C180.393 51.7344 179.816 52.0533 179.196 52.2567C178.604 52.4463 177.972 52.4739 177.366 52.3367C176.85 52.27 176.356 52.0902 175.919 51.8101C175.482 51.53 175.112 51.1566 174.836 50.7167C174.5 50.1241 174.283 49.4721 174.196 48.7967C174.143 48.5562 174.143 48.3072 174.196 48.0667C174.196 48.0667 174.296 48.3067 174.426 48.7567C174.581 49.3793 174.834 49.9733 175.176 50.5167C175.493 50.9173 175.889 51.2478 176.341 51.4871C176.792 51.7264 177.288 51.8694 177.798 51.907C178.307 51.9446 178.819 51.876 179.301 51.7055C179.782 51.5351 180.223 51.2664 180.596 50.9167C181.302 50.3448 181.919 49.6707 182.426 48.9167L182.596 48.6567L182.806 48.8767C183.085 49.1575 183.422 49.3744 183.793 49.5125C184.164 49.6506 184.561 49.7066 184.956 49.6767C185.588 49.6266 186.181 49.3496 186.626 48.8967C187.013 48.4369 187.302 47.9026 187.476 47.3267V47.3267Z" fill="white"/>
<path d="M171.426 25.8367C171.426 25.8367 171.186 25.8867 170.776 26.0367C170.188 26.2602 169.679 26.6535 169.316 27.1667L169.196 27.3267L169.036 27.1467C167.981 25.5576 166.539 24.2636 164.846 23.3867C163.751 22.8283 162.552 22.5047 161.326 22.4367C160.121 22.3853 158.923 22.6269 157.832 23.1407C156.742 23.6545 155.793 24.4253 155.066 25.3867C154.481 26.1737 154.094 27.0893 153.936 28.0567L153.886 28.3467L153.616 28.2567C152.372 27.85 151.019 27.9469 149.846 28.5267C148.92 28.9814 148.16 29.7161 147.676 30.6267C147.267 31.4538 147.033 32.3556 146.986 33.2767C146.907 33.0351 146.879 32.7795 146.906 32.5267C146.943 31.8331 147.116 31.1536 147.416 30.5267C147.896 29.5311 148.685 28.7174 149.666 28.2067C150.929 27.5447 152.404 27.4116 153.766 27.8367L153.456 28.0367C153.612 26.9802 154.024 25.9778 154.656 25.1167C155.429 24.083 156.444 23.2551 157.613 22.7059C158.781 22.1566 160.066 21.9028 161.356 21.9667C162.651 22.0516 163.912 22.413 165.056 23.0267C166.798 23.9546 168.256 25.3368 169.276 27.0267H169.046C169.459 26.4882 170.039 26.1014 170.696 25.9267C170.926 25.8302 171.179 25.7991 171.426 25.8367Z" fill="white"/>
<path d="M161.696 74.8767C161.546 74.8767 161.536 73.8767 160.806 73.0867C160.076 72.2967 159.166 72.0867 159.186 71.9367C159.206 71.7867 159.446 71.8067 159.846 71.9367C160.378 72.0742 160.853 72.3749 161.206 72.7967C161.565 73.2079 161.786 73.7225 161.836 74.2667C161.856 74.6367 161.756 74.8867 161.696 74.8767Z" fill="#EB996E"/>
<path d="M162.616 72.4165C162.486 72.4865 162.176 72.1565 161.706 71.9265C161.236 71.6965 160.796 71.5965 160.776 71.4565C160.756 71.3165 161.326 71.1365 161.946 71.4565C162.566 71.7765 162.746 72.3665 162.616 72.4165Z" fill="#EB996E"/>
<path d="M172.356 94.1464C172.356 94.1464 172.496 94.0864 172.616 93.9164C172.693 93.8013 172.74 93.6679 172.75 93.5294C172.761 93.3908 172.735 93.252 172.676 93.1264C172.546 92.7764 172.146 92.4564 171.896 91.8564C171.824 91.6885 171.793 91.5065 171.803 91.3244C171.814 91.1424 171.866 90.9652 171.956 90.8064C172.146 90.5437 172.353 90.2932 172.576 90.0564C173.316 89.1964 171.296 88.4864 171.576 87.3464C171.623 86.9733 171.813 86.633 172.106 86.3964C172.326 86.2564 172.466 86.2364 172.486 86.2664C172.18 86.5607 171.988 86.9541 171.946 87.3764C171.956 87.594 172.018 87.806 172.126 87.9953C172.233 88.1846 172.384 88.346 172.566 88.4664C172.81 88.6823 173.004 88.9484 173.136 89.2464C173.212 89.4325 173.237 89.636 173.207 89.835C173.177 90.034 173.094 90.2212 172.966 90.3764C172.754 90.5961 172.554 90.8264 172.366 91.0664C172.311 91.161 172.277 91.2667 172.269 91.3757C172.26 91.4848 172.276 91.5944 172.316 91.6964C172.466 92.1464 172.856 92.5364 172.986 92.9964C173.052 93.1807 173.062 93.3802 173.016 93.5704C172.97 93.7606 172.869 93.9331 172.726 94.0664C172.526 94.1464 172.346 94.1464 172.356 94.1464Z" fill="#EB996E"/>
<path d="M175.176 93.7968C175.176 93.7968 175.176 93.6668 175.076 93.4668C174.954 93.1871 174.796 92.9249 174.606 92.6868C174.464 92.5039 174.344 92.306 174.246 92.0968C174.109 91.8209 174.077 91.5046 174.156 91.2068C174.336 90.5568 174.886 90.2068 175.156 89.7168C175.426 89.2268 175.226 88.8668 174.856 88.4568C174.669 88.2548 174.513 88.0255 174.396 87.7768C174.303 87.5417 174.266 87.2886 174.286 87.0368C174.406 86.0968 175.056 85.8468 175.056 85.9068C174.829 86.2473 174.691 86.6393 174.656 87.0468C174.669 87.2587 174.725 87.4657 174.821 87.655C174.918 87.8442 175.052 88.0116 175.216 88.1468C175.443 88.361 175.623 88.6198 175.746 88.9068C175.806 89.0856 175.825 89.2759 175.8 89.463C175.776 89.6502 175.71 89.8293 175.606 89.9868C175.226 90.5768 174.736 90.9168 174.606 91.3368C174.574 91.5404 174.584 91.7484 174.636 91.9478C174.687 92.1473 174.779 92.3342 174.906 92.4968C175.093 92.78 175.216 93.1009 175.266 93.4368C175.286 93.6868 175.206 93.8068 175.176 93.7968Z" fill="#EB996E"/>
<path d="M197.406 166.787L209.406 178.347L205.526 156.237L229.876 148.537C229.876 148.537 236.336 178.877 237.466 186.057C239.466 198.927 237.006 217.237 225.006 218.527C212.006 219.917 202.216 207.117 196.006 198.707C191.216 192.247 183.476 180.957 183.476 180.957L197.476 166.787" fill="#E8505B"/>
<path d="M104.656 147.146C100.746 159.446 95.2855 161.306 93.1255 196.546C92.7055 203.416 94.1956 212.546 100.706 214.806C107.956 217.266 119.036 212.806 122.506 206.806V182.546L104.656 147.146Z" fill="#E8505B"/>
<path d="M120.796 198.587C120.085 196.823 119.283 195.098 118.396 193.417C117.379 191.806 116.274 190.254 115.086 188.767C115.568 189.067 115.995 189.449 116.346 189.897C117.273 190.903 118.084 192.01 118.766 193.197C119.458 194.378 120.018 195.632 120.436 196.937C120.642 197.464 120.764 198.021 120.796 198.587V198.587Z" fill="#263238"/>
<path d="M98.7756 161.306C98.9756 160.576 110.996 127.866 114.826 120.706C119.416 112.146 129.036 108.356 135.036 107.986C141.036 107.616 205.036 112.716 205.036 112.716C205.036 112.716 222.976 117.226 226.606 133.456C231.156 153.816 234.816 173.886 234.816 173.886L202.716 180.817L198.946 171.306L138.636 184.756L123.936 162.976L98.7756 161.306Z" fill="#E8505B"/>
<path d="M209.296 114.587L184.276 103.557L181.476 92.7666L152.276 106.577L146.156 99.8166L143.596 107.437L137.196 109.527L124.606 134.347L122.286 191.877L122.506 206.817L208.806 207.387L208.106 182.927L209.296 114.587Z" fill="#E8505B"/>
<path d="M181.476 92.7666C181.476 92.7666 178.216 93.7166 169.826 98.1866C161.616 102.567 152.276 106.577 152.276 106.577L152.986 119.757L184.036 104.147" fill="#F2C94C"/>
<path d="M146.156 99.8164L152.276 106.576L149.006 120.706L143.556 107.936" fill="#F2C94C"/>
<g opacity="0.3">
<path opacity="0.3" d="M152.166 108.026C151.896 108.236 150.166 124.346 150.166 124.346L181.316 105.526L153.036 119.756L152.166 108.026Z" fill="black"/>
</g>
<path d="M152.446 207.007C152.446 207.007 151.806 183.127 152.376 168.157C152.846 155.827 150.906 124.397 150.906 124.397L146.846 123.747C141.672 146.12 138.189 168.851 136.426 191.747L135.276 206.897" fill="#F2C94C"/>
<path d="M201.896 143.637C202.035 144.049 202.132 144.475 202.186 144.907C202.356 145.807 202.566 146.987 202.826 148.407C203.346 151.407 204.036 155.477 204.826 159.957C205.616 164.437 206.286 168.557 206.726 171.527C206.946 173.007 207.116 174.207 207.226 175.047C207.3 175.476 207.34 175.911 207.346 176.347C207.213 175.929 207.116 175.501 207.056 175.067C206.896 174.167 206.676 172.997 206.426 171.577C205.896 168.577 205.186 164.497 204.426 160.027C203.666 155.557 203.006 151.417 202.556 148.457C202.356 147.027 202.196 145.837 202.066 144.937C201.973 144.509 201.916 144.074 201.896 143.637V143.637Z" fill="#263238"/>
<path d="M211.156 116.487C211.156 116.557 210.316 117.247 209.056 118.547C205.753 121.944 203.467 126.198 202.456 130.827C202.066 132.597 201.976 133.727 201.896 133.717C201.857 133.452 201.857 133.182 201.896 132.917C201.93 132.195 202.017 131.476 202.156 130.767C203.018 126.021 205.356 121.668 208.836 118.327C209.356 117.822 209.91 117.354 210.496 116.927C210.697 116.754 210.919 116.606 211.156 116.487V116.487Z" fill="#263238"/>
<path d="M152.376 112.876L149.586 111.796L146.956 116.316L146.476 123.746L150.196 124.346L152.986 119.756L152.376 112.876Z" fill="#F6CF4A"/>
<path d="M122.296 134.977C122.416 134.977 122.506 151.057 122.506 170.897C122.506 190.737 122.416 206.817 122.296 206.817C122.176 206.817 122.076 190.737 122.076 170.897C122.076 151.057 122.176 134.977 122.296 134.977Z" fill="#263238"/>
<path d="M152.576 106.457C152.626 106.457 151.976 107.457 150.986 109.147C149.996 110.837 148.696 113.147 147.446 115.767L147.156 116.407L146.956 116.827L146.766 116.407C145.747 114.276 144.878 112.078 144.166 109.827C143.896 108.967 143.696 108.267 143.586 107.827C143.5 107.579 143.453 107.319 143.446 107.057C143.506 107.057 143.836 108.057 144.446 109.767C145.239 111.977 146.143 114.147 147.156 116.267H146.766C146.856 116.057 146.956 115.847 147.056 115.627C148.125 113.344 149.351 111.139 150.726 109.027C151.256 108.217 151.726 107.577 152.026 107.147C152.175 106.891 152.36 106.659 152.576 106.457Z" fill="#263238"/>
<path d="M184.286 103.557L183.856 103.817L182.596 104.477L177.956 106.877C174.036 108.877 168.676 111.817 162.726 114.997C159.106 116.917 155.676 118.707 152.726 120.197L152.456 120.337V120.037C152.456 116.167 152.386 112.907 152.366 110.547C152.366 109.437 152.366 108.547 152.366 107.877C152.332 107.544 152.332 107.209 152.366 106.877C152.419 107.187 152.446 107.502 152.446 107.817C152.446 108.497 152.506 109.387 152.546 110.497C152.606 112.847 152.696 116.107 152.796 119.977L152.516 119.807C155.516 118.287 158.896 116.487 162.516 114.557C168.456 111.387 173.846 108.557 177.806 106.557C179.806 105.557 181.386 104.797 182.506 104.267L183.806 103.687C183.961 103.627 184.122 103.583 184.286 103.557V103.557Z" fill="#263238"/>
<path d="M126.036 113.717C126.096 113.717 125.606 114.587 124.976 115.997C124.162 117.831 123.565 119.754 123.196 121.727C122.831 123.705 122.704 125.719 122.816 127.727C122.906 129.267 123.066 130.217 122.996 130.227C122.894 130.023 122.829 129.803 122.806 129.577C122.666 128.974 122.57 128.363 122.516 127.747C122.107 123.664 122.863 119.548 124.696 115.877C124.969 115.322 125.277 114.784 125.616 114.267C125.876 113.897 126.036 113.707 126.036 113.717Z" fill="#263238"/>
<path d="M149.516 124.827C149.456 124.927 148.746 124.597 147.936 124.087C147.126 123.577 146.526 123.087 146.596 122.977C146.666 122.867 147.366 123.207 148.166 123.717C148.966 124.227 149.576 124.727 149.516 124.827Z" fill="#263238"/>
<path d="M150.856 123.006C149.467 120.566 148.334 117.989 147.476 115.316C148.854 117.762 149.986 120.338 150.856 123.006V123.006Z" fill="#263238"/>
<g opacity="0.3">
<path opacity="0.3" d="M168.446 188.797C168.359 188.084 168.001 187.432 167.446 186.977C166.446 186.307 165.116 187.187 164.056 187.817C161.276 189.477 157.836 189.417 154.596 189.277C144.832 188.949 135.097 188.024 125.446 186.507C120.736 185.717 115.976 184.687 111.756 182.427C107.536 180.167 103.866 176.537 102.506 171.957L100.256 170.727C102.006 174.457 101.826 185.007 102.446 189.077C103.066 193.147 104.876 196.077 108.796 197.317C110.402 197.725 112.069 197.84 113.716 197.657C129.776 196.867 145.986 197.587 162.046 196.797C164.336 196.677 167.046 196.367 168.226 194.427C169.306 192.797 168.896 190.677 168.446 188.797Z" fill="black"/>
</g>
<path d="M228.796 197.967C228.751 197.908 228.715 197.844 228.686 197.777L228.396 197.217L227.926 196.287L227.135 195.147C225.306 192.671 223.218 190.398 220.906 188.367C217.996 185.697 214.316 182.697 210.176 179.257C208.116 177.527 205.916 175.707 203.716 173.687C201.388 171.61 199.225 169.357 197.246 166.947H197.556L185.036 180.007L183.366 181.757V181.477C188.096 188.397 192.366 195.087 196.916 200.697C199.041 203.353 201.311 205.89 203.716 208.297C205.768 210.427 207.981 212.396 210.336 214.187C214.656 217.447 218.996 218.857 222.016 218.777C222.396 218.777 222.746 218.777 223.086 218.777L224.016 218.677L224.806 218.587L225.456 218.437L226.336 218.247L226.646 218.197L226.356 218.287L225.476 218.527L224.826 218.697L224.026 218.797L223.096 218.917C222.756 218.917 222.396 218.917 222.016 218.917C219.016 219.037 214.536 217.657 210.156 214.397C207.774 212.616 205.537 210.65 203.466 208.517C201.039 206.11 198.749 203.569 196.606 200.907C192.056 195.297 187.736 188.597 183.016 181.697L182.916 181.547L183.036 181.427L184.706 179.677L197.226 166.607L197.396 166.437L197.536 166.627C199.503 169.019 201.649 171.259 203.956 173.327C206.136 175.327 208.316 177.177 210.366 178.917C214.496 182.367 218.166 185.407 221.046 188.107C223.36 190.162 225.433 192.473 227.226 194.997C227.506 195.447 227.766 195.847 227.996 196.207L228.426 197.207C228.536 197.447 228.626 197.637 228.686 197.787C228.746 197.937 228.806 197.967 228.796 197.967Z" fill="#263238"/>
<g opacity="0.3">
<path opacity="0.3" d="M186.316 185.516L184.956 185.106C186.126 191.856 189.826 201.406 193.176 207.386H202.936C199.236 202.766 186.316 185.516 186.316 185.516Z" fill="black"/>
</g>
<path d="M195.486 168.686L175.736 147.146L163.896 144.896L150.456 146.606C150.315 147.263 150.407 147.948 150.718 148.543C151.028 149.138 151.537 149.606 152.156 149.866L147.156 150.146C147.02 150.509 146.961 150.895 146.981 151.281C147.002 151.667 147.101 152.045 147.274 152.391C147.446 152.737 147.688 153.044 147.984 153.293C148.281 153.541 148.625 153.727 148.996 153.836L145.446 154.466C145.913 155.5 146.711 156.348 147.715 156.877C148.718 157.406 149.869 157.585 150.986 157.386C154.462 156.911 157.967 156.674 161.476 156.676L168.476 160.506L158.116 160.076L150.596 161.496C150.596 161.496 149.596 163.426 151.306 163.876C153.016 164.326 159.536 163.876 159.536 163.876L168.916 166.876C168.916 166.876 172.586 172.086 173.916 173.506C175.246 174.926 181.286 177.506 181.286 177.506L184.286 180.196L195.486 168.686Z" fill="#FFBE9D"/>
<path d="M147.196 150.147C148.48 150.236 149.771 150.189 151.046 150.007C153.426 149.827 156.696 149.517 160.306 149.127L163.766 148.737H163.626C166.316 149.487 168.626 150.117 170.316 150.537C171.188 150.821 172.091 151.002 173.006 151.077C172.197 150.638 171.337 150.302 170.446 150.077C168.816 149.537 166.506 148.817 163.836 148.017H163.766H163.686L160.226 148.377C156.616 148.767 153.346 149.167 150.996 149.487C149.711 149.585 148.438 149.806 147.196 150.147V150.147Z" fill="#EB996E"/>
<path d="M146.336 154.287C147.507 154.329 148.68 154.249 149.836 154.047C151.976 153.807 154.936 153.417 158.196 152.937L161.436 152.447H161.246C165.906 154.257 169.346 155.447 169.416 155.317C169.486 155.187 166.146 153.667 161.526 151.757H161.436H161.326L158.086 152.217C154.826 152.697 151.876 153.217 149.756 153.547C148.591 153.66 147.443 153.908 146.336 154.287V154.287Z" fill="#EB996E"/>
<path d="M96.0356 150.927L106.036 188.747C106.303 189.767 106.906 190.667 107.748 191.302C108.59 191.937 109.621 192.27 110.676 192.247L162.516 191.247C163.208 191.234 163.888 191.068 164.509 190.761C165.129 190.455 165.674 190.015 166.105 189.473C166.536 188.932 166.842 188.302 167.001 187.628C167.16 186.954 167.169 186.254 167.026 185.577L159.386 149.357C159.166 148.3 158.589 147.351 157.751 146.672C156.912 145.992 155.865 145.623 154.786 145.627H100.176C99.5249 145.619 98.8813 145.762 98.2949 146.044C97.7085 146.326 97.195 146.74 96.7944 147.253C96.3938 147.765 96.117 148.364 95.9854 149.001C95.8538 149.638 95.8709 150.297 96.0356 150.927V150.927Z" fill="#263238"/>
<path d="M129.956 160.846C130.366 161.113 130.691 161.494 130.89 161.941C131.09 162.388 131.156 162.884 131.08 163.368C131.005 163.852 130.791 164.303 130.464 164.669C130.138 165.034 129.713 165.297 129.24 165.426C128.768 165.555 128.268 165.545 127.801 165.396C127.334 165.248 126.92 164.968 126.609 164.589C126.298 164.211 126.103 163.751 126.047 163.264C125.992 162.778 126.078 162.285 126.296 161.846C126.65 161.23 127.233 160.779 127.919 160.591C128.605 160.404 129.337 160.496 129.956 160.846V160.846Z" fill="white"/>
<path d="M92.3056 159.206C91.8418 158.612 91.5898 157.88 91.5898 157.126C91.5898 156.373 91.8418 155.641 92.3056 155.046C92.7825 154.462 93.3814 153.99 94.0603 153.661C94.7392 153.333 95.4817 153.157 96.2357 153.146C97.7446 153.158 99.2365 153.467 100.626 154.056C102.37 154.721 104.044 155.555 105.626 156.546C106.22 156.83 106.748 157.234 107.177 157.734C107.605 158.233 107.925 158.816 108.116 159.446C108.326 160.736 106.926 162.216 105.786 161.566C106.585 161.907 107.292 162.431 107.85 163.097C108.408 163.762 108.8 164.55 108.996 165.396C109.236 167.036 108.356 167.916 106.776 168.396C107.378 168.634 107.864 169.097 108.129 169.687C108.394 170.278 108.418 170.949 108.196 171.556C107.833 172.134 107.275 172.561 106.622 172.759C105.97 172.958 105.268 172.914 104.646 172.636C103.416 172.044 102.354 171.154 101.556 170.046C102.46 171.619 102.772 173.464 102.436 175.246C100.688 174.621 99.1438 173.529 97.9717 172.089C96.7996 170.648 96.0436 168.915 95.7856 167.076C94.9419 166.406 94.3543 165.466 94.1212 164.413C93.8882 163.361 94.0239 162.261 94.5056 161.296C93.7009 160.942 93.0068 160.376 92.4965 159.66C91.9861 158.944 91.6783 158.103 91.6057 157.226" fill="#FFBE9D"/>
<path d="M106.726 168.436C106.193 168.085 105.685 167.698 105.206 167.276C104.036 166.322 102.67 165.639 101.206 165.276C100.406 165.096 99.5756 165.096 98.7756 165.276C98.138 165.433 97.5434 165.73 97.0356 166.146C96.576 166.567 96.1847 167.056 95.8756 167.596C95.8756 167.596 95.8756 167.406 96.0156 167.096C96.2122 166.656 96.4982 166.261 96.8556 165.936C97.3869 165.459 98.0246 165.116 98.7156 164.936C99.57 164.73 100.461 164.73 101.316 164.936C102.838 165.322 104.241 166.081 105.396 167.146C105.893 167.517 106.34 167.951 106.726 168.436V168.436Z" fill="#EB996E"/>
<path d="M106.336 161.756C105.693 161.575 105.076 161.317 104.496 160.986C103.936 160.726 103.286 160.406 102.496 160.136C101.674 159.855 100.831 159.638 99.9756 159.486C99.1293 159.332 98.262 159.332 97.4156 159.486C96.7328 159.617 96.0872 159.897 95.5256 160.306C95.0157 160.71 94.5938 161.214 94.2856 161.786C94.2856 161.786 94.2856 161.586 94.4356 161.266C94.6504 160.812 94.9649 160.412 95.3557 160.096C95.9306 159.605 96.6173 159.261 97.3557 159.096C98.2442 158.926 99.1571 158.926 100.046 159.096C100.926 159.246 101.79 159.48 102.626 159.796C103.312 160.067 103.98 160.381 104.626 160.736C105.22 161.034 105.791 161.375 106.336 161.756Z" fill="#EB996E"/>
<path d="M84.3157 76.736L71.6657 76.456C68.2664 69.9255 62.5473 64.9026 55.6325 62.3748C48.7178 59.847 41.1076 59.997 34.2979 62.7955C27.4882 65.5939 21.9716 70.8383 18.8324 77.4978C15.6932 84.1573 15.1585 91.7502 17.3334 98.7839C19.5083 105.818 24.2356 111.783 30.5859 115.509C36.9362 119.234 44.4503 120.449 51.651 118.915C58.8518 117.381 65.2184 113.209 69.4993 107.22C73.7803 101.23 75.666 93.8555 74.7857 86.546V86.546L84.3157 76.736Z" fill="#FAFAFA"/>
<path d="M84.3157 76.7362L74.8557 86.6262L74.7557 86.7262L74.7057 86.5962L74.8757 86.5462C75.1523 88.8948 75.1523 91.2677 74.8757 93.6162C74.5435 96.4126 73.8127 99.1469 72.7057 101.736C72.0986 103.175 71.3657 104.557 70.5157 105.866C70.0657 106.526 69.6357 107.216 69.1457 107.866C68.6557 108.516 68.0957 109.156 67.5457 109.816C62.5148 115.424 55.5405 118.909 48.0357 119.566C43.8608 119.927 39.6569 119.392 35.7057 117.996C31.5469 116.503 27.7675 114.113 24.6357 110.996C21.3601 107.739 18.9059 103.749 17.4757 99.3562L16.9657 97.6462C16.7857 97.0862 16.7057 96.4862 16.5757 95.9062C16.4425 95.3319 16.339 94.7511 16.2657 94.1662L16.0857 92.4062C16.0139 91.8258 15.9872 91.2407 16.0057 90.6562C16.0057 90.0762 16.0057 89.4862 16.0057 88.9062L16.1557 87.1762C16.1961 86.5996 16.2662 86.0256 16.3657 85.4562C17.0896 81.0118 18.7979 76.7854 21.3657 73.0862C23.8009 69.5832 26.9757 66.6576 30.6657 64.5162C37.303 60.6884 45.1563 59.5537 52.6057 61.3462C55.7424 62.1615 58.7367 63.4496 61.4857 65.1662C63.8594 66.6758 66.0017 68.5217 67.8457 70.6462C69.3751 72.4178 70.6939 74.3608 71.7757 76.4362H71.6957L84.3457 76.8062L71.6957 76.6062H71.6457C70.562 74.5504 69.2432 72.6276 67.7157 70.8762C65.8753 68.7794 63.7436 66.9574 61.3857 65.4662C58.6533 63.7731 55.6793 62.5052 52.5657 61.7062C45.1904 59.9598 37.4264 61.1012 30.8657 64.8962C27.2219 67.0169 24.0881 69.9117 21.6857 73.3762C19.1222 77.0259 17.4132 81.2059 16.6857 85.6062C16.5807 86.168 16.5105 86.7358 16.4757 87.3062C16.4257 87.8662 16.3857 88.4462 16.3357 89.0162C16.2857 89.5862 16.3357 90.1662 16.3357 90.7362C16.3224 91.3174 16.3491 91.8987 16.4157 92.4762L16.5957 94.2062C16.669 94.7845 16.7725 95.3587 16.9057 95.9262C17.0357 96.4962 17.1057 97.0862 17.2857 97.6462L17.7957 99.3362C19.2066 103.676 21.63 107.618 24.8657 110.836C27.9557 113.923 31.6873 116.293 35.7957 117.776C39.6978 119.16 43.8509 119.692 47.9757 119.336C55.4248 118.716 62.3598 115.288 67.3757 109.746L68.9657 107.826C69.4457 107.156 69.8757 106.476 70.3257 105.826C71.1734 104.533 71.9062 103.168 72.5157 101.746C73.611 99.194 74.3447 96.5013 74.6957 93.7462C74.9637 91.4206 74.9637 89.0719 74.6957 86.7462L74.6157 86.0662L74.8657 86.7062H74.7157L84.3157 76.7362Z" fill="#263238"/>
<path d="M36.8257 89.3262C36.8257 89.9195 36.6497 90.4995 36.3201 90.9929C35.9905 91.4862 35.5219 91.8707 34.9737 92.0978C34.4255 92.3249 33.8224 92.3843 33.2404 92.2685C32.6585 92.1528 32.1239 91.8671 31.7043 91.4475C31.2848 91.028 30.9991 90.4934 30.8833 89.9114C30.7676 89.3295 30.827 88.7263 31.054 88.1781C31.2811 87.63 31.6656 87.1614 32.159 86.8318C32.6523 86.5021 33.2323 86.3262 33.8257 86.3262C34.6213 86.3262 35.3844 86.6423 35.947 87.2049C36.5096 87.7675 36.8257 88.5305 36.8257 89.3262V89.3262Z" fill="#263238"/>
<path d="M48.7957 89.3262C48.7957 89.9195 48.6197 90.4995 48.29 90.9929C47.9604 91.4862 47.4919 91.8707 46.9437 92.0978C46.3955 92.3249 45.7923 92.3843 45.2104 92.2685C44.6284 92.1528 44.0939 91.8671 43.6743 91.4475C43.2548 91.028 42.9691 90.4934 42.8533 89.9114C42.7375 89.3295 42.797 88.7263 43.024 88.1781C43.2511 87.63 43.6356 87.1614 44.1289 86.8318C44.6223 86.5021 45.2023 86.3262 45.7957 86.3262C46.5913 86.3262 47.3544 86.6423 47.917 87.2049C48.4796 87.7675 48.7957 88.5305 48.7957 89.3262V89.3262Z" fill="#263238"/>
<path d="M60.7357 87.826C61.0357 88.3393 61.1764 88.9301 61.14 89.5235C61.1036 90.1169 60.8917 90.6861 60.5313 91.1589C60.1708 91.6316 59.6779 91.9866 59.1153 92.1788C58.5527 92.371 57.9457 92.3916 57.3713 92.2382C56.797 92.0847 56.2811 91.7641 55.8893 91.317C55.4975 90.8698 55.2474 90.3163 55.1707 89.7268C55.094 89.1372 55.1942 88.5382 55.4586 88.0057C55.723 87.4732 56.1397 87.0313 56.6557 86.736C57.3421 86.3432 58.1559 86.2374 58.92 86.4415C59.684 86.6456 60.3366 87.1432 60.7357 87.826V87.826Z" fill="#263238"/>
</g>
<defs>
<linearGradient id="paint0_linear" x1="-28.9333" y1="-50.6" x2="159.398" y2="334.597" gradientUnits="userSpaceOnUse">
<stop stop-color="#5EDCF8"/>
<stop offset="1" stop-color="#D8F4F8"/>
</linearGradient>
</defs>
</svg>
