<svg width="248" height="207" viewBox="0 0 248 207" fill="none" xmlns="http://www.w3.org/2000/svg">
<mask id="mask0" mask-type="alpha" maskUnits="userSpaceOnUse" x="0" y="0" width="248" height="207">
<rect width="248" height="207" rx="38" fill="#C4C4C4"/>
</mask>
<g mask="url(#mask0)">
<rect width="248" height="207" rx="38" fill="#FA9898"/>
<path d="M204.35 42.7451H-20.6791C-28.4753 42.7451 -34.7953 49.0651 -34.7953 56.8613V216.726C-34.7953 224.522 -28.4753 230.842 -20.6791 230.842H204.35C212.146 230.842 218.466 224.522 218.466 216.726V56.8613C218.466 49.0651 212.146 42.7451 204.35 42.7451Z" fill="white"/>
<path d="M-23.8251 42.7452H218.457V75.6829H-34.7953V53.7153C-34.7989 52.2737 -34.5176 50.8455 -33.9676 49.5129C-33.4175 48.1803 -32.6096 46.9696 -31.5902 45.9502C-30.5708 44.9308 -29.3601 44.1229 -28.0275 43.5729C-26.6949 43.0228 -25.2667 42.7415 -23.8251 42.7452V42.7452Z" fill="#E0E0E0"/>
<path d="M2.82964 61.9222C4.88947 61.9222 6.5593 60.2524 6.5593 58.1926C6.5593 56.1327 4.88947 54.4629 2.82964 54.4629C0.7698 54.4629 -0.900024 56.1327 -0.900024 58.1926C-0.900024 60.2524 0.7698 61.9222 2.82964 61.9222Z" fill="white"/>
<path d="M204.341 230.833H204.897C205.451 230.813 206.002 230.755 206.548 230.66C209.369 230.2 211.984 228.895 214.047 226.916C216.11 224.938 217.524 222.38 218.102 219.581C218.396 217.35 218.487 215.098 218.375 212.851C218.375 210.443 218.375 207.881 218.375 205.163C218.375 183.415 218.329 151.963 218.302 113.062C218.302 103.335 218.302 93.164 218.302 82.5495C218.302 77.2514 218.302 71.8347 218.302 66.3268V57.9738C218.347 56.579 218.231 55.1837 217.956 53.8156C217.64 52.4305 217.114 51.1019 216.396 49.8762C215.69 48.6486 214.798 47.5381 213.752 46.5842C212.706 45.6067 211.508 44.8059 210.204 44.2133C208.903 43.5992 207.511 43.1989 206.083 43.0278C204.627 42.9101 203.166 42.8706 201.706 42.9093H146.162L-21.0439 42.9822H-22.43C-22.8859 42.9822 -23.3419 42.9822 -23.7978 43.0643C-24.6987 43.1724 -25.5853 43.3773 -26.4423 43.6753C-28.5872 44.4259 -30.4778 45.7645 -31.8983 47.5381C-33.3189 49.3118 -34.2121 51.4491 -34.4761 53.7062C-34.5613 54.6154 -34.5948 55.5288 -34.5764 56.4419V120.931C-34.5764 148.899 -34.5764 175.873 -34.5764 201.58V215.842C-34.5764 216.635 -34.5764 217.401 -34.4944 218.176L-34.3211 219.325C-34.2664 219.699 -34.1387 220.073 -34.0567 220.447C-33.2249 223.421 -31.4246 226.034 -28.9409 227.87C-27.7201 228.771 -26.3623 229.47 -24.9194 229.94C-23.4777 230.383 -21.9777 230.607 -20.4694 230.605H14.9488H78.5355L170.592 230.678L195.623 230.724H202.134C203.602 230.724 204.35 230.724 204.35 230.724H202.134H195.623L170.592 230.769L78.5355 230.852H14.9488H-20.4785C-22.0238 230.85 -23.5603 230.62 -25.038 230.168C-26.527 229.691 -27.9262 228.97 -29.178 228.034C-31.7425 226.144 -33.6011 223.451 -34.4579 220.383C-34.5491 220 -34.6767 219.617 -34.7315 219.225L-34.9138 218.049C-34.9686 217.255 -35.0142 216.453 -34.9959 215.668V210.927C-34.9959 207.753 -34.9959 204.543 -34.9959 201.352C-34.9959 175.645 -34.9959 148.671 -34.9959 120.703C-34.9959 106.721 -34.9959 92.4983 -34.9959 78.0356V56.4054C-35.0106 55.4924 -34.9772 54.5792 -34.8956 53.6697C-34.7894 52.7362 -34.5751 51.8181 -34.2573 50.934C-33.4697 48.7095 -32.0768 46.7489 -30.2353 45.2732C-28.3938 43.7974 -26.177 42.865 -23.8343 42.581C-23.3692 42.5263 -22.9224 42.5263 -22.4208 42.4989H-21.0439H146.153H201.696C203.175 42.4598 204.654 42.5024 206.128 42.6266C207.599 42.8057 209.031 43.2214 210.369 43.8577C211.709 44.4642 212.942 45.2868 214.016 46.2924C215.101 47.2724 216.024 48.4172 216.752 49.6847C217.476 50.9345 218.005 52.2876 218.32 53.697C218.603 55.0919 218.719 56.5152 218.667 57.9374V66.2904C218.667 71.7618 218.667 77.2331 218.667 82.513C218.667 93.1275 218.667 103.298 218.667 113.025C218.667 151.89 218.603 183.342 218.585 205.127C218.585 207.863 218.585 210.407 218.585 212.814C218.688 215.071 218.587 217.333 218.284 219.571C217.553 223.081 215.52 226.183 212.594 228.253C210.812 229.514 208.76 230.341 206.602 230.669C206.054 230.762 205.499 230.811 204.943 230.815L204.341 230.833Z" fill="#263238"/>
<path d="M125.599 144.157C125.565 143.639 125.408 143.137 125.14 142.693C124.871 142.248 124.5 141.875 124.057 141.604C110.379 132.549 100.084 112.487 99.0441 95.5075C99.0441 94.5409 98.9802 93.556 98.9529 92.5712C98.1595 68.2873 94.5849 38.8421 91.375 30.9907C85.4476 16.4915 65.3585 15.1236 65.3585 15.1236C38.7037 13.2178 33.9436 33.699 31.2535 52.3656C29.5756 63.9649 28.0254 107.307 28.0254 107.307C30.8416 115.777 35.5022 123.517 41.671 129.968C47.8399 136.419 55.3633 141.421 63.6989 144.613C68.614 146.437 72.7722 147.203 74.7237 145.616C82.5244 153.525 92.1654 159.375 102.783 162.641C107.058 164.088 111.574 164.689 116.078 164.411C118.987 164.137 122.051 163.179 123.793 160.827C124.541 159.806 124.985 158.594 125.072 157.332C125.159 156.069 124.887 154.808 124.287 153.694C123.686 152.58 122.782 151.659 121.68 151.038C120.577 150.417 119.321 150.121 118.057 150.185C119.069 146.884 125.717 147.85 125.599 144.157Z" fill="#263238"/>
<path d="M68.9058 22.6468L67.237 21.0601L49.2179 28.3552C47.9588 28.4255 46.772 28.9658 45.8922 29.8692C45.0124 30.7727 44.5038 31.9734 44.4669 33.2339L44.6128 91.9146C44.6128 95.8996 45.3879 99.3465 47.7953 102.529L60.9996 115.296C66.772 122.919 69.2067 117.357 73.7662 108.958C74.0854 108.374 73.0549 103.35 73.1461 102.939C73.2632 102.508 73.3545 102.069 73.4197 101.626C73.9577 96.8935 74.3316 95.1518 74.3316 95.1518C74.3316 95.1518 74.4137 85.4857 74.4137 85.5313C74.4137 85.5769 85.4568 84.2637 88.4387 70.0928C89.9251 63.0439 89.6424 53.3504 89.2229 43.8119C88.6849 30.6168 79.5203 22.6376 68.9058 22.6468Z" fill="#FFBF9D"/>
<path d="M67.0455 52.8853C67.029 53.3579 66.8295 53.8055 66.4893 54.1339C66.149 54.4622 65.6946 54.6456 65.2217 54.6453C64.9861 54.6538 64.7511 54.6149 64.5307 54.5309C64.3104 54.4469 64.1092 54.3194 63.9391 54.1561C63.7689 53.9928 63.6334 53.7969 63.5404 53.5802C63.4475 53.3635 63.399 53.1302 63.3979 52.8944C63.4145 52.4219 63.6139 51.9742 63.9542 51.6459C64.2944 51.3175 64.7489 51.1342 65.2217 51.1345C65.4574 51.1259 65.6924 51.1648 65.9127 51.2488C66.1331 51.3329 66.3343 51.4603 66.5044 51.6237C66.6745 51.787 66.8101 51.9828 66.9031 52.1995C66.996 52.4163 67.0445 52.6495 67.0455 52.8853Z" fill="#263238"/>
<path d="M85.8489 52.8853C85.8323 53.3579 85.6329 53.8055 85.2926 54.1339C84.9524 54.4622 84.4979 54.6456 84.0251 54.6453C83.7894 54.6538 83.5544 54.6149 83.3341 54.5309C83.1138 54.4469 82.9125 54.3194 82.7424 54.1561C82.5723 53.9928 82.4367 53.7969 82.3438 53.5802C82.2508 53.3635 82.2024 53.1302 82.2013 52.8944C82.2178 52.4219 82.4173 51.9742 82.7575 51.6459C83.0978 51.3175 83.5522 51.1342 84.0251 51.1345C84.2608 51.1259 84.4957 51.1648 84.7161 51.2488C84.9364 51.3329 85.1377 51.4603 85.3078 51.6237C85.4779 51.787 85.6134 51.9828 85.7064 52.1995C85.7994 52.4163 85.8478 52.6495 85.8489 52.8853V52.8853Z" fill="#263238"/>
<path d="M87.3719 47.5965C87.1348 47.8245 85.8034 46.6846 83.8246 46.6299C81.8458 46.5752 80.3594 47.4506 80.177 47.1953C80.0767 47.0858 80.332 46.6664 80.9886 46.2378C81.8713 45.6943 82.8989 45.4334 83.934 45.49C84.9606 45.5344 85.9455 45.9086 86.7427 46.5569C87.308 47.0494 87.4722 47.4871 87.3719 47.5965Z" fill="#263238"/>
<path d="M67.4103 47.7968C67.1459 47.9974 65.9239 46.7663 63.9816 46.4745C62.0392 46.1827 60.4434 46.9305 60.2702 46.666C60.1881 46.5384 60.4799 46.1462 61.1821 45.7541C62.115 45.298 63.1671 45.1449 64.1913 45.3164C65.2071 45.4678 66.1489 45.9371 66.8814 46.6569C67.3556 47.2496 67.5015 47.7056 67.4103 47.7968Z" fill="#263238"/>
<path d="M74.2587 62.1507C75.3123 61.8729 76.3972 61.7319 77.4868 61.7312C77.9974 61.7312 78.4716 61.6309 78.5811 61.2844C78.6497 60.7676 78.5574 60.2422 78.3166 59.7798C77.9063 58.5396 77.4777 57.2356 77.0217 55.8677C75.1979 50.3143 73.9578 45.7457 74.1766 45.6818C74.3955 45.618 76.0004 50.0589 77.8242 55.6215L79.0553 59.5427C79.3417 60.1687 79.3998 60.8753 79.2194 61.5397C79.1359 61.7126 79.0148 61.8646 78.8648 61.9845C78.7149 62.1044 78.5401 62.1893 78.3531 62.2328C78.0718 62.2945 77.7836 62.319 77.4959 62.3057C76.4146 62.3892 75.3271 62.3371 74.2587 62.1507V62.1507Z" fill="#263238"/>
<path d="M74.4502 85.5404C67.7135 85.3066 61.1734 83.2108 55.5557 79.4854C55.5557 79.4854 59.869 89.6074 74.2314 88.9873L74.4502 85.5404Z" fill="#FF9A6C"/>
<path d="M73.1825 66.8553C72.832 66.3634 72.3614 65.9693 71.8155 65.7107C71.2696 65.4521 70.6665 65.3376 70.0638 65.3781C69.6276 65.3956 69.1994 65.5007 68.8046 65.6871C68.4098 65.8736 68.0566 66.1375 67.7659 66.4632C67.4858 66.7789 67.3094 67.1729 67.2605 67.592C67.2116 68.0111 67.2925 68.4351 67.4923 68.8068C67.7914 69.1769 68.1942 69.4493 68.6491 69.5891C69.104 69.7288 69.5903 69.7295 70.0456 69.591C70.9941 69.3075 71.8772 68.8396 72.6445 68.2141C72.8727 68.0676 73.0709 67.8788 73.2281 67.6578C73.3014 67.5503 73.3406 67.4232 73.3406 67.2931C73.3406 67.1629 73.3014 67.0358 73.2281 66.9283" fill="#FF9A6C"/>
<path d="M68.3861 63.2168C68.7053 63.2168 68.6049 65.3597 70.3649 66.9647C72.1249 68.5696 74.4046 68.4602 74.4046 68.7885C74.4046 68.9253 73.8757 69.1806 72.9182 69.1624C71.6638 69.115 70.466 68.6275 69.5351 67.7854C68.6367 66.9792 68.09 65.853 68.0122 64.6485C67.9757 63.7183 68.2402 63.1985 68.3861 63.2168Z" fill="#263238"/>
<path d="M69.2341 40.1099C68.9605 40.6115 67.0455 40.1099 64.7202 39.9914C62.3948 39.8728 60.4343 40.2558 60.2063 39.736C60.106 39.4807 60.5072 39.0339 61.3279 38.6326C62.4209 38.156 63.6081 37.9345 64.7995 37.9851C65.9908 38.0357 67.155 38.3569 68.2036 38.9245C69.0243 39.3895 69.38 39.8455 69.2341 40.1099Z" fill="#263238"/>
<path d="M87.089 39.1251C86.7243 39.5537 85.3838 39.0248 83.7606 38.9153C82.1374 38.8059 80.724 39.0704 80.4322 38.587C80.3045 38.35 80.5416 37.9122 81.1708 37.5201C82.0061 37.0511 82.9621 36.8414 83.9171 36.9177C84.872 36.994 85.7826 37.3529 86.5328 37.9487C87.089 38.4411 87.2532 38.9336 87.089 39.1251Z" fill="#263238"/>
<path d="M44.8226 58.2562C44.8226 58.2562 54.9264 61.4023 60.6349 36.4801C62.5864 27.9903 70.4925 21.0599 70.4925 21.0599L67.2826 20.0933C67.2826 20.0933 47.3759 25.7014 47.0385 25.9568C46.7011 26.2121 42.0139 36.2521 42.0139 36.2521L44.8226 58.2562Z" fill="#263238"/>
<path d="M47.3486 57.3263C47.4033 56.2594 46.2999 53.6787 45.2512 53.4781C42.5155 52.9036 37.3998 52.8672 37.0441 59.9982C36.497 69.7282 46.382 68.2782 46.4184 67.9956C46.4549 67.7129 47.1388 61.0013 47.3486 57.3263Z" fill="#FFBF9D"/>
<path d="M43.5642 64.1382C43.5642 64.1382 43.3909 64.2476 43.0991 64.3661C42.6923 64.529 42.2384 64.529 41.8316 64.3661C40.8194 63.9284 40.0078 62.2505 40.099 60.4906C40.1249 59.6532 40.3335 58.8316 40.7099 58.0832C40.8179 57.7847 40.9974 57.5173 41.2327 57.3043C41.468 57.0912 41.7519 56.9391 42.0596 56.8612C42.2574 56.8188 42.4638 56.8477 42.6424 56.9428C42.821 57.0379 42.9602 57.1931 43.0353 57.381C43.1538 57.6637 43.0353 57.8461 43.1265 57.8734C43.2177 57.9008 43.3453 57.7184 43.2906 57.308C43.2506 57.0648 43.1283 56.8427 42.9441 56.6788C42.6899 56.4654 42.3635 56.3576 42.0322 56.3779C41.6339 56.4412 41.2579 56.6038 40.9391 56.8509C40.6204 57.0979 40.369 57.4214 40.2084 57.7914C39.7463 58.611 39.4927 59.5317 39.4698 60.4723C39.415 62.4329 40.3178 64.3297 41.7039 64.813C41.9603 64.9019 42.2334 64.9326 42.5032 64.9026C42.7729 64.8726 43.0326 64.7828 43.2633 64.6397C43.5368 64.3753 43.6007 64.1564 43.5642 64.1382Z" fill="#FF9A6C"/>
<path d="M51.6709 53.5235C52.1633 53.4594 52.6508 53.362 53.1299 53.2317C54.4279 52.8367 55.617 52.147 56.6043 51.2164C57.2897 50.5819 57.9014 49.8722 58.4281 49.1008C59.0048 48.1934 59.4905 47.2312 59.878 46.2283C60.7201 43.9143 61.4205 41.5511 61.9754 39.152C62.6012 36.7563 63.35 34.3944 64.2186 32.0756C64.9246 30.1906 65.7721 28.3616 66.7537 26.6043C67.4172 25.4154 68.1606 24.2729 68.9787 23.1846C69.2706 22.8016 69.5168 22.5189 69.6809 22.3183C69.7596 22.2185 69.8449 22.124 69.9362 22.0356C69.8756 22.15 69.8021 22.257 69.7174 22.3548C69.5715 22.5645 69.3344 22.8472 69.0608 23.2667C68.2776 24.3714 67.562 25.5225 66.9178 26.7137C65.9633 28.4768 65.1345 30.3052 64.4375 32.1851C63.6441 34.3098 62.9055 36.7446 62.2307 39.2341C61.675 41.635 60.9683 43.9984 60.1151 46.3104C59.7124 47.3182 59.2051 48.281 58.6013 49.1829C58.0812 49.9648 57.4689 50.6812 56.7775 51.3167C55.761 52.2472 54.5395 52.9251 53.212 53.2955C52.7118 53.4446 52.1928 53.5214 51.6709 53.5235V53.5235Z" fill="#263238"/>
<path d="M38.3663 95.0335C38.308 94.8793 38.2623 94.7208 38.2295 94.5593C38.1657 94.2219 38.0836 93.7568 37.9833 93.1732C37.7735 91.9239 37.4817 90.1457 37.0714 87.8933H37.2994C37.3541 88.2489 37.4088 88.6411 37.4635 89.0423L37.6641 89.48L37.4179 89.5712C35.9354 84.444 34.892 79.1999 34.2992 73.8957C33.9173 70.5319 33.7194 67.1498 33.7065 63.7645C33.5612 60.0359 33.8674 56.3035 34.6184 52.6484C35.0073 51.1016 35.6023 49.614 36.3875 48.2257C37.1788 46.8927 38.0948 45.6378 39.1232 44.4778C41.102 42.1889 43.2358 40.2192 45.1782 38.2678L55.6376 27.9816L62.7049 21.0785C63.5347 20.2943 64.1821 19.6651 64.6472 19.2547L65.1579 18.7805L65.3403 18.6255C65.3403 18.6255 65.2947 18.6984 65.1943 18.8079L64.711 19.3185L62.8325 21.2426L55.8565 28.246L45.5247 38.4866C43.5823 40.4472 41.4576 42.426 39.5062 44.6876C37.4296 46.9643 35.9315 49.7073 35.1382 52.6849C34.2263 56.3325 34.2263 60.1442 34.2263 63.6824C34.2539 72.3826 35.4438 81.0402 37.7644 89.4253L37.5182 89.5165L37.3176 89.0879C37.272 88.6775 37.2173 88.2854 37.1808 87.9298H37.4088C37.7371 90.1913 37.9924 91.9786 38.1748 93.2279C38.2569 93.8206 38.3207 94.2766 38.3663 94.6231C38.3766 94.7597 38.3766 94.8969 38.3663 95.0335V95.0335Z" fill="#455A64"/>
<path d="M30.7064 50.0221C30.7413 49.8781 30.7965 49.7399 30.8706 49.6117L31.4451 48.4627C31.9375 47.4778 32.7126 46.0735 33.7339 44.3683C34.7553 42.663 36.0501 40.7207 37.5821 38.5686C39.1141 36.4165 40.9379 34.2006 42.9532 31.9391C44.9685 29.6776 47.0385 27.6714 48.9717 25.8932C50.905 24.115 52.747 22.6377 54.3337 21.4523C55.9204 20.2668 57.2335 19.3275 58.1637 18.7166L59.2033 18.0509C59.3247 17.9624 59.4563 17.889 59.5954 17.832C59.5954 17.832 59.4859 17.9506 59.258 18.1238L58.2914 18.8716C57.3795 19.5099 56.1028 20.4674 54.5526 21.6894C53.0023 22.9113 51.2059 24.4251 49.2818 26.1941C47.3577 27.9632 45.3333 29.9968 43.3089 32.2309C41.2845 34.4651 39.5062 36.7175 37.9469 38.8057C36.3876 40.8939 35.0744 42.8545 34.0257 44.5324C32.977 46.2103 32.1563 47.5782 31.6183 48.5448L30.98 49.6391C30.9033 49.7765 30.8116 49.905 30.7064 50.0221V50.0221Z" fill="#455A64"/>
<path d="M40.6735 95.3158C41.0291 94.7869 43.4092 90.1362 43.4092 90.1362L57.0876 101.918C57.0876 101.918 70.4834 113.134 70.4834 112.405L72.6173 101.617L75.2709 91.8232L80.186 99.2552C80.186 99.2552 95.6245 129.521 95.6245 129.886C95.6245 130.251 105.181 161.574 105.181 161.574L103.12 174.277L102.883 219.27L74.0945 218.066L68.4043 208.993L58.6105 151.297L40.6735 95.3158Z" fill="white"/>
<path d="M75.6174 201.643C74.6508 186.861 75.0521 158.985 69.3983 144.44C63.7445 129.895 41.0383 94.1577 41.0383 94.1577L35.4574 102.821L20.8671 108.292L34.0622 186.041C34.0622 186.041 33.05 206.64 29.4207 217.145C28.3264 220.292 26.8035 225.179 25.1986 230.496L75.4351 230.933C75.8545 219.27 76.0734 208.619 75.6174 201.643Z" fill="#9B51E0"/>
<path d="M114.455 201.197C114.455 201.197 114.027 176.083 112.923 160.435C110.871 131.382 99.573 101.034 99.573 101.034L84.5084 99.5929L76.1099 92.6533L79.8213 103.022C79.8213 103.022 92.0225 137.163 94.4116 148.079C96.8008 158.994 98.0593 192.524 98.424 191.713C98.652 191.239 100.631 211.045 102.473 230.013L123.009 230.687L114.455 201.197Z" fill="#9B51E0"/>
<path d="M105.181 164.693C105.157 164.457 105.157 164.218 105.181 163.982L105.291 161.948L105.382 160.489C105.382 159.951 105.382 159.368 105.382 158.748C105.382 157.489 105.382 156.067 105.291 154.498C104.818 146.296 103.207 138.2 100.503 130.442C99.3995 127.178 98.093 123.987 96.5911 120.886C95.2753 117.889 93.7801 114.975 92.1137 112.159C90.6364 109.587 89.2777 107.353 88.1287 105.502L85.393 101.179L84.7364 100.03C84.6494 99.9001 84.5732 99.7629 84.5084 99.6201C84.5084 99.6201 84.627 99.7387 84.8002 99.9849L85.5845 101.107C86.2593 102.082 87.2168 103.523 88.3931 105.356C89.5695 107.189 90.9647 109.414 92.4784 111.976C94.1807 114.796 95.7036 117.72 97.0379 120.731V120.731C98.5559 123.842 99.8688 127.05 100.968 130.333C103.695 138.127 105.268 146.277 105.637 154.526C105.737 156.103 105.692 157.535 105.637 158.793C105.637 159.422 105.637 160.006 105.592 160.544C105.546 161.082 105.5 161.565 105.455 162.012C105.37 162.851 105.306 163.526 105.263 164.037C105.248 164.257 105.22 164.476 105.181 164.693V164.693Z" fill="#263238"/>
<path d="M70.2463 112.569C70.0566 112.516 69.8755 112.436 69.7083 112.332L68.231 111.557L63.0241 108.675L63.3341 108.52C63.0788 110.864 62.6502 113.59 62.2216 116.499C62.0483 117.685 61.8842 118.843 61.7474 119.946L61.6927 120.375L61.3735 120.092C58.5922 117.73 56.1666 115.642 54.4522 114.146L52.4552 112.323C52.1985 112.125 51.9686 111.895 51.7712 111.639C52.0503 111.801 52.313 111.991 52.5555 112.204L54.6437 113.882C56.4128 115.323 58.8749 117.356 61.6653 119.709L61.2915 119.855C61.4191 118.742 61.5741 117.584 61.7565 116.399C62.1851 113.481 62.6684 110.754 62.9237 108.438L62.9694 108.128L63.2338 108.283L68.3495 111.31L69.763 112.222C69.939 112.316 70.1016 112.432 70.2463 112.569Z" fill="#263238"/>
<path d="M78.198 99.228C78.237 99.6375 78.237 100.05 78.198 100.459C78.198 101.371 78.198 102.465 78.1433 103.806C78.0703 106.633 77.9336 110.545 77.7603 114.858C77.7603 114.967 77.7603 115.068 77.7603 115.177V115.925L77.3499 115.287L72.1795 107.143L72.5077 107.098C71.9333 108.666 71.4591 109.979 71.0943 110.992C70.9335 111.477 70.7354 111.95 70.5016 112.405C70.5881 111.902 70.7194 111.407 70.8937 110.928C71.2311 109.897 71.6506 108.575 72.1612 106.979L72.2798 106.624L72.4895 106.943L77.7512 115.04L77.3134 115.15C77.3134 115.049 77.3134 114.949 77.3134 114.84C77.4867 110.526 77.6691 106.633 77.8241 103.797C77.9062 102.456 77.9791 101.335 78.0339 100.45C78.0441 100.038 78.0991 99.6282 78.198 99.228V99.228Z" fill="#263238"/>
<path d="M179.246 105.42C179.246 105.42 186.267 95.7718 188.748 95.4891C191.228 95.2064 206.758 95.7718 208.937 95.4891C211.116 95.2064 223.4 89.7441 223.4 89.7441C223.4 89.7441 225.579 90.5101 225.315 92.571C225.05 94.6319 211.399 102.374 209.758 102.666C208.116 102.958 195.021 103.97 195.021 103.97L187.088 116.445L179.246 105.42Z" fill="#FFBF9D"/>
<path d="M181.106 100.231L148.569 130.707L98.7067 100.705L110.014 139.096C110.014 139.096 137.69 155.756 151.369 157.334C153.494 157.58 159.43 154.662 162.23 151.288C173.446 137.746 192.687 115.651 192.687 115.651L181.106 100.231Z" fill="#9B51E0"/>
<path d="M30.6791 151.097L23.5024 178.28L71.833 204.671L62.5864 224.231L5.40122 200.841C2.18221 199.57 -0.585855 197.37 -2.55054 194.521C-4.82116 191.129 -6.53553 187.035 -4.27402 179.484L8.04572 132.065C8.82995 129.056 10.1705 124.287 11.5292 120.375C12.7544 116.698 14.8725 113.384 17.6936 110.727C18.6834 109.821 19.7549 109.009 20.8944 108.301" fill="#9B51E0"/>
<path d="M20.8488 108.311L20.2743 108.703C19.9004 108.967 19.3624 109.368 18.6511 109.934C16.6214 111.598 14.9124 113.619 13.6083 115.898C11.8483 118.825 10.7267 122.874 9.35886 127.506C7.99101 132.138 6.7326 137.537 5.19149 143.419C3.65038 149.3 1.99072 155.784 0.203404 162.724C-0.702416 166.201 -1.62952 169.788 -2.57789 173.484C-3.05816 175.308 -3.54451 177.183 -4.03693 179.11C-4.62728 180.995 -5.00352 182.941 -5.15856 184.91C-5.31441 186.919 -5.03444 188.938 -4.33785 190.828C-3.96445 191.779 -3.50667 192.695 -2.97 193.564C-2.44288 194.456 -1.8322 195.295 -1.1462 196.072C0.266551 197.636 1.95409 198.928 3.83276 199.883C4.74465 200.385 5.7751 200.795 6.77818 201.178L9.81481 202.409L34.9559 212.659L62.6411 223.958L62.3493 224.076L71.6051 204.525L71.7054 204.808L23.3747 178.363H23.2744V178.253C25.5724 169.663 27.3871 162.879 28.6364 158.191C29.2656 155.884 29.7489 154.106 30.0772 152.884C30.2413 152.291 30.369 151.845 30.4602 151.525C30.5514 151.206 30.597 151.069 30.597 151.069C30.597 151.069 30.597 151.224 30.4967 151.535C30.3964 151.845 30.3052 152.31 30.1501 152.902C29.8401 154.124 29.3842 155.912 28.7823 158.228C27.5695 162.897 25.8004 169.69 23.5571 178.29L23.4842 178.125L71.9698 204.434L72.1522 204.534L72.061 204.716L62.8508 224.277L62.7505 224.477L62.5499 224.395L34.8191 213.106L9.68714 202.847L6.65052 201.616C5.65655 201.206 4.62611 200.814 3.65949 200.303C1.7348 199.319 0.0070279 197.99 -1.43802 196.382C-2.1432 195.585 -2.77212 194.724 -3.31653 193.81C-3.87014 192.914 -4.33731 191.968 -4.71173 190.983C-5.42945 189.034 -5.71872 186.954 -5.5598 184.883C-5.39904 182.882 -5.0136 180.906 -4.4108 178.992C-3.91838 177.095 -3.42595 175.217 -2.94264 173.375C-1.98211 169.672 -1.04894 166.088 -0.143122 162.623C1.68067 155.693 3.35857 149.227 4.89968 143.337C6.44078 137.446 7.78128 132.093 9.14001 127.433C10.4987 122.773 11.6842 118.743 13.4806 115.806C14.8042 113.528 16.5352 111.513 18.5873 109.861C19.2957 109.281 20.0522 108.762 20.8488 108.311V108.311Z" fill="#263238"/>
<path d="M121.121 219.617L107.351 213.024L80.4778 210.899L71.4409 206.203L65.24 219.489C65.24 219.489 78.9185 227.697 82.5661 228.016L105.163 227.332L116.972 228.572L121.121 219.617Z" fill="#FFBF9D"/>
<path d="M198.587 166.599L121.075 167.228C118.559 167.228 116.16 168.432 115.777 170.922L107.315 227.386H67.4558C66.8391 227.386 66.2477 227.631 65.8116 228.067C65.3755 228.503 65.1305 229.095 65.1305 229.712C65.1305 230.328 65.3755 230.92 65.8116 231.356C66.2477 231.792 66.8391 232.037 67.4558 232.037H194.903L203.611 172.444C203.72 171.721 203.672 170.983 203.469 170.279C203.267 169.576 202.915 168.925 202.438 168.371C201.961 167.816 201.371 167.37 200.706 167.065C200.041 166.759 199.318 166.6 198.587 166.599V166.599Z" fill="#E0E0E0"/>
<path d="M198.587 166.599C198.998 166.575 199.41 166.615 199.809 166.717C200.839 166.962 201.768 167.519 202.468 168.312C203.169 169.106 203.606 170.097 203.721 171.149C203.748 172.217 203.653 173.285 203.438 174.332C203.116 176.624 202.745 179.247 202.326 182.201C200.62 194.056 198.158 211.099 195.14 232.073V232.274H194.93L71.2859 232.347H67.9575C67.3516 232.404 66.7418 232.291 66.1975 232.018C65.7877 231.787 65.4466 231.452 65.2093 231.045C64.972 230.639 64.8469 230.177 64.8469 229.707C64.8469 229.236 64.972 228.774 65.2093 228.368C65.4466 227.962 65.7877 227.626 66.1975 227.395C66.7364 227.126 67.3394 227.013 67.9392 227.067H107.37L107.069 227.322C110.115 207.096 112.96 188.238 115.513 171.313C115.593 170.184 116.106 169.129 116.945 168.368C117.786 167.655 118.815 167.199 119.908 167.055C120.945 166.956 121.986 166.919 123.027 166.945H126.073L137.736 166.863L158.463 166.736L187.963 166.599H197.894C198.35 166.599 198.587 166.599 198.587 166.599H197.894H195.86L187.963 166.717L158.454 167.046L137.727 167.246L126.064 167.356H123.027C122.01 167.328 120.993 167.364 119.981 167.465C118.976 167.594 118.027 168.005 117.246 168.651C116.498 169.339 116.047 170.29 115.987 171.304C113.461 188.229 110.653 207.096 107.634 227.322L107.589 227.577H67.9301C67.4362 227.522 66.9366 227.607 66.4893 227.824C66.1738 227.998 65.9107 228.253 65.7275 228.564C65.5442 228.874 65.4476 229.228 65.4476 229.588C65.4476 229.949 65.5442 230.302 65.7275 230.613C65.9107 230.923 66.1738 231.179 66.4893 231.353C66.9389 231.573 67.4415 231.661 67.9392 231.608H71.2677L194.912 231.681L194.675 231.882C197.784 210.908 200.31 193.874 202.061 182.037C202.508 179.092 202.9 176.466 203.247 174.186C203.467 173.155 203.571 172.103 203.557 171.049C203.472 170.18 203.157 169.349 202.645 168.641C201.953 167.665 200.939 166.964 199.782 166.663C199.385 166.613 198.986 166.592 198.587 166.599V166.599Z" fill="#263238"/>
<path d="M156.567 203.421C159.246 203.421 161.418 201.249 161.418 198.57C161.418 195.891 159.246 193.719 156.567 193.719C153.887 193.719 151.715 195.891 151.715 198.57C151.715 201.249 153.887 203.421 156.567 203.421Z" fill="white"/>
<path d="M110.498 231.49C110.607 231.49 113.078 217.128 115.969 199.382C118.86 181.637 121.194 167.219 121.085 167.201C120.975 167.183 118.504 181.554 115.613 199.309C112.723 217.064 110.388 231.472 110.498 231.49Z" fill="#263238"/>
<path d="M36.0591 101.891L41.494 118.187H47.2846L43.5275 120.576L73.2281 177.351" fill="#8435CE"/>
<path d="M73.2283 177.341C73.2283 177.341 73.1735 177.278 73.1006 177.15L72.7541 176.539L71.4774 174.204L66.9179 165.551L51.8534 136.926L43.3818 120.676L43.2815 120.503L43.4548 120.393L47.2118 118.013L47.3303 118.387H41.5398H41.403V118.26C39.7707 113.281 38.4485 109.213 37.5092 106.341C37.0715 104.955 36.725 103.852 36.4696 103.067C36.3693 102.712 36.2781 102.429 36.2143 102.21C36.1803 102.112 36.1559 102.012 36.1414 101.909C36.196 101.997 36.2389 102.092 36.269 102.192C36.342 102.411 36.4514 102.684 36.5699 103.031L37.7098 106.277C38.6855 109.131 40.0625 113.189 41.7495 118.132L41.5763 118.013H47.3668H48.069L47.4763 118.396L43.7192 120.795L43.8013 120.512L52.3184 136.744L67.2462 165.432L71.7236 174.15C72.2343 175.162 72.6355 175.974 72.9182 176.539C73.0459 176.785 73.1462 176.995 73.2191 177.159C73.2302 177.219 73.2333 177.28 73.2283 177.341Z" fill="#263238"/>
<path d="M102.062 116.728C102.32 117.095 102.543 117.486 102.728 117.895C103.138 118.661 103.64 119.782 104.315 121.196C105.959 124.876 107.363 128.66 108.519 132.522C109.673 136.383 110.616 140.304 111.345 144.267C111.628 145.79 111.82 147.003 111.938 147.914C112.021 148.354 112.067 148.799 112.075 149.246C111.924 148.823 111.817 148.386 111.756 147.942C111.564 147.03 111.318 145.808 111.017 144.367C110.379 141.349 109.412 137.191 108.063 132.686C106.903 128.841 105.549 125.058 104.005 121.351C103.412 119.928 102.92 118.788 102.564 118.004C102.362 117.593 102.195 117.166 102.062 116.728V116.728Z" fill="#263238"/>
<path d="M25.0983 116.253C28.6969 120.439 31.29 125.393 32.6794 130.735C34.0687 136.078 34.2173 141.667 33.1138 147.076" fill="#8435CE"/>
<path d="M33.1138 147.075C33.0226 147.075 33.4329 145.251 33.5971 142.288C33.6932 140.552 33.6688 138.813 33.5241 137.081C33.1615 132.832 32.0824 128.676 30.3325 124.788C29.6088 123.216 28.7834 121.693 27.8613 120.229C26.2654 117.721 25.0252 116.344 25.1256 116.28C25.4631 116.549 25.7691 116.855 26.0375 117.192C26.3828 117.568 26.7056 117.964 27.0041 118.378C27.3597 118.852 27.7883 119.381 28.1804 120.019C29.1641 121.467 30.0301 122.992 30.7702 124.579C32.5994 128.492 33.6966 132.708 34.0074 137.017C34.1416 138.768 34.1416 140.527 34.0074 142.278C34.0074 143.026 33.8524 143.701 33.7795 144.294C33.7065 144.887 33.6062 145.388 33.515 145.789C33.427 146.231 33.2925 146.662 33.1138 147.075V147.075Z" fill="#263238"/>
<path d="M24.5511 178.746C23.8752 178.749 23.1995 178.719 22.5267 178.654C20.9118 178.638 19.3056 178.894 17.7757 179.411C16.2648 179.945 14.8556 180.731 13.6083 181.737C12.6326 182.521 12.1219 183.104 12.0581 183.05C12.4007 182.449 12.8522 181.917 13.3895 181.481C14.6313 180.362 16.0866 179.506 17.6678 178.964C19.2489 178.422 20.9234 178.205 22.5905 178.326C23.2643 178.344 23.929 178.486 24.5511 178.746V178.746Z" fill="#263238"/>
<path d="M229.473 46.2287C229.474 41.728 228.266 37.3096 225.975 33.4352C223.685 29.5608 220.396 26.3725 216.452 24.2036C212.508 22.0346 208.055 20.9645 203.556 21.105C199.058 21.2456 194.679 22.5916 190.879 25.0025C187.078 27.4135 183.995 30.8008 181.95 34.8106C179.906 38.8204 178.977 43.3056 179.258 47.7976C179.54 52.2895 181.023 56.6234 183.552 60.3465C186.081 64.0695 189.563 67.0451 193.635 68.9624V75.3457H215.658C215.658 75.3457 215.794 71.7893 215.84 68.6159C219.953 66.5007 223.402 63.2912 225.807 59.3411C228.213 55.391 229.481 50.8536 229.473 46.2287V46.2287Z" fill="#F6CF4A"/>
<path d="M207.697 75.1625C207.697 75.1625 207.697 75.0531 207.697 74.8525C207.697 74.6519 207.761 74.3327 207.806 73.9406C207.897 73.1472 208.043 71.9709 208.262 70.4662C208.481 68.9616 208.782 67.1196 209.265 64.9949C209.792 62.5937 210.555 60.2508 211.545 58.0006C212.122 56.691 212.811 55.4339 213.606 54.2436C214.038 53.5903 214.632 53.0596 215.329 52.7025C215.704 52.5211 216.117 52.4329 216.533 52.4456C216.949 52.4583 217.356 52.5715 217.718 52.7754C218.102 52.9913 218.386 53.3477 218.512 53.7694C218.636 54.1998 218.597 54.6607 218.402 55.0643C217.983 55.8413 217.291 56.4357 216.46 56.733C215.607 57.0176 214.707 57.1311 213.81 57.067C212.914 57.0028 212.038 56.7623 211.235 56.3592C210.391 55.9379 209.642 55.3497 209.032 54.6303C208.422 53.9108 207.965 53.075 207.688 52.1736C207.37 51.2393 207.32 50.2351 207.542 49.2737C207.66 48.7628 207.952 48.3089 208.368 47.9895C208.783 47.6701 209.297 47.5052 209.821 47.5229C210.095 47.5556 210.356 47.6561 210.58 47.8154C210.805 47.9747 210.986 48.1876 211.107 48.4348C211.35 48.9131 211.421 49.4606 211.308 49.985C210.996 50.9836 210.377 51.8581 209.539 52.4836C208.736 53.1612 207.801 53.6631 206.792 53.9568C205.784 54.2505 204.725 54.3296 203.684 54.1889C202.639 54.0204 201.651 53.6004 200.804 52.965C199.957 52.3295 199.278 51.4977 198.824 50.5413C198.587 50.0729 198.449 49.5606 198.419 49.0365C198.39 48.5124 198.468 47.9878 198.651 47.4955C198.746 47.2442 198.894 47.0159 199.084 46.8257C199.274 46.6355 199.503 46.4878 199.754 46.3921C200.007 46.3028 200.277 46.2688 200.544 46.2924C200.811 46.316 201.071 46.3967 201.304 46.5289C201.766 46.7771 202.139 47.1627 202.371 47.6323C202.592 48.0862 202.722 48.5787 202.754 49.0822C202.825 50.0559 202.695 51.0337 202.371 51.9547C201.769 53.7572 200.504 55.2633 198.833 56.1677C197.24 57.0145 195.397 57.2667 193.635 56.879C192.768 56.7387 191.971 56.3193 191.365 55.6844C191.071 55.3551 190.898 54.936 190.873 54.4954C190.848 54.0549 190.973 53.619 191.228 53.2587C191.37 53.0966 191.544 52.9646 191.738 52.8706C191.932 52.7767 192.143 52.7226 192.359 52.7116C192.77 52.6845 193.181 52.763 193.553 52.9396C194.231 53.3373 194.765 53.9411 195.076 54.663C195.705 56.0309 196.216 57.3987 196.727 58.6207C198.742 63.6817 200.164 67.8582 201.122 70.7489C201.596 72.1989 201.952 73.3296 202.189 74.0956C202.298 74.4695 202.389 74.7522 202.444 75.0075C202.477 75.1062 202.505 75.2066 202.526 75.3084C202.483 75.2138 202.447 75.1163 202.417 75.0166C202.344 74.816 202.253 74.5242 202.125 74.1594C201.87 73.3843 201.487 72.2627 201.003 70.831C200.019 67.9585 198.56 63.7911 196.526 58.7483C196.006 57.4899 195.486 56.1494 194.866 54.8181C194.572 54.1444 194.07 53.5822 193.435 53.2131C193.122 52.9925 192.736 52.8995 192.357 52.9532C191.978 53.0069 191.633 53.2031 191.394 53.502C191.154 53.8008 191.038 54.1797 191.068 54.5615C191.098 54.9433 191.273 55.2992 191.556 55.5567C192.118 56.1513 192.863 56.5399 193.672 56.6601C195.371 57.0302 197.146 56.7812 198.678 55.9579C200.286 55.0861 201.502 53.6354 202.079 51.9C202.379 51.0209 202.5 50.0908 202.435 49.1643C202.434 48.7009 202.316 48.2453 202.091 47.8402C201.866 47.435 201.542 47.0937 201.149 46.8481C200.953 46.7372 200.735 46.6693 200.51 46.6489C200.285 46.6285 200.059 46.6559 199.845 46.7295C199.64 46.8121 199.453 46.9354 199.296 47.0922C199.139 47.2489 199.016 47.4357 198.933 47.6414C198.768 48.0945 198.697 48.5767 198.725 49.0582C198.754 49.5397 198.88 50.0103 199.098 50.441C199.535 51.3463 200.184 52.1326 200.991 52.7328C201.797 53.3329 202.737 53.7293 203.73 53.8879C204.728 54.0232 205.744 53.9479 206.712 53.6668C207.679 53.3856 208.577 52.9049 209.347 52.2556C210.147 51.6628 210.736 50.8284 211.025 49.8756C211.129 49.4224 211.067 48.947 210.852 48.5351C210.755 48.335 210.609 48.1629 210.427 48.0352C210.245 47.9075 210.033 47.8285 209.812 47.8056C209.361 47.7797 208.915 47.9227 208.563 48.2068C208.212 48.4987 207.963 48.8947 207.852 49.3376C207.64 50.2442 207.687 51.1923 207.989 52.0733C208.244 52.9182 208.665 53.7036 209.228 54.3838C209.79 55.0639 210.483 55.625 211.265 56.0343C212.047 56.4435 212.903 56.6928 213.782 56.7673C214.662 56.8419 215.547 56.7404 216.387 56.4686C217.164 56.2012 217.813 55.6553 218.211 54.9366C218.383 54.5986 218.418 54.2075 218.309 53.8442C218.201 53.481 217.956 53.1734 217.627 52.9852C217.301 52.8011 216.935 52.6984 216.56 52.6857C216.186 52.673 215.813 52.7507 215.475 52.9122C214.822 53.2566 214.264 53.7579 213.852 54.3712C213.043 55.5415 212.344 56.7839 211.764 58.0827C210.766 60.3143 209.99 62.6386 209.448 65.0222C208.955 67.1287 208.645 68.9616 208.399 70.4936C208.153 72.0256 208.007 73.1563 207.879 73.9588C207.824 74.3509 207.779 74.6519 207.751 74.8707L207.697 75.1625Z" fill="#263238"/>
<path d="M213.961 79.349H195.076C194.89 79.349 194.705 79.3122 194.533 79.2406C194.361 79.169 194.205 79.064 194.073 78.9318C193.942 78.7996 193.838 78.6427 193.768 78.4702C193.697 78.2976 193.661 78.1129 193.663 77.9265V77.9265C193.661 77.7401 193.697 77.5553 193.768 77.3828C193.838 77.2102 193.942 77.0533 194.073 76.9211C194.205 76.7889 194.361 76.684 194.533 76.6124C194.705 76.5408 194.89 76.5039 195.076 76.5039H213.989C214.366 76.5039 214.728 76.6538 214.995 76.9206C215.262 77.1874 215.411 77.5492 215.411 77.9265V77.9265C215.411 78.1156 215.374 78.3029 215.301 78.4773C215.227 78.6517 215.12 78.8097 214.985 78.9422C214.85 79.0746 214.69 79.1788 214.514 79.2487C214.338 79.3186 214.151 79.3527 213.961 79.349V79.349Z" fill="#263238"/>
<path d="M213.962 80.5801H195.076C194.699 80.5801 194.337 80.73 194.07 80.9967C193.803 81.2635 193.654 81.6254 193.654 82.0026C193.654 82.3799 193.803 82.7418 194.07 83.0085C194.337 83.2753 194.699 83.4252 195.076 83.4252H197.155L199.891 88.6686C200.043 88.9545 200.268 89.1947 200.544 89.3645C200.82 89.5344 201.136 89.6278 201.459 89.6352H208.217C208.551 89.6359 208.88 89.5444 209.166 89.3707C209.453 89.197 209.686 88.9477 209.84 88.6504L212.512 83.4252H213.925C214.302 83.4252 214.664 83.2753 214.931 83.0085C215.198 82.7418 215.348 82.3799 215.348 82.0026C215.348 81.6254 215.198 81.2635 214.931 80.9967C214.664 80.73 214.302 80.5801 213.925 80.5801H213.962Z" fill="#263238"/>
<g opacity="0.2">
<path opacity="0.2" d="M188.191 30.1794C189.685 28.7963 191.395 27.6659 193.252 26.8327C194.481 26.2654 195.787 25.8843 197.128 25.7019C198.04 25.6107 198.623 25.7019 198.669 25.9026C198.778 26.3585 196.845 27.0333 194.301 28.7477C190.991 30.9177 188.334 33.9469 186.614 37.511C185.001 41.1249 184.402 45.1093 184.881 49.0374C185.228 52.1105 185.948 53.9981 185.529 54.2079C185.346 54.3082 184.927 53.9525 184.389 53.1592C183.657 52.0352 183.103 50.8048 182.747 49.5116C182.186 47.5636 181.952 45.536 182.054 43.5113C182.161 40.9883 182.759 38.5103 183.814 36.2161" fill="white"/>
</g>
<g opacity="0.2">
<path opacity="0.2" d="M204.688 26.9874C203.092 26.9874 201.687 26.5314 201.523 25.6925C201.45 25.273 201.742 24.8262 202.326 24.4797C203.048 24.0732 203.868 23.8714 204.697 23.8961C205.526 23.8863 206.343 24.0938 207.068 24.4979C207.642 24.8535 207.979 25.3004 207.861 25.7199" fill="white"/>
</g>
<path d="M209.521 89.0879C209.521 89.0879 209.028 88.9146 208.226 88.6866C206.13 88.0914 203.901 88.155 201.843 88.869C201.058 89.1426 200.593 89.3888 200.575 89.3432C200.931 89.0507 201.335 88.8224 201.77 88.6684C203.85 87.8107 206.172 87.7426 208.299 88.4769C208.739 88.607 209.153 88.8138 209.521 89.0879V89.0879Z" fill="#455A64"/>
<path d="M212.594 83.4885C212.594 83.5706 209.174 83.6435 204.961 83.6435C200.748 83.6435 197.319 83.5706 197.319 83.4885C197.319 83.4064 200.739 83.3335 204.961 83.3335C209.183 83.3335 212.594 83.3973 212.594 83.4885Z" fill="#455A64"/>
<path d="M211.408 85.7322C210.806 85.8452 210.196 85.9093 209.584 85.9237C208.426 85.9875 206.849 86.0605 205.07 86.0787C203.292 86.0969 201.715 86.0787 200.557 86.0787C199.946 86.09 199.335 86.0442 198.733 85.9419C199.353 85.8715 199.978 85.8471 200.602 85.869L205.107 85.8142L209.612 85.7413C210.209 85.691 210.81 85.688 211.408 85.7322Z" fill="#455A64"/>
</g>
</svg>
