<svg width="248" height="207" viewBox="0 0 248 207" fill="none" xmlns="http://www.w3.org/2000/svg">
<mask id="mask0" mask-type="alpha" maskUnits="userSpaceOnUse" x="0" y="0" width="248" height="207">
<rect width="248" height="207" rx="38" fill="url(#paint0_linear)"/>
</mask>
<g mask="url(#mask0)">
<rect width="248" height="207" rx="38" fill="url(#paint1_linear)"/>
<path d="M120.014 104.108C123.761 105.562 126.884 108.279 128.842 111.79C132.161 117.658 131.27 120.557 130.409 124.028C129.549 127.5 128.013 134.393 127.931 133.942C127.849 133.492 120.014 104.108 120.014 104.108Z" fill="#FFBE9D"/>
<path d="M218.754 32.5598H-19.7644V209.7H218.754V32.5598Z" fill="#F0F0F0"/>
<path d="M218.734 209.7C218.734 207.897 218.652 139.79 218.519 32.5188L218.734 32.7338L-19.7542 32.7851L-19.4879 32.5188C-19.4879 96.1504 -19.4879 156.443 -19.4879 209.7L-19.7235 209.464L218.785 209.7L-19.7235 209.946H-20V209.7C-20 156.443 -20 96.1913 -20 32.5188V32.2935H-19.7132H218.775H219V32.5188C218.846 139.79 218.734 207.897 218.734 209.7Z" fill="#263238"/>
<path d="M218.355 57.2831C218.355 57.4265 165.487 57.5494 100.278 57.5494C35.0696 57.5494 -17.798 57.4675 -17.798 57.2831C-17.798 57.0988 35.0594 57.0168 100.278 57.0168C165.497 57.0168 218.355 57.1705 218.355 57.2831Z" fill="#E0E0E0"/>
<path d="M6.41331 44.3889C6.41737 45.085 6.21453 45.7666 5.83055 46.3472C5.44657 46.9278 4.89875 47.3812 4.25662 47.65C3.61449 47.9187 2.907 47.9906 2.22394 47.8565C1.54088 47.7225 0.913045 47.3885 0.420115 46.897C-0.0728161 46.4055 -0.408614 45.7787 -0.544669 45.096C-0.680725 44.4133 -0.610902 43.7056 -0.344058 43.0627C-0.0772144 42.4198 0.374617 41.8707 0.954093 41.485C1.53357 41.0993 2.21456 40.8945 2.91065 40.8965C3.83784 40.8965 4.72721 41.2641 5.38379 41.9188C6.04037 42.5734 6.4106 43.4617 6.41331 44.3889V44.3889Z" fill="#E0E0E0"/>
<path d="M16.9725 44.389C16.9766 45.0855 16.7735 45.7675 16.389 46.3483C16.0046 46.9291 15.4562 47.3825 14.8134 47.651C14.1707 47.9194 13.4627 47.9907 12.7794 47.8558C12.096 47.7209 11.4682 47.3859 10.9757 46.8934C10.4832 46.4009 10.1482 45.773 10.0133 45.0897C9.87839 44.4064 9.94969 43.6984 10.2181 43.0556C10.4865 42.4129 10.9399 41.8645 11.5208 41.48C12.1016 41.0956 12.7836 40.8925 13.4801 40.8965C14.4047 40.9019 15.2899 41.2716 15.9437 41.9254C16.5975 42.5792 16.9671 43.4644 16.9725 44.389V44.389Z" fill="#E0E0E0"/>
<path d="M112.22 28.6065C111.431 25.7286 109.864 22.9019 107.273 21.4373C106.055 20.7204 104.662 20.3312 103.412 19.6553C101.972 18.7245 100.584 17.7159 99.254 16.634C97.516 15.43 95.5402 14.6123 93.4596 14.2361C91.379 13.8599 89.242 13.9339 87.1924 14.4531C85.1428 14.9723 83.2283 15.9246 81.5777 17.246C79.9271 18.5673 78.5788 20.227 77.6236 22.1133C74.715 19.8908 69.6658 20.8331 66.2246 22.1133C62.7834 23.3935 59.9055 27.4492 59.0554 31.0133L75.2373 35.7757C78.3821 39.3905 82.1063 42.457 86.2573 44.8498C90.4436 47.2494 95.2939 48.2302 100.084 47.6458C102.457 47.3334 104.724 46.467 106.7 45.1166C108.677 43.7662 110.308 41.9698 111.462 39.8724C113.084 36.3362 113.354 32.3281 112.22 28.6065V28.6065Z" fill="#263238"/>
<path d="M123.691 82.0168C125.699 80.5015 127.037 78.2623 127.419 75.7758C127.802 73.2892 127.199 70.7515 125.739 68.7026C124.828 67.5248 123.588 66.4494 123.384 64.9746C123.346 64.0605 123.478 63.1472 123.773 62.2811C124.456 59.3009 124.268 56.1872 123.231 53.311C122.194 50.4347 120.352 47.9172 117.925 46.0582C117.833 42.7502 115.979 35.7551 111.78 33.082L92.6893 35.7756C93.5564 55.8698 93.4983 75.9674 92.5151 96.0684C92.3615 99.1409 92.2489 102.459 93.9387 105.04C96.3251 108.707 101.303 109.465 105.665 109.577C109.847 109.841 114.041 109.349 118.048 108.123C121.991 106.74 125.627 104.026 127.265 100.165C129.815 94.2761 127.193 87.4142 123.691 82.0168Z" fill="#263238"/>
<path d="M65.518 41.3881L64.9445 37.1173L90.1083 29.2619C97.9432 27.5106 107.437 34.4749 108.861 42.3815C110.428 51.1586 112.005 61.9431 111.718 68.6617C111.134 82.1807 101.159 85.0484 101.159 85.0484L102.183 93.0574C102.679 96.9523 101.608 100.885 99.2057 103.99C96.8031 107.096 93.2656 109.12 89.3709 109.618V109.618C85.4865 110.115 81.5635 109.052 78.4613 106.662C75.3591 104.272 73.3307 100.75 72.8203 96.8673L65.518 41.3881Z" fill="#FFBE9D"/>
<path d="M107.099 52.316C107.155 52.7592 107.035 53.2067 106.765 53.5627C106.495 53.9186 106.097 54.1549 105.655 54.221C105.441 54.2623 105.221 54.2604 105.008 54.2156C104.794 54.1708 104.592 54.0838 104.413 53.9598C104.233 53.8358 104.081 53.6773 103.963 53.4935C103.846 53.3097 103.767 53.1044 103.73 52.8896C103.674 52.4463 103.794 51.9989 104.064 51.6429C104.334 51.2869 104.732 51.0507 105.174 50.9846C105.388 50.9404 105.609 50.94 105.824 50.9837C106.038 51.0273 106.241 51.1139 106.421 51.2384C106.601 51.3628 106.754 51.5225 106.871 51.7077C106.987 51.893 107.065 52.0999 107.099 52.316V52.316Z" fill="#263238"/>
<path d="M106.7 48.342C106.516 48.5878 105.113 47.7787 103.279 47.9938C101.446 48.2088 100.207 49.2842 99.9917 49.0794C99.7766 48.8746 100.053 48.5673 100.586 48.0552C101.313 47.413 102.222 47.0122 103.187 46.9082C104.141 46.7956 105.106 46.9893 105.942 47.4612C106.557 47.8504 106.792 48.2293 106.7 48.342Z" fill="#263238"/>
<path d="M90.0366 54.6407C90.0924 55.084 89.9725 55.5314 89.7026 55.8874C89.4328 56.2434 89.0343 56.4796 88.5925 56.5457C88.3764 56.5934 88.1529 56.597 87.9353 56.5565C87.7177 56.5159 87.5105 56.432 87.3261 56.3096C87.1416 56.1873 86.9837 56.0291 86.8617 55.8444C86.7397 55.6598 86.6561 55.4524 86.6159 55.2348C86.5602 54.7916 86.6801 54.3441 86.9499 53.9881C87.2198 53.6321 87.6182 53.3959 88.06 53.3298C88.2763 53.2791 88.5007 53.2732 88.7194 53.3125C88.9381 53.3518 89.1464 53.4354 89.3316 53.5582C89.5167 53.681 89.6748 53.8404 89.796 54.0266C89.9173 54.2127 89.9992 54.4217 90.0366 54.6407Z" fill="#263238"/>
<path d="M88.7359 50.749C88.5516 50.9948 87.1485 50.196 85.3152 50.411C83.4819 50.6261 82.2427 51.6913 82.0276 51.4352C81.8126 51.1792 82.0276 50.9231 82.6217 50.411C83.3494 49.7708 84.2588 49.3734 85.223 49.2742C86.1757 49.1586 87.1405 49.3486 87.9781 49.817C88.5926 50.2574 88.8281 50.6364 88.7359 50.749Z" fill="#263238"/>
<path d="M96.9396 63.5715C97.8723 63.1579 98.8527 62.8621 99.8585 62.6908C100.319 62.5883 100.75 62.445 100.79 62.1172C100.773 61.6295 100.609 61.1583 100.319 60.7653C99.7561 59.6797 99.1518 58.5531 98.5271 57.3651C96.0281 52.5105 94.1539 48.506 94.3485 48.4036C94.5431 48.3012 96.7348 52.1521 99.244 57.0066L100.975 60.4376C101.338 60.9646 101.501 61.6036 101.436 62.2401C101.385 62.4137 101.296 62.5737 101.176 62.7084C101.055 62.8431 100.906 62.9491 100.739 63.0185C100.489 63.1174 100.228 63.1862 99.9609 63.2233C98.972 63.4635 97.9572 63.5805 96.9396 63.5715Z" fill="#263238"/>
<path d="M101.159 85.0686C94.7756 85.9048 88.285 84.9841 82.386 82.4058C82.386 82.4058 87.937 91.1829 101.528 88.3869L101.159 85.0686Z" fill="#EB996E"/>
<path d="M96.6732 68.0677C96.2761 67.6748 95.7865 67.3883 95.2496 67.2343C94.7127 67.0804 94.1456 67.0641 93.6007 67.1869C93.2012 67.2709 92.8224 67.4338 92.4866 67.6659C92.1507 67.898 91.8644 68.1948 91.6446 68.5388C91.4356 68.8726 91.3334 69.2623 91.3517 69.6558C91.37 70.0492 91.5079 70.4277 91.747 70.7407C92.0791 71.0381 92.4927 71.2292 92.9344 71.2894C93.3762 71.3496 93.8258 71.2763 94.2255 71.0787C95.0518 70.6655 95.7921 70.099 96.4069 69.4093C96.5944 69.2361 96.7504 69.0317 96.8678 68.8051C96.9223 68.6969 96.9436 68.575 96.929 68.4547C96.9144 68.3344 96.8646 68.2212 96.7859 68.1291" fill="#EB996E"/>
<path d="M91.7368 65.4766C92.0338 65.4766 92.2694 67.4122 94.1334 68.631C95.9974 69.8498 98.0867 69.3786 98.1379 69.6552C98.1379 69.7781 97.7077 70.0956 96.8167 70.2287C95.6543 70.3673 94.4796 70.1034 93.4882 69.4811C92.5394 68.8725 91.8666 67.9167 91.6139 66.8182C91.3989 65.9784 91.5627 65.4766 91.7368 65.4766Z" fill="#263238"/>
<path d="M88.3776 43.5187C88.2547 44.0411 86.4009 44.0103 84.2809 44.5429C82.1609 45.0755 80.4915 45.8436 80.1842 45.4237C80.0306 45.2291 80.2866 44.7273 80.9319 44.164C81.7924 43.4524 82.8109 42.9573 83.9019 42.7199C84.9859 42.4606 86.1158 42.4606 87.1998 42.7199C87.9884 42.9452 88.4288 43.2729 88.3776 43.5187Z" fill="#263238"/>
<path d="M105.42 43.1191C105.143 43.5698 103.832 43.283 102.347 43.4366C100.862 43.5903 99.582 44.0409 99.2747 43.6312C99.1211 43.4366 99.2747 42.9962 99.797 42.5456C100.496 41.9861 101.345 41.6474 102.237 41.5726C103.129 41.4979 104.023 41.6904 104.805 42.1257C105.307 42.4841 105.532 42.945 105.42 43.1191Z" fill="#263238"/>
<path d="M68.3755 28.0638C65.7639 28.9138 62.8143 36.0318 63.5824 38.6742C64.0381 39.9724 64.817 41.1331 65.8455 42.0469C66.874 42.9608 68.1184 43.5976 69.4612 43.8974C72.1657 44.4623 74.9729 44.2817 77.5828 43.3751C81.3005 42.2383 85.2231 39.6778 85.4792 35.8065C87.3186 37.6161 89.5907 38.9247 92.079 39.6078C94.5673 40.2908 97.1891 40.3255 99.6946 39.7086C104.672 38.4284 108.359 30.8086 109.752 25.8618L68.3755 28.0638Z" fill="#263238"/>
<path d="M94.1334 54.7129C94.0719 54.7129 94.1334 54.0369 93.7954 52.9001C93.3498 51.2923 92.3847 49.8771 91.0506 48.8751C89.655 47.8072 87.9206 47.2791 86.1666 47.3882C84.4126 47.4973 82.7571 48.2361 81.5045 49.4687C80.2519 50.7014 79.4866 52.3449 79.3494 54.0969C79.2122 55.8489 79.7123 57.5915 80.7577 59.0041C81.5657 60.1044 82.6652 60.9569 83.9319 61.4654C85.1987 61.9739 86.5825 62.1182 87.9269 61.882C89.0409 61.6781 90.0926 61.2189 90.9994 60.5404C92.3351 59.5443 93.3008 58.1317 93.7442 56.5257C94.0515 55.3786 94.0207 54.7129 94.0822 54.7129C94.1087 54.8722 94.1087 55.0349 94.0822 55.1942C94.0837 55.66 94.0287 56.1243 93.9183 56.5769C93.5854 58.0077 92.8454 59.3117 91.7877 60.3312C90.73 61.3507 89.3998 62.0423 87.9576 62.3224C86.5892 62.5887 85.1744 62.4826 83.861 62.0152C82.406 61.5028 81.1415 60.5597 80.2354 59.3114C79.2429 57.9798 78.7068 56.3634 78.7068 54.7026C78.7068 53.0419 79.2429 51.4255 80.2354 50.0939C81.1037 48.9163 82.2884 48.0092 83.6517 47.478C85.015 46.9468 86.501 46.8133 87.9372 47.0931C89.3793 47.3732 90.7095 48.0648 91.7672 49.0843C92.8249 50.1038 93.5649 51.4078 93.8978 52.8386C94.0082 53.2912 94.0632 53.7555 94.0617 54.2213C94.1134 54.3799 94.1376 54.5461 94.1334 54.7129V54.7129Z" fill="#455A64"/>
<path d="M112.978 51.3124C112.917 51.3124 112.978 50.6467 112.64 49.4996C112.201 47.8916 111.234 46.4776 109.895 45.4849C108.918 44.7507 107.773 44.2724 106.564 44.0936C105.355 43.9147 104.12 44.0409 102.972 44.4607C101.619 44.9502 100.445 45.8352 99.6024 47.0007C98.9356 47.9142 98.4904 48.9703 98.302 50.0856C98.1137 51.2008 98.1873 52.3446 98.5171 53.4264C98.847 54.5083 99.4239 55.4986 100.202 56.3191C100.981 57.1396 101.94 57.7677 103.003 58.1539C103.966 58.5041 104.991 58.6504 106.013 58.5834C107.036 58.5164 108.033 58.2377 108.942 57.7649C109.851 57.2921 110.652 56.6355 111.294 55.8368C111.936 55.0381 112.405 54.1147 112.671 53.1252C112.978 51.9884 112.947 51.3124 113.009 51.3124C113.035 51.4718 113.035 51.6344 113.009 51.7938C113.01 52.2596 112.955 52.7239 112.845 53.1764C112.512 54.6073 111.772 55.9112 110.714 56.9308C109.657 57.9503 108.326 58.6419 106.884 58.922C105.448 59.2017 103.962 59.0682 102.599 58.537C101.235 58.0059 100.051 57.0988 99.1825 55.9212C98.1962 54.587 97.6639 52.9716 97.6639 51.3124C97.6639 49.6533 98.1962 48.0378 99.1825 46.7037C100.091 45.46 101.355 44.5209 102.808 44.0101C104.121 43.5397 105.535 43.4301 106.905 43.6926C108.347 43.9727 109.677 44.6643 110.735 45.6839C111.793 46.7034 112.532 48.0073 112.865 49.4382C112.976 49.8907 113.031 50.355 113.029 50.8208C113.04 50.9864 113.023 51.1526 112.978 51.3124Z" fill="#455A64"/>
<path d="M93.0068 50.5646C92.9453 50.5646 92.9351 50.2061 93.1809 49.7145C93.525 49.0672 94.1104 48.5816 94.8102 48.363C95.51 48.1444 96.2677 48.2105 96.9191 48.547C97.4004 48.8133 97.595 49.1103 97.5438 49.1512C97.4926 49.1922 97.2263 49.0386 96.7655 48.8952C96.1819 48.7133 95.5568 48.7133 94.9732 48.8952C94.3906 49.0821 93.877 49.4387 93.4984 49.9194C93.2116 50.2983 93.0887 50.5851 93.0068 50.5646Z" fill="#455A64"/>
<path d="M78.822 56.4946C77.9307 57.0669 76.9516 57.489 75.9236 57.7441C74.9491 58.1653 73.9102 58.4181 72.8511 58.4917C74.7117 57.4772 76.7304 56.7846 78.822 56.4434V56.4946Z" fill="#455A64"/>
<path d="M209.281 79.4259C209.576 79.3104 209.844 79.1366 210.07 78.9149C210.297 78.6932 210.476 78.4281 210.597 78.1355C210.719 77.8429 210.78 77.5289 210.777 77.2121C210.774 76.8954 210.708 76.5824 210.581 76.292L202.388 78.75C204.709 77.8196 206.912 76.62 208.953 75.1756C211.175 73.3526 210.069 71.7754 210.069 71.7754L201.64 75.022L196.868 77.8282L184.936 96.0482C184.936 96.0482 194.266 100.606 195.915 99.2948C198.814 96.9802 200.401 91.8184 201.036 89.1965C203.042 88.6874 204.999 88.002 206.884 87.1482C207.621 86.6422 208.222 85.9636 208.635 85.1715L202.142 86.4108C203.084 86.1342 209.107 84.0757 209.578 83.3383C210.417 82.0376 209.895 81.464 209.895 81.464L201.702 82.734L202.542 82.1195C202.542 82.1195 207.161 80.2453 209.281 79.4259Z" fill="#FFBE9D"/>
<path d="M179.231 98.393L151.773 123.536C148.363 122.748 106.556 97.7581 106.556 97.7581L99.9301 129.917C99.9301 129.917 142.72 149.591 154.498 147.205C156.423 146.816 159.619 146.57 161.565 144.02C170.987 131.914 190.968 101.957 190.968 101.957L179.231 98.393Z" fill="#FFBE9D"/>
<path d="M197.892 97.1336L192.935 94.7473L196.509 88.254L199.315 82.3241L203.668 74.2434L197.042 76.7424C196.242 77.0718 195.538 77.5965 194.993 78.2684L184.086 93.3339L179.293 98.2499L183.912 110.816L189.402 102.254L192.607 101.507C195.864 100.759 197.892 97.1336 197.892 97.1336Z" fill="#FFBE9D"/>
<path d="M189.924 86.9841C192.202 85.8371 194.581 84.9045 197.032 84.1984C197.821 83.9267 198.657 83.8186 199.49 83.8809C199.905 83.9245 200.3 84.0839 200.63 84.341C200.959 84.5982 201.21 84.9426 201.354 85.3352C201.431 85.8029 201.364 86.2831 201.161 86.7115C200.957 87.1398 200.628 87.4958 200.217 87.7317C199.382 88.1861 198.479 88.5042 197.544 88.674C196.607 88.8434 195.745 89.2976 195.075 89.9747C194.597 90.7225 194.251 91.547 194.051 92.4122C193.548 93.7774 192.704 94.9915 191.6 95.9396C190.496 96.8877 189.168 97.5383 187.742 97.83" fill="#FFBE9D"/>
<path d="M187.712 97.779C187.712 97.779 188.142 97.6458 188.9 97.3488C189.964 96.9192 190.935 96.286 191.757 95.4848C192.322 94.9368 192.808 94.313 193.201 93.6311C193.642 92.8354 193.986 91.9895 194.225 91.1116C194.38 90.6076 194.63 90.1381 194.963 89.729C195.334 89.3142 195.797 88.9916 196.315 88.7868C197.339 88.3361 198.455 88.2337 199.438 87.8241C199.926 87.6419 200.36 87.3389 200.698 86.9433C201.018 86.5819 201.193 86.115 201.19 85.6323C201.11 85.183 200.874 84.7762 200.524 84.4839C200.173 84.1916 199.731 84.0324 199.275 84.0346C198.381 84.0267 197.493 84.1793 196.653 84.4853C195.823 84.7208 195.055 84.9666 194.369 85.2124C192.986 85.6938 191.89 86.1444 191.132 86.4619C190.748 86.6479 190.351 86.8053 189.944 86.933C190.285 86.6725 190.656 86.4558 191.05 86.2878C191.788 85.9191 192.873 85.4173 194.246 84.8847C194.942 84.6184 195.7 84.3521 196.53 84.0961C197.42 83.7589 198.364 83.5854 199.316 83.584C199.857 83.6248 200.378 83.8125 200.821 84.1268C201.06 84.2994 201.258 84.5215 201.403 84.7777C201.548 85.034 201.636 85.3185 201.661 85.6118C201.635 86.2113 201.424 86.7879 201.057 87.2628C200.69 87.7377 200.186 88.0876 199.613 88.2644C198.517 88.7151 197.411 88.8175 196.479 89.2169C196.029 89.4024 195.624 89.6818 195.291 90.0362C194.994 90.4007 194.768 90.8176 194.625 91.2652C194.383 92.1587 194.04 93.0213 193.601 93.8359C193.178 94.5405 192.653 95.1789 192.044 95.7306C191.177 96.5377 190.146 97.1489 189.023 97.5229C188.718 97.6233 188.406 97.702 188.091 97.7585C187.824 97.7892 187.712 97.7994 187.712 97.779Z" fill="#EB996E"/>
<path d="M103.443 188.244H47.1137C41.9088 194.943 37.306 202.088 33.3591 209.598L113.572 209.925C115.17 207.344 103.443 188.244 103.443 188.244Z" fill="#263238"/>
<path d="M120.086 137.076C118.181 111.882 111.892 96.0479 111.892 96.0479L102.142 93.0471C100.668 99.4891 90.1699 101.619 84.199 98.8029L77.8799 95.4949C57.5911 92.4224 58.6357 94.1327 53.945 96.9492C49.8484 99.397 50.2478 117.678 50.2478 117.678C50.2478 117.678 40.1393 165.302 40.6923 172.932C41.2454 180.562 47.1241 188.295 47.1241 188.295H103.453C109.127 188.295 110.745 175.482 110.346 170.833C109.947 166.183 120.711 145.362 120.086 137.076Z" fill="#F6CF4A"/>
<path d="M66.6447 152.931C66.9172 153.242 67.2348 153.512 67.5869 153.73C68.4986 154.39 69.4728 154.959 70.4955 155.43C72.0203 156.136 73.6375 156.622 75.2989 156.874C77.3462 157.164 79.4294 157.073 81.4439 156.607C85.0819 155.678 88.3902 153.757 90.9994 151.056C91.7947 150.264 92.5274 149.412 93.1911 148.506C93.4606 148.2 93.6816 147.855 93.8466 147.482C93.7646 147.421 92.7405 148.854 90.7024 150.78C88.0801 153.318 84.8441 155.132 81.3108 156.044C77.7454 156.849 74.0161 156.49 70.6696 155.02C68.0887 153.945 66.7061 152.839 66.6447 152.931Z" fill="#263238"/>
<g opacity="0.3">
<path opacity="0.3" d="M92.9146 148.762C92.5207 153.068 90.4407 157.044 87.1281 159.823C85.4692 161.178 83.5134 162.122 81.4203 162.578C79.3272 163.033 77.156 162.988 75.0839 162.445C73.0292 161.85 71.1779 160.701 69.7327 159.124C68.2875 157.547 67.3042 155.602 66.8905 153.504C69.7263 154.956 72.7487 156.011 75.8725 156.638C79.245 157.09 82.6764 156.558 85.753 155.104C88.8296 153.65 91.4199 151.337 93.2116 148.444L92.7508 148.926" fill="black"/>
</g>
<path d="M28.6686 135.909L57.0278 149.223C57.0278 149.223 68.5907 123.619 69.5841 120.147C70.5776 116.675 73.6808 111.114 70.5059 103.821C67.331 96.5294 58.7382 93.8563 53.986 96.9596C43.3756 103.903 28.6686 135.909 28.6686 135.909Z" fill="#F6CF4A"/>
<path d="M117.843 137.261C119.174 137.261 134.373 145.218 134.373 145.218L143.037 116.542C130.102 107.918 119.481 98.1067 111.933 96.0583L115.907 119.758L117.843 137.261Z" fill="#F6CF4A"/>
<path d="M28.6686 135.909C28.8635 135.955 29.0525 136.024 29.2319 136.113L30.7989 136.779L36.5342 139.319L55.3584 147.902L57.6526 148.926L57.2941 149.059C60.5714 142.31 63.4391 136.277 65.4874 131.925L67.8635 126.804C68.1196 126.24 68.3244 125.78 68.4985 125.411C68.5606 125.242 68.6468 125.083 68.7545 124.94C68.7169 125.115 68.662 125.287 68.5907 125.452C68.478 125.78 68.2937 126.261 68.0479 126.886C67.546 128.125 66.7984 129.907 65.8254 132.109C63.8795 136.503 61.0733 142.576 57.8062 149.325L57.6935 149.571L57.4477 149.458L55.1536 148.434L36.3908 139.698L30.7374 137.004L29.2114 136.236C29.0151 136.155 28.8322 136.044 28.6686 135.909V135.909Z" fill="#263238"/>
<path d="M115.293 113.715C115.524 114.289 115.719 114.878 115.876 115.476C116.255 116.705 116.757 118.344 117.372 120.321C118.601 124.417 120.444 130.143 120.444 136.707C120.349 139.803 119.839 142.872 118.928 145.833C118.14 148.567 117.228 150.954 116.45 153.002C115.672 155.05 114.996 156.587 114.535 157.693C114.325 158.279 114.068 158.848 113.767 159.393C113.785 159.231 113.826 159.072 113.89 158.922C114.012 158.563 114.156 158.133 114.34 157.621C114.781 156.412 115.364 154.815 116.091 152.869C116.819 150.923 117.699 148.465 118.457 145.7C119.327 142.777 119.816 139.755 119.912 136.707C119.83 130.204 118.119 124.479 116.972 120.372C116.399 118.324 115.948 116.644 115.651 115.487C115.497 114.903 115.395 114.462 115.334 114.145C115.297 114.005 115.283 113.859 115.293 113.715Z" fill="#263238"/>
<path d="M91.2656 108C90.6946 103.806 88.72 99.9287 85.6634 97.0004C84.1886 95.5256 82.427 94.0508 82.1403 91.9922C81.7716 89.3192 84.0862 86.8714 83.7073 84.1471C83.2464 80.8083 79.0678 79.3642 77.5622 76.3429C75.5139 72.2463 79.0473 67.0128 76.8965 63.0287C75.6061 60.6219 72.5131 59.3315 71.8986 56.6789C71.4889 54.9583 74.7662 52.4593 75.5344 48.7314C77.2447 40.3434 78.1153 33.8604 69.9731 28.9751L65.2312 22.4614C59.9056 25.0628 55.43 30.9108 55.3378 37.0251C55.2866 39.9235 56.7716 42.8219 55.5119 45.4233C53.7606 49.0488 49.6639 51.2918 48.4246 55.1324C46.6631 60.6219 51.4972 66.767 49.4488 72.1336C48.1891 75.2983 44.8913 77.1111 42.8122 79.8046C41.2432 81.9709 40.4619 84.6084 40.5979 87.2797C40.7339 89.951 41.779 92.4955 43.5598 94.4912C40.9994 96.3004 39.0806 98.877 38.0809 101.848C37.0812 104.82 37.0524 108.032 37.9986 111.021C38.8487 113.51 40.7639 115.968 43.3857 116.142C47.1444 116.347 49.2849 112.045 52.04 109.526C54.2523 107.605 57.1042 106.582 60.0333 106.66C62.9624 106.738 65.7561 107.91 67.8634 109.946C70.7515 112.936 71.96 117.453 75.2886 119.901C78.6171 122.349 83.7175 121.949 86.9846 119.286C88.562 117.895 89.7764 116.14 90.5223 114.173C91.2683 112.206 91.5234 110.088 91.2656 108V108Z" fill="#263238"/>
<path d="M54.2522 147.41C48.8753 156.238 45.1268 161.318 45.1268 161.318L93.2628 190.65L87.6401 203.678L25.1658 177.961C25.1658 177.961 19.0208 171.621 21.1818 164.565L31.1367 137.076L54.2522 147.41Z" fill="#FFBE9D"/>
<path d="M33.4105 165.784C33.5232 165.938 35.8071 164.022 39.1766 162.793C42.5461 161.564 45.5162 161.493 45.506 161.298C43.287 161.145 41.0607 161.465 38.9752 162.239C36.8897 163.012 34.9928 164.221 33.4105 165.784V165.784Z" fill="#EB996E"/>
<path d="M130.655 199.571L118.642 193.826L95.1985 191.962L93.2833 190.64L87.6401 203.678C87.6401 203.678 93.7851 206.617 97.0113 206.873L116.716 206.279L127.019 207.304L130.655 199.571Z" fill="#FFBE9D"/>
<path d="M198.25 153.299L130.655 153.842C128.463 153.842 126.364 154.866 126.036 157.068L118.652 206.32H83.8302C83.2869 206.32 82.7659 206.536 82.3818 206.92C81.9977 207.304 81.7819 207.825 81.7819 208.369C81.7819 208.912 81.9977 209.433 82.3818 209.817C82.7659 210.201 83.2869 210.417 83.8302 210.417H195.034L202.634 158.43C202.735 157.797 202.697 157.149 202.523 156.531C202.349 155.913 202.043 155.341 201.626 154.853C201.209 154.365 200.692 153.974 200.109 153.706C199.526 153.437 198.892 153.299 198.25 153.299V153.299Z" fill="#E0E0E0"/>
<path d="M198.25 153.299C198.594 153.279 198.94 153.31 199.274 153.391C200.312 153.64 201.227 154.25 201.855 155.112C202.322 155.741 202.608 156.484 202.685 157.263C202.71 158.198 202.627 159.132 202.439 160.049C202.152 162.035 201.835 164.33 201.466 166.9C199.981 177.234 197.83 192.115 195.198 210.417V210.591H195.014L87.1485 210.653H84.2604C83.7347 210.706 83.2048 210.606 82.7344 210.366C82.376 210.166 82.0776 209.874 81.8698 209.52C81.662 209.167 81.5525 208.764 81.5525 208.353C81.5525 207.943 81.662 207.54 81.8698 207.187C82.0776 206.833 82.376 206.541 82.7344 206.341C83.2052 206.102 83.7347 206.002 84.2604 206.054H118.662L118.406 206.28C121.059 188.633 123.527 172.175 125.76 157.416C125.831 156.429 126.282 155.507 127.019 154.846C127.751 154.222 128.647 153.823 129.6 153.699C130.506 153.613 131.415 153.582 132.325 153.607H134.977L145.157 153.535L163.234 153.422L188.982 153.289H197.646C198.045 153.289 198.25 153.289 198.25 153.289H197.646H195.864L188.982 153.391L163.234 153.678L145.157 153.852L134.977 153.955H132.325C131.439 153.932 130.553 153.966 129.672 154.057C128.805 154.168 127.988 154.523 127.316 155.081C126.658 155.674 126.261 156.502 126.21 157.386C124.008 172.154 121.55 188.613 118.918 206.259V206.484H84.2604C83.8287 206.44 83.393 206.514 83.0006 206.699C82.7278 206.853 82.5006 207.076 82.3425 207.346C82.1844 207.616 82.1011 207.923 82.1011 208.236C82.1011 208.549 82.1844 208.856 82.3425 209.126C82.5006 209.396 82.7278 209.619 83.0006 209.772C83.3944 209.965 83.8345 210.043 84.2706 209.997H87.1792L195.045 210.059L194.84 210.243C197.544 191.951 199.756 177.08 201.282 166.757C201.671 164.186 202.019 161.892 202.306 159.905C202.491 159.006 202.584 158.089 202.583 157.171C202.466 156.291 202.089 155.467 201.499 154.804C200.909 154.141 200.134 153.671 199.274 153.453C198.938 153.375 198.595 153.324 198.25 153.299V153.299Z" fill="#263238"/>
<path d="M161.585 185.447C163.921 185.447 165.815 183.554 165.815 181.218C165.815 178.882 163.921 176.988 161.585 176.988C159.249 176.988 157.355 178.882 157.355 181.218C157.355 183.554 159.249 185.447 161.585 185.447Z" fill="white"/>
<path d="M121.438 209.884C121.54 209.884 123.691 197.359 126.241 181.873C128.791 166.388 130.799 153.821 130.706 153.801C130.614 153.78 128.453 166.326 125.903 181.822C123.353 197.318 121.305 209.884 121.438 209.884Z" fill="#263238"/>
</g>
<defs>
<linearGradient id="paint0_linear" x1="-28.9333" y1="-50.6" x2="159.398" y2="334.597" gradientUnits="userSpaceOnUse">
<stop stop-color="#847BF3"/>
<stop offset="1" stop-color="#EDCFFB"/>
</linearGradient>
<linearGradient id="paint1_linear" x1="-28.9333" y1="-50.6" x2="159.398" y2="334.597" gradientUnits="userSpaceOnUse">
<stop stop-color="#847BF3"/>
<stop offset="1" stop-color="#EDCFFB"/>
</linearGradient>
</defs>
</svg>
