<svg width="248" height="207" viewBox="0 0 248 207" fill="none" xmlns="http://www.w3.org/2000/svg">
<mask id="mask0" mask-type="alpha" maskUnits="userSpaceOnUse" x="0" y="0" width="248" height="207">
<rect width="248" height="207" rx="38" fill="#C4C4C4"/>
</mask>
<g mask="url(#mask0)">
<rect width="248" height="207" rx="38" fill="#F6CF4A"/>
<path d="M192.76 37.2598H-34.8V206.26H192.76V37.2598Z" fill="white"/>
<path d="M192.76 206.26C192.76 204.5 192.67 139.56 192.54 37.26L192.75 37.47L-34.78 37.52L-34.52 37.26C-34.52 97.97 -34.52 155.49 -34.52 206.26L-34.76 206.03L192.8 206.26L-34.76 206.5H-35V206.26C-35 155.49 -35 97.97 -35 37.26V37H-34.72L192.81 37.05H193.03V37.26C192.84 139.56 192.76 204.5 192.76 206.26Z" fill="#263238"/>
<path d="M192.76 59.7102C192.76 59.8602 141.76 59.9802 78.96 59.9802C16.16 59.9802 -34.84 59.8602 -34.84 59.7102C-34.84 59.5602 16.1 59.4502 78.96 59.4502C141.82 59.4502 192.76 59.5702 192.76 59.7102Z" fill="#E0E0E0"/>
<path d="M167.7 172.25C167.7 172.25 173.25 164.98 175.86 164.7C178.47 164.42 194.86 164.98 197.11 164.7C199.36 164.42 212.33 158.95 212.33 158.95C212.33 158.95 214.63 159.73 214.33 161.78C214.03 163.83 199.69 171.59 197.96 171.88C196.23 172.17 182.46 173.18 182.46 173.18L179 179.38L167.7 172.25Z" fill="#A5695F"/>
<path d="M120.12 80.73C121.529 80.0996 122.745 79.1057 123.642 77.8503C124.54 76.595 125.088 75.1233 125.23 73.5864C125.371 72.0495 125.101 70.5026 124.448 69.1044C123.794 67.7062 122.78 66.507 121.51 65.63L111.43 62.25C109.97 75.2567 108.423 88.2567 106.79 101.25C109.519 101.268 112.198 100.527 114.53 99.11C116.76 97.56 118.23 94.66 117.4 92.11C118.505 91.7373 119.498 91.09 120.284 90.229C121.071 89.368 121.626 88.3213 121.898 87.1871C122.17 86.0528 122.15 84.8682 121.839 83.7441C121.527 82.62 120.936 81.5932 120.12 80.76V80.73Z" fill="#263238"/>
<path d="M70.69 73.1L71.07 68.47L99.38 66.02C108.04 66.02 116.38 75.52 116.08 84.16C115.71 93.77 114.88 105.49 113.02 112.5C109.28 126.59 98.12 127.29 98.12 127.29L97.12 141.49C96.37 149.77 89.23 150.88 80.95 150.14C77.0575 149.791 73.4533 147.942 70.8987 144.984C68.3441 142.027 67.0394 138.192 67.26 134.29L70.69 73.1Z" fill="#A5695F"/>
<path d="M111.6 94.3799C111.554 94.8665 111.319 95.3156 110.945 95.63C110.57 95.9444 110.087 96.0988 109.6 96.0599C109.365 96.0497 109.134 95.9927 108.921 95.8923C108.708 95.7918 108.518 95.6499 108.36 95.4748C108.203 95.2997 108.082 95.095 108.005 94.8727C107.927 94.6503 107.895 94.4148 107.91 94.1799C107.953 93.6922 108.188 93.2415 108.563 92.9266C108.938 92.6117 109.422 92.4583 109.91 92.4999C110.145 92.51 110.376 92.567 110.589 92.6675C110.802 92.7679 110.992 92.9098 111.15 93.0849C111.307 93.26 111.428 93.4647 111.505 93.687C111.583 93.9094 111.615 94.1449 111.6 94.3799Z" fill="#263238"/>
<path d="M112.43 89.9398C112.18 90.1498 110.89 88.9398 108.92 88.7898C106.95 88.6398 105.39 89.4298 105.2 89.1698C105.01 88.9098 105.38 88.6398 106.06 88.2398C106.976 87.7393 108.022 87.53 109.06 87.6398C110.085 87.746 111.051 88.1729 111.82 88.8598C112.39 89.3798 112.56 89.8398 112.43 89.9398Z" fill="#263238"/>
<path d="M93.13 93.1898C93.0843 93.6757 92.8485 94.1238 92.4739 94.4366C92.0993 94.7494 91.6163 94.9015 91.13 94.8598C90.8941 94.8547 90.6615 94.8025 90.4461 94.7062C90.2306 94.6099 90.0366 94.4715 89.8754 94.2992C89.7142 94.1268 89.5891 93.9239 89.5075 93.7025C89.4258 93.4811 89.3893 93.2455 89.4 93.0098C89.4457 92.5239 89.6816 92.0758 90.0562 91.763C90.4308 91.4502 90.9138 91.2981 91.4 91.3398C91.636 91.3449 91.8685 91.3971 92.084 91.4934C92.2994 91.5897 92.4935 91.728 92.6547 91.9004C92.8159 92.0728 92.9409 92.2757 93.0226 92.4971C93.1042 92.7185 93.1408 92.954 93.13 93.1898V93.1898Z" fill="#263238"/>
<path d="M92.9599 88.3198C92.7099 88.5398 91.4199 87.3698 89.4499 87.1698C87.4799 86.9698 85.9199 87.8198 85.7299 87.5498C85.5399 87.2798 85.9099 87.0298 86.5899 86.6298C87.5038 86.1244 88.5519 85.9147 89.5899 86.0297C90.6201 86.1291 91.5912 86.5568 92.3599 87.2497C92.9099 87.7697 93.0899 88.2298 92.9599 88.3198Z" fill="#263238"/>
<path d="M98.64 103.72C99.7146 103.495 100.813 103.407 101.91 103.46C102.42 103.46 102.91 103.41 103.03 103.08C103.128 102.564 103.065 102.03 102.85 101.55L101.75 97.55C100.23 91.87 99.19 87.21 99.42 87.15C99.65 87.09 101.06 91.65 102.58 97.34L103.58 101.34C103.834 101.979 103.855 102.687 103.64 103.34C103.55 103.51 103.422 103.658 103.266 103.77C103.11 103.883 102.93 103.958 102.74 103.99C102.451 104.029 102.159 104.029 101.87 103.99C100.786 104.035 99.7012 103.944 98.64 103.72V103.72Z" fill="#263238"/>
<path d="M98.11 127.38C91.1947 126.778 84.5742 124.302 78.96 120.22C78.96 120.22 82.77 130.74 97.73 130.95L98.11 127.38Z" fill="#83534B"/>
<path d="M93.98 82.7902C93.73 83.3002 91.78 82.8502 89.43 82.8902C87.08 82.9302 85.14 83.3702 84.89 82.8902C84.77 82.6502 85.15 82.1702 85.96 81.7302C87.0326 81.1869 88.2176 80.9026 89.42 80.9002C90.6214 80.8782 91.8107 81.1422 92.89 81.6702C93.7 82.0702 94.09 82.5402 93.98 82.7902Z" fill="#263238"/>
<path d="M113.07 83.1499C112.67 83.5699 111.36 82.9599 109.72 82.7699C108.08 82.5799 106.67 82.7699 106.4 82.2599C106.28 82.0199 106.54 81.5899 107.19 81.2599C108.057 80.8324 109.032 80.6726 109.99 80.8008C110.948 80.9291 111.846 81.3395 112.57 81.9799C113.1 82.4699 113.24 82.9499 113.07 83.1499Z" fill="#263238"/>
<path d="M122.42 71.8501C123.939 70.9723 125.166 69.6671 125.948 68.097C126.731 66.5269 127.034 64.7613 126.82 63.0201C126.508 60.9273 125.549 58.9842 124.079 57.4622C122.609 55.9402 120.701 54.9151 118.62 54.5301C117.351 53.5939 115.864 52.9983 114.3 52.8001C114.212 51.8669 113.855 50.9792 113.273 50.2444C112.691 49.5097 111.908 48.9594 111.02 48.6601C109.231 48.1017 107.334 47.9851 105.49 48.3201C104.688 47.0819 103.607 46.0499 102.332 45.3078C101.057 44.5657 99.6255 44.1343 98.153 44.0486C96.6805 43.9629 95.2085 44.2253 93.8563 44.8145C92.5042 45.4037 91.3098 46.3032 90.37 47.4401C89.4083 46.7284 88.2937 46.2509 87.115 46.0457C85.9364 45.8404 84.726 45.913 83.5803 46.2577C82.4346 46.6024 81.3851 47.2096 80.5153 48.0312C79.6456 48.8527 78.9795 49.8659 78.57 50.9901C77.5306 50.9157 76.4869 51.0548 75.5033 51.3988C74.5196 51.7427 73.6167 52.2842 72.85 52.9901C71.6485 54.3793 70.6116 55.9027 69.76 57.5301C67.99 57.5435 66.2666 58.0996 64.8226 59.1233C63.3786 60.1471 62.2834 61.5892 61.6849 63.255C61.0864 64.9208 61.0133 66.7302 61.4756 68.4389C61.9379 70.1475 62.9132 71.6733 64.27 72.8101C63.3079 73.578 62.5388 74.5605 62.0242 75.6788C61.5097 76.7972 61.264 78.0204 61.3067 79.2507C61.3495 80.481 61.6795 81.6843 62.2705 82.7642C62.8614 83.8441 63.6969 84.7708 64.71 85.4701C64.1664 86.7336 63.886 88.0946 63.886 89.4701C63.886 90.8456 64.1664 92.2066 64.71 93.4701C65.1366 94.5804 65.945 95.5022 66.99 96.0701C67.0174 96.2644 67.0748 96.4533 67.16 96.6301C67.88 98.0601 70.04 97.6901 71.39 96.8301C74.66 94.7301 76.67 91.1201 77.92 87.4401C79.17 83.7601 79.77 79.8801 80.98 76.1901L81.07 75.9301C81.574 74.3961 82.4263 72.9997 83.56 71.8501C84.5612 72.7833 85.6346 73.6359 86.77 74.4001C88.8662 75.6578 91.3095 76.213 93.7434 75.9845C96.1773 75.7561 98.4745 74.756 100.3 73.1301C103.031 75.9389 106.656 77.7071 110.55 78.1301C114.4 78.5301 118.29 78.2001 121.5 76.0301C122.333 75.4734 122.997 74.6985 123.42 73.7901C123.52 73.4004 123.474 72.9873 123.29 72.6296C123.105 72.2719 122.796 71.9944 122.42 71.8501V71.8501Z" fill="#263238"/>
<path d="M71.0699 92.2698C70.8899 92.1598 63.68 88.5398 62.51 96.3598C61.34 104.18 69.43 103.73 69.51 103.51C69.59 103.29 71.0699 92.2698 71.0699 92.2698Z" fill="#A5695F"/>
<path d="M67.53 100.19C67.53 100.19 67.38 100.27 67.14 100.34C66.8022 100.424 66.445 100.378 66.14 100.21C65.36 99.7798 64.86 98.3698 65.03 96.9498C65.1049 96.2766 65.3342 95.6298 65.7 95.0598C65.8099 94.827 65.9748 94.6244 66.1803 94.4694C66.3858 94.3143 66.626 94.2115 66.88 94.1698C67.0423 94.1529 67.2055 94.1923 67.3421 94.2816C67.4786 94.3708 67.5803 94.5044 67.63 94.6598C67.7 94.8998 67.63 95.0398 67.63 95.0598C67.63 95.0798 67.81 94.9598 67.8 94.6298C67.7863 94.4271 67.7013 94.2358 67.56 94.0898C67.4671 93.9923 67.3554 93.9146 67.2317 93.8613C67.1079 93.808 66.9747 93.7803 66.84 93.7798C66.5096 93.7937 66.1884 93.8931 65.9079 94.0684C65.6274 94.2437 65.3973 94.4888 65.24 94.7798C64.8077 95.4086 64.5333 96.1324 64.44 96.8898C64.26 98.4698 64.84 100.06 65.92 100.56C66.1202 100.654 66.3387 100.703 66.56 100.703C66.7813 100.703 66.9999 100.654 67.2 100.56C67.49 100.38 67.56 100.21 67.53 100.19Z" fill="#83534B"/>
<path d="M126.56 61.6802C126.564 61.7468 126.564 61.8136 126.56 61.8802C126.602 62.0708 126.626 62.265 126.63 62.4602C126.673 63.2093 126.571 63.9597 126.33 64.6702C125.964 65.7989 125.267 66.7917 124.33 67.5202C123.077 68.4754 121.509 68.9219 119.94 68.7702L120.09 68.6602C119.401 71.1458 118.013 73.3811 116.09 75.1002C115.01 76.0882 113.731 76.8347 112.34 77.2902C110.85 77.7471 109.265 77.7954 107.75 77.4302C106.268 77.105 104.843 76.5625 103.52 75.8202C102.251 75.1617 101.112 74.2772 100.16 73.2102H100.39C98.3567 74.7798 95.9392 75.7744 93.39 76.0902C91.3717 76.2268 89.354 75.8156 87.55 74.9002C86.3743 74.3133 85.306 73.5323 84.39 72.5902C84.1465 72.3424 83.9162 72.0821 83.7 71.8102C83.6154 71.7212 83.5446 71.6201 83.49 71.5102C83.49 71.5102 83.81 71.8802 84.49 72.5102C85.4226 73.4078 86.4928 74.1505 87.66 74.7102C89.438 75.5692 91.4107 75.9452 93.38 75.8002C95.8694 75.4672 98.2261 74.4804 100.21 72.9402L100.34 72.8402L100.44 72.9702C101.372 73.9944 102.48 74.8444 103.71 75.4802C105.003 76.2016 106.394 76.7305 107.84 77.0502C109.295 77.4024 110.817 77.3609 112.25 76.9302C113.598 76.485 114.838 75.7629 115.89 74.8102C117.786 73.1456 119.173 70.979 119.89 68.5602V68.4402H120.01C121.512 68.6076 123.021 68.1963 124.23 67.2902C125.151 66.6011 125.847 65.6546 126.23 64.5702C126.478 63.8807 126.603 63.153 126.6 62.4202C126.58 61.9502 126.54 61.6802 126.56 61.6802Z" fill="#455A64"/>
<path d="M70.91 57.2401C70.5107 58.08 70.1764 58.9492 69.91 59.8401C69.2635 62.1955 69.3968 64.6969 70.29 66.9701L70.34 67.0901L70.23 67.1701C69.1551 67.9047 68.2956 68.9127 67.74 70.0901C67.1254 71.3847 66.923 72.8368 67.16 74.2501C67.4813 76.0782 68.4859 77.7156 69.97 78.8302L70.11 78.9301L70.01 79.0701C69.0677 80.4876 68.538 82.139 68.48 83.8401C68.4231 85.2038 68.6443 86.5647 69.13 87.8401C69.5886 88.9521 70.2197 89.9848 71 90.9001C70.9361 90.8513 70.876 90.7979 70.82 90.7401C70.6441 90.576 70.4772 90.4024 70.32 90.2201C69.7432 89.5281 69.2745 88.7526 68.93 87.9201C68.4069 86.6531 68.1548 85.2905 68.19 83.9201C68.2205 82.157 68.7549 80.4394 69.73 78.9701V79.2001C68.1477 78.0476 67.0727 76.3275 66.73 74.4001C66.4788 72.9144 66.6955 71.3874 67.35 70.0301C67.9358 68.8114 68.8413 67.7746 69.97 67.0301L69.91 67.2201C69.01 64.8842 68.9184 62.3142 69.65 59.9201C69.8564 59.2519 70.1277 58.6055 70.46 57.9901C70.58 57.7801 70.68 57.6202 70.75 57.5202C70.82 57.4202 70.91 57.2301 70.91 57.2401Z" fill="#455A64"/>
<path d="M65.35 102.69C65.1868 103.14 65.0728 103.606 65.01 104.08C64.975 104.574 65.1129 105.066 65.4 105.47C65.5808 105.703 65.8178 105.887 66.0888 106.004C66.3598 106.121 66.6561 106.168 66.95 106.14C67.236 106.084 67.4987 105.944 67.7038 105.737C67.909 105.53 68.047 105.266 68.1 104.98C68.2071 104.485 68.1794 103.97 68.02 103.49C67.74 102.65 67.46 102.15 67.52 102.13C67.85 102.503 68.1017 102.938 68.26 103.41C68.4721 103.933 68.5277 104.506 68.42 105.06C68.3503 105.395 68.1992 105.707 67.98 105.97C67.7218 106.262 67.3665 106.45 66.98 106.5C66.624 106.541 66.2636 106.485 65.9364 106.339C65.6092 106.193 65.3272 105.962 65.12 105.67C64.7971 105.199 64.6616 104.625 64.74 104.06C64.7705 103.544 64.9873 103.058 65.35 102.69V102.69Z" fill="#263238"/>
<path d="M93.5 106.06C93.0571 106.44 92.7125 106.922 92.4954 107.464C92.2783 108.006 92.1952 108.593 92.2531 109.174C92.311 109.755 92.5083 110.313 92.828 110.802C93.1478 111.29 93.5807 111.694 94.09 111.98C94.4865 112.228 94.9546 112.338 95.4201 112.29C96.2301 112.17 96.78 111.42 97.24 110.74L98.38 109.05C98.4563 108.963 98.5142 108.861 98.5503 108.751C98.5864 108.641 98.5999 108.525 98.59 108.41C98.53 108.17 98.28 108.04 98.06 107.93L93.69 105.84" fill="#83534B"/>
<path d="M95.37 112.04C94.6525 111.983 93.9626 111.739 93.37 111.33C92.6451 110.917 92.1024 110.245 91.8501 109.45C91.7 108.968 91.7 108.452 91.8501 107.97C92.1136 106.963 92.7593 106.099 93.65 105.56L93.7901 105.48L93.93 105.56C96.75 107.29 99.02 108.34 98.93 108.47C97.0473 107.933 95.2569 107.114 93.62 106.04H93.91C93.5431 106.27 93.2212 106.565 92.96 106.91C92.6854 107.198 92.4796 107.544 92.358 107.922C92.2364 108.301 92.2023 108.702 92.2581 109.096C92.3139 109.489 92.4583 109.865 92.6803 110.195C92.9024 110.525 93.1963 110.8 93.5401 111C94.6001 111.71 95.41 111.95 95.37 112.04Z" fill="#263238"/>
<path d="M-9.19995 206.32C-9.19995 206.32 19.2401 155.32 23.9801 147.07C29.5501 137.37 34.4001 133.85 38.7601 131.73C43.3602 129.56 48.3839 128.437 53.47 128.44L67.58 128.33C67.58 128.33 72.94 136.33 80.21 137.93C90.21 140.09 97.74 132.66 97.74 132.66L118 140.96L113.91 178.38C112.885 187.816 109.44 196.827 103.91 204.54L102.57 206.28L27.8701 206.21L36.53 179.26L20.53 206.26L-9.19995 206.32Z" fill="#3C41E7"/>
<path d="M118 140.96C118 140.96 123.89 144.42 128.33 158.76C132.77 173.1 142.33 198.61 142.33 198.61L166.33 171.38L180.57 180.38C180.57 180.38 157.57 220.26 153.95 224.98C148.51 231.98 134.76 236.04 126.69 226.69C120.83 219.89 106.8 186.99 106.8 186.99L118 140.96Z" fill="#3C41E7"/>
<path d="M109.36 161.75C109.36 161.75 109.46 161.89 109.59 162.18C109.72 162.47 109.91 162.89 110.12 163.45C110.739 165.034 111.25 166.657 111.65 168.31C114.371 179.346 112.598 191.011 106.72 200.74C105.846 202.193 104.88 203.589 103.83 204.92C103.46 205.39 103.14 205.73 102.94 205.92C102.74 206.11 102.61 206.28 102.59 206.27C102.915 205.738 103.272 205.227 103.66 204.74C104.654 203.38 105.568 201.965 106.4 200.5C112.021 190.793 113.767 179.32 111.29 168.38C110.925 166.733 110.471 165.108 109.93 163.51C109.704 162.936 109.514 162.348 109.36 161.75Z" fill="#263238"/>
<path d="M41.2 157.17C41.2227 157.343 41.2227 157.517 41.2 157.69C41.15 158.09 41.08 158.58 41 159.17C40.82 160.46 40.51 162.31 40.09 164.59C39.26 169.15 37.9 175.42 36.02 182.25C34.14 189.08 32.09 195.16 30.48 199.51C29.67 201.68 28.99 203.43 28.48 204.63L27.89 206C27.8277 206.163 27.7507 206.32 27.66 206.47C27.6796 206.295 27.7234 206.123 27.79 205.96C27.93 205.59 28.09 205.12 28.29 204.56L30.12 199.38C31.65 195.01 33.63 188.93 35.51 182.11C37.39 175.29 38.79 169.06 39.72 164.52L40.79 159.14L41.09 157.68C41.1005 157.505 41.1376 157.333 41.2 157.17Z" fill="#263238"/>
<path d="M5.46997 206.27C5.46997 206.27 8.18997 202.58 9.52997 201.88C10.87 201.18 12.71 201.2 13.53 201.93L14.34 202.65C14.34 202.65 18.55 200.76 20.58 202.22C20.58 202.22 24.58 200.32 26.51 202.49C26.51 202.49 29.6 200.49 30.91 202.23C32.22 203.97 32.08 206.95 31.45 208.48C30.82 210.01 29.63 215.21 28.71 215.3C28.71 215.3 26.25 215.56 25.92 214.23C25.59 212.9 25.45 212.23 25.45 212.23C25.45 212.23 24.51 216.94 23.37 217.17C22.23 217.4 20.07 217.28 20 215.17C20 215.17 18.95 216.74 17.92 216.28C16.89 215.82 15.62 215.07 15.73 213.79C15.84 212.51 15.86 211.24 15.86 211.24C15.86 211.24 15.3 213.1 14.37 212.7C13.44 212.3 12.5 212.38 11.98 210.8C11.46 209.22 10.16 206.2 10.16 206.2L5.46997 206.27Z" fill="#A5695F"/>
<path d="M15.77 211.2C15.71 211.2 15.96 210.69 16.18 209.87C16.4587 208.802 16.503 207.687 16.31 206.6C16.1016 205.517 15.6578 204.493 15.01 203.6C14.52 202.91 14.12 202.55 14.16 202.5C14.5895 202.719 14.9599 203.038 15.24 203.43C15.9927 204.317 16.4996 205.386 16.71 206.53C16.921 207.677 16.8314 208.858 16.45 209.96C16.3303 210.424 16.0965 210.85 15.77 211.2V211.2Z" fill="#83534B"/>
<path d="M20.83 202.24C21.1058 202.828 21.288 203.456 21.37 204.1C21.9536 207.183 21.7401 210.363 20.75 213.34C20.5775 213.965 20.3147 214.561 19.97 215.11C20.6017 213.03 21.0303 210.893 21.25 208.73C21.3263 206.558 21.1856 204.384 20.83 202.24Z" fill="#83534B"/>
<path d="M26.6 202.55C26.8946 204.202 26.9149 205.891 26.66 207.55C26.5388 209.219 26.1365 210.855 25.47 212.39C25.35 212.39 25.95 210.21 26.25 207.5C26.55 204.79 26.48 202.56 26.6 202.55Z" fill="#83534B"/>
<path d="M42.38 203.62C42.2795 203.406 42.1319 203.218 41.9484 203.069C41.7648 202.92 41.5501 202.814 41.32 202.76C40.7817 202.638 40.2218 202.649 39.6887 202.792C39.1556 202.935 38.6652 203.205 38.26 203.58C37.3809 204.378 36.6289 205.305 36.03 206.33H42.03C41.91 205.38 42.71 204.47 42.38 203.62Z" fill="#A5695F"/>
<path d="M196.73 120.67H228.81C228.812 127.013 226.934 133.214 223.413 138.489C219.891 143.765 214.885 147.878 209.027 150.31C203.169 152.741 196.722 153.381 190.5 152.149C184.278 150.917 178.561 147.869 174.071 143.389C169.581 138.909 166.52 133.198 165.275 126.979C164.029 120.76 164.655 114.311 167.074 108.447C169.492 102.584 173.595 97.569 178.863 94.0364C184.131 90.5037 190.327 88.612 196.67 88.6001L196.73 120.67Z" fill="#FF725E"/>
<path d="M202.44 115.52L202.34 83.4399H202.44C210.911 83.4791 219.026 86.8526 225.028 92.8304C231.03 98.8082 234.436 106.909 234.51 115.38L202.44 115.52Z" fill="#FF725E"/>
</g>
</svg>
