<svg fill="none" height="469" viewBox="0 0 490 469" width="490" xmlns="http://www.w3.org/2000/svg" xmlns:xlink="http://www.w3.org/1999/xlink"><clipPath id="a"><path d="m0 0h490v469h-490z"/></clipPath><g clip-path="url(#a)"><path d="m424.278 412.929h-63.795v8.511h63.795z" fill="#e0e0e0"/><path d="m415.984 417.275c0 2.196-.193 3.984-.408 3.984s-.397-1.777-.397-3.984.182-3.995.397-3.995.408 1.799.408 3.995z" fill="#fafafa"/><path d="m417.366 417.094c0 2.207-.17 3.995-.396 3.995-.227 0-.397-1.799-.397-3.995s.17-3.984.397-3.984c.226 0 .396 1.777.396 3.984z" fill="#fafafa"/><path d="m365.809 417.275c0 2.196-.17 3.984-.397 3.984-.226 0-.408-1.777-.408-3.984s.182-3.995.408-3.995c.227 0 .397 1.799.397 3.995z" fill="#fafafa"/><path d="m367.202 417.094c0 2.207-.192 3.995-.407 3.995-.216 0-.397-1.799-.397-3.995s.181-3.984.397-3.984c.215 0 .407 1.777.407 3.984z" fill="#fafafa"/><path d="m391.452 417.049c9.065 0 16.317.169 16.317.396 0 .226-7.309.396-16.317.396-9.009 0-16.317-.17-16.317-.396 0-.227 7.308-.396 16.317-.396z" fill="#fafafa"/><path d="m424.55 451.253h-63.795v17.023h63.795z" fill="#e0e0e0"/><path d="m361.39 463.918c1.393.511 2.836.871 4.306 1.075 2.323.375 4.705-.002 6.798-1.075 1.261-.701 2.331-1.699 3.116-2.909.894-1.329 1.261-2.943 1.032-4.527-.136-.837-.501-1.621-1.054-2.264-.269-.323-.607-.58-.99-.753-.383-.172-.8-.255-1.22-.243-.902.168-1.72.637-2.321 1.33s-.949 1.569-.988 2.484c-.072 1.009.074 2.021.428 2.968s.908 1.807 1.623 2.522c1.501 1.56 3.511 2.531 5.666 2.739 2.303.205 4.623-.092 6.799-.872 2.282-.722 4.308-2.085 5.835-3.927.74-.937 1.185-2.071 1.281-3.26.058-.582-.013-1.17-.209-1.722s-.512-1.054-.924-1.47c-.416-.389-.956-.621-1.525-.654-.57-.033-1.133.134-1.591.473-1.021.679-1.734 1.732-1.983 2.932-.245 1.231-.165 2.504.233 3.695.397 1.191 1.098 2.258 2.033 3.096 1.904 1.588 4.257 2.541 6.731 2.728 2.393.28 4.819.048 7.116-.68 2.188-.677 4.061-2.114 5.28-4.051.587-.892.955-1.908 1.075-2.968s-.011-2.133-.384-3.133c-.162-.455-.44-.861-.805-1.178s-.806-.535-1.28-.633c-.467-.088-.947-.077-1.41.032-.462.11-.897.314-1.275.602-.693.613-1.188 1.418-1.424 2.312s-.202 1.838.098 2.713c.577 1.678 1.614 3.16 2.992 4.279 2.054 1.794 4.595 2.941 7.301 3.295 2.706.355 5.457-.099 7.905-1.303 1.79-.905 3.399-2.128 4.748-3.611-.069.114-.145.223-.227.328-.241.308-.498.602-.77.883-1.362 1.404-3.003 2.508-4.818 3.239-1.816.731-3.764 1.073-5.72 1.005-3.214-.126-6.292-1.321-8.748-3.395-1.482-1.173-2.598-2.744-3.218-4.527-.35-.999-.392-2.079-.121-3.102.27-1.023.842-1.941 1.639-2.637.455-.342.975-.588 1.529-.72.554-.133 1.129-.149 1.689-.049.583.117 1.127.38 1.581.764.453.384.802.876 1.014 1.431.43 1.107.59 2.3.468 3.48-.122 1.181-.523 2.316-1.17 3.311-1.3 2.098-3.31 3.661-5.666 4.403-2.401.769-4.939 1.019-7.445.736-2.643-.192-5.158-1.214-7.184-2.92-1.035-.925-1.812-2.104-2.253-3.419-.441-1.316-.531-2.724-.262-4.085.305-1.396 1.148-2.615 2.345-3.396.618-.405 1.346-.611 2.085-.588.748.044 1.455.353 1.995.871.493.499.871 1.101 1.106 1.762s.321 1.365.253 2.064c-.107 1.342-.612 2.623-1.45 3.678-1.622 1.968-3.784 3.42-6.221 4.177-2.279.811-4.708 1.112-7.116.882-2.339-.225-4.518-1.291-6.13-2.999-.779-.789-1.378-1.736-1.757-2.777s-.53-2.151-.441-3.256c.102-1.073.533-2.089 1.235-2.908.327-.415.737-.757 1.203-1.006s.978-.4 1.505-.443c.512-.017 1.02.085 1.486.297s.876.528 1.199.925c.603.726.995 1.603 1.133 2.536.242 1.717-.162 3.463-1.133 4.9-.845 1.262-1.99 2.296-3.331 3.011-2.171 1.072-4.63 1.421-7.014.996-1.488-.234-2.941-.648-4.329-1.234-.476-.203-.827-.373-1.065-.486-.119-.053-.233-.118-.34-.193 0 0 .499.181 1.451.419z" fill="#fafafa"/><path d="m418.851 421.678h-58.096v29.541h58.096z" fill="#ebebeb"/><path d="m409.604 437.003c0 7.923-.192 14.295-.408 14.295-.215 0-.396-6.395-.396-14.295s.181-14.295.396-14.295c.216 0 .408 6.395.408 14.295z" fill="#e0e0e0"/><path d="m405.197 436.448c0 7.799-.193 14.114-.408 14.114-.216 0-.397-6.327-.397-14.114s.181-14.114.397-14.114c.215 0 .408 6.316.408 14.114z" fill="#e0e0e0"/><path d="m367.724 436.301c0 8.206-.193 14.861-.408 14.861s-.397-6.644-.397-14.861.182-14.872.397-14.872.408 6.666.408 14.872z" fill="#e0e0e0"/><path d="m372.902 436.267c0 8.002-.192 14.476-.408 14.476-.215 0-.396-6.474-.396-14.476s.181-14.476.396-14.476c.216 0 .408 6.474.408 14.476z" fill="#e0e0e0"/><path d="m66.5148 366.512c.8245 2.836.5242 5.88-.8385 8.5-1.4731 2.513-4.5892 4.177-7.4107 3.294s-4.4079-3.871-6.7988-5.659c-4.1813-3.147-9.9829-2.264-15.218-2.174-2.1756 0-4.5325-.181-6.1755-1.561-2.7989-2.264-2.3456-7.041.1019-9.746 2.4476-2.705 6.1869-3.769 9.779-4.368 6.6968-1.132 13.7788-.702 19.8071 2.41 1.7662.928 3.2943 2.25 4.4656 3.864 1.1713 1.613 1.9542 3.475 2.2879 5.44z" fill="#ebebeb"/><path d="m73.5629 330.599c2.8895-4.233 3.4787-9.598 3.4787-14.714-.0582-11.002-2.5622-21.854-7.3314-31.771-1.6203-3.316-3.8639-6.881-7.4673-7.843-1.5512-.312-3.157-.213-4.6579.288-1.5009.5-2.8445 1.384-3.8972 2.564-2.0729 2.377-3.4491 5.279-3.9773 8.387-2.1643 10.311.7705 20.939 3.694 31.057 1.2691 4.437 2.6742 9.055 5.9942 12.292 3.3201 3.237 10.4815 4.946 14.1642-.305" fill="#ebebeb"/><path d="m83.104 337.458c2.9688 3.882 8.8385 4.142 14.4021 2.003 5.5639-2.139 9.8129-6.791 13.4959-11.556 4.569-5.888 8.668-12.124 12.26-18.653 2.04-3.712 3.932-8.251 1.961-11.997-.738-1.232-1.765-2.265-2.994-3.008-1.228-.744-2.62-1.176-4.055-1.259-2.869-.136-5.733.351-8.396 1.426-6.886 2.423-13.2327 6.164-18.6854 11.013-4.6345 4.12-8.6571 9.19-10.4361 15.121-1.7791 5.931-1.0199 12.846 2.9801 17.589" fill="#ebebeb"/><path d="m73.8122 407.485c0-1.551-.1133-3.792-.3172-6.554-.2398-3.247-.6673-6.479-1.2805-9.677-.8011-3.912-1.9385-7.748-3.3994-11.466-1.4686-3.747-3.4848-7.256-5.9829-10.412-2.0603-2.594-4.6885-4.681-7.6826-6.101-2.0231-.944-4.199-1.519-6.4249-1.698-.8058-.09-1.6191-.09-2.4249 0 .7777.203 1.576.317 2.3796.34 2.1336.317 4.2053.963 6.1416 1.913 2.8488 1.452 5.3378 3.521 7.286 6.055 2.3879 3.111 4.3292 6.539 5.7676 10.186 1.4627 3.674 2.6261 7.459 3.4787 11.319.6421 3.161 1.1294 6.349 1.4618 9.564.2606 2.592.4646 4.776.6345 6.508.0337.805.1476 1.605.34 2.388.0846-.786.0922-1.578.0226-2.365z" fill="#e0e0e0"/><path d="m73.4837 403.682c0-.827.1133-1.879.1926-3.17.17-2.75.2267-6.734.17-11.657-.068-9.847-.8045-23.452-2.4362-38.392-1.3615-12.762-3.4079-25.442-6.1303-37.985-.5099-2.411-1.0538-4.527-1.5297-6.474s-.9292-3.611-1.3031-4.844c-.3739-1.234-.6799-2.264-.9292-3.034-.0824-.362-.212-.712-.3852-1.041.0339.383.1022.761.2039 1.132.1927.815.3853 1.754.7366 3.078.3512 1.325.6798 2.966 1.1331 4.867.4532 1.902.9292 4.075 1.3937 6.486 2.1983 10.605 4.272 26.926 5.8243 40.938 1.5978 14.941 2.4816 25.489 2.7309 35.314.136 4.912.136 8.896.136 11.635v3.169c-.0227.379.0002.759.068 1.132.0923-.378.1343-.766.1246-1.154z" fill="#e0e0e0"/><path d="m73.6535 375.329c.238-2.094.5893-5.172 1.3145-8.885.7252-3.712 1.677-8.126 3.1161-12.925 1.4813-5.217 3.3097-10.329 5.473-15.303 3.7588-9.132 9.0553-17.554 15.6599-24.9 5.19-5.524 9.303-7.923 9.144-8.15-.979.52-1.915 1.118-2.798 1.789l-1.462 1.007c-.476.385-1.031.872-1.609 1.358-1.331 1.092-2.5953 2.264-3.7849 3.509-6.798 7.292-12.2152 15.756-15.9885 24.98-2.2137 5.007-4.0433 10.176-5.473 15.461-1.2141 4.296-2.1864 8.656-2.9122 13.061-.6005 3.758-.8951 6.791-1.0198 8.964-.0907 1.1-.0907 2.205 0 3.305.2036-1.079.3173-2.173.3399-3.271z" fill="#e0e0e0"/><path d="m48.8494 420.897 2.6402 36.015h46.311l2.6404-36.015z" fill="#ebebeb"/><path d="m104.917 406.692h-61.5859v14.194h61.5859z" fill="#ebebeb"/><path d="m44.3396 455.531v3.939h57.6764 2.901v-3.939z" fill="#e0e0e0"/><path d="m49.8578 465.955-3.3087-6.926h55.4669l-2.833 6.926z" fill="#e0e0e0"/><path d="m49.9486 432.962.7479.872c.6912.849 1.6204 1.969 2.8102 3.395h-.2493l6.4928-9.258.1813-.272.1927.272 6.5948 9.19h-.4306l7.7166-9.213.2266-.271.2267.271.4192.543 6.9121 8.682h-.4532l6.5948-9.191.1813-.249.1926.227 7.9319 9.269h-.2492l2.6402-4.154.7138-1.131c.0778-.127.169-.244.272-.351-.0566.137-.1248.27-.204.396-.17.294-.3739.668-.6459 1.132l-2.4475 4.221-.1133.182-.136-.159-8.0453-9.156h.3626c-2.0056 2.795-4.1812 5.908-6.5381 9.224l-.204.306-.2379-.295-6.8895-8.692-.4192-.532h.4419l-7.6826 9.224-.2267.272-.2039-.283-6.5269-9.236h.34c-2.6629 3.69-4.9292 6.791-6.6288 9.157l-.1134.17-.1133-.159-2.7082-3.395c-.2719-.374-.4985-.668-.6912-.917-.0859-.1-.1583-.21-.2153-.328 0 0 .0907.022.1813.237z" fill="#f5f5f5"/><path d="m74.1294 420.376c14.3228 0 25.9256.125 25.9256.283 0 .159-11.6141.283-25.9256.283-14.3114 0-25.926-.124-25.926-.283 0-.158 11.6032-.283 25.926-.283z" fill="#f5f5f5"/><path d="m312.461 45.2962.725-.3509 2.81-1.3016 10.346-4.6179 34.379-15.1666 1.201-.5207h.249l33.677 14.5894 10.198 4.4708 2.742 1.245c.327.1271.642.2824.941.4641-.338-.0881-.668-.2055-.986-.3509l-2.787-1.1319-10.199-4.2783-33.71-14.4762h.249l-1.201.5319-34.447 14.9856-10.482 4.5273-2.855 1.1319-.748.2943c-.085.044-.177.0709-.272.0792.05-.0496.108-.0915.17-.1245z" fill="#e0e0e0"/><path d="m479.847 40.5311h-221.289v165.5089h221.289z" fill="#e0e0e0"/><path d="m472.108 48.2276h-206.649v151.0104h206.649z" fill="#fafafa"/><path d="m394.84 114.214c1.076 6.678-1.711 31.578-1.711 31.578l31.795 1.505c1.292-7.741 1.507-33.083 1.507-33.083z" fill="#e0e0e0"/><path d="m410.556 117.802h-.362c-.437.009-.872.047-1.303.113-.688.109-1.357.319-1.983.622-.828.421-1.558 1.011-2.142 1.732-.702.88-1.201 1.905-1.462 3-.231 1.279-.109 2.598.352 3.814.23.681.522 1.341.872 1.969.383.649.731 1.318 1.043 2.004.641 1.442 1.083 2.965 1.314 4.527l-.125-.113h6.448l-.125.124c.136-1.596.679-3.131 1.575-4.459.386-.657.805-1.279 1.201-1.879.408-.58.787-1.181 1.134-1.8.569-1.161.744-2.476.498-3.746-.158-1.105-.544-2.165-1.133-3.113-.518-.76-1.205-1.391-2.006-1.844-.601-.344-1.245-.607-1.915-.781-.42-.112-.848-.195-1.28-.249 1.141.101 2.25.428 3.263.962.819.46 1.524 1.098 2.063 1.867.627.959 1.048 2.039 1.235 3.169.257 1.31.082 2.669-.499 3.871-.345.627-.723 1.235-1.133 1.822-.329.623-.748 1.223-1.133 1.879-.864 1.3-1.389 2.793-1.53 4.347v.113h-6.629v-.102c-.225-1.56-.659-3.083-1.291-4.527-.295-.683-.636-1.345-1.02-1.981-.36-.627-.66-1.286-.895-1.97-.465-1.255-.579-2.612-.329-3.927.27-1.122.793-2.167 1.53-3.056.602-.729 1.351-1.323 2.198-1.743.64-.297 1.319-.499 2.017-.6.44-.056.883-.079 1.326-.068h.464s-.056.023-.238.023z" fill="#fff"/><path d="m409.061 135.3v-.294c0-.261.09-.634.158-1.132.125-.985.329-2.411.465-4.188.067-.465.093-.934.079-1.403v-1.494c-.019-.538-.139-1.068-.351-1.562-.227-.503-.63-.905-1.133-1.132-.274-.112-.574-.141-.863-.085-.29.057-.557.196-.769.402-.107.105-.192.23-.251.367-.058.138-.088.287-.089.436.011.308.118.605.306.849.197.25.449.452.737.589.289.145.598.248.917.305 1.318.257 2.668.302 4 .136.641-.077 1.239-.363 1.7-.815.214-.225.366-.502.442-.803.063-.298.028-.608-.102-.883-.125-.271-.347-.485-.623-.6-.131-.056-.272-.085-.414-.085s-.283.029-.413.085c-.257.126-.478.313-.646.543-.157.229-.265.487-.318.759-.102.53-.158 1.067-.17 1.607-.056 1.052-.158 2.026-.158 2.909-.102 1.777-.25 3.214-.25 4.221-.047.376-.07.754-.067 1.132v-1.132c0-1.007.124-2.444.203-4.221l.159-2.909c.008-.547.061-1.092.159-1.63.066-.282.181-.55.34-.792.171-.247.406-.443.68-.566.141-.061.293-.092.447-.092s.306.031.448.092c.296.124.534.354.668.645.144.291.184.622.114.939-.077.323-.237.62-.465.86-.226.237-.495.429-.793.566-.307.135-.631.227-.963.272-1.343.181-2.707.136-4.034-.136-.324-.066-.64-.168-.941-.305-.301-.146-.565-.359-.77-.623-.2-.26-.311-.577-.318-.905-.006-.163.024-.325.086-.476.063-.15.157-.285.277-.396.224-.22.508-.369.817-.427s.628-.024.917.099c.543.239.979.671 1.223 1.211.219.501.338 1.039.352 1.585v1.528c0 .486-.08.95-.08 1.392-.136 1.777-.351 3.203-.498 4.199-.068.486-.17.871-.17 1.132v.396c-.023-.054-.038-.112-.045-.17z" fill="#fff"/><path d="m413.219 136.658v2.83l-2.108 2.501-2.481-.124h-.068l-1.281-1.494c-.215-.249-.419-.51-.623-.759 0-1.448.125-2.818.125-4.074v-.136h.136l4.714.181 1.303.068c.146-.023.295-.023.442 0h-6.584l.136-.125c0 1.245-.09 2.615-.09 4.075v-.102l.623.758 1.224 1.494h-.102l2.481.136h-.113l2.153-2.501v.068c.09-1.072.136-1.988.136-2.751.007-.352.038-.704.09-1.052-.021.337-.059.673-.113 1.007z" fill="#fff"/><path d="m407.213 139.069c.204-.11.416-.205.635-.283.722-.276 1.493-.403 2.266-.373.782.02 1.551.193 2.266.509.214.098.422.208.624.328.076.036.146.086.204.147l-.227-.113-.623-.294c-.719-.298-1.488-.46-2.266-.476-.771-.029-1.539.086-2.267.34-.215.068-.43.158-.646.249-.068.055-.15.09-.238.102z" fill="#fff"/><path d="m407.213 138.107c.148-.079.363-.181.635-.294.725-.265 1.494-.392 2.266-.374.782.025 1.552.202 2.267.521.215.09.423.195.623.317l.204.147-.227-.113c-.147-.08-.351-.181-.623-.295-.723-.286-1.489-.447-2.266-.475-.77-.024-1.538.091-2.267.34l-.646.26-.226.102c.083-.053.17-.098.26-.136z" fill="#fff"/><path d="m407.27 137.145c.204-.114.416-.213.635-.294.727-.26 1.494-.386 2.266-.374.781.027 1.549.199 2.266.509.216.094.424.204.623.329l.204.147-.226-.113c-.148-.08-.351-.181-.623-.295-.72-.298-1.488-.459-2.267-.475-.769-.024-1.537.091-2.266.34-.272.09-.487.192-.646.26l-.226.09c.078-.057.166-.099.26-.124z" fill="#fff"/><path d="m430.295 72.8225c1.077 6.6779-1.722 31.5785-1.722 31.5785l31.83 1.505c1.291-7.7303 1.507-33.0835 1.507-33.0835z" fill="#ebebeb"/><path d="m445.796 83.7787c3.57.113 7.13.4305 10.663.9507-3.572.1114-7.149.0018-10.708-.3282-3.569-.113-7.129-.4305-10.663-.9507 3.573-.0944 7.148.0152 10.708.3282z" fill="#fff"/><path d="m445.785 89.121c3.57.113 7.13.4305 10.663.9507-3.569.0944-7.14-.0152-10.697-.3282-3.57-.1112-7.13-.4324-10.663-.9621 3.57-.0906 7.141.0228 10.697.3396z" fill="#fff"/><path d="m446.601 94.0558c2.039.0221 4.07.2496 6.063.6791-4.07.2265-8.152-.0013-12.17-.6791 2.03-.2035 4.076-.2035 6.107 0z" fill="#fff"/><path d="m431.802 147.354c1.077 6.678-1.722 31.578-1.722 31.578l31.83 1.506c1.292-7.742 1.507-33.084 1.507-33.084z" fill="#ebebeb"/><path d="m447.304 158.333c3.566.112 7.122.43 10.651.951-3.569.094-7.14-.016-10.697-.329-3.57-.111-7.13-.432-10.662-.962 3.573-.09 7.148.023 10.708.34z" fill="#fff"/><path d="m447.292 163.698c3.57.113 7.13.43 10.663.951-3.569.094-7.14-.016-10.697-.329-3.569-.113-7.129-.43-10.662-.95 3.569-.095 7.14.015 10.696.328z" fill="#fff"/><path d="m448.108 168.667c2.039.022 4.07.249 6.063.679-4.071.167-8.148-.076-12.17-.725 2.032-.194 4.078-.179 6.107.046z" fill="#fff"/><path d="m286.002 80.4511-4.102 73.2529 91.376-1.109 3.15-73.1173z" fill="#ebebeb"/><path d="m377.491 78.9571h-90.775v68.4649h90.775z" fill="#f5f5f5"/><path d="m286.682 146.143v-3.599c-.068-3.203-.068-7.855-.068-13.797 0-11.93-.136-29.0773-.136-49.8012v-.2604h91.353v69.0426h-.283l-65.722-.136-18.549-.079-4.986-.216h5.009l18.628-.079 65.473-.136-.284.283v-68.4532l.318.3056h-90.753l.261-.249c-.057 20.6674-.136 37.7466-.136 49.6876-.068 5.931-.068 10.639-.068 13.854v4.923s-.057-.407-.057-1.29z" fill="#e0e0e0"/><path d="m366.534 93.4673h-36.793v46.2577h36.793z" fill="#f5f5f5"/><path d="m329.492 139.51v-3.101l-.068-9.428c0-8.183-.09-19.773-.147-33.5251v-.2829h37.076c-.057-.0793.6.5885.317.3169v46.3371h-.26l-26.799-.135-7.422-.068h.113l7.468-.068 26.64-.136-.25.26v-46.2354c-.283-.283.386.3056.306.3056h-36.793l.284-.283c-.057 13.6838-.148 25.2058-.148 33.3438-.068 4.052-.068 7.233-.068 9.496v3.181c.012.079.012.159 0 .237-.09-.062-.174-.134-.249-.215z" fill="#e0e0e0"/><path d="m365.129 82.8732h-70.515v6.6665h70.515z" fill="#f5f5f5"/><path d="m294.478 88.9399v-1.2564c-.068-1.1318-.068-2.8522-.068-4.9914v-.1245h.136c11.887-.1132 38.991-.1924 70.515-.1924l.317.3169v6.9722h-.306l-50.209-.1245-14.934-.1019h-5.315c.124-.0113.25-.0113.374 0h5.156l15.002-.0906 49.983-.1358-.306.3169v-6.6439c.147.1359-.306-.3169.317.317-31.524 0-58.628-.0793-70.515-.1925l.125-.1245c-.079 2.1166-.079 3.7804-.079 4.9122v1.7544c-.1-.191-.165-.3978-.193-.6112z" fill="#e0e0e0"/><path d="m325.232 93.4673h-30.629v27.8767h30.629z" fill="#f5f5f5"/><path d="m294.422 120.756v-1.46c0-1.392-.068-3.283-.068-5.659 0-5.003-.08-11.987-.136-20.3735v-.2603h30.866l.318.3169v28.1489h-.272l-22.278-.136-6.198-.068h-2.153c.196-.011.393-.011.589 0h1.677l6.267-.079 22.096-.136-.284.272v-27.8661l.306.3056h-30.538l.261-.2716c-.057 8.3191-.136 15.2341-.136 20.1471-.068 2.388-.068 4.301-.068 5.659v2.048c-.112-.182-.196-.38-.249-.588z" fill="#e0e0e0"/><path d="m325.232 125.713h-30.629v14.012h30.629z" fill="#f5f5f5"/><path d="m294.512 138.662v-2.762c0-2.502-.113-6.01-.113-10.323v-.226h.147l30.595-.079c-.272-.283.385.317.317.317v14.295h-.249l-22.108-.136-6.311-.09h.09l6.391-.091 21.904-.136-.306.294v-14c-.068-.08.589.588.306.305l-30.595-.09.227-.227c-.057 4.256-.125 7.708-.125 10.187l-.056 2.807v1.018c-.072-.35-.11-.706-.114-1.063z" fill="#e0e0e0"/><path d="m366.545 139.725c-11.388-15.721-24.487-30.457-35.886-46.1785z" fill="#fff"/><path d="m366.137 139.239-1.053-1.336-3.842-4.957c-3.252-4.177-7.807-9.881-12.883-16.163-5.077-6.282-9.553-11.986-12.759-16.23-1.587-2.1283-2.845-3.86-3.683-5.0824l-.963-1.4035c-.124-.1601-.227-.335-.306-.5206 0 0 .158.1471.408.4414l1.053 1.3469 3.842 4.9462c3.241 4.176 7.807 9.881 12.883 16.163 5.077 6.281 9.598 12.031 12.76 16.287 1.586 2.116 2.844 3.848 3.682 5.07l.963 1.404c.113.165.212.339.295.52-.149-.147-.282-.31-.397-.486z" fill="#e0e0e0"/><path d="m347.872 116.41c10.198-12.756 18.481-23.056 18.64-22.9428.158.1132-7.932 10.5828-18.131 23.3268-10.198 12.745-18.504 23.033-18.64 22.931-.136-.101 7.932-10.56 18.131-23.315z" fill="#e0e0e0"/><path d="m379.033 87.8194c1.138 0 2.251.3372 3.198.969.946.6318 1.684 1.5298 2.12 2.5804s.55 2.2067.327 3.322c-.222 1.1154-.77 2.1399-1.575 2.944s-1.831 1.3517-2.947 1.5736c-1.117.2218-2.274.108-3.326-.3272s-1.951-1.1722-2.584-2.1177c-.632-.9455-.97-2.0572-.97-3.1944-.001-.7555.147-1.5038.436-2.2021.288-.6982.712-1.3327 1.247-1.8669s1.17-.9577 1.869-1.2461 1.448-.4361 2.205-.4346z" fill="#e0e0e0"/><path d="m284.881 73.8638c1.138 0 2.251.3372 3.198.969.946.6318 1.684 1.5298 2.12 2.5804.435 1.0506.549 2.2067.327 3.322-.222 1.1154-.77 2.1399-1.575 2.944s-1.831 1.3517-2.947 1.5736c-1.117.2218-2.274.108-3.326-.3272s-1.951-1.1722-2.584-2.1177c-.632-.9455-.97-2.0572-.97-3.1944-.001-.7555.147-1.5038.435-2.2021.289-.6982.713-1.3327 1.248-1.8669s1.17-.9577 1.869-1.2461 1.448-.4361 2.205-.4346z" fill="#e0e0e0"/><path d="m120.282 119.658h-66.3335v96.048h66.3335z" fill="#e0e0e0"/><path d="m123.602 119.658h-66.3334v96.048h66.3334z" fill="#f5f5f5"/><path d="m115.364 130.06h-49.8577v75.244h49.8577z" fill="#fff"/><path d="m65.427 204.818v-20.6c0-13.333-.0793-32.155-.0793-54.328v-.159h50.1523v75.562h-.147l-36.3738-.068h.0907l36.2601-.079-.147.147v-75.245l.181.181h-49.9484l.17-.169c-.0793 22.127-.0793 40.916-.0793 54.181v21.063z" fill="#e0e0e0"/><path d="m58.4242 121.22 3.1841 3.871 3.1954 3.871c.4673.515.8917 1.068 1.2691 1.652-.5396-.447-1.0366-.943-1.4844-1.483-.8611-.962-2.0283-2.263-3.2747-3.814-1.2464-1.55-2.3456-2.909-3.1161-3.939-.4345-.534-.8141-1.11-1.1331-1.72.4925.485.9471 1.007 1.3597 1.562z" fill="#e0e0e0"/><path d="m56.5659 215.921c3.3003-3.281 6.2161-6.926 8.6911-10.866z" fill="#fff"/><path d="m57.8917 214.37c.8385-.939 1.983-2.263 3.1841-3.746s2.2662-2.898 2.9575-3.928c.3721-.572.7808-1.121 1.2237-1.641-.2709.631-.609 1.23-1.0085 1.789-.8989 1.38-1.8621 2.716-2.8894 4.006-1.0318 1.285-2.1285 2.517-3.2861 3.69-.4523.512-.9574.975-1.5071 1.381.3982-.553.8416-1.071 1.3258-1.551z" fill="#e0e0e0"/><path d="m114.922 204.885 8.691 10.708z" fill="#fff"/><path d="m114.968 204.885c3.082 3.415 5.983 6.989 8.691 10.708-1.601-1.667-3.114-3.417-4.533-5.241-2.391-2.954-4.272-5.467-4.204-5.467z" fill="#e0e0e0"/><path d="m119.67 124.887c-1.314 1.764-2.721 3.456-4.215 5.071 1.212-1.826 2.525-3.583 3.932-5.263 1.314-1.743 2.731-3.396 4.215-5.037-1.21 1.816-2.523 3.562-3.932 5.229z" fill="#e0e0e0"/><path d="m97.7325 145.328h-16.691v47.345h16.691z" fill="#e0e0e0"/><path d="m69.2288 17.6064-.2557 47.1969 9.4955.0514.2557-47.197z" fill="#e0e0e0"/><path d="m136.408 17.7139-.141 26.0545 24.589.1329.141-26.0545z" fill="#ebebeb"/><path d="m111.936 17.5997-.141 26.0545 24.589.1329.141-26.0545z" fill="#f5f5f5"/><path d="m161.188 24.8552c0-.0601-.024-.1176-.066-.1601-.043-.0424-.1-.0663-.161-.0663-16.354-.2792-32.709-.3773-49.064-.2943-.069 0-.136.0275-.184.0763-.049.0488-.077.115-.077.1841 0 .069.028.1352.077.184.048.0489.115.0763.184.0763 16.34.2263 32.725.3622 49.064.2263.061 0 .118-.0238.161-.0663.042-.0424.066-.1.066-.16z" fill="#e0e0e0"/><path d="m131.653 43.3538-.115 21.233 44.679.2415.115-21.233z" fill="#ebebeb"/><path d="m87.1865 43.1142-.115 21.233 44.6785.2414.115-21.2329z" fill="#f5f5f5"/><path d="m176.304 49.5179c.06 0 .118-.0238.16-.0663.043-.0424.067-.1.067-.16 0-.0601-.024-.1176-.067-.1601-.042-.0424-.1-.0663-.16-.0663-29.677-.6451-59.455-.6678-89.1435-.5093-.0691 0-.1354.0274-.1843.0762-.0488.0489-.0763.1151-.0763.1841s.0275.1353.0763.1841c.0489.0488.1152.0762.1843.0762 29.6765.4414 59.4555.781 89.1435.4414z" fill="#e0e0e0"/><path d="m193.006 64.843h-173.0968v7.606h173.0968z" fill="#e0e0e0"/><path d="m164.667 68.4989h-7.026v25.953h7.026z" fill="#e0e0e0"/><path d="m59.7727 68.4989h-7.0254v25.953h7.0254z" fill="#e0e0e0"/><path d="m59.9688-.0071125-.3516 64.9100125 9.4955.0513.3516-64.909995z" fill="#ebebeb"/><path d="m45.1275 12.0873-.285 52.6071 14.7532.0798.2849-52.6071z" fill="#f5f5f5"/><path d="m59.9653 22.2406c-4.9039.3508-9.8267.3508-14.7307 0 4.9048-.3282 9.826-.3282 14.7307 0z" fill="#e0e0e0"/><path d="m59.9653 20.0335c-4.9039.3508-9.8267.3508-14.7307 0 4.9048-.3282 9.826-.3282 14.7307 0z" fill="#e0e0e0"/><path d="m59.9653 56.7957c-4.9039.3507-9.8267.3507-14.7307 0 4.9048-.3283 9.826-.3283 14.7307 0z" fill="#e0e0e0"/><path d="m59.9653 54.5886c-4.9039.3508-9.8267.3508-14.7307 0 4.9048-.3282 9.826-.3282 14.7307 0z" fill="#e0e0e0"/><path d="m52.124 37.9166c0-6.542.102-11.8503.2493-11.8503s.2606 5.3083.2606 11.8503-.1133 11.9069-.2606 11.9069-.2493-5.3649-.2493-11.9069z" fill="#e0e0e0"/><path d="m45.076 25.025h-16.0565v39.7049h16.0565z" fill="#ebebeb"/><path d="m36.2602 54.4414c-.9-.0496-1.7434-.4543-2.3448-1.125-.6013-.6707-.9114-1.5526-.8619-2.4516-.0221-.5187.0843-1.0349.3096-1.5028s.5626-.873.9821-1.1796l.374.5093c-.3448.2449-.6229.5719-.8089.9515-.186.3795-.2741.7994-.2563 1.2216 0 .7895.314 1.5467.8729 2.1049s1.3169.8719 2.1073.8719c.7903 0 1.5483-.3137 2.1072-.8719s.8729-1.3154.8729-2.1049c.0112-.4236-.0821-.8434-.2719-1.2224-.1897-.379-.4699-.7055-.8159-.9507l.3626-.5093c.4253.3017.7677.7057.9954 1.1745.2278.4689.3336.9875.3077 1.5079.0113.1281.0113.2568 0 .3849-.026.4451-.1396.8808-.3342 1.2821-.1946.4014-.4664.7605-.8 1.0569-.3335.2964-.7223.5242-1.144.6705-.4217.1464-.8682.2083-1.3138.1822-.1132.0094-.2269.0094-.34 0z" fill="#fafafa"/><path d="m33.0082 44.3794c0-1.7996.7931-2.7956 1.9263-2.7956 2.6968 0 1.2011 4.6858 3.32 4.6858.7592 0 1.3258-.6112 1.3258-1.9921.0151-.7544-.2068-1.4946-.6345-2.1165l.5439-.3169c.4634.7221.7038 1.5645.6912 2.4221 0 1.7883-.8725 2.6825-1.9377 2.6825-2.7762 0-1.2578-4.6858-3.3201-4.6858-.7931 0-1.3257.5998-1.3257 2.0825-.0067.9195.2922 1.8151.8498 2.5467l-.5325.3056c-.6222-.805-.9429-1.802-.9065-2.8183z" fill="#fafafa"/><path d="m33.0081 37.9053c0-1.7996.7932-2.7843 1.9263-2.7843 2.6969 0 1.2011 4.6858 3.3201 4.6858.7592 0 1.3258-.6112 1.3258-1.9921.0152-.7579-.2067-1.5017-.6346-2.1278l.5439-.3056c.4635.7221.7039 1.5645.6912 2.4221 0 1.7883-.8725 2.6712-1.9376 2.6712-2.7762 0-1.2578-4.6745-3.3201-4.6745-.7932 0-1.3258.5998-1.3258 2.0825-.0067.9195.2922 1.8151.8499 2.5467l-.5326.3056c-.6204-.8103-.9407-1.8101-.9065-2.8296z" fill="#fafafa"/><path d="m64.8605 13.8311c1.5082 0 2.7308-1.2213 2.7308-2.7278 0-1.50644-1.2226-2.72769-2.7308-2.72769s-2.7309 1.22125-2.7309 2.72769c0 1.5065 1.2227 2.7278 2.7309 2.7278z" fill="#e0e0e0"/><path d="m65.7103 18.6074h-1.6883v38.6184h1.6883z" fill="#e0e0e0"/><path d="m244.428 467.54c135.024 0 244.45.113 244.45.294s-109.472.294-244.45.294c-134.979 0-244.428-.135-244.428-.294 0-.158 109.404-.294 244.428-.294z" fill="#263238"/><path d="m166.956 78.742c-37.156 89.415 25.835 117.587 38.764 129.697 12.929 12.111 35.546 22.637 37.156 54.861 1.609 32.223-21.813 33.072-65.427 82.296-43.615 49.223-9.689 113.795-9.689 113.795h193.108c14.148-21.03 19.587-46.717 15.175-71.667-4.412-24.951-18.331-47.223-38.834-62.139-18.584-13.582-43.411-22.218-51.886-43.576-8.329-20.984 3.626-44.81 19.489-60.95 15.864-16.14 35.637-28.409 48.884-46.699 19.875-27.425 21.065-67.039 2.878-95.6067z" fill="#fafafa"/><path d="m353.208 78.8552h-47.523l-138.684.1019.193-.1246c-2.809 6.7786-5.2 13.7222-7.162 20.7919-2.072 7.3996-3.434 14.9796-4.068 22.6366-.655 7.943-.24 15.937 1.235 23.769 1.622 8.13 4.554 15.943 8.68 23.135 2.149 3.668 4.569 7.172 7.241 10.48 2.739 3.342 5.695 6.499 8.85 9.451 3.21 3.003 6.572 5.84 10.073 8.5 3.502 2.705 7.162 5.263 10.765 7.98 1.768 1.358 3.456 2.943 5.167 4.414s3.467 2.909 5.258 4.335c3.569 2.841 7.206 5.659 10.606 8.84 7.163 6.19 12.666 14.068 16.011 22.919 1.616 4.525 2.644 9.238 3.059 14.024.091 1.2.295 2.399.295 3.61s.057 2.423 0 3.634c-.035 2.442-.282 4.877-.736 7.277-.939 4.859-2.948 9.448-5.881 13.435-2.995 3.963-6.377 7.618-10.097 10.911-7.354 6.723-15.116 13.107-22.549 20s-14.708 14.136-21.722 21.731c-3.559 3.762-6.892 7.731-9.983 11.884-3.093 4.202-5.783 8.685-8.034 13.39-4.567 9.549-7.365 19.845-8.26 30.39-.921 10.696-.292 21.469 1.869 31.986 1.051 5.316 2.428 10.563 4.125 15.71 1.666 5.202 3.703 10.278 6.096 15.189l-.26-.159h193.096l-.226.125c9.004-13.543 14.53-29.092 16.09-45.274 1.575-15.55-.701-31.249-6.629-45.715-5.636-13.817-14.307-26.194-25.37-36.218-5.385-4.743-11.196-8.979-17.36-12.654-6.017-3.735-12.102-7.199-17.869-10.991-5.774-3.621-11.08-7.939-15.796-12.857-4.523-4.839-7.88-10.646-9.813-16.978-1.698-6.194-1.962-12.693-.771-19.003 1.132-6.067 3.163-11.93 6.029-17.397 2.731-5.267 6.008-10.233 9.779-14.816 3.644-4.398 7.606-8.525 11.852-12.348 8.227-7.527 16.566-14.035 24.09-20.826 3.774-3.305 7.343-6.7 10.629-10.186 3.197-3.379 6.139-6.988 8.805-10.798 4.829-6.983 8.552-14.668 11.036-22.784 2.19-7.006 3.466-14.264 3.796-21.595.119-1.643.153-3.29.102-4.935 0-1.607 0-3.181-.124-4.709-.125-1.528-.17-3.033-.34-4.527s-.397-2.841-.59-4.199c-1.225-8.343-3.748-16.4425-7.478-24.0064-.511-1.163-1.086-2.2966-1.723-3.3956l-1.348-2.3316-1.133-1.9241s.396.6339 1.133 1.8902l1.394 2.3655c.653 1.0938 1.236 2.2279 1.745 3.3956 3.76 7.5471 6.314 15.6354 7.569 23.9724.193 1.369.499 2.716.612 4.222.113 1.505.193 2.999.34 4.527s.147 3.101.147 4.72c0 1.618.068 3.271-.09 4.946-.32 7.356-1.584 14.641-3.762 21.675-2.488 8.145-6.214 15.86-11.048 22.874-2.675 3.824-5.622 7.451-8.816 10.854-3.298 3.475-6.867 6.871-10.64 10.266-7.524 6.791-15.864 13.333-24.068 20.849-4.215 3.778-8.146 7.859-11.762 12.212-3.747 4.552-7.006 9.483-9.722 14.714-2.84 5.433-4.853 11.258-5.972 17.283-1.168 6.245-.905 12.672.771 18.8 1.911 6.282 5.237 12.043 9.722 16.842 4.692 4.891 9.975 9.18 15.728 12.767 5.745 3.78 11.83 7.244 17.858 10.979 6.191 3.701 12.025 7.968 17.428 12.744 11.131 10.078 19.852 22.525 25.518 36.423 5.957 14.541 8.252 30.319 6.685 45.953-1.564 16.27-7.117 31.905-16.17 45.522l-.079.125h-193.459l-.08-.159c-2.4-4.922-4.445-10.009-6.119-15.223-1.709-5.168-3.094-10.438-4.147-15.778-2.176-10.568-2.81-21.395-1.881-32.144.915-10.603 3.732-20.954 8.317-30.56 2.27-4.738 4.983-9.251 8.102-13.48 3.104-4.174 6.456-8.158 10.04-11.929 7.025-7.618 14.311-14.816 21.756-21.72 7.445-6.905 15.229-13.3 22.56-19.989 3.695-3.261 7.048-6.891 10.006-10.831 2.878-3.94 4.837-8.472 5.734-13.266.456-2.365.699-4.767.725-7.175.068-1.199.068-2.401 0-3.6 0-1.199-.204-2.444-.306-3.576-.393-4.757-1.399-9.444-2.992-13.945-3.321-8.771-8.772-16.581-15.863-22.727-3.4-3.158-7.003-5.965-10.572-8.817-1.791-1.426-3.525-2.841-5.27-4.358-1.745-1.516-3.399-3.033-5.144-4.38-3.581-2.716-7.252-5.274-10.765-7.991-3.511-2.671-6.881-5.524-10.096-8.545-3.175-2.966-6.147-6.142-8.895-9.507-2.693-3.32-5.125-6.843-7.275-10.538-4.152-7.241-7.098-15.108-8.725-23.293-1.482-7.896-1.894-15.955-1.224-23.961.645-7.659 2.019-15.238 4.102-22.6368 1.986-7.0661 4.408-14.0025 7.252-20.7692v-.1359h.148l138.763.1019h50.798z" fill="#263238"/><path d="m240.292 145.758c31.138 3.543 50.923-27.436 71.024-31.114 17.201-3.113 48.181 21.788 48.181 21.788-1.62 21.799-18.198 40.848-34.334 55.618-11.048 10.119-24.634 17.306-35.002 28.138-12.657 13.254-19.615 31.125-22.663 49.235-2.107 12.756-2.447 25.704-2.266 38.663.023.692-.218 1.366-.672 1.888-.455.522-1.09.852-1.779.925-.689.074-1.379-.116-1.934-.531-.554-.415-.931-1.024-1.054-1.704-3.83-19.74 2.051-41.788-5.881-61.414-6.98-17.294-22.753-29.767-37.484-41.233-25.393-19.852-70.254-70.174-41.79-74.848 33.008-5.433 43.988 12.11 65.654 14.589z" fill="#433be9"/><path d="m173.63 429.861c2.447 9.53 7.524 18.607 15.32 24.629 11.082 8.568 24.169 7.006 38.141 8.138 26.447 2.037 54.889.622 81.325-1.46 11.331-.895 22.98 3.655 32.249-2.943 7.501-5.342 12.668-13.311 17.201-21.324 3.852-6.791 7.444-13.899 8.895-21.584 1.303-6.859.623-14.363-3.592-20.022-.465-.657-.989-1.271-1.564-1.834l-.091-.102c-3.456-3.395-8.589-5.082-13.529-5.263-6.289-.238-12.465 1.562-18.606 2.943-6.142 1.381-12.635 2.377-18.686.611-13.597-3.995-20.759-20.565-34.515-23.961-7.932-1.981-16.328.985-23.524 5.037-7.195 4.052-13.813 9.145-21.529 11.975-8.073 2.943-16.877 3.225-25.122.803-4.147-1.233-8.079-3.146-12.272-4.244-4.192-1.098-8.849-1.324-12.668.713-6.311 3.395-8.215 11.386-8.929 18.494-1.031 9.791-.952 19.864 1.496 29.394z" fill="#433be9"/><path d="m221.98 386.908c-6.107 1.132-12.464-1.019-18.356.939-1.546.349-2.958 1.135-4.068 2.264-1.541 1.935-1.133 4.72-.703 7.153 2.597 14.604 2.979 29.515 1.133 44.232-.396 3.158-.951 6.384-.294 9.519s2.617 6.225 5.665 7.176c3.241 1.019 6.731-.589 9.417-2.66 6.051-4.85 10.019-11.826 11.093-19.501 1.009-7.654-.305-15.433-3.773-22.332-1.87-3.859-4.385-7.922-3.4-12.099.612-2.66 2.573-4.776 4.012-7.085s.793-5.388-.692-7.652" fill="#000" opacity=".0576"/><path d="m149.007 467.947c1.303-8.217 11.898-13.582 11.898-13.582h203.113c11.558 4.935 11.026 13.786 11.026 13.786z" fill="#263238"/><path d="m168.315 66.0881 185.381-1.4941c1.512-.014 2.991.4454 4.229 1.3136 1.237.8683 2.172 2.1019 2.672 3.5277s.54 2.9722.115 4.4221-1.293 2.7306-2.484 3.6622c-1.008.8036-1.688 1.2337-1.688 1.2337l-190.99 1.2224-.328-.1471c-6.935-3.2597-4.533-13.6726 3.093-13.7405z" fill="#263238"/><path d="m201.913 153.387c4.903 1.924 9.647 4.233 14.187 6.904 5.733 3.214 12.351 7.334 19.659 10.866 7.309 3.531 15.751 6.587 24.453 7.04 4.148.228 8.303-.262 12.284-1.449 3.888-1.279 7.63-2.968 11.161-5.037 3.558-2.014 7.037-4.199 10.289-6.168l9.065-5.546c11.104-6.791 18.243-10.809 19.263-9.576 1.02 1.234-4.261 7.618-14.289 16.299-2.515 2.173-5.292 4.471-8.408 6.859s-6.39 4.878-10.198 7.391c-4.109 2.808-8.556 5.09-13.235 6.791-5.292 1.8-10.882 2.569-16.464 2.263-2.755-.133-5.495-.489-8.193-1.064-2.568-.538-5.1-1.237-7.58-2.093-4.578-1.6-8.994-3.628-13.19-6.056-6.756-4.033-13.196-8.574-19.263-13.582-5.054-4.108-9.122-7.379-11.853-9.869-2.731-2.491-4.17-4.018-3.784-4.754.385-.736 2.481-.476 6.096.781z" fill="#000" opacity=".0576"/><path d="m265.255 332.376c.785.36 1.396 1.015 1.701 1.823.305.807.279 1.702-.071 2.491-.351.789-.999 1.408-1.803 1.723s-1.701.302-2.495-.038-1.422-.979-1.748-1.778c-.327-.8-.324-1.695.005-2.493.33-.797.961-1.433 1.757-1.769.796-.337 1.692-.346 2.495-.027" fill="#433be9"/><path d="m333.991 183.381 1.767-2.094c.748-.929 1.757-1.981 2.776-3.328l3.536-4.527c1.201-1.698 2.572-3.577 3.954-5.66l2.04-3.293c.34-.589.737-1.132 1.054-1.721.317-.588.646-1.222.974-1.833 2.965-5.316 5.297-10.961 6.946-16.819 1.642-5.867 2.529-11.918 2.641-18.008 0-1.403-.08-2.762-.08-4.097-.068-.657 0-1.313-.068-1.958-.096-.627-.161-1.257-.192-1.89-.136-1.245-.182-2.445-.374-3.588-.193-1.143-.374-2.264-.555-3.283-.267-1.906-.646-3.796-1.134-5.659-.204-.803-.362-1.573-.555-2.263l-.566-1.891c-.329-1.132-.578-1.9691-.771-2.6255-.103-.3019-.179-.6126-.227-.9281.147.2844.261.5843.34.8941l.873 2.5915.623 1.891c.215.679.385 1.448.601 2.263.396 1.698.963 3.543 1.28 5.659.193 1.03.431 2.14.601 3.294.17 1.155.26 2.366.408 3.611.068.622.113 1.256.204 1.901.076.654.106 1.312.09 1.97 0 1.346.102 2.716.102 4.131-.111 6.126-1.01 12.212-2.674 18.109-1.659 5.902-4.021 11.583-7.037 16.921l-.997 1.856c-.34.6-.714 1.132-1.065 1.732l-2.074 3.294c-1.405 2.037-2.798 3.916-4.034 5.659l-3.603 4.527c-1.054 1.325-2.085 2.366-2.867 3.26l-1.847 2.015c-.203.248-.431.476-.68.679.18-.277.376-.541.59-.792z" fill="#263238"/><path d="m343.917 352.024-.725-1.029-1.134-1.687-.736-1.075c-.283-.351-.612-.725-.952-1.132l-2.266-2.66c-.884-.928-1.892-1.879-2.946-2.931-2.46-2.317-5.064-4.475-7.796-6.463-6.017-4.527-13.79-8.976-22.232-14.239-4.44-2.737-8.709-5.742-12.782-8.998-4.396-3.496-8.279-7.592-11.535-12.167-3.171-4.672-5.577-9.818-7.128-15.246-.746-2.562-1.303-5.177-1.665-7.821-.367-2.527-.575-5.075-.624-7.628-.105-8.857 1.432-17.656 4.533-25.954 2.041-5.586 4.622-10.961 7.705-16.049 1.077-1.822 1.972-3.18 2.595-4.086l.725-1.041c.071-.125.158-.24.261-.34 0 0-.068.136-.215.374l-.669 1.064c-.589.939-1.45 2.263-2.504 4.142-2.994 5.114-5.505 10.494-7.501 16.072-3.025 8.262-4.5 17.01-4.352 25.806.139 10.792 3.341 21.322 9.235 30.367 3.22 4.529 7.061 8.583 11.411 12.043 4.05 3.252 8.296 6.253 12.714 8.987 8.408 5.308 16.169 9.836 22.186 14.363 2.734 2.006 5.331 4.191 7.774 6.542 1.053 1.064 2.051 2.037 2.923 2.977l2.266 2.716c.329.385.658.759.941 1.132l.714 1.132 1.133 1.72.68 1.064c.081.117.15.242.204.374-.089-.103-.168-.213-.238-.329z" fill="#263238"/><path d="m355.055 372.771.907 1.392c.488.727.93 1.483 1.326 2.264.442.905 1.076 1.958 1.575 3.09l.838 1.845c.295.645.521 1.335.805 2.037.578 1.404 1.031 2.954 1.541 4.527 2.043 7.129 2.727 14.577 2.017 21.958-.204 1.687-.363 3.294-.68 4.788-.147.735-.249 1.471-.419 2.15s-.329 1.336-.488 1.958c-.283 1.257-.679 2.355-.985 3.328-.253.838-.552 1.662-.896 2.467-.26.612-.464 1.132-.634 1.528-.064.181-.152.352-.261.51.021-.192.071-.378.148-.555l.532-1.562c.249-.679.521-1.517.793-2.49s.646-2.071.895-3.327c.148-.623.306-1.279.454-1.959.147-.679.249-1.403.374-2.139.294-1.471.43-3.078.623-4.753.624-7.32-.071-14.691-2.051-21.766-.499-1.584-.929-3.124-1.473-4.527-.272-.702-.499-1.404-.771-2.037-.272-.634-.544-1.245-.793-1.834-.476-1.188-1.042-2.264-1.484-3.113-.442-.848-.873-1.652-1.235-2.263l-.816-1.438c-.099-.169-.183-.347-.25-.532 0 0 .182.147.408.453z" fill="#263238"/><path d="m214.921 399.675.737.385 2.798 1.562 2.017 1.131c.748.329 1.587.702 2.471 1.132 1.79.827 3.773 1.89 6.107 2.751l3.626 1.437c1.258.498 2.618.872 4 1.336 2.754.984 5.802 1.675 8.975 2.49 13.919 3.18 28.332 3.565 42.401 1.132 3.196-.646 6.267-1.132 9.065-2.015 1.406-.396 2.788-.702 4.08-1.132l3.614-1.268c2.38-.724 4.42-1.686 6.244-2.41.906-.385 1.768-.713 2.538-1.076l2.074-1.018 2.878-1.404.748-.351c.081-.055.174-.09.272-.102l-.238.148-.725.407-2.833 1.505-2.062 1.132c-.76.385-1.61.736-2.516 1.132-1.824.77-3.864 1.754-6.232 2.513l-3.694 1.347c-1.292.407-2.674.724-4.08 1.131-2.81.861-5.892 1.427-9.133 2.083-14.134 2.524-28.636 2.139-42.617-1.132-3.184-.826-6.243-1.55-8.997-2.558-1.382-.475-2.753-.871-4.011-1.369l-3.626-1.483c-2.334-.883-4.306-1.981-6.096-2.841-.884-.441-1.711-.826-2.459-1.245l-1.994-1.132-2.754-1.652-.703-.442-.226-.158s.124-.079.351.034z" fill="#263238"/><path d="m203.046 160.133.782.565 2.957 2.264c2.572 1.936 6.255 4.765 10.878 8.161 5.401 4.006 11.043 7.677 16.895 10.99 3.461 1.922 7.068 3.568 10.788 4.923 3.991 1.447 8.155 2.368 12.385 2.739 8.223.454 16.423-1.234 23.796-4.9 3.2-1.609 6.293-3.423 9.257-5.433 2.776-1.924 5.281-3.792 7.547-5.569 4.532-3.554 8.068-6.542 10.561-8.579l2.866-2.332.76-.6c.17-.181.272-.181.272-.181l-.238.238-.714.634-2.799 2.422c-2.448 2.082-5.915 5.127-10.448 8.726-2.266 1.823-4.759 3.713-7.524 5.659-2.974 2.046-6.082 3.892-9.303 5.524-7.445 3.744-15.744 5.469-24.067 5.003-4.281-.38-8.494-1.316-12.533-2.785-3.743-1.378-7.373-3.047-10.855-4.991-5.856-3.372-11.484-7.122-16.85-11.228-4.612-3.396-8.26-6.327-10.776-8.319-1.235-.928-2.198-1.709-2.889-2.264l-.748-.611c-.089-.06-.169-.132-.238-.215.087.04.168.093.238.159z" fill="#263238"/><path d="m304.948 409.035c-22.031 7.598-45.937 7.849-68.124.713 2.777-4.289 8.816-5.093 13.836-4.006 5.02 1.086 9.666 3.565 14.731 4.278 6.719.939 13.405-1.313 20.045-2.716 6.64-1.404 14.187-2.4 19.558 1.743" fill="#000" opacity=".0576"/><path d="m102.254 353.213 34.266-39.139c3.365-3.84 7.622-6.797 12.396-8.613l11.388-4.369 28.329-5.184 20.09 7.923c2.468.971 4.545 2.732 5.906 5.007 1.362 2.275 1.93 4.936 1.618 7.567l-5.258 44.142-3.093 57.532-72.997-12.643 7.343-21.279-.249-33.174-24.362 27.289" fill="#efc45c"/><path d="m142.582 344.668c-1.023.09-2.053.067-3.071-.068-3.407-.413-6.599-1.885-9.122-4.209-2.524-2.323-4.252-5.381-4.94-8.74-.219-1.003-.325-2.028-.317-3.056-.023-.38.011-.761.102-1.131.134 1.372.342 2.736.623 4.086.77 3.229 2.488 6.156 4.932 8.406s5.505 3.721 8.79 4.225c1.364.177 2.738.275 4.113.294-.358.12-.732.184-1.11.193z" fill="#fff"/><path d="m142.095 357.129c.113-14.182.068-25.67-.102-25.67s-.351 11.511-.521 25.659-.068 25.67.102 25.67.408-11.522.521-25.659z" fill="#263238"/><path d="m149.891 407.021 54.322-11.749c9.201-2.411 14.527-10.639 16-20 1.779-11.431 2.447-30.084 4.045-43.258 1.133-9.27-.918-21.29-9.178-25.671l-6.357-2.512c-11.241.871-10.856 18.845-10.856 18.845l-3.229 42.24c-.145 1.872-.811 3.666-1.922 5.18s-2.624 2.687-4.367 3.388l-44.101 17.736z" fill="#efc45c"/><path d="m197.165 330.112c0 .691-.091 1.664-.17 2.796-.181 2.478-.465 5.908-.748 10.254s-.691 9.553-1.133 15.212c-.113 1.438-.227 2.898-.351 4.403-.078 1.543-.263 3.078-.556 4.595-.329 1.627-1.152 3.113-2.357 4.256-1.254 1.107-2.682 2.002-4.226 2.648-12.204 5.23-23.422 9.508-31.615 12.451-4.056 1.482-7.456 2.626-9.722 3.395l-2.663.86c-.305.115-.62.202-.94.261.288-.148.587-.273.895-.374l2.629-.962 9.665-3.554c8.136-3.044 19.343-7.391 31.502-12.642 1.484-.62 2.858-1.476 4.067-2.536 1.123-1.059 1.891-2.438 2.199-3.95.29-1.495.479-3.007.566-4.527.125-1.494.25-2.954.363-4.392.499-5.659.929-10.922 1.314-15.2.386-4.279.703-7.765.93-10.244.113-1.131.215-2.093.283-2.784.011-.324.056-.647.136-.962 0 .333-.023.666-.068.996z" fill="#263238"/><path d="m222.536 352.658v1.63c0 1.426-.159 3.486-.34 6.022-.181 2.535-.453 5.5-.861 8.896-.409 3.635-1.064 7.239-1.961 10.786-.442 1.873-1.209 3.655-2.266 5.263-1.007 1.469-2.144 2.845-3.399 4.109-2.115 2.14-4.564 3.921-7.252 5.274-1.81.913-3.741 1.565-5.734 1.936-.539.105-1.084.176-1.632.215-.192.022-.386.022-.578 0 2.699-.444 5.313-1.299 7.751-2.536 2.615-1.382 4.997-3.166 7.059-5.285 1.21-1.253 2.313-2.605 3.298-4.041 1.007-1.565 1.735-3.292 2.153-5.105.886-3.519 1.549-7.092 1.983-10.695.442-3.328.782-6.395.997-8.863.215-2.467.385-4.527.521-5.998l.148-1.63c.008-.191.035-.38.079-.566.046.192.058.392.034.588z" fill="#263238"/><path d="m202.434 379.483c-.984-1.685-2.244-3.192-3.728-4.46s-3.174-2.275-4.997-2.976c-.771-.238-1.53-.51-2.266-.815.835-.021 1.666.122 2.447.419 1.926.615 3.709 1.608 5.246 2.92 1.537 1.311 2.797 2.916 3.706 4.719.418.722.691 1.518.804 2.343-.09.034-.419-.848-1.212-2.15z" fill="#263238"/><path d="m190.797 351.481c-4.978 1.881-10.436 2.08-15.538.568-5.102-1.513-9.567-4.654-12.711-8.943-2.281-2.959-3.718-6.479-4.159-10.187-.217-1.983-.008-3.989.612-5.885.649-1.961 1.797-3.72 3.331-5.105 1.517-1.427 3.435-2.355 5.496-2.66 1.006-.17 2.038-.112 3.019.17s1.885.781 2.647 1.46c.725.732 1.132 1.72 1.133 2.75-.023 1.001-.364 1.968-.975 2.762-.6.721-1.338 1.317-2.171 1.752-.832.435-1.743.701-2.678.783-4.381.555-8.816-.462-12.516-2.868-3.7-2.407-6.424-6.047-7.688-10.272-.509-1.755-.76-3.573-.748-5.399-.019-1.536.211-3.065.68-4.528.011.102.011.204 0 .306 0 .226-.091.521-.159.872-.179 1.122-.262 2.258-.249 3.395.034 1.8.316 3.586.838 5.308 1.245 4.127 3.922 7.675 7.55 10.007 3.629 2.332 7.971 3.294 12.246 2.715.874-.071 1.724-.314 2.502-.716.778-.403 1.469-.955 2.031-1.627.541-.693.843-1.543.861-2.422-.022-.884-.388-1.724-1.02-2.343-.699-.618-1.529-1.07-2.427-1.323-.899-.253-1.843-.3-2.763-.137-1.94.297-3.745 1.173-5.178 2.513-1.452 1.324-2.544 2.995-3.173 4.856-.59 1.824-.791 3.752-.589 5.659.415 3.629 1.805 7.078 4.023 9.983 3.71 5.027 9.209 8.442 15.365 9.541 4.145.692 8.397.326 12.362-1.064 1.076-.378 2.128-.82 3.15-1.324l.794-.419c.081-.059.173-.102.272-.125-1.3.827-2.702 1.482-4.17 1.947z" fill="#fff"/><path d="m220.519 335.613c-2.886-1.833-6.177-2.932-9.587-3.203-3.395-.399-6.835.149-9.937 1.584-2.38 1.132-3.694 2.094-3.762 2.004.254-.294.552-.546.884-.747.855-.613 1.757-1.158 2.697-1.63 1.399-.718 2.89-1.243 4.43-1.562 1.895-.373 3.837-.453 5.756-.238 3.5.275 6.864 1.466 9.757 3.452.86.61 1.657 1.304 2.379 2.072.288.262.532.567.725.905-.079.079-1.155-1.177-3.342-2.637z" fill="#fff"/><path d="m216.179 309.015c-.768.802-1.655 1.481-2.629 2.014-1.445.803-3.036 1.311-4.68 1.494-2.027.277-4.091.013-5.982-.767-1.891-.779-3.541-2.045-4.783-3.67-1.034-1.294-1.804-2.778-2.266-4.368-.316-1.065-.465-2.172-.442-3.283-.014-.405.036-.81.147-1.2.054 1.476.286 2.939.692 4.358.493 1.512 1.261 2.921 2.266 4.154 1.212 1.483 2.767 2.649 4.532 3.395 1.798.713 3.741.985 5.666.793 1.581-.16 3.118-.613 4.533-1.336 1.292-.713 2.491-1.584 3.569-2.592-.143.372-.354.714-.623 1.008z" fill="#fff"/><path d="m177.29 374.492c-1.481-2.523-3.797-4.449-6.55-5.445-4.061-1.549-8.531-1.665-12.668-.328-1.196.331-2.36.766-3.479 1.302-1.155.535-2.168 1.334-2.957 2.331-.386.501-.629 1.097-.705 1.724s.019 1.263.274 1.842c.631 1.191 1.645 2.136 2.878 2.682 1.22.608 2.558.941 3.921.973 1.305.066 2.59-.336 3.626-1.131.475-.399.863-.892 1.14-1.446.276-.555.436-1.161.469-1.78.072-1.222-.117-2.445-.555-3.588-.837-2.141-2.132-4.072-3.796-5.659-1.794-1.686-3.913-2.989-6.227-3.829-2.315-.841-4.776-1.202-7.235-1.061-2.062.147-3.195.521-3.195.442 1.022-.364 2.09-.589 3.172-.668 2.973-.229 5.956.285 8.68 1.494 4.105 1.767 7.358 5.064 9.065 9.19.465 1.216.67 2.515.601 3.815-.034.695-.21 1.377-.518 2.002s-.741 1.18-1.272 1.631c-1.15.872-2.57 1.313-4.012 1.245-1.452-.044-2.878-.399-4.181-1.041-1.351-.601-2.458-1.643-3.139-2.954-.299-.671-.411-1.411-.323-2.141.087-.729.371-1.421.822-2.002 1.79-2.264 4.464-3.135 6.799-3.826 4.249-1.344 8.832-1.18 12.974.464 2.813 1.061 5.152 3.093 6.595 5.728.361.716.624 1.477.782 2.263.058.276.089.556.09.838-.223-1.065-.585-2.096-1.076-3.067z" fill="#fff"/><path d="m206.547 393.337c-1.078-.136-2.14-.375-3.172-.713-3.451-1.084-6.55-3.069-8.977-5.749-2.426-2.68-4.092-5.959-4.825-9.497-.23-1.061-.359-2.141-.385-3.226-.062-.394-.062-.795 0-1.188.113 0 .09 1.697.736 4.323.824 3.427 2.494 6.594 4.857 9.211 2.364 2.618 5.345 4.603 8.673 5.775 2.549.882 4.226 1.018 4.226 1.131-.379.029-.76.007-1.133-.067z" fill="#fff"/><path d="m219.828 360.128c-1.941-.427-3.934-.568-5.915-.418-1.357.123-2.682.475-3.921 1.041-1.419.623-2.649 1.606-3.569 2.852-.991 1.388-1.468 3.076-1.349 4.777.068.883.34 1.739.793 2.501.451.772 1.156 1.364 1.995 1.675.403.139.836.171 1.256.091.419-.079.81-.267 1.135-.544.577-.646.885-1.488.861-2.354.057-1.715-.272-3.421-.963-4.991-1.166-2.702-3.353-4.833-6.085-5.931-1.846-.726-3.843-.983-5.813-.747-.725.092-1.444.228-2.153.407 0 0 .17-.102.521-.237.519-.183 1.054-.315 1.598-.397 2.527-.434 5.126-.011 7.385 1.201s4.047 3.144 5.079 5.489c.745 1.643 1.102 3.436 1.043 5.24.02 1.011-.349 1.992-1.031 2.739-.402.351-.888.59-1.412.693-.523.104-1.064.068-1.569-.104-.956-.359-1.757-1.04-2.266-1.925-.502-.84-.801-1.785-.872-2.761-.127-1.834.398-3.654 1.484-5.139.986-1.311 2.298-2.342 3.807-2.988 1.293-.565 2.672-.906 4.08-1.007 2.025-.114 4.056.092 6.017.611.691.181 1.212.34 1.575.453.185.05.364.122.532.215 0 0-.816-.159-2.243-.442z" fill="#fff"/><path d="m156.927 386.183c7.502-2.467 15.592-6.146 23.105-8.624 3.739-1.234 9.065-3.396 11.728-6.271 3.207-3.395 2.448-8.319 2.821-13.299.401-5.448.805-10.884 1.213-16.31-6.221 8.082-5.53 19.91-11.615 28.104-3.229 4.346-8.068 7.232-12.997 9.462s-9.541 4.279-14.255 6.938z" fill="#000" opacity=".09"/><path d="m88.7808 464.348s-10.1982 4.018-13.5976 4.222-30.0846-.849-31.7277-.792c-3.456.135-3.8753-8.002-1.609-8.783 1.4844-.578 38.3905-10.764 38.3905-10.764z" fill="#433be9"/><path d="m64.9059 462.322c.0267-1.487-.354-2.953-1.1009-4.24-.7469-1.286-1.8317-2.345-3.137-3.06.9415 1.074 1.8121 2.208 2.6062 3.395.6347 1.282 1.1799 2.605 1.6317 3.962z" fill="#263238"/><path d="m68.7585 460.602c-.036-1.363-.3738-2.701-.989-3.919-.6151-1.217-1.4925-2.283-2.5691-3.121-.1246.124 1.0312 1.471 2.017 3.395s1.3598 3.633 1.5411 3.633z" fill="#263238"/><path d="m69.4382 452.283c.7575 1.097 1.4281 2.251 2.0057 3.452.3951 1.271.6832 2.574.8612 3.893.3265-1.37.2271-2.807-.2851-4.12-.5122-1.312-1.4129-2.437-2.5818-3.225z" fill="#263238"/><path d="m71.7046 452.226c.0656-.972.2288-1.935.4872-2.875.151-.554.3365-1.098.5553-1.63.0821-.244.2221-.465.4079-.645.0667-.06.1536-.094.2436-.094.0901 0 .1769.034.2437.094.3399.272.3399.974.3399 1.54-.0037.566-.0644 1.131-.1813 1.686-.2117.948-.535 1.867-.9632 2.739-.7365 1.505-1.3597 2.422-1.2691 2.422.6877-.645 1.2488-1.413 1.6544-2.263.5058-.883.8871-1.832 1.1331-2.819.1491-.588.2253-1.192.2267-1.799.0226-.324.0226-.65 0-.974-.0263-.395-.2001-.767-.4873-1.041-.1706-.157-.3907-.25-.6223-.262-.2317-.012-.4604.056-.6468.194-.2819.237-.487.552-.5892.906-.2291.554-.4148 1.125-.5553 1.709-.2379.986-.3634 1.996-.3739 3.01-.0677.931.0676 1.866.3966 2.739.102-.011-.068-1.052 0-2.637z" fill="#263238"/><path d="m74.1183 454.626c.8434.058 1.6786.202 2.4928.43.466.116.9153.291 1.3371.52.1909.089.3475.238.4457.424s.1327.399.0982.606c-.0612.21-.1758.401-.3327.554-.1568.153-.3506.262-.5624.318-.4501.113-.9211.113-1.3711 0-.8129-.176-1.5829-.511-2.2663-.985-.6228-.485-1.2777-.927-1.9603-1.324 1.0104 1.379 2.4612 2.373 4.1133 2.818.543.136 1.1113.136 1.6543 0 .3182-.084.6083-.251.8411-.484.2328-.232.4-.522.4847-.84.0638-.333.0177-.677-.1315-.981s-.3934-.552-.6957-.705c-.4806-.249-.9908-.435-1.5184-.555-.8562-.213-1.7353-.319-2.6175-.317-.8125-.061-1.6279.071-2.3796.385.0227.102.9292-.045 2.3683.136z" fill="#263238"/><path d="m56.6565 456.516c.6795.91 1.2822 1.876 1.8017 2.886.3309 1.089.5772 2.201.7365 3.328.356-1.17.2979-2.426-.1643-3.558-.4623-1.131-1.3006-2.069-2.3739-2.656z" fill="#263238"/><path d="m79.3193 465.933c-4.6111.874-9.3024 1.253-13.9942 1.132l-14.1188-.272h-4.2379c-.5264-.03-1.0545-.004-1.5751.079.5157.098 1.0389.151 1.5637.159l4.2719.226c3.6147.147 8.6005.396 14.1302.464 4.7372.108 9.4701-.356 14.0961-1.381 1.3925-.337 2.7625-.76 4.102-1.267.5005-.171.9796-.399 1.4277-.68 0-.079-2.0963.815-5.6656 1.54z" fill="#263238"/><path d="m83.5005 463.669c-2.2202-1.198-4.7587-1.677-7.2634-1.369-1.3835.222-2.6932.773-3.8187 1.607-.9003.658-1.7216 1.417-2.4475 2.263-.7095.725-1.3158 1.544-1.8017 2.434.7415-.666 1.438-1.381 2.085-2.139 1.5916-1.797 3.722-3.032 6.0735-3.52 2.387-.287 4.8067.105 6.9801 1.131 1.7111.748 2.7649 1.336 2.7649 1.257-.763-.688-1.6314-1.25-2.5722-1.664z" fill="#263238"/><path d="m106.514 450.857s8.488 6.859 11.638 8.081 32.453 9.372 33.994 9.926c3.263 1.132 5.416-5.591 3.535-7.006-1.246-.928-36.17-23.769-36.17-23.769z" fill="#433be9"/><g fill="#263238"><path d="m132.577 452.883c1.119-.892 2.296-1.708 3.524-2.445-1.471.286-2.834.971-3.941 1.979-1.108 1.008-1.916 2.301-2.337 3.737.849-1.147 1.769-2.239 2.754-3.271z"/><path d="m129.268 450.291c1.507-1.494 3.037-2.468 2.946-2.626-1.282.476-2.442 1.231-3.396 2.21-.955.978-1.68 2.156-2.122 3.449.215.091 1.065-1.539 2.572-3.033z"/><path d="m125.506 447.891c.917-.967 1.905-1.863 2.957-2.682-1.344.395-2.535 1.191-3.414 2.282-.879 1.09-1.404 2.422-1.504 3.818.562-1.189 1.218-2.332 1.961-3.418z"/><path d="m126.82 444.484c.486-1.542.67-3.164.544-4.776-.003-.366-.1-.724-.283-1.041-.131-.192-.327-.33-.551-.39-.225-.06-.463-.038-.673.062-.361.174-.644.477-.793.848-.137.297-.251.603-.34.917-.173.583-.283 1.182-.329 1.788-.066 1.013.01 2.031.227 3.023.135.924.443 1.814.906 2.625.091 0-.238-1.041-.475-2.693-.15-.963-.18-1.94-.091-2.909.056-.561.17-1.115.34-1.653.192-.543.396-1.222.793-1.381.078-.046.172-.06.261-.039s.166.076.215.153c.126.225.192.478.193.735.082 1.548-.059 3.1-.42 4.607-.396 1.63-.872 2.614-.782 2.614.589-.733 1.018-1.581 1.258-2.49z"/><path d="m123.511 445.582c-.842-.264-1.713-.427-2.594-.486-.538-.046-1.078-.023-1.61.067-.335.055-.644.217-.879.462s-.384.56-.424.897c-.015.328.058.654.212.944.153.291.381.535.661.708.476.293 1.017.464 1.575.498.898.056 1.798-.079 2.64-.396.783-.237 1.514-.621 2.153-1.132-.77.171-1.527.394-2.266.668-.795.246-1.631.331-2.459.249-.46-.033-.904-.181-1.292-.43-.193-.117-.351-.284-.457-.483s-.155-.424-.143-.649c.032-.208.132-.4.283-.547s.346-.241.555-.268c.474-.092.958-.123 1.439-.09.844.034 1.682.148 2.504.339 1.405.351 2.267.758 2.267.668-.635-.5-1.375-.848-2.165-1.019z"/><path d="m147.16 466.159c-.124-1.186.147-2.379.77-3.395.348-.586.726-1.153 1.133-1.698.288-.459.626-.885 1.009-1.268.345-.355.786-.603 1.269-.713 0 0-.147-.09-.442-.09-.416.036-.811.198-1.133.464-.43.372-.811.798-1.133 1.267-.418.554-.797 1.136-1.133 1.743-.693 1.135-.928 2.491-.657 3.792.271.996.861 1.403.861 1.347-.209-.472-.391-.956-.544-1.449z"/><path d="m136.814 455.305c.801-.804 1.67-1.539 2.595-2.196-.613.056-1.206.246-1.736.557-.531.311-.987.735-1.335 1.243-.442.44-.782.973-.996 1.56-.213.587-.295 1.213-.239 1.835.481-1.048 1.054-2.052 1.711-2.999z"/><path d="m111.444 453.267c1.34 1.047 2.757 1.993 4.237 2.83 2.185 1.23 4.457 2.297 6.799 3.192 2.652 1.018 5.666 1.969 8.771 2.886 6.289 1.811 11.988 3.396 16.124 4.527l4.907 1.37c.596.183 1.206.315 1.824.396-.566-.261-1.154-.473-1.756-.634l-4.828-1.494c-4.101-1.234-9.79-2.886-16.079-4.697-3.082-.905-6.096-1.834-8.747-2.818-2.333-.861-4.604-1.879-6.799-3.045-1.486-.794-2.924-1.674-4.306-2.637-.483-.391-.999-.739-1.541-1.041.431.427.897.817 1.394 1.165z"/><path d="m111.738 452.226c2.383-.326 4.809.023 7.003 1.008 2.085 1.198 3.724 3.041 4.668 5.251.394.934.848 1.842 1.36 2.717-.183-1.007-.507-1.982-.963-2.898-.433-1.033-.984-2.013-1.643-2.92-.796-1.152-1.862-2.092-3.105-2.739-2.295-1.053-4.86-1.369-7.342-.905-1.021.11-2.019.377-2.958.792.023.09 1.156-.159 2.98-.306z"/><path d="m146.242 403.455-3.796 1.54-60.6225 40.112s-45.5633-24.776-45.4613-47.243c0-11.737 10.5155-15.472 10.5155-15.472 17.4955-9.632 99.3643 21.063 99.3643 21.063z"/></g><path d="m110.299 423.998-4.023-3.282c-3.399-2.762-8.0561-6.61-13.1325-10.956-5.0764-4.347-9.5863-8.387-12.8384-11.319l-3.8526-3.475c-.45-.45-.9392-.859-1.4618-1.222.3884.501.8207.967 1.2918 1.392.8725.872 2.1416 2.117 3.728 3.622 3.1728 3.022 7.6373 7.108 12.7251 11.466 5.0877 4.357 9.8014 8.16 13.2804 10.831 1.734 1.347 3.15 2.411 4.136 3.135.498.399 1.029.755 1.586 1.064-.447-.454-.928-.874-1.439-1.256z" fill="#455a64"/><path d="m69.6537 391.91c3.1048.883 5.269 2.264 5.371 2.128-3.1028-2.5-7.0722-3.668-11.0367-3.248 0 .192 2.5609.238 5.6657 1.12z" fill="#455a64"/><path d="m72.3279 390.349c.8517 1.188 1.6421 2.42 2.3682 3.689-.2868-1.494-.9371-2.895-1.8934-4.079-.9564-1.184-2.1895-2.115-3.5909-2.712-.0907.159 1.5864 1.234 3.1161 3.102z" fill="#455a64"/><path d="m44.8155 459.21c.7937.927 1.291 2.07 1.4277 3.282.1695 1.217.0531 2.457-.3399 3.622-.2184.477-.4039.969-.5552 1.471 0 0 .5325-.385.9631-1.301.5518-1.215.7406-2.563.5439-3.883-.1359-1.342-.7562-2.589-1.745-3.508-.8385-.691-1.5637-.544-1.5637-.476s.6459.125 1.2691.793z" fill="#263238"/><path d="m128.848 347.146 15.66 48.488 32.578 1.189-1.723 5.014-92.9503-1.506-21.5975-54.667z" fill="#455a64"/><path d="m104.248 369.364c.697.48 1.224 1.167 1.505 1.964.281.798.301 1.663.059 2.473-.259.723-.746 1.342-1.388 1.765-.641.422-1.403.625-2.17.578-.73-.033-1.435-.271-2.036-.685-.6011-.414-1.0736-.989-1.3636-1.658-.2708-.669-.3323-1.405-.1766-2.11.1558-.705.5215-1.347 1.0491-1.84.6191-.504 1.3711-.819 2.1661-.905.794-.086 1.596.059 2.31.418" fill="#ebebeb"/><path d="m86.1748 467.121c.8725.283 56.9062-20.271 56.9062-20.271l1.994 3.033c4.396 6.806 10.748 12.126 18.223 15.265 7.475 3.138 15.725 3.948 23.669 2.324.952-.204 1.881-.441 2.776-.724 4.193-1.486 7.889-4.108 10.674-7.572 6.279-7.433 9.428-17.008 8.782-26.712-.487-8.115-1.507-18.924-3.683-25.262-3.796-11.092-11.41-18.687-19.875-21.019-8.464-2.331-16.997 3.215-20.453 4.381-3.456 1.165-89.1321 57.282-89.1321 57.282z" fill="#263238"/><path d="m181.55 432.521-1.427.498-5.462 1.992-20.294 7.447-30.402 11.047c-11.536 4.154-24.3401 8.727-37.9376 13.322l.3739.147-6.6855-12.767c-1.1331-2.264-2.2662-4.437-3.3994-6.508l-.1133.407 65.2229-41.583 19.581-12.553 5.269-3.395 1.359-.894.454-.328s-.17.079-.487.271l-1.394.849-5.326 3.328-19.626 12.359-65.3362 41.426-.2379.147.1246.249 3.3994 6.508 6.6968 12.767.1247.238.2379-.091c13.5976-4.606 26.4017-9.19 37.9257-13.378s21.79-7.991 30.357-11.183l20.181-7.594 5.428-2.094 1.405-.555c.159-.056.315-.124.464-.204z" fill="#455a64"/><path d="m173.188 233.08c2.867-2.694 9.427-.464 12.272 3.123 2.844 3.588 3.399 7.923 3.308 12.451-.086 7.9-1.726 15.707-4.827 22.976-.272.645-.77 1.403-1.461 1.256-.465-.102-.737-.588-.918-1.041-1.575-3.803-2.029-7.923-2.629-12.02-.601-4.097-1.428-8.229-3.57-11.726-2.141-3.497-5.96-6.27-10.073-6.112-3.057.284-5.915 1.64-8.068 3.826-2.266 2.094-4.057 4.527-6.119 6.791-1.964 2.343-4.53 4.108-7.422 5.104-2.935.827-6.436.181-8.328-2.195-1.893-2.377-1.383-6.52 1.371-7.81-1.37.188-2.763-.103-3.942-.825-1.179-.721-2.071-1.828-2.525-3.133s-.442-2.726.035-4.022c.476-1.297 1.388-2.388 2.579-3.089 3.966-2.343 9.371.452 13.598-1.461 2.56-1.131 4.079-3.769 6.153-5.659 1.569-1.412 3.458-2.424 5.504-2.95s4.189-.551 6.246-.072c4.091.985 7.32 2.694 8.782 6.644" fill="#263238"/><path d="m161.233 231.767-1.133.215c-5.348 1.066-10.1 4.102-13.311 8.505-3.212 4.403-4.649 9.851-4.026 15.263 1.235 10.458 2.765 22.003 3.898 27.515 2.425 11.398 14.221 10.889 14.221 10.889.079.35.476 3.259.94 6.655.479 3.495 2.284 6.672 5.043 8.874 2.76 2.202 6.261 3.259 9.779 2.954l.702-.08c1.789-.243 3.512-.836 5.071-1.745 1.56-.909 2.924-2.116 4.017-3.552 1.092-1.435 1.89-3.072 2.349-4.816s.57-3.561.325-5.348l-6.3-45.703c-1.348-12.066-9.507-21.347-21.575-19.626z" fill="#ffbe9d"/><path d="m161.46 296.927c11.615-1.268 13.496-10.187 13.496-10.187-3.861 3.756-8.751 6.281-14.051 7.255z" fill="#eb996e"/><path d="m147.681 262.688c-.048-.417.072-.836.333-1.165.262-.329.643-.541 1.061-.589.429-.072.87.027 1.226.277.357.25.6.631.677 1.059-.007.018-.007.038 0 .056.045.416-.076.832-.337 1.158-.261.327-.641.537-1.056.585-.428.073-.867-.025-1.224-.273-.356-.247-.6-.625-.68-1.051z" fill="#263238"/><path d="m146.877 259.825c.627-.688 1.463-1.153 2.379-1.324.921-.203 1.882-.104 2.742.283.646.294 1.031.464.861.747s-1.643-.351-3.399 0-2.81 1.516-3.059 1.335c-.25-.181-.012-.52.476-1.041z" fill="#263238"/><path d="m165.052 259.859c-.027-.208-.012-.42.044-.623.055-.202.151-.392.281-.557.129-.165.291-.303.474-.406.184-.102.386-.167.595-.191.428-.064.864.039 1.219.288.354.248.599.624.685 1.047.027.21.012.423-.044.627-.055.204-.15.395-.28.562-.129.167-.29.307-.474.412s-.386.173-.596.199c-.43.073-.87-.027-1.227-.277-.356-.25-.599-.63-.677-1.058z" fill="#263238"/><path d="m164.213 256.701c.642-.677 1.477-1.139 2.391-1.324.922-.193 1.88-.094 2.742.283.646.294 1.032.464.862.747s-1.643-.351-3.4 0c-1.756.351-2.81 1.516-3.059 1.347-.25-.17-.012-.442.464-1.053z" fill="#263238"/><path d="m157.041 272.637c-.26.034-.523.034-.782 0-.172-.012-.339-.063-.488-.149-.15-.086-.277-.206-.373-.349-.261-.568-.305-1.212-.125-1.811.181-1.131.385-2.399.589-3.689.827-5.23 1.757-9.44 1.961-9.406s-.329 4.29-1.202 9.519c-.226 1.29-.441 2.558-.645 3.69-.144.449-.144.931 0 1.38.136.261.577.261 1.042.261.979-.149 1.973-.168 2.957-.057-.948.327-1.934.532-2.934.611z" fill="#263238"/><path d="m165.913 273.43c.088 1.09-.249 2.173-.94 3.022-.732.874-1.746 1.466-2.867 1.675-.861.147-1.383.147-1.383-.125 0-.271 2.04-.475 3.4-2.15s.974-3.622 1.269-3.622c.125-.045.43.385.521 1.2z" fill="#263238"/><path d="m162.797 249.842c.924-.575 1.974-.917 3.059-.996 1.079-.1 2.166.055 3.173.453.759.328 1.133.713 1.065.939-.192.487-1.96.249-4.079.419s-3.83.747-4.091.294c-.101-.203.182-.656.873-1.109z" fill="#263238"/><path d="m146.378 254.539c.58-.652 1.355-1.1 2.21-1.279.847-.205 1.737-.146 2.549.17.623.272.895.634.805.86-.193.476-1.473.419-2.935.736s-2.584.973-2.969.634c-.181-.17-.079-.611.34-1.121z" fill="#263238"/><path d="m185.369 271.347c0 .226 8.227.532 6.912-7.334-1.314-7.867-8.532-4.098-8.714-3.973 0 0 1.757 11.081 1.802 11.307z" fill="#ffbe9d"/><path d="m187.658 268.268c.202.095.422.145.646.145.223 0 .444-.05.646-.145 1.133-.509 1.654-2.127 1.439-3.723-.11-.764-.401-1.49-.85-2.117-.166-.288-.404-.528-.689-.699-.286-.17-.61-.265-.943-.274-.137.001-.272.031-.397.088-.125.056-.237.138-.328.24-.136.149-.216.341-.227.543 0 .329.182.442.182.43-.041-.128-.041-.267 0-.396.044-.16.143-.3.28-.395.136-.095.302-.139.467-.125.248.054.479.165.675.325.197.159.354.361.459.591.376.574.619 1.223.714 1.902.136.596.109 1.217-.078 1.799-.188.581-.529 1.102-.988 1.506-.313.177-.681.229-1.031.147-.137-.035-.27-.085-.396-.147 0 0 .079.192.419.305z" fill="#eb996e"/><path d="m140.588 245.134c.678-2.435 1.951-4.664 3.705-6.486 3.597-4.112 8.397-6.991 13.722-8.228 5.356-1.19 10.964-.261 15.649 2.592 3.65 2.408 6.514 5.831 8.238 9.847 1.699 4.004 2.585 8.305 2.606 12.654.169 1.908-.225 3.824-1.133 5.512-.646 1.007-1.915 1.845-2.98 1.313-.596-.382-1.047-.952-1.281-1.619-2.708-5.659-5.484-11.862-4.442-18.109-1.837-1.709-4.004-3.026-6.368-3.871-1.188-.41-2.445-.582-3.7-.504-1.254.078-2.481.403-3.609.956-3.274 1.766-4.781 5.58-7.048 8.501-1.676 2.071-3.821 3.716-6.258 4.798s-5.096 1.571-7.759 1.427" fill="#263238"/><path d="m456.731 437.761c-.17-.339-.408-.781-.702-1.347-.841-1.755-1.516-3.586-2.017-5.466-1.573-7.01-1.573-14.281 0-21.29.969-4.842 2.26-9.614 3.864-14.284 1.631-5.059 3.546-10.402 5.099-16.151 1.746-5.976 2.582-12.18 2.481-18.404-.238-6.463-2.175-12.948-4.306-19.479-2.13-6.531-4.362-12.971-5.031-19.513-.746-6.303.519-12.68 3.615-18.223 2.89-5.24 6.47-9.767 9.133-14.295 2.493-4.229 4.338-8.807 5.473-13.582 2.122-8.84 1.836-18.086-.827-26.779l-.453-1.438c-.058-.165-.1-.336-.125-.509.997 2.43 1.756 4.951 2.266 7.527 1.384 7.049 1.268 14.311-.34 21.312-1.125 4.83-2.965 9.465-5.461 13.752-2.663 4.629-6.221 9.055-9.065 14.318-3.048 5.436-4.29 11.697-3.547 17.883.657 6.429 2.867 12.835 5.008 19.366 2.142 6.531 4.091 13.095 4.329 19.671.09 6.288-.769 12.553-2.55 18.585-1.575 5.784-3.501 11.126-5.167 16.163-1.615 4.633-2.925 9.366-3.92 14.17-1.847 8.829-1.417 16.265-.17 21.132.475 1.876 1.108 3.708 1.892 5.478l.635 1.369c.09.148.159.308.204.476-.121-.136-.227-.284-.318-.442z" fill="#263238"/><path d="m460.448 266.989c.026-.125.089-.239.181-.328.056-.056.122-.1.195-.13s.151-.046.23-.046.157.016.23.046.139.074.195.13c9.734 10.187 4.306 27.459 4.306 27.459-6.504-15.552-5.858-24.267-5.337-27.131z" fill="#efc45c"/><path d="m463.371 275.58c.431 1.958.952 4.629 1.44 7.617.487 2.988.838 5.66 1.019 7.686.159 1.067.193 2.15.102 3.225-.294-1.035-.487-2.096-.578-3.169-.351-2.196-.747-4.788-1.212-7.64s-.884-5.376-1.235-7.64c-.226-1.049-.352-2.118-.374-3.191.397 1.002.678 2.046.838 3.112z" fill="#263238"/><path d="m441.978 313.542c-.034-.122-.034-.251 0-.374.025-.075.066-.145.118-.204.053-.06.117-.109.189-.144.072-.034.15-.055.229-.059.08-.004.159.007.235.034 13.348 4.369 16.668 22.252 16.668 22.252-13.054-10.775-16.578-18.789-17.439-21.505z" fill="#efc45c"/><path d="m448.595 319.71c1.281 1.54 2.969 3.656 4.839 6.067s3.399 4.652 4.532 6.316c.639.871 1.175 1.813 1.598 2.807-.739-.78-1.406-1.625-1.994-2.524l-4.691-6.191c-1.745-2.264-3.332-4.392-4.669-6.18-.693-.821-1.304-1.708-1.824-2.649.824.697 1.566 1.487 2.209 2.354z" fill="#263238"/><path d="m452.595 354.13c-.002-.112.027-.222.084-.317.057-.096.139-.175.238-.226.099-.052.21-.075.322-.067.111.008.218.046.308.112 11.49 8.104 9.473 26.145 9.473 26.145-9.36-14.069-10.391-22.75-10.425-25.647z" fill="#efc45c"/><path d="m457.06 361.996c.782 1.822 1.813 4.369 2.867 7.198 1.054 2.83 1.915 5.445 2.47 7.357.351 1.02.59 2.075.714 3.147-.473-.962-.852-1.966-1.133-2.999l-2.64-7.267-2.686-7.221c-.432-.985-.758-2.014-.975-3.067.567.896 1.03 1.853 1.383 2.852z" fill="#263238"/><path d="m441.627 399.562c-.009-.129.027-.257.102-.363.043-.066.099-.124.166-.168.066-.045.141-.075.219-.09s.159-.014.237.003c.078.018.151.051.216.097 11.773 7.674 10.402 25.783 10.402 25.783-9.858-13.74-11.195-22.376-11.342-25.262z" fill="#efc45c"/><path d="m446.363 407.247c.85 1.788 1.96 4.301 3.116 7.096 1.156 2.796 2.119 5.365 2.731 7.256.4 1 .677 2.045.827 3.112-.466-.929-.846-1.899-1.133-2.897l-2.912-7.176c-1.133-2.626-2.085-5.093-2.935-7.153-.484-.969-.864-1.985-1.133-3.034.581.876 1.064 1.814 1.439 2.796z" fill="#263238"/><path d="m489.06 255.977c.104-.078.233-.115.362-.102.079.003.157.021.228.054.072.033.137.08.19.137.054.058.096.126.123.2.028.074.04.153.037.231-.317 14.046-16.419 22.445-16.419 22.445 6.459-15.62 13.088-21.313 15.479-22.965z" fill="#efc45c"/><path d="m485.139 264.103c-1.076 1.675-2.618 3.95-4.385 6.406-1.768 2.457-3.4 4.63-4.737 6.146-.654.873-1.416 1.66-2.266 2.343.533-.931 1.148-1.813 1.836-2.637l4.532-6.259 4.533-6.27c.581-.904 1.253-1.746 2.005-2.513-.397.983-.907 1.917-1.518 2.784z" fill="#263238"/><path d="m473.139 294.199c.109-.066.236-.094.363-.079.157.014.302.09.404.211.102.12.152.276.139.434-1.133 14.001-17.756 21.403-17.756 21.403 7.388-15.223 14.357-20.509 16.85-21.969z" fill="#efc45c"/><path d="m468.641 301.929c-1.134 1.596-2.845 3.781-4.76 6.123-1.915 2.343-3.728 4.403-5.099 5.852-.696.839-1.482 1.598-2.345 2.264.576-.887 1.237-1.717 1.971-2.479l4.93-5.965 4.917-5.987c.639-.864 1.36-1.664 2.153-2.388-.49.924-1.083 1.789-1.767 2.58z" fill="#263238"/><path d="m470.805 330.372c.069-.105.167-.187.283-.237.074-.03.152-.044.232-.043.079.001.157.018.23.05.072.031.138.077.193.134s.098.124.127.198c5.348 13.016-6.04 27.164-6.04 27.164-.328-16.932 3.445-24.764 4.975-27.266z" fill="#efc45c"/><path d="m470.431 339.461c-.318 1.947-.816 4.595-1.451 7.606-.634 3.011-1.303 5.659-1.869 7.538-.252 1.054-.633 2.072-1.133 3.033.111-1.069.319-2.126.623-3.157.532-2.174 1.042-4.72 1.665-7.55.624-2.829 1.134-5.387 1.655-7.572.167-1.059.444-2.099.827-3.101.013 1.076-.093 2.15-.317 3.203z" fill="#263238"/><path d="m471.032 384.203c.106-.061.228-.088.351-.08.157.012.304.085.407.204.104.118.157.273.148.43-.929 14.035-17.394 21.709-17.394 21.709 7.139-15.314 14.017-20.713 16.488-22.263z" fill="#efc45c"/><path d="m466.635 392.148c-1.133 1.619-2.833 3.814-4.703 6.191-1.869 2.377-3.648 4.471-4.985 5.931-.665.84-1.426 1.599-2.267 2.264.578-.911 1.238-1.767 1.972-2.558l4.827-6.056c1.802-2.263 3.4-4.312 4.816-6.066.626-.874 1.336-1.685 2.119-2.422-.495.966-1.091 1.876-1.779 2.716z" fill="#263238"/><path d="m421.763 335.375c.067.374.109.752.125 1.132.079 1.132.204 2.558.351 4.392.306 3.87.68 9.258 1.133 15.698 1.269 6.463 4.532 13.582 9.065 20.667 3.286 5.173 6.731 9.915 9.688 14.352 2.698 3.884 5.111 7.958 7.218 12.19 1.385 2.901 2.471 5.935 3.241 9.055.249 1.132.431 1.958.51 2.546.068.294.102.594.102.895-.112-.281-.192-.573-.238-.872-.125-.577-.34-1.426-.635-2.501-.854-3.05-1.992-6.013-3.399-8.851-2.155-4.182-4.597-8.21-7.309-12.054-2.934-4.403-6.436-9.146-9.733-14.352-4.533-7.063-7.932-14.34-9.065-20.905-.352-6.463-.646-11.85-.861-15.721-.08-1.834-.193-3.271-.193-4.403v-1.132c-.011-.136-.011-.272 0-.408.011.091.011.182 0 .272z" fill="#263238"/><path d="m434.363 348.844c-.036-.126-.111-.237-.215-.317-.127-.093-.286-.132-.442-.111s-.298.101-.397.224c-8.77 10.979-1.801 27.742-1.801 27.742 5.122-16.072 3.682-24.731 2.855-27.538z" fill="#e8505b"/><path d="m432.754 357.684c-.147 2.263-.34 4.833-.532 7.719-.193 2.886-.374 5.455-.522 7.719.008 1.07-.087 2.139-.283 3.192-.2-1.059-.264-2.139-.193-3.215 0-1.98.102-4.719.318-7.741.215-3.022.487-5.75.736-7.72.065-1.074.252-2.137.555-3.169.082 1.072.055 2.149-.079 3.215z" fill="#263238"/><path d="m434.363 348.844c-.036-.126-.111-.237-.215-.317-.127-.093-.286-.132-.442-.111s-.298.101-.397.224c-8.77 10.979-1.801 27.742-1.801 27.742 5.122-16.072 3.682-24.731 2.855-27.538z" fill="#efc45c" opacity=".09"/><path d="m458.227 389.556c-.024-.122-.087-.234-.181-.317-.056-.055-.122-.1-.195-.13s-.151-.046-.23-.046-.157.016-.23.046-.139.075-.195.13c-9.632 10.187-4.045 27.493-4.045 27.493 6.357-15.62 5.631-24.324 5.076-27.176z" fill="#e8505b"/><path d="m455.825 398.249c-.306 2.263-.714 4.787-1.133 7.651s-.805 5.388-1.133 7.651c-.09 1.07-.272 2.13-.544 3.169-.114-1.073-.091-2.157.068-3.225.158-1.981.476-4.697.94-7.697.465-2.999.963-5.659 1.371-7.628.149-1.069.419-2.117.805-3.124-.023 1.077-.148 2.149-.374 3.203z" fill="#263238"/><path d="m458.227 389.556c-.024-.122-.087-.234-.181-.317-.056-.055-.122-.1-.195-.13s-.151-.046-.23-.046-.157.016-.23.046-.139.075-.195.13c-9.632 10.187-4.045 27.493-4.045 27.493 6.357-15.62 5.631-24.324 5.076-27.176z" fill="#efc45c" opacity=".09"/><path d="m410.307 331.131c-.097-.088-.221-.139-.351-.147-.079-.008-.158 0-.233.023s-.145.061-.205.112-.11.113-.145.183c-.036.07-.058.146-.063.225-1.507 13.967 13.348 24.38 13.348 24.38-4.351-16.333-10.198-22.762-12.351-24.776z" fill="#e8505b"/><path d="m410.307 331.131c-.097-.088-.221-.139-.351-.147-.079-.008-.158 0-.233.023s-.145.061-.205.112-.11.113-.145.183c-.036.07-.058.146-.063.225-1.507 13.967 13.348 24.38 13.348 24.38-4.351-16.333-10.198-22.762-12.351-24.776z" fill="#efc45c" opacity=".09"/><path d="m413.661 339.506 3.694 6.791 3.705 6.791c.58.905 1.076 1.859 1.485 2.853-.743-.781-1.379-1.657-1.893-2.604-1.133-1.675-2.458-4.04-3.897-6.711-1.44-2.672-2.675-5.116-3.525-6.916-.523-.938-.937-1.933-1.235-2.965.646.863 1.204 1.788 1.666 2.761z" fill="#263238"/><path d="m425.117 382.867c-.124-.045-.261-.045-.385 0-.074.028-.141.07-.198.123-.057.054-.103.119-.134.191-.032.071-.049.148-.05.227-.002.078.013.156.042.229 4.85 13.197 22.764 15.993 22.764 15.993-11.116-12.7-19.24-15.914-22.039-16.763z" fill="#e8505b"/><path d="m425.117 382.867c-.124-.045-.261-.045-.385 0-.074.028-.141.07-.198.123-.057.054-.103.119-.134.191-.032.071-.049.148-.05.227-.002.078.013.156.042.229 4.85 13.197 22.764 15.993 22.764 15.993-11.116-12.7-19.24-15.914-22.039-16.763z" fill="#efc45c" opacity=".09"/><path d="m431.791 388.854 6.312 4.528 6.334 4.459c.917.558 1.782 1.199 2.583 1.913-1.008-.386-1.967-.891-2.855-1.505-1.689-1.042-3.978-2.57-6.448-4.324s-4.657-3.395-6.209-4.652c-.873-.619-1.678-1.328-2.403-2.116.951.474 1.85 1.043 2.686 1.697z" fill="#263238"/><path d="m441.106 432.645-4.227 35.2h32.634l-5.235-35.2z" fill="#455a64"/><path d="m452.969 443.217c4.388-.114 8.779 0 13.156.339 0 .193-5.881.34-13.156.34-7.274 0-13.167-.147-13.167-.34 4.38-.339 8.775-.453 13.167-.339z" fill="#263238"/><path d="m452.754 445.967c7.513 0 13.598.158 13.598.34 0 .181-6.085.339-13.598.339s-13.598-.158-13.598-.339c0-.182 6.085-.34 13.598-.34z" fill="#263238"/></g></svg>