<svg width="32" height="32" viewBox="0 0 32 32" fill="none" xmlns="http://www.w3.org/2000/svg">
<path d="M20.9481 0H10.2055C7.49883 0 4.90303 1.07522 2.98912 2.98912C1.07522 4.90303 -1.90735e-06 7.49884 -1.90735e-06 10.2055V20.9481C-1.90735e-06 23.6548 1.07522 26.2506 2.98912 28.1645C4.90303 30.0784 7.49883 31.1537 10.2055 31.1537H20.9481C23.6548 31.1537 26.2506 30.0784 28.1645 28.1645C30.0784 26.2506 31.1536 23.6548 31.1536 20.9481V10.2055C31.1536 7.49884 30.0784 4.90303 28.1645 2.98912C26.2506 1.07522 23.6548 0 20.9481 0V0ZM15.6021 26.3763C13.4649 26.3763 11.3757 25.7426 9.59871 24.5552C7.8217 23.3679 6.43669 21.6802 5.61882 19.7057C4.80095 17.7312 4.58696 15.5585 5.00391 13.4624C5.42085 11.3663 6.45001 9.44085 7.96123 7.92962C9.47245 6.4184 11.3979 5.38925 13.494 4.9723C15.5901 4.55536 17.7628 4.76934 19.7373 5.58721C21.7118 6.40508 23.3995 7.79009 24.5868 9.56711C25.7742 11.3441 26.4079 13.4333 26.4079 15.5705C26.4088 16.9898 26.1298 18.3953 25.5871 19.7067C25.0443 21.0181 24.2484 22.2097 23.2448 23.2132C22.2413 24.2168 21.0497 25.0127 19.7383 25.5555C18.4269 26.0982 17.0214 26.3772 15.6021 26.3763Z" fill="#4A2EF4"/>
</svg>
